<svg xmlns="http://www.w3.org/2000/svg" xmlns:xlink="http://www.w3.org/1999/xlink" width="2000" zoomAndPan="magnify" viewBox="0 0 1500 1499.999933" height="2000" preserveAspectRatio="xMidYMid meet" version="1.0"><defs><clipPath id="eb102aa179"><path d="M 249.699219 249.699219 L 1250 249.699219 L 1250 1250 L 249.699219 1250 Z M 249.699219 249.699219 " clip-rule="nonzero"/></clipPath></defs><rect x="-150" width="1800" fill="#ffffff" y="-149.999993" height="1799.99992" fill-opacity="1"/><rect x="-150" width="1800" fill="#ffffff" y="-149.999993" height="1799.99992" fill-opacity="1"/><g clip-path="url(#eb102aa179)"><path fill="#75c9bc" d="M 1249.976562 749.761719 C 1249.976562 1026.03125 1026.03125 1249.976562 749.761719 1249.976562 C 473.492188 1249.976562 249.550781 1026.03125 249.550781 749.761719 C 249.539062 473.492188 473.492188 249.550781 749.761719 249.550781 C 1026.03125 249.539062 1249.976562 473.492188 1249.976562 749.761719 " fill-opacity="1" fill-rule="nonzero"/></g><path fill="#ffffff" d="M 1032.507812 707.953125 L 467.019531 707.953125 C 401.140625 707.953125 347.765625 761.328125 347.765625 827.207031 L 347.765625 883.460938 L 1151.761719 883.460938 L 1151.761719 827.207031 C 1151.761719 761.328125 1098.386719 707.953125 1032.507812 707.953125 " fill-opacity="1" fill-rule="nonzero"/><path stroke-linecap="round" transform="matrix(0.374299, 0, 0, -0.374299, -45.995207, 1545.522039)" fill="none" stroke-linejoin="round" d="M 2881.397942 2237.70291 L 1370.603127 2237.70291 C 1194.596809 2237.70291 1051.996731 2095.102832 1051.996731 1919.096514 L 1051.996731 1768.804965 L 3200.004338 1768.804965 L 3200.004338 1919.096514 C 3200.004338 2095.102832 3057.40426 2237.70291 2881.397942 2237.70291 Z M 2881.397942 2237.70291 " stroke="#040505" stroke-width="50" stroke-opacity="1" stroke-miterlimit="10"/><path fill="#ffffff" d="M 1098.273438 790.488281 C 1095.351562 766.570312 1074.992188 748.042969 1050.289062 748.042969 L 1038.308594 748.042969 L 1038.308594 790.488281 L 1098.273438 790.488281 " fill-opacity="1" fill-rule="nonzero"/><path stroke-linecap="round" transform="matrix(0.374299, 0, 0, -0.374299, -45.995207, 1545.522039)" fill="none" stroke-linejoin="round" d="M 3057.10161 2017.196685 C 3049.295341 2081.097467 2994.901927 2130.596309 2928.903472 2130.596309 L 2896.895682 2130.596309 L 2896.895682 2017.196685 Z M 3057.10161 2017.196685 " stroke="#040505" stroke-width="50" stroke-opacity="1" stroke-miterlimit="10"/><path fill="#ffffff" d="M 983.851562 707.953125 L 467.019531 707.953125 L 520.617188 535.515625 L 839.820312 535.515625 L 983.851562 707.953125 " fill-opacity="1" fill-rule="nonzero"/><path stroke-linecap="round" transform="matrix(0.374299, 0, 0, -0.374299, -45.995207, 1545.522039)" fill="none" stroke-linejoin="round" d="M 2751.404779 2237.70291 L 1370.603127 2237.70291 L 1513.798068 2698.398012 L 2366.60164 2698.398012 Z M 2751.404779 2237.70291 " stroke="#040505" stroke-width="50" stroke-opacity="1" stroke-miterlimit="10"/><path fill="#ffffff" d="M 906.855469 707.953125 L 528.816406 707.953125 L 570.023438 575.191406 L 800.96875 575.191406 L 906.855469 707.953125 " fill-opacity="1" fill-rule="nonzero"/><path stroke-linecap="round" transform="matrix(0.374299, 0, 0, -0.374299, -45.995207, 1545.522039)" fill="none" stroke-linejoin="round" d="M 2545.69707 2237.70291 L 1535.703627 2237.70291 L 1645.794979 2592.397646 L 2262.80331 2592.397646 Z M 2545.69707 2237.70291 " stroke="#040505" stroke-width="50" stroke-opacity="1" stroke-miterlimit="10"/><path stroke-linecap="round" transform="matrix(0.374299, 0, 0, -0.374299, -45.995207, 1545.522039)" fill="none" stroke-linejoin="round" d="M 2008.598633 2592.397646 L 2008.598633 2237.70291 " stroke="#040505" stroke-width="50" stroke-opacity="1" stroke-miterlimit="10"/><path stroke-linecap="round" transform="matrix(0.374299, 0, 0, -0.374299, -45.995207, 1545.522039)" fill="none" stroke-linejoin="round" d="M 2220.902014 2096.198632 L 2441.199515 2096.198632 " stroke="#040505" stroke-width="50" stroke-opacity="1" stroke-miterlimit="10"/><path stroke-linecap="round" transform="matrix(0.374299, 0, 0, -0.374299, -45.995207, 1545.522039)" fill="none" stroke-linejoin="round" d="M 1698.998667 2096.198632 L 1919.296169 2096.198632 " stroke="#040505" stroke-width="50" stroke-opacity="1" stroke-miterlimit="10"/><path stroke-linecap="round" transform="matrix(0.374299, 0, 0, -0.374299, -45.995207, 1545.522039)" fill="none" stroke-linejoin="round" d="M 2075.901612 2117.102317 L 2075.901612 1862.89764 " stroke="#040505" stroke-width="50" stroke-opacity="1" stroke-miterlimit="10"/><path fill="#ffffff" d="M 1025.320312 883.425781 C 1025.320312 927.929688 989.277344 964.011719 944.773438 964.011719 C 900.269531 964.011719 864.1875 927.929688 864.1875 883.425781 C 864.1875 838.957031 900.269531 802.875 944.773438 802.875 C 989.277344 802.875 1025.320312 838.957031 1025.320312 883.425781 " fill-opacity="1" fill-rule="nonzero"/><path stroke-linecap="round" transform="matrix(0.374299, 0, 0, -0.374299, -45.995207, 1545.522039)" fill="none" stroke-linejoin="round" d="M 2862.195356 1768.898891 C 2862.195356 1649.999396 2765.900645 1553.600324 2647.00115 1553.600324 C 2528.101656 1553.600324 2431.702584 1649.999396 2431.702584 1768.898891 C 2431.702584 1887.70446 2528.101656 1984.103532 2647.00115 1984.103532 C 2765.900645 1984.103532 2862.195356 1887.70446 2862.195356 1768.898891 Z M 2862.195356 1768.898891 " stroke="#040505" stroke-width="50" stroke-opacity="1" stroke-miterlimit="10"/><path fill="#ffffff" d="M 992.609375 883.425781 C 992.609375 909.886719 971.199219 931.296875 944.773438 931.296875 C 918.347656 931.296875 896.898438 909.886719 896.898438 883.425781 C 896.898438 857.039062 918.347656 835.589844 944.773438 835.589844 C 971.199219 835.589844 992.609375 857.039062 992.609375 883.425781 " fill-opacity="1" fill-rule="nonzero"/><path stroke-linecap="round" transform="matrix(0.374299, 0, 0, -0.374299, -45.995207, 1545.522039)" fill="none" stroke-linejoin="round" d="M 2774.802714 1768.898891 C 2774.802714 1698.20415 2717.601965 1641.003402 2647.00115 1641.003402 C 2576.400336 1641.003402 2519.095225 1698.20415 2519.095225 1768.898891 C 2519.095225 1839.395343 2576.400336 1896.700454 2647.00115 1896.700454 C 2717.601965 1896.700454 2774.802714 1839.395343 2774.802714 1768.898891 Z M 2774.802714 1768.898891 " stroke="#040505" stroke-width="50" stroke-opacity="1" stroke-miterlimit="10"/><path fill="#ffffff" d="M 635.339844 883.425781 C 635.339844 927.929688 599.257812 964.011719 554.753906 964.011719 C 510.289062 964.011719 474.203125 927.929688 474.203125 883.425781 C 474.203125 838.957031 510.289062 802.875 554.753906 802.875 C 599.257812 802.875 635.339844 838.957031 635.339844 883.425781 " fill-opacity="1" fill-rule="nonzero"/><path stroke-linecap="round" transform="matrix(0.374299, 0, 0, -0.374299, -45.995207, 1545.522039)" fill="none" stroke-linejoin="round" d="M 1820.298485 1768.898891 C 1820.298485 1649.999396 1723.899413 1553.600324 1604.999918 1553.600324 C 1486.204786 1553.600324 1389.795277 1649.999396 1389.795277 1768.898891 C 1389.795277 1887.70446 1486.204786 1984.103532 1604.999918 1984.103532 C 1723.899413 1984.103532 1820.298485 1887.70446 1820.298485 1768.898891 Z M 1820.298485 1768.898891 " stroke="#040505" stroke-width="50" stroke-opacity="1" stroke-miterlimit="10"/><path fill="#ffffff" d="M 602.625 883.425781 C 602.625 909.886719 581.214844 931.296875 554.753906 931.296875 C 528.367188 931.296875 506.917969 909.886719 506.917969 883.425781 C 506.917969 857.039062 528.367188 835.589844 554.753906 835.589844 C 581.21875 835.589844 602.625 857.039062 602.625 883.425781 " fill-opacity="1" fill-rule="nonzero"/><path stroke-linecap="round" transform="matrix(0.374299, 0, 0, -0.374299, -45.995207, 1545.522039)" fill="none" stroke-linejoin="round" d="M 1732.895407 1768.898891 C 1732.895407 1698.20415 1675.705095 1641.003402 1604.999918 1641.003402 C 1534.503466 1641.003402 1477.198355 1698.20415 1477.198355 1768.898891 C 1477.198355 1839.395343 1534.503466 1896.700454 1604.999918 1896.700454 C 1675.705095 1896.700454 1732.895407 1839.395343 1732.895407 1768.898891 Z M 1732.895407 1768.898891 " stroke="#040505" stroke-width="50" stroke-opacity="1" stroke-miterlimit="10"/></svg>