<svg xmlns="http://www.w3.org/2000/svg" xmlns:xlink="http://www.w3.org/1999/xlink" width="2000" zoomAndPan="magnify" viewBox="0 0 1500 1499.999933" height="2000" preserveAspectRatio="xMidYMid meet" version="1.0"><defs><clipPath id="e5582ed499"><path d="M 239.417969 1067 L 608 1067 L 608 1243.648438 L 239.417969 1243.648438 Z M 239.417969 1067 " clip-rule="nonzero"/></clipPath><clipPath id="4fde51b60e"><path d="M 914 256.648438 L 1239 256.648438 L 1239 711 L 914 711 Z M 914 256.648438 " clip-rule="nonzero"/></clipPath><clipPath id="de3e613b30"><path d="M 892 600 L 1260.917969 600 L 1260.917969 777 L 892 777 Z M 892 600 " clip-rule="nonzero"/></clipPath></defs><rect x="-150" width="1800" fill="#ffffff" y="-149.999993" height="1799.99992" fill-opacity="1"/><rect x="-150" width="1800" fill="#ffffff" y="-149.999993" height="1799.99992" fill-opacity="1"/><path fill="#000000" d="M 419.308594 1177.941406 L 419.007812 1177.941406 C 418.164062 1177.929688 417.328125 1177.851562 416.492188 1177.714844 C 415.660156 1177.574219 414.84375 1177.378906 414.039062 1177.117188 C 413.234375 1176.859375 412.457031 1176.542969 411.699219 1176.167969 C 410.941406 1175.796875 410.214844 1175.367188 409.523438 1174.886719 C 408.828125 1174.40625 408.175781 1173.875 407.558594 1173.296875 C 406.945312 1172.722656 406.375 1172.101562 405.851562 1171.4375 C 405.324219 1170.777344 404.851562 1170.082031 404.433594 1169.347656 C 404.011719 1168.617188 403.644531 1167.859375 403.335938 1167.074219 L 399.585938 1157.46875 C 374.695312 1094.207031 341.507812 1038.082031 300.96875 990.703125 C 297.789062 986.988281 294.78125 983.140625 291.953125 979.152344 C 289.121094 975.164062 286.476562 971.058594 284.019531 966.832031 C 281.558594 962.605469 279.296875 958.277344 277.234375 953.84375 C 275.167969 949.410156 273.304688 944.894531 271.652344 940.296875 C 269.996094 935.695312 268.550781 931.027344 267.316406 926.296875 C 266.085938 921.5625 265.070312 916.785156 264.269531 911.960938 C 263.472656 907.140625 262.894531 902.289062 262.535156 897.414062 C 262.175781 892.535156 262.039062 887.652344 262.121094 882.765625 C 262.183594 878.765625 262.394531 874.773438 262.753906 870.789062 C 263.113281 866.804688 263.617188 862.839844 264.273438 858.894531 C 264.925781 854.949219 265.722656 851.03125 266.667969 847.144531 C 267.609375 843.257812 268.695312 839.414062 269.925781 835.605469 C 271.15625 831.800781 272.523438 828.042969 274.03125 824.339844 C 275.539062 820.636719 277.183594 816.992188 278.960938 813.410156 C 280.738281 809.824219 282.648438 806.3125 284.6875 802.875 C 286.726562 799.433594 288.890625 796.070312 291.179688 792.792969 C 293.46875 789.511719 295.875 786.320312 298.398438 783.21875 C 300.925781 780.117188 303.5625 777.113281 306.3125 774.207031 C 309.058594 771.300781 311.910156 768.5 314.867188 765.804688 C 317.824219 763.109375 320.875 760.53125 324.023438 758.0625 C 327.171875 755.59375 330.40625 753.246094 333.726562 751.019531 C 337.050781 748.792969 340.449219 746.691406 343.929688 744.714844 C 347.40625 742.738281 350.953125 740.894531 354.566406 739.183594 C 358.183594 737.472656 361.855469 735.894531 365.589844 734.457031 C 369.320312 733.015625 373.101562 731.71875 376.929688 730.558594 C 380.757812 729.398438 384.621094 728.382812 388.527344 727.511719 C 392.429688 726.640625 396.359375 725.914062 400.320312 725.335938 C 404.277344 724.753906 408.25 724.320312 412.238281 724.035156 C 416.230469 723.75 420.222656 723.613281 424.222656 723.625 C 428.222656 723.636719 432.21875 723.796875 436.207031 724.101562 C 440.195312 724.410156 444.164062 724.867188 448.117188 725.46875 C 452.074219 726.070312 456 726.820312 459.898438 727.710938 C 463.796875 728.605469 467.65625 729.644531 471.480469 730.824219 C 475.300781 732.003906 479.074219 733.324219 482.796875 734.785156 C 486.519531 736.246094 490.183594 737.84375 493.789062 739.574219 C 497.394531 741.304688 500.933594 743.171875 504.398438 745.164062 C 507.867188 747.160156 511.253906 749.28125 514.5625 751.527344 C 517.875 753.773438 521.09375 756.140625 524.230469 758.625 C 527.363281 761.109375 530.398438 763.707031 533.339844 766.417969 C 536.28125 769.128906 539.117188 771.945312 541.851562 774.867188 C 543.554688 776.675781 545.214844 778.519531 546.835938 780.40625 C 548.453125 782.289062 550.027344 784.210938 551.558594 786.167969 C 553.089844 788.125 554.574219 790.117188 556.011719 792.144531 C 557.449219 794.167969 558.839844 796.226562 560.183594 798.316406 C 561.527344 800.40625 562.820312 802.527344 564.066406 804.675781 C 565.3125 806.824219 566.507812 809.003906 567.652344 811.207031 C 568.796875 813.414062 569.890625 815.640625 570.933594 817.898438 C 571.976562 820.152344 572.964844 822.429688 573.902344 824.730469 C 574.835938 827.03125 575.722656 829.355469 576.550781 831.695312 C 577.378906 834.039062 578.15625 836.398438 578.875 838.773438 C 579.597656 841.152344 580.261719 843.546875 580.875 845.953125 C 581.484375 848.363281 582.039062 850.78125 582.535156 853.214844 C 583.035156 855.648438 583.476562 858.09375 583.863281 860.546875 C 584.25 863.003906 584.578125 865.464844 584.851562 867.933594 C 585.121094 870.402344 585.335938 872.878906 585.496094 875.355469 C 585.652344 877.835938 585.753906 880.316406 585.796875 882.800781 C 585.839844 885.285156 585.828125 887.769531 585.753906 890.253906 C 585.683594 892.734375 585.554688 895.214844 585.371094 897.695312 C 585.183594 900.171875 584.941406 902.644531 584.640625 905.109375 C 584.339844 907.574219 583.984375 910.035156 583.570312 912.484375 C 583.15625 914.933594 582.6875 917.371094 582.164062 919.800781 C 581.636719 922.226562 581.054688 924.644531 580.417969 927.042969 C 579.78125 929.445312 579.085938 931.832031 578.339844 934.199219 C 577.59375 936.570312 576.792969 938.917969 575.933594 941.25 C 575.078125 943.585938 574.171875 945.894531 573.207031 948.1875 C 572.246094 950.476562 571.230469 952.742188 570.164062 954.984375 C 569.09375 957.230469 567.976562 959.445312 566.808594 961.640625 C 565.636719 963.832031 564.417969 965.996094 563.148438 968.128906 C 561.878906 970.265625 560.5625 972.371094 559.195312 974.445312 C 557.828125 976.519531 556.414062 978.5625 554.953125 980.570312 C 553.492188 982.582031 551.984375 984.554688 550.433594 986.496094 C 548.882812 988.433594 547.285156 990.339844 545.644531 992.203125 C 500.238281 1043.933594 464.542969 1099.394531 439.566406 1157.148438 L 435.023438 1167.609375 C 434.691406 1168.371094 434.308594 1169.105469 433.871094 1169.8125 C 433.433594 1170.519531 432.949219 1171.191406 432.414062 1171.828125 C 431.878906 1172.464844 431.300781 1173.058594 430.679688 1173.609375 C 430.058594 1174.160156 429.402344 1174.664062 428.707031 1175.121094 C 428.015625 1175.578125 427.289062 1175.980469 426.539062 1176.332031 C 425.785156 1176.683594 425.011719 1176.980469 424.214844 1177.21875 C 423.417969 1177.457031 422.609375 1177.636719 421.789062 1177.757812 C 420.964844 1177.878906 420.140625 1177.941406 419.308594 1177.941406 Z M 296.382812 883.40625 C 296.3125 887.257812 296.417969 891.105469 296.699219 894.949219 C 296.980469 898.792969 297.433594 902.613281 298.0625 906.414062 C 298.691406 910.21875 299.492188 913.980469 300.460938 917.710938 C 301.433594 921.4375 302.570312 925.117188 303.875 928.742188 C 305.179688 932.367188 306.648438 935.925781 308.277344 939.417969 C 309.90625 942.910156 311.6875 946.320312 313.625 949.648438 C 315.566406 952.980469 317.652344 956.214844 319.882812 959.355469 C 322.117188 962.496094 324.488281 965.527344 326.996094 968.453125 C 346.027344 990.925781 363.335938 1014.65625 378.921875 1039.644531 C 394.507812 1064.632812 408.207031 1090.617188 420.015625 1117.59375 C 433.3125 1090.851562 448.308594 1065.097656 465.011719 1040.335938 C 481.714844 1015.574219 499.972656 992.019531 519.789062 969.671875 C 521.476562 967.753906 523.101562 965.785156 524.671875 963.765625 C 526.238281 961.746094 527.742188 959.683594 529.1875 957.574219 C 530.628906 955.464844 532.007812 953.316406 533.324219 951.125 C 534.636719 948.933594 535.882812 946.703125 537.0625 944.4375 C 538.242188 942.167969 539.355469 939.871094 540.398438 937.535156 C 541.4375 935.203125 542.410156 932.839844 543.308594 930.449219 C 544.210938 928.058594 545.035156 925.640625 545.792969 923.199219 C 546.546875 920.757812 547.226562 918.296875 547.832031 915.8125 C 548.441406 913.332031 548.972656 910.832031 549.429688 908.320312 C 549.882812 905.804688 550.265625 903.277344 550.570312 900.742188 C 550.875 898.203125 551.101562 895.660156 551.253906 893.109375 C 551.40625 890.558594 551.480469 888.003906 551.480469 885.449219 C 551.480469 882.894531 551.398438 880.339844 551.246094 877.789062 C 551.089844 875.238281 550.859375 872.695312 550.550781 870.160156 C 550.242188 867.621094 549.859375 865.097656 549.398438 862.582031 C 548.941406 860.070312 548.40625 857.574219 547.792969 855.089844 C 547.183594 852.609375 546.5 850.148438 545.742188 847.707031 C 544.984375 845.265625 544.15625 842.851562 543.253906 840.460938 C 542.347656 838.070312 541.375 835.710938 540.332031 833.378906 C 539.285156 831.046875 538.171875 828.746094 536.988281 826.480469 C 535.804688 824.214844 534.554688 821.988281 533.238281 819.800781 C 531.921875 817.609375 530.539062 815.460938 529.09375 813.355469 C 527.648438 811.246094 526.140625 809.183594 524.570312 807.167969 C 523 805.152344 521.371094 803.183594 519.683594 801.265625 C 517.996094 799.347656 516.25 797.480469 514.453125 795.667969 C 512.652344 793.855469 510.796875 792.097656 508.890625 790.394531 C 506.984375 788.691406 505.03125 787.050781 503.027344 785.464844 C 501.019531 783.878906 498.96875 782.355469 496.875 780.894531 C 494.777344 779.433594 492.640625 778.035156 490.460938 776.703125 C 488.277344 775.371094 486.0625 774.105469 483.804688 772.90625 C 481.546875 771.703125 479.257812 770.574219 476.933594 769.511719 C 474.609375 768.449219 472.253906 767.457031 469.871094 766.539062 C 467.488281 765.617188 465.078125 764.769531 462.644531 763.996094 C 460.207031 763.21875 457.75 762.515625 455.273438 761.886719 C 452.796875 761.261719 450.304688 760.707031 447.792969 760.230469 C 445.285156 759.75 442.761719 759.347656 440.226562 759.023438 C 437.691406 758.695312 435.148438 758.445312 432.601562 758.269531 C 430.050781 758.097656 427.5 758 424.941406 757.980469 C 422.386719 757.960938 419.835938 758.015625 417.28125 758.148438 C 414.730469 758.28125 412.183594 758.492188 409.644531 758.777344 C 407.105469 759.0625 404.578125 759.425781 402.058594 759.863281 C 399.542969 760.300781 397.039062 760.8125 394.550781 761.402344 C 392.066406 761.992188 389.597656 762.652344 387.152344 763.390625 C 384.703125 764.125 382.28125 764.9375 379.882812 765.816406 C 377.484375 766.699219 375.117188 767.652344 372.773438 768.679688 C 370.433594 769.703125 368.125 770.796875 365.851562 771.960938 C 363.574219 773.125 361.335938 774.355469 359.136719 775.652344 C 356.933594 776.949219 354.773438 778.3125 352.65625 779.742188 C 350.535156 781.167969 348.460938 782.660156 346.429688 784.210938 C 344.402344 785.761719 342.417969 787.375 340.484375 789.046875 C 338.554688 790.71875 336.671875 792.445312 334.84375 794.230469 C 333.015625 796.015625 331.238281 797.851562 329.519531 799.742188 C 327.800781 801.636719 326.140625 803.578125 324.539062 805.566406 C 322.9375 807.558594 321.398438 809.59375 319.917969 811.679688 C 318.4375 813.761719 317.023438 815.886719 315.671875 818.058594 C 314.320312 820.226562 313.035156 822.433594 311.816406 824.679688 C 310.59375 826.925781 309.445312 829.203125 308.363281 831.519531 C 307.28125 833.835938 306.269531 836.179688 305.328125 838.554688 C 304.386719 840.933594 303.519531 843.335938 302.722656 845.761719 C 301.925781 848.191406 301.203125 850.640625 300.550781 853.109375 C 299.902344 855.582031 299.328125 858.070312 298.828125 860.578125 C 298.328125 863.082031 297.902344 865.601562 297.554688 868.132812 C 297.207031 870.664062 296.933594 873.207031 296.738281 875.753906 C 296.542969 878.300781 296.421875 880.851562 296.382812 883.40625 Z M 296.382812 883.40625 " fill-opacity="1" fill-rule="nonzero"/><path fill="#000000" d="M 423.917969 967.957031 C 422.515625 967.957031 421.113281 967.925781 419.710938 967.855469 C 418.308594 967.785156 416.910156 967.683594 415.511719 967.546875 C 414.117188 967.40625 412.722656 967.234375 411.335938 967.03125 C 409.945312 966.824219 408.566406 966.585938 407.1875 966.3125 C 405.8125 966.035156 404.441406 965.730469 403.082031 965.386719 C 401.71875 965.046875 400.367188 964.671875 399.023438 964.265625 C 397.683594 963.859375 396.351562 963.417969 395.027344 962.945312 C 393.707031 962.472656 392.398438 961.96875 391.101562 961.429688 C 389.804688 960.894531 388.523438 960.324219 387.253906 959.726562 C 385.984375 959.125 384.730469 958.496094 383.492188 957.832031 C 382.257812 957.171875 381.035156 956.480469 379.832031 955.757812 C 378.628906 955.035156 377.441406 954.285156 376.277344 953.507812 C 375.109375 952.726562 373.960938 951.917969 372.835938 951.082031 C 371.707031 950.246094 370.601562 949.382812 369.515625 948.492188 C 368.433594 947.601562 367.371094 946.6875 366.328125 945.746094 C 365.289062 944.800781 364.273438 943.835938 363.28125 942.84375 C 362.289062 941.851562 361.320312 940.832031 360.378906 939.792969 C 359.4375 938.753906 358.519531 937.691406 357.628906 936.605469 C 356.738281 935.523438 355.875 934.417969 355.039062 933.289062 C 354.203125 932.160156 353.394531 931.015625 352.617188 929.847656 C 351.835938 928.679688 351.085938 927.496094 350.363281 926.292969 C 349.644531 925.089844 348.953125 923.867188 348.289062 922.628906 C 347.628906 921.390625 346.996094 920.140625 346.398438 918.871094 C 345.796875 917.601562 345.230469 916.320312 344.691406 915.023438 C 344.15625 913.726562 343.648438 912.417969 343.175781 911.097656 C 342.703125 909.773438 342.265625 908.441406 341.855469 907.097656 C 341.449219 905.757812 341.074219 904.402344 340.734375 903.042969 C 340.394531 901.679688 340.085938 900.3125 339.8125 898.9375 C 339.539062 897.558594 339.296875 896.175781 339.09375 894.789062 C 338.886719 893.402344 338.714844 892.007812 338.578125 890.613281 C 338.441406 889.214844 338.335938 887.816406 338.269531 886.414062 C 338.199219 885.011719 338.164062 883.609375 338.164062 882.207031 C 338.164062 880.804688 338.199219 879.402344 338.269531 878 C 338.335938 876.597656 338.441406 875.199219 338.578125 873.800781 C 338.714844 872.40625 338.886719 871.011719 339.09375 869.625 C 339.296875 868.238281 339.539062 866.855469 339.8125 865.476562 C 340.085938 864.101562 340.394531 862.730469 340.734375 861.371094 C 341.074219 860.007812 341.449219 858.65625 341.855469 857.316406 C 342.265625 855.972656 342.703125 854.640625 343.175781 853.316406 C 343.648438 851.996094 344.15625 850.6875 344.691406 849.390625 C 345.230469 848.09375 345.796875 846.8125 346.398438 845.542969 C 346.996094 844.273438 347.628906 843.023438 348.289062 841.785156 C 348.953125 840.546875 349.644531 839.324219 350.363281 838.121094 C 351.085938 836.917969 351.835938 835.734375 352.617188 834.566406 C 353.394531 833.398438 354.203125 832.253906 355.039062 831.125 C 355.875 829.996094 356.738281 828.890625 357.628906 827.808594 C 358.519531 826.722656 359.4375 825.660156 360.378906 824.621094 C 361.320312 823.578125 362.289062 822.5625 363.28125 821.570312 C 364.273438 820.578125 365.289062 819.613281 366.328125 818.667969 C 367.371094 817.726562 368.433594 816.808594 369.515625 815.921875 C 370.601562 815.03125 371.707031 814.167969 372.835938 813.332031 C 373.960938 812.496094 375.109375 811.6875 376.277344 810.90625 C 377.441406 810.128906 378.628906 809.375 379.832031 808.65625 C 381.035156 807.933594 382.257812 807.242188 383.492188 806.582031 C 384.730469 805.917969 385.984375 805.289062 387.253906 804.6875 C 388.523438 804.089844 389.804688 803.519531 391.101562 802.984375 C 392.398438 802.445312 393.707031 801.941406 395.027344 801.46875 C 396.351562 800.996094 397.683594 800.554688 399.023438 800.148438 C 400.367188 799.742188 401.71875 799.367188 403.082031 799.023438 C 404.441406 798.683594 405.8125 798.375 407.1875 798.101562 C 408.566406 797.828125 409.945312 797.589844 411.335938 797.382812 C 412.722656 797.175781 414.117188 797.007812 415.511719 796.867188 C 416.910156 796.730469 418.308594 796.628906 419.710938 796.558594 C 421.113281 796.488281 422.515625 796.457031 423.917969 796.457031 C 425.320312 796.457031 426.722656 796.488281 428.125 796.558594 C 429.527344 796.628906 430.925781 796.730469 432.324219 796.867188 C 433.71875 797.007812 435.113281 797.175781 436.5 797.382812 C 437.890625 797.589844 439.269531 797.828125 440.648438 798.101562 C 442.023438 798.375 443.394531 798.683594 444.753906 799.023438 C 446.117188 799.367188 447.46875 799.742188 448.8125 800.148438 C 450.152344 800.554688 451.484375 800.996094 452.808594 801.46875 C 454.128906 801.941406 455.4375 802.445312 456.734375 802.984375 C 458.03125 803.519531 459.3125 804.089844 460.582031 804.6875 C 461.851562 805.289062 463.105469 805.917969 464.34375 806.582031 C 465.578125 807.242188 466.800781 807.933594 468.003906 808.65625 C 469.207031 809.375 470.394531 810.128906 471.558594 810.90625 C 472.726562 811.6875 473.875 812.496094 475 813.332031 C 476.128906 814.167969 477.234375 815.03125 478.320312 815.921875 C 479.40625 816.808594 480.464844 817.726562 481.507812 818.667969 C 482.546875 819.613281 483.5625 820.578125 484.554688 821.570312 C 485.546875 822.5625 486.515625 823.578125 487.457031 824.621094 C 488.398438 825.660156 489.316406 826.722656 490.207031 827.808594 C 491.097656 828.890625 491.960938 829.996094 492.796875 831.125 C 493.632812 832.253906 494.441406 833.398438 495.21875 834.566406 C 496 835.734375 496.75 836.917969 497.472656 838.121094 C 498.191406 839.324219 498.882812 840.546875 499.546875 841.785156 C 500.207031 843.023438 500.839844 844.273438 501.4375 845.542969 C 502.039062 846.8125 502.605469 848.09375 503.144531 849.390625 C 503.679688 850.6875 504.1875 851.996094 504.660156 853.316406 C 505.132812 854.640625 505.570312 855.972656 505.980469 857.316406 C 506.386719 858.65625 506.761719 860.007812 507.101562 861.371094 C 507.441406 862.730469 507.75 864.101562 508.023438 865.476562 C 508.296875 866.855469 508.539062 868.234375 508.742188 869.625 C 508.949219 871.011719 509.121094 872.40625 509.257812 873.800781 C 509.394531 875.199219 509.5 876.597656 509.566406 878 C 509.636719 879.402344 509.671875 880.804688 509.671875 882.207031 C 509.671875 883.609375 509.636719 885.011719 509.566406 886.414062 C 509.5 887.816406 509.394531 889.214844 509.257812 890.613281 C 509.121094 892.007812 508.949219 893.402344 508.742188 894.789062 C 508.539062 896.175781 508.296875 897.558594 508.023438 898.9375 C 507.75 900.3125 507.441406 901.679688 507.101562 903.042969 C 506.761719 904.402344 506.386719 905.757812 505.980469 907.097656 C 505.570312 908.441406 505.132812 909.773438 504.660156 911.097656 C 504.1875 912.417969 503.679688 913.726562 503.144531 915.023438 C 502.605469 916.320312 502.039062 917.601562 501.4375 918.871094 C 500.839844 920.140625 500.207031 921.390625 499.546875 922.628906 C 498.882812 923.867188 498.191406 925.089844 497.472656 926.292969 C 496.75 927.496094 496 928.679688 495.21875 929.847656 C 494.441406 931.015625 493.632812 932.160156 492.796875 933.289062 C 491.960938 934.417969 491.097656 935.523438 490.207031 936.605469 C 489.316406 937.691406 488.398438 938.753906 487.457031 939.792969 C 486.515625 940.835938 485.546875 941.851562 484.554688 942.84375 C 483.5625 943.835938 482.546875 944.800781 481.507812 945.746094 C 480.464844 946.6875 479.40625 947.601562 478.320312 948.492188 C 477.234375 949.382812 476.128906 950.246094 475 951.082031 C 473.875 951.917969 472.726562 952.726562 471.558594 953.507812 C 470.394531 954.285156 469.207031 955.035156 468.003906 955.757812 C 466.800781 956.480469 465.578125 957.171875 464.34375 957.832031 C 463.105469 958.496094 461.851562 959.125 460.582031 959.726562 C 459.3125 960.324219 458.03125 960.894531 456.734375 961.429688 C 455.4375 961.96875 454.128906 962.472656 452.808594 962.945312 C 451.484375 963.417969 450.152344 963.859375 448.8125 964.265625 C 447.46875 964.671875 446.117188 965.046875 444.753906 965.386719 C 443.394531 965.730469 442.023438 966.035156 440.648438 966.3125 C 439.269531 966.585938 437.890625 966.824219 436.5 967.03125 C 435.113281 967.234375 433.71875 967.40625 432.324219 967.546875 C 430.925781 967.683594 429.527344 967.785156 428.125 967.855469 C 426.722656 967.925781 425.320312 967.957031 423.917969 967.957031 Z M 423.917969 830.757812 C 422.234375 830.757812 420.550781 830.839844 418.875 831.003906 C 417.199219 831.167969 415.53125 831.414062 413.878906 831.746094 C 412.226562 832.074219 410.59375 832.480469 408.980469 832.972656 C 407.371094 833.460938 405.785156 834.027344 404.226562 834.671875 C 402.671875 835.316406 401.148438 836.035156 399.664062 836.832031 C 398.175781 837.625 396.734375 838.492188 395.332031 839.425781 C 393.929688 840.363281 392.578125 841.367188 391.277344 842.433594 C 389.972656 843.503906 388.726562 844.632812 387.535156 845.824219 C 386.34375 847.015625 385.214844 848.265625 384.144531 849.566406 C 383.074219 850.871094 382.074219 852.222656 381.136719 853.621094 C 380.199219 855.023438 379.335938 856.46875 378.542969 857.953125 C 377.746094 859.4375 377.027344 860.960938 376.382812 862.515625 C 375.738281 864.074219 375.171875 865.660156 374.679688 867.273438 C 374.191406 868.882812 373.785156 870.515625 373.453125 872.167969 C 373.125 873.820312 372.878906 875.488281 372.714844 877.164062 C 372.546875 878.839844 372.464844 880.523438 372.464844 882.207031 C 372.464844 883.890625 372.546875 885.574219 372.714844 887.25 C 372.878906 888.925781 373.125 890.589844 373.453125 892.246094 C 373.785156 893.898438 374.191406 895.53125 374.679688 897.140625 C 375.171875 898.753906 375.738281 900.339844 376.382812 901.894531 C 377.027344 903.453125 377.746094 904.972656 378.542969 906.460938 C 379.335938 907.945312 380.199219 909.390625 381.136719 910.792969 C 382.074219 912.191406 383.074219 913.542969 384.144531 914.847656 C 385.214844 916.148438 386.34375 917.398438 387.535156 918.589844 C 388.726562 919.78125 389.972656 920.910156 391.277344 921.980469 C 392.578125 923.046875 393.929688 924.050781 395.332031 924.988281 C 396.734375 925.921875 398.175781 926.789062 399.664062 927.582031 C 401.148438 928.375 402.671875 929.097656 404.226562 929.742188 C 405.785156 930.386719 407.371094 930.953125 408.980469 931.441406 C 410.59375 931.929688 412.226562 932.339844 413.878906 932.667969 C 415.53125 932.996094 417.199219 933.246094 418.875 933.410156 C 420.550781 933.574219 422.234375 933.65625 423.917969 933.65625 C 425.601562 933.65625 427.285156 933.574219 428.960938 933.410156 C 430.636719 933.246094 432.304688 932.996094 433.957031 932.667969 C 435.609375 932.339844 437.242188 931.929688 438.855469 931.441406 C 440.464844 930.953125 442.050781 930.386719 443.609375 929.742188 C 445.164062 929.097656 446.6875 928.375 448.171875 927.582031 C 449.660156 926.789062 451.101562 925.921875 452.503906 924.988281 C 453.90625 924.050781 455.257812 923.046875 456.558594 921.980469 C 457.863281 920.910156 459.109375 919.78125 460.300781 918.589844 C 461.492188 917.398438 462.621094 916.148438 463.691406 914.847656 C 464.761719 913.542969 465.761719 912.191406 466.699219 910.792969 C 467.636719 909.390625 468.5 907.945312 469.292969 906.460938 C 470.089844 904.976562 470.808594 903.453125 471.453125 901.894531 C 472.097656 900.339844 472.664062 898.753906 473.15625 897.140625 C 473.644531 895.53125 474.054688 893.898438 474.382812 892.246094 C 474.710938 890.589844 474.957031 888.925781 475.121094 887.25 C 475.289062 885.574219 475.371094 883.890625 475.371094 882.207031 C 475.367188 880.523438 475.285156 878.84375 475.117188 877.167969 C 474.953125 875.492188 474.703125 873.828125 474.375 872.175781 C 474.042969 870.523438 473.632812 868.890625 473.144531 867.28125 C 472.65625 865.667969 472.085938 864.085938 471.441406 862.53125 C 470.796875 860.976562 470.074219 859.453125 469.28125 857.96875 C 468.484375 856.484375 467.621094 855.042969 466.683594 853.644531 C 465.746094 852.242188 464.746094 850.890625 463.675781 849.589844 C 462.605469 848.289062 461.476562 847.042969 460.285156 845.851562 C 459.09375 844.664062 457.847656 843.535156 456.542969 842.464844 C 455.242188 841.398438 453.890625 840.394531 452.488281 839.460938 C 451.089844 838.527344 449.644531 837.660156 448.160156 836.867188 C 446.675781 836.074219 445.152344 835.355469 443.597656 834.710938 C 442.042969 834.066406 440.457031 833.5 438.847656 833.011719 C 437.234375 832.523438 435.601562 832.113281 433.949219 831.785156 C 432.296875 831.457031 430.632812 831.210938 428.957031 831.046875 C 427.28125 830.882812 425.601562 830.800781 423.917969 830.800781 Z M 423.917969 830.757812 " fill-opacity="1" fill-rule="nonzero"/><g clip-path="url(#e5582ed499)"><path fill="#000000" d="M 423.917969 1243.628906 C 319.019531 1243.628906 239.933594 1205.402344 239.933594 1154.703125 C 239.933594 1111.550781 297.582031 1076.625 383.378906 1067.835938 C 383.945312 1067.761719 384.515625 1067.714844 385.085938 1067.699219 C 385.660156 1067.679688 386.230469 1067.691406 386.800781 1067.730469 C 387.371094 1067.769531 387.9375 1067.839844 388.503906 1067.933594 C 389.066406 1068.03125 389.625 1068.15625 390.175781 1068.304688 C 390.726562 1068.457031 391.269531 1068.636719 391.804688 1068.84375 C 392.335938 1069.050781 392.859375 1069.28125 393.371094 1069.542969 C 393.878906 1069.800781 394.375 1070.082031 394.859375 1070.390625 C 395.339844 1070.699219 395.804688 1071.03125 396.253906 1071.386719 C 396.703125 1071.738281 397.132812 1072.117188 397.542969 1072.515625 C 397.957031 1072.910156 398.34375 1073.328125 398.714844 1073.765625 C 399.085938 1074.203125 399.429688 1074.65625 399.753906 1075.128906 C 400.078125 1075.601562 400.378906 1076.085938 400.652344 1076.585938 C 400.929688 1077.089844 401.179688 1077.601562 401.402344 1078.128906 C 401.625 1078.65625 401.824219 1079.191406 401.992188 1079.738281 C 402.164062 1080.285156 402.304688 1080.839844 402.421875 1081.398438 C 402.535156 1081.957031 402.621094 1082.523438 402.679688 1083.09375 C 402.738281 1083.660156 402.769531 1084.230469 402.769531 1084.804688 C 402.769531 1085.375 402.742188 1085.945312 402.6875 1086.515625 C 402.632812 1087.085938 402.546875 1087.652344 402.4375 1088.210938 C 402.324219 1088.773438 402.183594 1089.328125 402.015625 1089.875 C 401.847656 1090.421875 401.652344 1090.957031 401.429688 1091.484375 C 401.210938 1092.011719 400.960938 1092.527344 400.6875 1093.03125 C 400.414062 1093.53125 400.117188 1094.019531 399.796875 1094.492188 C 399.472656 1094.964844 399.128906 1095.421875 398.761719 1095.859375 C 398.394531 1096.296875 398.003906 1096.71875 397.597656 1097.117188 C 397.1875 1097.515625 396.757812 1097.894531 396.3125 1098.25 C 395.863281 1098.609375 395.398438 1098.941406 394.917969 1099.25 C 394.4375 1099.5625 393.941406 1099.847656 393.433594 1100.109375 C 392.925781 1100.367188 392.402344 1100.601562 391.871094 1100.8125 C 391.339844 1101.019531 390.796875 1101.199219 390.246094 1101.355469 C 389.695312 1101.507812 389.136719 1101.636719 388.574219 1101.734375 C 388.011719 1101.832031 387.441406 1101.902344 386.871094 1101.945312 C 317.304688 1109.082031 274.234375 1134.894531 274.234375 1154.703125 C 274.234375 1176.976562 332.546875 1209.328125 423.917969 1209.328125 C 515.289062 1209.328125 573.601562 1176.976562 573.601562 1154.703125 C 573.601562 1134.082031 528.582031 1107.863281 455.925781 1101.496094 C 455.367188 1101.445312 454.8125 1101.367188 454.257812 1101.261719 C 453.707031 1101.160156 453.164062 1101.027344 452.625 1100.871094 C 452.085938 1100.710938 451.554688 1100.527344 451.035156 1100.320312 C 450.515625 1100.109375 450.007812 1099.875 449.507812 1099.613281 C 449.011719 1099.355469 448.527344 1099.070312 448.058594 1098.761719 C 447.589844 1098.457031 447.132812 1098.125 446.695312 1097.773438 C 446.257812 1097.421875 445.839844 1097.050781 445.441406 1096.65625 C 445.039062 1096.265625 444.660156 1095.851562 444.296875 1095.421875 C 443.9375 1094.992188 443.597656 1094.546875 443.28125 1094.082031 C 442.964844 1093.617188 442.671875 1093.140625 442.402344 1092.648438 C 442.132812 1092.15625 441.890625 1091.652344 441.667969 1091.136719 C 441.449219 1090.617188 441.253906 1090.09375 441.085938 1089.558594 C 440.917969 1089.023438 440.777344 1088.480469 440.660156 1087.929688 C 440.546875 1087.382812 440.457031 1086.828125 440.398438 1086.269531 C 440.335938 1085.710938 440.304688 1085.152344 440.296875 1084.589844 C 440.292969 1084.03125 440.3125 1083.46875 440.363281 1082.910156 C 440.410156 1082.351562 440.488281 1081.796875 440.589844 1081.242188 C 440.695312 1080.691406 440.824219 1080.148438 440.980469 1079.609375 C 441.140625 1079.070312 441.324219 1078.539062 441.53125 1078.019531 C 441.742188 1077.496094 441.976562 1076.988281 442.234375 1076.492188 C 442.492188 1075.992188 442.777344 1075.507812 443.082031 1075.039062 C 443.390625 1074.570312 443.71875 1074.113281 444.070312 1073.675781 C 444.421875 1073.238281 444.792969 1072.820312 445.1875 1072.417969 C 445.578125 1072.015625 445.988281 1071.636719 446.417969 1071.273438 C 446.847656 1070.914062 447.296875 1070.574219 447.757812 1070.257812 C 448.222656 1069.941406 448.699219 1069.648438 449.191406 1069.378906 C 449.683594 1069.105469 450.1875 1068.863281 450.703125 1068.640625 C 451.21875 1068.421875 451.746094 1068.226562 452.28125 1068.054688 C 452.816406 1067.886719 453.359375 1067.746094 453.90625 1067.628906 C 454.457031 1067.511719 455.007812 1067.425781 455.566406 1067.363281 C 456.125 1067.300781 456.683594 1067.265625 457.246094 1067.261719 C 457.808594 1067.253906 458.367188 1067.273438 458.925781 1067.324219 C 548.023438 1075.125 607.902344 1110.199219 607.902344 1154.703125 C 607.902344 1205.402344 528.792969 1243.628906 423.917969 1243.628906 Z M 423.917969 1243.628906 " fill-opacity="1" fill-rule="nonzero"/></g><g clip-path="url(#4fde51b60e)"><path fill="#000000" d="M 1071.742188 710.917969 L 1071.441406 710.917969 C 1070.597656 710.902344 1069.761719 710.828125 1068.929688 710.691406 C 1068.09375 710.550781 1067.277344 710.355469 1066.472656 710.09375 C 1065.671875 709.835938 1064.890625 709.519531 1064.132812 709.144531 C 1063.375 708.773438 1062.652344 708.34375 1061.957031 707.863281 C 1061.265625 707.382812 1060.609375 706.851562 1059.992188 706.273438 C 1059.378906 705.695312 1058.808594 705.078125 1058.285156 704.414062 C 1057.761719 703.753906 1057.289062 703.058594 1056.867188 702.324219 C 1056.445312 701.59375 1056.082031 700.835938 1055.773438 700.050781 L 1052.019531 690.507812 C 1027.128906 627.246094 993.945312 571.121094 953.402344 523.742188 C 951.734375 521.792969 950.113281 519.800781 948.535156 517.773438 C 946.960938 515.746094 945.433594 513.679688 943.957031 511.578125 C 942.480469 509.476562 941.054688 507.339844 939.679688 505.171875 C 938.304688 503.003906 936.984375 500.800781 935.710938 498.570312 C 934.441406 496.335938 933.226562 494.074219 932.0625 491.785156 C 930.902344 489.496094 929.792969 487.179688 928.742188 484.835938 C 927.6875 482.492188 926.691406 480.125 925.753906 477.734375 C 924.8125 475.34375 923.929688 472.933594 923.105469 470.5 C 922.28125 468.070312 921.515625 465.617188 920.804688 463.148438 C 920.097656 460.679688 919.449219 458.195312 918.859375 455.695312 C 918.269531 453.195312 917.738281 450.683594 917.269531 448.160156 C 916.796875 445.632812 916.386719 443.097656 916.039062 440.554688 C 915.6875 438.011719 915.398438 435.460938 915.171875 432.902344 C 914.945312 430.34375 914.777344 427.78125 914.671875 425.214844 C 914.5625 422.648438 914.519531 420.082031 914.535156 417.511719 C 914.550781 414.945312 914.628906 412.378906 914.765625 409.8125 C 914.90625 407.246094 915.105469 404.6875 915.363281 402.132812 C 915.625 399.578125 915.945312 397.03125 916.324219 394.488281 C 916.707031 391.949219 917.148438 389.421875 917.652344 386.902344 C 918.152344 384.382812 918.714844 381.875 919.335938 379.382812 C 919.957031 376.890625 920.636719 374.417969 921.375 371.957031 C 922.113281 369.496094 922.910156 367.054688 923.765625 364.632812 C 924.621094 362.210938 925.53125 359.8125 926.503906 357.433594 C 927.472656 355.054688 928.496094 352.699219 929.578125 350.371094 C 930.660156 348.042969 931.796875 345.738281 932.988281 343.464844 C 934.179688 341.1875 935.421875 338.941406 936.722656 336.726562 C 938.019531 334.507812 939.371094 332.324219 940.769531 330.171875 C 942.171875 328.019531 943.625 325.902344 945.128906 323.820312 C 946.632812 321.738281 948.183594 319.691406 949.78125 317.683594 C 951.382812 315.671875 953.03125 313.703125 954.722656 311.773438 C 956.417969 309.84375 958.15625 307.953125 959.941406 306.105469 C 961.726562 304.257812 963.550781 302.453125 965.421875 300.691406 C 967.292969 298.929688 969.203125 297.214844 971.152344 295.546875 C 973.105469 293.875 975.09375 292.253906 977.125 290.679688 C 979.152344 289.101562 981.21875 287.578125 983.320312 286.101562 C 985.421875 284.621094 987.554688 283.195312 989.726562 281.820312 C 991.894531 280.445312 994.09375 279.125 996.328125 277.851562 C 998.558594 276.582031 1000.820312 275.367188 1003.109375 274.203125 C 1005.402344 273.039062 1007.71875 271.933594 1010.0625 270.878906 C 1012.402344 269.828125 1014.769531 268.832031 1017.160156 267.890625 C 1019.550781 266.953125 1021.960938 266.070312 1024.394531 265.242188 C 1026.828125 264.417969 1029.277344 263.652344 1031.746094 262.945312 C 1034.214844 262.234375 1036.699219 261.585938 1039.199219 260.996094 C 1041.699219 260.40625 1044.210938 259.875 1046.738281 259.40625 C 1049.261719 258.933594 1051.796875 258.523438 1054.339844 258.171875 C 1056.886719 257.824219 1059.4375 257.535156 1061.996094 257.304688 C 1064.554688 257.078125 1067.117188 256.910156 1069.683594 256.804688 C 1072.25 256.699219 1074.816406 256.652344 1077.382812 256.667969 C 1079.953125 256.683594 1082.519531 256.761719 1085.085938 256.898438 C 1087.648438 257.035156 1090.210938 257.234375 1092.765625 257.496094 C 1095.320312 257.753906 1097.867188 258.074219 1100.40625 258.457031 C 1102.949219 258.835938 1105.476562 259.277344 1107.996094 259.78125 C 1110.515625 260.28125 1113.019531 260.84375 1115.511719 261.464844 C 1118.003906 262.085938 1120.480469 262.765625 1122.941406 263.503906 C 1125.402344 264.242188 1127.84375 265.039062 1130.265625 265.894531 C 1132.6875 266.746094 1135.085938 267.660156 1137.464844 268.628906 C 1139.84375 269.597656 1142.199219 270.625 1144.527344 271.703125 C 1146.859375 272.785156 1149.160156 273.921875 1151.4375 275.113281 C 1153.710938 276.304688 1155.960938 277.546875 1158.175781 278.84375 C 1160.390625 280.144531 1162.578125 281.492188 1164.730469 282.894531 C 1166.878906 284.296875 1169 285.75 1171.082031 287.25 C 1173.164062 288.753906 1175.210938 290.304688 1177.21875 291.90625 C 1179.230469 293.503906 1181.199219 295.152344 1183.128906 296.847656 C 1185.0625 298.539062 1186.949219 300.277344 1188.796875 302.0625 C 1190.648438 303.84375 1192.453125 305.671875 1194.210938 307.542969 C 1195.972656 309.410156 1197.6875 311.320312 1199.359375 313.273438 C 1201.03125 315.222656 1202.652344 317.214844 1204.226562 319.242188 C 1205.804688 321.273438 1207.328125 323.335938 1208.808594 325.4375 C 1210.285156 327.539062 1211.710938 329.675781 1213.085938 331.84375 C 1214.460938 334.011719 1215.785156 336.210938 1217.054688 338.445312 C 1218.324219 340.675781 1219.542969 342.9375 1220.707031 345.226562 C 1221.867188 347.519531 1222.976562 349.835938 1224.03125 352.175781 C 1225.082031 354.519531 1226.078125 356.886719 1227.019531 359.277344 C 1227.960938 361.667969 1228.84375 364.078125 1229.667969 366.511719 C 1230.492188 368.941406 1231.257812 371.394531 1231.96875 373.863281 C 1232.675781 376.332031 1233.328125 378.816406 1233.917969 381.3125 C 1234.507812 383.8125 1235.039062 386.324219 1235.507812 388.851562 C 1235.980469 391.375 1236.390625 393.910156 1236.742188 396.453125 C 1237.089844 399 1237.378906 401.550781 1237.609375 404.109375 C 1237.835938 406.667969 1238.003906 409.230469 1238.113281 411.796875 C 1238.21875 414.363281 1238.265625 416.929688 1238.25 419.496094 C 1238.234375 422.066406 1238.15625 424.632812 1238.019531 427.199219 C 1237.882812 429.761719 1237.683594 432.320312 1237.421875 434.878906 C 1237.164062 437.433594 1236.84375 439.980469 1236.460938 442.519531 C 1236.082031 445.058594 1235.640625 447.589844 1235.140625 450.109375 C 1234.636719 452.628906 1234.078125 455.132812 1233.457031 457.625 C 1232.835938 460.117188 1232.15625 462.59375 1231.417969 465.054688 C 1230.679688 467.515625 1229.882812 469.957031 1229.027344 472.378906 C 1228.171875 474.800781 1227.261719 477.199219 1226.292969 479.578125 C 1225.324219 481.957031 1224.300781 484.3125 1223.21875 486.640625 C 1222.136719 488.972656 1221 491.273438 1219.808594 493.550781 C 1218.621094 495.824219 1217.375 498.070312 1216.078125 500.289062 C 1214.78125 502.503906 1213.429688 504.691406 1212.03125 506.84375 C 1210.628906 508.996094 1209.175781 511.113281 1207.671875 513.195312 C 1206.171875 515.277344 1204.621094 517.324219 1203.019531 519.335938 C 1201.421875 521.34375 1199.773438 523.3125 1198.078125 525.246094 C 1152.671875 576.972656 1116.976562 632.433594 1092.003906 690.1875 L 1087.523438 700.5625 C 1087.191406 701.328125 1086.808594 702.066406 1086.367188 702.777344 C 1085.929688 703.488281 1085.441406 704.160156 1084.90625 704.800781 C 1084.371094 705.4375 1083.789062 706.035156 1083.167969 706.589844 C 1082.542969 707.144531 1081.882812 707.648438 1081.183594 708.105469 C 1080.488281 708.5625 1079.761719 708.96875 1079.003906 709.320312 C 1078.246094 709.671875 1077.46875 709.964844 1076.671875 710.203125 C 1075.871094 710.441406 1075.058594 710.621094 1074.234375 710.742188 C 1073.40625 710.859375 1072.578125 710.917969 1071.742188 710.917969 Z M 1076.289062 290.972656 C 1074.222656 290.972656 1072.160156 291.023438 1070.097656 291.125 C 1068.035156 291.222656 1065.976562 291.375 1063.921875 291.574219 C 1061.867188 291.777344 1059.816406 292.027344 1057.777344 292.328125 C 1055.734375 292.625 1053.699219 292.976562 1051.671875 293.375 C 1049.648438 293.773438 1047.632812 294.222656 1045.628906 294.71875 C 1043.625 295.214844 1041.632812 295.761719 1039.65625 296.355469 C 1037.679688 296.949219 1035.714844 297.589844 1033.769531 298.277344 C 1031.824219 298.96875 1029.894531 299.703125 1027.984375 300.484375 C 1026.074219 301.269531 1024.183594 302.097656 1022.3125 302.96875 C 1020.441406 303.84375 1018.59375 304.765625 1016.769531 305.726562 C 1014.941406 306.691406 1013.140625 307.699219 1011.363281 308.753906 C 1009.585938 309.804688 1007.835938 310.898438 1006.113281 312.035156 C 1004.390625 313.171875 1002.695312 314.347656 1001.027344 315.566406 C 999.363281 316.785156 997.726562 318.046875 996.121094 319.34375 C 994.515625 320.644531 992.941406 321.980469 991.402344 323.355469 C 989.863281 324.730469 988.355469 326.140625 986.882812 327.589844 C 985.410156 329.035156 983.976562 330.519531 982.578125 332.035156 C 981.175781 333.554688 979.8125 335.105469 978.488281 336.691406 C 977.164062 338.273438 975.878906 339.886719 974.632812 341.535156 C 973.386719 343.179688 972.183594 344.855469 971.019531 346.5625 C 969.855469 348.265625 968.730469 350 967.652344 351.757812 C 966.570312 353.519531 965.535156 355.300781 964.539062 357.113281 C 963.546875 358.921875 962.597656 360.753906 961.691406 362.609375 C 960.789062 364.464844 959.929688 366.34375 959.113281 368.242188 C 958.300781 370.140625 957.535156 372.054688 956.8125 373.988281 C 956.09375 375.925781 955.417969 377.875 954.792969 379.84375 C 954.167969 381.8125 953.589844 383.792969 953.0625 385.789062 C 952.53125 387.785156 952.050781 389.792969 951.621094 391.808594 C 951.1875 393.828125 950.804688 395.859375 950.472656 397.894531 C 950.136719 399.933594 949.855469 401.976562 949.621094 404.027344 C 949.386719 406.082031 949.203125 408.136719 949.066406 410.195312 C 948.933594 412.257812 948.851562 414.320312 948.816406 416.382812 C 948.753906 420.238281 948.863281 424.089844 949.148438 427.9375 C 949.4375 431.78125 949.894531 435.605469 950.53125 439.410156 C 951.164062 443.214844 951.96875 446.980469 952.945312 450.710938 C 953.921875 454.445312 955.0625 458.121094 956.375 461.75 C 957.683594 465.375 959.15625 468.9375 960.789062 472.429688 C 962.425781 475.921875 964.214844 479.335938 966.15625 482.664062 C 968.101562 485.996094 970.191406 489.230469 972.429688 492.371094 C 974.667969 495.511719 977.042969 498.546875 979.558594 501.46875 C 998.601562 523.941406 1015.921875 547.667969 1031.511719 572.65625 C 1047.105469 597.648438 1060.808594 623.632812 1072.621094 650.613281 C 1085.914062 623.867188 1100.914062 598.113281 1117.613281 573.351562 C 1134.316406 548.589844 1152.578125 525.035156 1172.398438 502.691406 C 1174.371094 500.429688 1176.265625 498.101562 1178.078125 495.707031 C 1179.890625 493.3125 1181.613281 490.855469 1183.253906 488.335938 C 1184.890625 485.820312 1186.4375 483.25 1187.894531 480.621094 C 1189.351562 477.996094 1190.714844 475.320312 1191.984375 472.601562 C 1193.25 469.878906 1194.421875 467.113281 1195.496094 464.308594 C 1196.566406 461.503906 1197.542969 458.664062 1198.414062 455.789062 C 1199.285156 452.917969 1200.058594 450.015625 1200.726562 447.089844 C 1201.394531 444.160156 1201.957031 441.210938 1202.417969 438.246094 C 1202.878906 435.277344 1203.234375 432.296875 1203.484375 429.304688 C 1203.734375 426.3125 1203.878906 423.3125 1203.917969 420.308594 C 1203.953125 417.308594 1203.886719 414.304688 1203.714844 411.308594 C 1203.539062 408.308594 1203.261719 405.320312 1202.878906 402.34375 C 1202.492188 399.363281 1202.003906 396.402344 1201.414062 393.457031 C 1200.820312 390.515625 1200.125 387.59375 1199.324219 384.699219 C 1198.523438 381.804688 1197.625 378.941406 1196.625 376.109375 C 1195.621094 373.277344 1194.523438 370.484375 1193.324219 367.730469 C 1192.128906 364.976562 1190.832031 362.269531 1189.445312 359.605469 C 1188.054688 356.945312 1186.574219 354.335938 1185 351.777344 C 1183.425781 349.21875 1181.765625 346.71875 1180.015625 344.277344 C 1178.265625 341.835938 1176.433594 339.460938 1174.515625 337.148438 C 1172.597656 334.835938 1170.601562 332.59375 1168.527344 330.425781 C 1166.453125 328.253906 1164.300781 326.160156 1162.078125 324.140625 C 1159.855469 322.121094 1157.5625 320.183594 1155.203125 318.324219 C 1152.84375 316.46875 1150.421875 314.695312 1147.9375 313.007812 C 1145.453125 311.324219 1142.910156 309.726562 1140.3125 308.21875 C 1137.714844 306.710938 1135.066406 305.296875 1132.371094 303.976562 C 1129.671875 302.65625 1126.929688 301.433594 1124.148438 300.304688 C 1121.363281 299.179688 1118.542969 298.152344 1115.6875 297.222656 C 1112.832031 296.292969 1109.945312 295.46875 1107.03125 294.742188 C 1104.117188 294.019531 1101.179688 293.398438 1098.222656 292.878906 C 1095.261719 292.363281 1092.289062 291.949219 1089.300781 291.640625 C 1086.316406 291.335938 1083.320312 291.132812 1080.320312 291.035156 Z M 931.664062 416.082031 Z M 931.664062 416.082031 " fill-opacity="1" fill-rule="nonzero"/></g><path fill="#000000" d="M 1076.417969 500.933594 C 1075.011719 500.933594 1073.609375 500.898438 1072.210938 500.832031 C 1070.808594 500.761719 1069.410156 500.660156 1068.011719 500.519531 C 1066.613281 500.382812 1065.222656 500.210938 1063.835938 500.007812 C 1062.445312 499.800781 1061.0625 499.558594 1059.6875 499.285156 C 1058.3125 499.011719 1056.941406 498.707031 1055.582031 498.363281 C 1054.21875 498.023438 1052.867188 497.648438 1051.523438 497.242188 C 1050.179688 496.835938 1048.847656 496.394531 1047.527344 495.921875 C 1046.207031 495.449219 1044.898438 494.945312 1043.601562 494.40625 C 1042.304688 493.871094 1041.019531 493.300781 1039.753906 492.699219 C 1038.484375 492.101562 1037.230469 491.46875 1035.992188 490.808594 C 1034.753906 490.148438 1033.535156 489.457031 1032.332031 488.734375 C 1031.128906 488.011719 1029.941406 487.261719 1028.773438 486.484375 C 1027.609375 485.703125 1026.460938 484.894531 1025.332031 484.058594 C 1024.207031 483.222656 1023.101562 482.359375 1022.015625 481.46875 C 1020.929688 480.578125 1019.867188 479.664062 1018.828125 478.71875 C 1017.789062 477.777344 1016.773438 476.8125 1015.78125 475.816406 C 1014.789062 474.824219 1013.820312 473.808594 1012.878906 472.769531 C 1011.933594 471.730469 1011.019531 470.667969 1010.128906 469.582031 C 1009.238281 468.5 1008.375 467.390625 1007.539062 466.265625 C 1006.703125 465.136719 1005.894531 463.992188 1005.117188 462.824219 C 1004.335938 461.65625 1003.585938 460.472656 1002.863281 459.269531 C 1002.140625 458.0625 1001.449219 456.84375 1000.789062 455.605469 C 1000.128906 454.367188 999.496094 453.113281 998.898438 451.847656 C 998.296875 450.578125 997.726562 449.296875 997.191406 448 C 996.652344 446.703125 996.148438 445.394531 995.675781 444.070312 C 995.203125 442.75 994.761719 441.417969 994.355469 440.074219 C 993.949219 438.730469 993.574219 437.378906 993.234375 436.019531 C 992.890625 434.65625 992.585938 433.289062 992.3125 431.910156 C 992.039062 430.535156 991.796875 429.152344 991.589844 427.765625 C 991.386719 426.375 991.214844 424.984375 991.078125 423.585938 C 990.9375 422.191406 990.835938 420.792969 990.765625 419.390625 C 990.699219 417.988281 990.664062 416.585938 990.664062 415.183594 C 990.664062 413.78125 990.699219 412.375 990.765625 410.976562 C 990.835938 409.574219 990.9375 408.175781 991.078125 406.777344 C 991.214844 405.382812 991.386719 403.988281 991.589844 402.601562 C 991.796875 401.210938 992.039062 399.828125 992.3125 398.453125 C 992.585938 397.078125 992.890625 395.707031 993.234375 394.347656 C 993.574219 392.984375 993.949219 391.632812 994.355469 390.289062 C 994.761719 388.949219 995.203125 387.617188 995.675781 386.292969 C 996.148438 384.972656 996.652344 383.664062 997.191406 382.367188 C 997.726562 381.070312 998.296875 379.789062 998.898438 378.519531 C 999.496094 377.25 1000.128906 375.996094 1000.789062 374.757812 C 1001.449219 373.523438 1002.140625 372.300781 1002.863281 371.097656 C 1003.585938 369.894531 1004.335938 368.707031 1005.117188 367.542969 C 1005.894531 366.375 1006.703125 365.226562 1007.539062 364.101562 C 1008.375 362.972656 1009.238281 361.867188 1010.128906 360.78125 C 1011.019531 359.699219 1011.933594 358.636719 1012.878906 357.59375 C 1013.820312 356.554688 1014.789062 355.539062 1015.78125 354.546875 C 1016.773438 353.554688 1017.789062 352.585938 1018.828125 351.644531 C 1019.867188 350.703125 1020.929688 349.785156 1022.015625 348.894531 C 1023.101562 348.003906 1024.207031 347.140625 1025.332031 346.304688 C 1026.460938 345.46875 1027.609375 344.664062 1028.773438 343.882812 C 1029.941406 343.101562 1031.128906 342.351562 1032.332031 341.632812 C 1033.535156 340.910156 1034.753906 340.21875 1035.992188 339.558594 C 1037.230469 338.894531 1038.484375 338.265625 1039.753906 337.664062 C 1041.019531 337.0625 1042.304688 336.496094 1043.601562 335.957031 C 1044.898438 335.421875 1046.207031 334.917969 1047.527344 334.445312 C 1048.847656 333.972656 1050.179688 333.53125 1051.523438 333.125 C 1052.867188 332.714844 1054.21875 332.34375 1055.582031 332 C 1056.941406 331.660156 1058.3125 331.351562 1059.6875 331.078125 C 1061.0625 330.804688 1062.445312 330.566406 1063.835938 330.359375 C 1065.222656 330.152344 1066.613281 329.980469 1068.011719 329.84375 C 1069.410156 329.707031 1070.808594 329.601562 1072.210938 329.535156 C 1073.609375 329.464844 1075.011719 329.429688 1076.417969 329.429688 C 1077.820312 329.429688 1079.222656 329.464844 1080.625 329.535156 C 1082.027344 329.601562 1083.425781 329.707031 1084.824219 329.84375 C 1086.21875 329.980469 1087.613281 330.152344 1089 330.359375 C 1090.386719 330.566406 1091.769531 330.804688 1093.148438 331.078125 C 1094.523438 331.351562 1095.890625 331.660156 1097.253906 332 C 1098.613281 332.34375 1099.96875 332.714844 1101.308594 333.125 C 1102.652344 333.53125 1103.984375 333.972656 1105.304688 334.445312 C 1106.628906 334.917969 1107.9375 335.421875 1109.234375 335.957031 C 1110.53125 336.496094 1111.8125 337.0625 1113.082031 337.664062 C 1114.351562 338.265625 1115.601562 338.894531 1116.839844 339.558594 C 1118.078125 340.21875 1119.300781 340.910156 1120.503906 341.632812 C 1121.707031 342.351562 1122.890625 343.101562 1124.058594 343.882812 C 1125.226562 344.664062 1126.371094 345.46875 1127.5 346.304688 C 1128.628906 347.140625 1129.734375 348.003906 1130.820312 348.894531 C 1131.902344 349.785156 1132.964844 350.703125 1134.003906 351.644531 C 1135.046875 352.585938 1136.0625 353.554688 1137.054688 354.546875 C 1138.046875 355.539062 1139.011719 356.554688 1139.957031 357.59375 C 1140.898438 358.636719 1141.816406 359.699219 1142.707031 360.78125 C 1143.59375 361.867188 1144.457031 362.972656 1145.292969 364.101562 C 1146.128906 365.226562 1146.9375 366.375 1147.71875 367.542969 C 1148.496094 368.707031 1149.25 369.894531 1149.96875 371.097656 C 1150.691406 372.300781 1151.382812 373.523438 1152.042969 374.757812 C 1152.707031 375.996094 1153.335938 377.25 1153.9375 378.519531 C 1154.539062 379.789062 1155.105469 381.070312 1155.644531 382.367188 C 1156.179688 383.664062 1156.683594 384.972656 1157.15625 386.292969 C 1157.628906 387.617188 1158.070312 388.949219 1158.476562 390.289062 C 1158.886719 391.632812 1159.257812 392.984375 1159.601562 394.347656 C 1159.941406 395.707031 1160.25 397.078125 1160.523438 398.453125 C 1160.796875 399.828125 1161.035156 401.210938 1161.242188 402.601562 C 1161.449219 403.988281 1161.621094 405.382812 1161.757812 406.777344 C 1161.894531 408.175781 1162 409.574219 1162.066406 410.976562 C 1162.136719 412.375 1162.171875 413.78125 1162.171875 415.183594 C 1162.171875 416.585938 1162.136719 417.988281 1162.066406 419.390625 C 1162 420.792969 1161.894531 422.191406 1161.757812 423.585938 C 1161.621094 424.984375 1161.449219 426.375 1161.242188 427.765625 C 1161.035156 429.152344 1160.796875 430.535156 1160.523438 431.910156 C 1160.25 433.289062 1159.941406 434.65625 1159.601562 436.019531 C 1159.257812 437.378906 1158.886719 438.730469 1158.476562 440.074219 C 1158.070312 441.417969 1157.628906 442.75 1157.15625 444.070312 C 1156.683594 445.394531 1156.179688 446.703125 1155.644531 448 C 1155.105469 449.296875 1154.539062 450.578125 1153.9375 451.847656 C 1153.335938 453.113281 1152.707031 454.367188 1152.042969 455.605469 C 1151.382812 456.84375 1150.691406 458.0625 1149.96875 459.269531 C 1149.25 460.472656 1148.496094 461.65625 1147.71875 462.824219 C 1146.9375 463.992188 1146.128906 465.136719 1145.292969 466.265625 C 1144.457031 467.390625 1143.59375 468.5 1142.707031 469.582031 C 1141.816406 470.667969 1140.898438 471.730469 1139.957031 472.769531 C 1139.011719 473.808594 1138.046875 474.824219 1137.054688 475.816406 C 1136.0625 476.8125 1135.046875 477.777344 1134.003906 478.71875 C 1132.964844 479.664062 1131.902344 480.578125 1130.820312 481.46875 C 1129.734375 482.359375 1128.628906 483.222656 1127.5 484.058594 C 1126.371094 484.894531 1125.226562 485.703125 1124.058594 486.484375 C 1122.890625 487.261719 1121.707031 488.011719 1120.503906 488.734375 C 1119.300781 489.457031 1118.078125 490.148438 1116.839844 490.808594 C 1115.601562 491.46875 1114.351562 492.101562 1113.082031 492.699219 C 1111.8125 493.300781 1110.53125 493.871094 1109.234375 494.40625 C 1107.9375 494.945312 1106.628906 495.449219 1105.304688 495.921875 C 1103.984375 496.394531 1102.652344 496.835938 1101.308594 497.242188 C 1099.96875 497.648438 1098.613281 498.023438 1097.253906 498.363281 C 1095.890625 498.707031 1094.523438 499.011719 1093.148438 499.285156 C 1091.769531 499.558594 1090.386719 499.800781 1089 500.007812 C 1087.613281 500.210938 1086.21875 500.382812 1084.824219 500.519531 C 1083.425781 500.660156 1082.027344 500.761719 1080.625 500.832031 C 1079.222656 500.898438 1077.820312 500.933594 1076.417969 500.933594 Z M 1076.417969 363.730469 C 1074.730469 363.730469 1073.050781 363.8125 1071.375 363.980469 C 1069.695312 364.144531 1068.03125 364.390625 1066.378906 364.71875 C 1064.726562 365.050781 1063.09375 365.457031 1061.480469 365.949219 C 1059.867188 366.4375 1058.285156 367.003906 1056.726562 367.648438 C 1055.171875 368.292969 1053.648438 369.011719 1052.164062 369.808594 C 1050.675781 370.601562 1049.234375 371.464844 1047.832031 372.402344 C 1046.429688 373.339844 1045.078125 374.339844 1043.777344 375.410156 C 1042.472656 376.480469 1041.226562 377.609375 1040.035156 378.800781 C 1038.84375 379.992188 1037.714844 381.238281 1036.644531 382.542969 C 1035.574219 383.84375 1034.574219 385.195312 1033.636719 386.597656 C 1032.699219 388 1031.835938 389.441406 1031.039062 390.929688 C 1030.246094 392.414062 1029.527344 393.9375 1028.882812 395.492188 C 1028.238281 397.050781 1027.667969 398.636719 1027.179688 400.246094 C 1026.691406 401.859375 1026.28125 403.492188 1025.953125 405.144531 C 1025.625 406.796875 1025.378906 408.460938 1025.210938 410.140625 C 1025.046875 411.816406 1024.964844 413.496094 1024.964844 415.183594 C 1024.964844 416.867188 1025.046875 418.550781 1025.210938 420.226562 C 1025.378906 421.902344 1025.625 423.566406 1025.953125 425.21875 C 1026.28125 426.871094 1026.691406 428.503906 1027.179688 430.117188 C 1027.667969 431.730469 1028.238281 433.316406 1028.882812 434.871094 C 1029.527344 436.429688 1030.246094 437.949219 1031.039062 439.4375 C 1031.835938 440.921875 1032.699219 442.367188 1033.636719 443.765625 C 1034.574219 445.167969 1035.574219 446.519531 1036.644531 447.824219 C 1037.714844 449.125 1038.84375 450.371094 1040.035156 451.5625 C 1041.226562 452.753906 1042.472656 453.886719 1043.777344 454.953125 C 1045.078125 456.023438 1046.429688 457.027344 1047.832031 457.960938 C 1049.234375 458.898438 1050.675781 459.765625 1052.164062 460.558594 C 1053.648438 461.351562 1055.171875 462.074219 1056.726562 462.71875 C 1058.285156 463.363281 1059.867188 463.929688 1061.480469 464.417969 C 1063.09375 464.90625 1064.726562 465.316406 1066.378906 465.644531 C 1068.03125 465.972656 1069.695312 466.222656 1071.375 466.386719 C 1073.050781 466.550781 1074.730469 466.632812 1076.417969 466.632812 C 1078.101562 466.632812 1079.78125 466.550781 1081.460938 466.386719 C 1083.136719 466.222656 1084.800781 465.972656 1086.453125 465.644531 C 1088.105469 465.316406 1089.738281 464.90625 1091.351562 464.417969 C 1092.964844 463.929688 1094.550781 463.363281 1096.105469 462.71875 C 1097.664062 462.074219 1099.183594 461.351562 1100.671875 460.558594 C 1102.15625 459.765625 1103.601562 458.898438 1105.003906 457.960938 C 1106.402344 457.027344 1107.753906 456.023438 1109.058594 454.953125 C 1110.359375 453.886719 1111.609375 452.753906 1112.800781 451.5625 C 1113.992188 450.371094 1115.121094 449.125 1116.191406 447.824219 C 1117.257812 446.519531 1118.261719 445.167969 1119.199219 443.765625 C 1120.132812 442.367188 1121 440.921875 1121.792969 439.4375 C 1122.589844 437.949219 1123.308594 436.429688 1123.953125 434.871094 C 1124.597656 433.316406 1125.164062 431.730469 1125.652344 430.117188 C 1126.144531 428.503906 1126.550781 426.871094 1126.878906 425.21875 C 1127.210938 423.566406 1127.457031 421.902344 1127.621094 420.226562 C 1127.785156 418.550781 1127.871094 416.867188 1127.867188 415.183594 C 1127.867188 413.5 1127.785156 411.820312 1127.617188 410.140625 C 1127.449219 408.464844 1127.203125 406.804688 1126.871094 405.152344 C 1126.542969 403.5 1126.132812 401.867188 1125.644531 400.257812 C 1125.152344 398.644531 1124.585938 397.0625 1123.941406 395.507812 C 1123.292969 393.949219 1122.574219 392.429688 1121.78125 390.945312 C 1120.984375 389.460938 1120.121094 388.019531 1119.183594 386.617188 C 1118.246094 385.21875 1117.242188 383.867188 1116.175781 382.566406 C 1115.105469 381.265625 1113.976562 380.019531 1112.785156 378.828125 C 1111.59375 377.640625 1110.34375 376.507812 1109.042969 375.441406 C 1107.742188 374.375 1106.390625 373.371094 1104.988281 372.4375 C 1103.589844 371.5 1102.144531 370.636719 1100.660156 369.84375 C 1099.175781 369.050781 1097.652344 368.332031 1096.097656 367.6875 C 1094.539062 367.042969 1092.957031 366.476562 1091.34375 365.988281 C 1089.734375 365.5 1088.101562 365.089844 1086.449219 364.761719 C 1084.796875 364.433594 1083.132812 364.1875 1081.457031 364.023438 C 1079.78125 363.855469 1078.101562 363.773438 1076.417969 363.773438 Z M 1076.417969 363.730469 " fill-opacity="1" fill-rule="nonzero"/><g clip-path="url(#de3e613b30)"><path fill="#000000" d="M 1076.417969 776.605469 C 971.539062 776.605469 892.433594 738.378906 892.433594 687.679688 C 892.433594 644.503906 950.082031 609.601562 1035.878906 600.792969 C 1036.4375 600.734375 1036.996094 600.703125 1037.558594 600.703125 C 1038.121094 600.699219 1038.679688 600.726562 1039.238281 600.777344 C 1039.800781 600.832031 1040.355469 600.910156 1040.90625 601.019531 C 1041.457031 601.125 1042.003906 601.261719 1042.539062 601.421875 C 1043.078125 601.582031 1043.609375 601.769531 1044.128906 601.984375 C 1044.648438 602.195312 1045.15625 602.433594 1045.652344 602.695312 C 1046.148438 602.960938 1046.632812 603.246094 1047.097656 603.558594 C 1047.566406 603.867188 1048.019531 604.199219 1048.457031 604.554688 C 1048.890625 604.910156 1049.308594 605.285156 1049.707031 605.679688 C 1050.105469 606.074219 1050.484375 606.488281 1050.84375 606.921875 C 1051.199219 607.355469 1051.535156 607.804688 1051.851562 608.269531 C 1052.164062 608.738281 1052.453125 609.21875 1052.722656 609.710938 C 1052.988281 610.207031 1053.230469 610.710938 1053.445312 611.230469 C 1053.664062 611.75 1053.855469 612.277344 1054.019531 612.8125 C 1054.1875 613.351562 1054.324219 613.894531 1054.4375 614.445312 C 1054.546875 614.996094 1054.632812 615.550781 1054.6875 616.109375 C 1054.746094 616.667969 1054.777344 617.226562 1054.777344 617.789062 C 1054.78125 618.351562 1054.753906 618.914062 1054.703125 619.472656 C 1054.648438 620.03125 1054.570312 620.585938 1054.460938 621.136719 C 1054.355469 621.6875 1054.21875 622.234375 1054.058594 622.773438 C 1053.898438 623.3125 1053.710938 623.839844 1053.496094 624.359375 C 1053.285156 624.878906 1053.046875 625.386719 1052.785156 625.882812 C 1052.519531 626.378906 1052.234375 626.863281 1051.925781 627.332031 C 1051.613281 627.800781 1051.28125 628.25 1050.925781 628.6875 C 1050.570312 629.125 1050.195312 629.539062 1049.800781 629.9375 C 1049.40625 630.335938 1048.992188 630.714844 1048.558594 631.074219 C 1048.125 631.433594 1047.675781 631.769531 1047.210938 632.082031 C 1046.742188 632.394531 1046.261719 632.6875 1045.769531 632.953125 C 1045.273438 633.21875 1044.769531 633.460938 1044.25 633.679688 C 1043.730469 633.894531 1043.203125 634.085938 1042.667969 634.253906 C 1042.128906 634.417969 1041.585938 634.554688 1041.035156 634.667969 C 1040.484375 634.777344 1039.929688 634.863281 1039.371094 634.921875 C 969.804688 642.058594 926.734375 667.871094 926.734375 687.679688 C 926.734375 709.953125 985.046875 742.304688 1076.417969 742.304688 C 1167.789062 742.304688 1226.101562 709.953125 1226.101562 687.679688 C 1226.101562 667.035156 1181.078125 640.816406 1108.445312 634.449219 C 1107.886719 634.402344 1107.332031 634.324219 1106.777344 634.222656 C 1106.226562 634.117188 1105.679688 633.988281 1105.140625 633.832031 C 1104.601562 633.671875 1104.070312 633.492188 1103.550781 633.28125 C 1103.027344 633.070312 1102.519531 632.835938 1102.019531 632.578125 C 1101.523438 632.320312 1101.039062 632.035156 1100.566406 631.730469 C 1100.097656 631.421875 1099.644531 631.09375 1099.203125 630.742188 C 1098.765625 630.390625 1098.347656 630.019531 1097.945312 629.625 C 1097.542969 629.234375 1097.160156 628.820312 1096.800781 628.390625 C 1096.4375 627.960938 1096.101562 627.515625 1095.78125 627.050781 C 1095.464844 626.585938 1095.171875 626.109375 1094.902344 625.617188 C 1094.632812 625.125 1094.386719 624.621094 1094.164062 624.105469 C 1093.945312 623.585938 1093.75 623.0625 1093.578125 622.523438 C 1093.410156 621.988281 1093.269531 621.445312 1093.152344 620.898438 C 1093.039062 620.347656 1092.949219 619.792969 1092.886719 619.234375 C 1092.824219 618.675781 1092.792969 618.117188 1092.785156 617.554688 C 1092.78125 616.992188 1092.800781 616.433594 1092.847656 615.875 C 1092.898438 615.3125 1092.972656 614.757812 1093.078125 614.207031 C 1093.179688 613.652344 1093.3125 613.109375 1093.46875 612.570312 C 1093.625 612.03125 1093.808594 611.5 1094.019531 610.976562 C 1094.226562 610.457031 1094.460938 609.945312 1094.71875 609.449219 C 1094.980469 608.949219 1095.261719 608.464844 1095.570312 607.996094 C 1095.875 607.523438 1096.207031 607.070312 1096.558594 606.632812 C 1096.910156 606.195312 1097.28125 605.773438 1097.671875 605.371094 C 1098.066406 604.972656 1098.476562 604.589844 1098.90625 604.226562 C 1099.335938 603.867188 1099.785156 603.527344 1100.25 603.210938 C 1100.710938 602.894531 1101.191406 602.597656 1101.683594 602.328125 C 1102.175781 602.058594 1102.679688 601.8125 1103.195312 601.59375 C 1103.710938 601.371094 1104.238281 601.175781 1104.773438 601.007812 C 1105.308594 600.839844 1105.851562 600.695312 1106.402344 600.582031 C 1106.953125 600.464844 1107.503906 600.375 1108.0625 600.316406 C 1108.621094 600.253906 1109.183594 600.21875 1109.742188 600.214844 C 1110.304688 600.207031 1110.867188 600.230469 1111.425781 600.277344 C 1200.546875 608.101562 1260.402344 643.152344 1260.402344 687.679688 C 1260.402344 738.378906 1181.316406 776.605469 1076.417969 776.605469 Z M 1076.417969 776.605469 " fill-opacity="1" fill-rule="nonzero"/></g><path fill="#000000" d="M 871.617188 1171.855469 L 590.773438 1171.855469 C 590.210938 1171.855469 589.652344 1171.828125 589.09375 1171.769531 C 588.53125 1171.714844 587.976562 1171.632812 587.425781 1171.523438 C 586.875 1171.414062 586.332031 1171.277344 585.792969 1171.117188 C 585.257812 1170.953125 584.730469 1170.761719 584.210938 1170.546875 C 583.691406 1170.332031 583.183594 1170.09375 582.6875 1169.828125 C 582.191406 1169.5625 581.710938 1169.277344 581.246094 1168.964844 C 580.777344 1168.652344 580.328125 1168.316406 579.894531 1167.960938 C 579.457031 1167.605469 579.042969 1167.226562 578.644531 1166.832031 C 578.25 1166.433594 577.871094 1166.019531 577.515625 1165.582031 C 577.160156 1165.148438 576.824219 1164.699219 576.511719 1164.230469 C 576.199219 1163.765625 575.914062 1163.285156 575.648438 1162.789062 C 575.382812 1162.292969 575.144531 1161.785156 574.929688 1161.265625 C 574.714844 1160.746094 574.523438 1160.21875 574.359375 1159.683594 C 574.199219 1159.144531 574.0625 1158.601562 573.953125 1158.050781 C 573.84375 1157.5 573.761719 1156.945312 573.703125 1156.382812 C 573.648438 1155.824219 573.621094 1155.265625 573.621094 1154.703125 C 573.621094 1154.140625 573.648438 1153.582031 573.703125 1153.023438 C 573.761719 1152.464844 573.84375 1151.910156 573.953125 1151.359375 C 574.0625 1150.808594 574.199219 1150.261719 574.359375 1149.726562 C 574.523438 1149.1875 574.714844 1148.660156 574.929688 1148.140625 C 575.144531 1147.621094 575.382812 1147.113281 575.648438 1146.617188 C 575.914062 1146.125 576.199219 1145.640625 576.511719 1145.175781 C 576.824219 1144.707031 577.160156 1144.257812 577.515625 1143.824219 C 577.871094 1143.390625 578.25 1142.972656 578.644531 1142.578125 C 579.042969 1142.179688 579.457031 1141.800781 579.894531 1141.445312 C 580.328125 1141.089844 580.777344 1140.753906 581.246094 1140.445312 C 581.710938 1140.132812 582.191406 1139.84375 582.6875 1139.578125 C 583.183594 1139.3125 583.691406 1139.074219 584.210938 1138.859375 C 584.730469 1138.644531 585.257812 1138.453125 585.792969 1138.292969 C 586.332031 1138.128906 586.875 1137.992188 587.425781 1137.882812 C 587.976562 1137.773438 588.53125 1137.691406 589.09375 1137.636719 C 589.652344 1137.582031 590.210938 1137.554688 590.773438 1137.554688 L 871.617188 1137.554688 C 873.414062 1137.625 875.210938 1137.652344 877.011719 1137.632812 C 878.808594 1137.613281 880.605469 1137.550781 882.402344 1137.441406 C 884.199219 1137.332031 885.988281 1137.179688 887.777344 1136.980469 C 889.566406 1136.78125 891.347656 1136.535156 893.121094 1136.246094 C 894.898438 1135.957031 896.664062 1135.625 898.425781 1135.246094 C 900.183594 1134.867188 901.929688 1134.445312 903.667969 1133.980469 C 905.40625 1133.515625 907.132812 1133.003906 908.84375 1132.453125 C 910.554688 1131.898438 912.253906 1131.304688 913.933594 1130.664062 C 915.617188 1130.027344 917.28125 1129.347656 918.929688 1128.625 C 920.578125 1127.902344 922.203125 1127.140625 923.8125 1126.335938 C 925.421875 1125.53125 927.011719 1124.6875 928.578125 1123.804688 C 930.144531 1122.917969 931.6875 1121.996094 933.207031 1121.035156 C 934.730469 1120.074219 936.222656 1119.074219 937.695312 1118.035156 C 939.164062 1117 940.605469 1115.925781 942.023438 1114.816406 C 943.4375 1113.707031 944.824219 1112.5625 946.183594 1111.382812 C 947.542969 1110.203125 948.871094 1108.992188 950.167969 1107.746094 C 951.464844 1106.5 952.730469 1105.21875 953.964844 1103.910156 C 955.195312 1102.601562 956.394531 1101.261719 957.558594 1099.890625 C 958.726562 1098.519531 959.855469 1097.121094 960.949219 1095.691406 C 962.046875 1094.265625 963.105469 1092.8125 964.125 1091.332031 C 965.148438 1089.851562 966.132812 1088.34375 967.078125 1086.816406 C 968.023438 1085.285156 968.929688 1083.730469 969.796875 1082.15625 C 970.667969 1080.582031 971.492188 1078.984375 972.28125 1077.367188 C 973.070312 1075.75 973.816406 1074.113281 974.519531 1072.457031 C 975.226562 1070.800781 975.886719 1069.128906 976.507812 1067.441406 C 977.128906 1065.753906 977.707031 1064.050781 978.242188 1062.332031 C 978.777344 1060.617188 979.269531 1058.886719 979.71875 1057.144531 C 980.164062 1055.402344 980.570312 1053.648438 980.929688 1051.886719 C 981.289062 1050.125 981.605469 1048.355469 981.875 1046.574219 C 982.144531 1044.796875 982.371094 1043.011719 982.550781 1041.222656 C 982.734375 1039.433594 982.867188 1037.640625 982.957031 1035.84375 C 983.050781 1034.046875 983.09375 1032.25 983.09375 1030.449219 C 983.09375 1028.652344 983.050781 1026.851562 982.957031 1025.054688 C 982.867188 1023.257812 982.734375 1021.464844 982.550781 1019.675781 C 982.371094 1017.886719 982.144531 1016.101562 981.875 1014.324219 C 981.605469 1012.546875 981.289062 1010.773438 980.929688 1009.011719 C 980.570312 1007.25 980.164062 1005.496094 979.71875 1003.753906 C 979.269531 1002.011719 978.777344 1000.285156 978.242188 998.566406 C 977.707031 996.847656 977.128906 995.144531 976.507812 993.457031 C 975.886719 991.769531 975.226562 990.097656 974.519531 988.441406 C 973.816406 986.785156 973.070312 985.152344 972.28125 983.53125 C 971.492188 981.914062 970.667969 980.320312 969.796875 978.742188 C 968.929688 977.167969 968.023438 975.613281 967.078125 974.085938 C 966.132812 972.554688 965.148438 971.050781 964.125 969.566406 C 963.105469 968.085938 962.046875 966.632812 960.949219 965.207031 C 959.855469 963.777344 958.726562 962.378906 957.558594 961.011719 C 956.394531 959.640625 955.195312 958.300781 953.960938 956.988281 C 952.730469 955.679688 951.464844 954.402344 950.167969 953.15625 C 948.871094 951.910156 947.542969 950.695312 946.183594 949.515625 C 944.824219 948.335938 943.4375 947.191406 942.023438 946.082031 C 940.605469 944.972656 939.164062 943.898438 937.695312 942.863281 C 936.222656 941.824219 934.730469 940.824219 933.207031 939.863281 C 931.6875 938.902344 930.144531 937.980469 928.578125 937.09375 C 927.011719 936.210938 925.421875 935.367188 923.8125 934.5625 C 922.203125 933.757812 920.578125 932.996094 918.929688 932.273438 C 917.28125 931.550781 915.617188 930.871094 913.933594 930.234375 C 912.253906 929.59375 910.554688 929 908.84375 928.445312 C 907.132812 927.894531 905.40625 927.386719 903.667969 926.917969 C 901.929688 926.453125 900.183594 926.03125 898.425781 925.652344 C 896.664062 925.273438 894.898438 924.941406 893.121094 924.652344 C 891.347656 924.363281 889.566406 924.121094 887.777344 923.921875 C 885.988281 923.722656 884.199219 923.566406 882.402344 923.457031 C 880.605469 923.347656 878.808594 923.285156 877.011719 923.265625 C 875.210938 923.246094 873.414062 923.273438 871.617188 923.347656 L 798.253906 923.347656 C 796.21875 923.371094 794.183594 923.347656 792.148438 923.277344 C 790.113281 923.203125 788.082031 923.078125 786.050781 922.902344 C 784.023438 922.726562 782 922.503906 779.984375 922.230469 C 777.964844 921.953125 775.957031 921.628906 773.953125 921.253906 C 771.953125 920.882812 769.960938 920.457031 767.980469 919.984375 C 766 919.511719 764.035156 918.992188 762.078125 918.421875 C 760.125 917.851562 758.183594 917.234375 756.261719 916.566406 C 754.335938 915.902344 752.429688 915.1875 750.542969 914.425781 C 748.652344 913.667969 746.785156 912.859375 744.9375 912.007812 C 743.085938 911.152344 741.261719 910.253906 739.457031 909.3125 C 737.652344 908.367188 735.871094 907.378906 734.117188 906.347656 C 732.359375 905.316406 730.632812 904.242188 728.929688 903.125 C 727.226562 902.007812 725.554688 900.851562 723.910156 899.648438 C 722.265625 898.449219 720.648438 897.210938 719.066406 895.929688 C 717.484375 894.648438 715.933594 893.332031 714.414062 891.976562 C 712.894531 890.617188 711.414062 889.222656 709.964844 887.792969 C 708.515625 886.363281 707.101562 884.898438 705.722656 883.398438 C 704.347656 881.898438 703.007812 880.367188 701.707031 878.800781 C 700.40625 877.234375 699.144531 875.632812 697.925781 874.007812 C 696.703125 872.378906 695.523438 870.71875 694.382812 869.03125 C 693.242188 867.34375 692.144531 865.628906 691.089844 863.886719 C 690.035156 862.148438 689.027344 860.378906 688.058594 858.589844 C 687.089844 856.796875 686.167969 854.980469 685.292969 853.144531 C 684.414062 851.308594 683.582031 849.449219 682.796875 847.570312 C 682.011719 845.691406 681.273438 843.796875 680.582031 841.878906 C 679.890625 839.964844 679.246094 838.035156 678.652344 836.085938 C 678.054688 834.140625 677.507812 832.179688 677.007812 830.207031 C 676.511719 828.230469 676.058594 826.246094 675.660156 824.25 C 675.257812 822.253906 674.910156 820.25 674.605469 818.234375 C 674.304688 816.222656 674.054688 814.203125 673.855469 812.175781 C 673.652344 810.148438 673.5 808.121094 673.402344 806.085938 C 673.300781 804.054688 673.25 802.019531 673.25 799.980469 C 673.25 797.945312 673.300781 795.910156 673.402344 793.878906 C 673.5 791.84375 673.652344 789.8125 673.855469 787.789062 C 674.054688 785.761719 674.304688 783.742188 674.605469 781.726562 C 674.910156 779.714844 675.257812 777.710938 675.660156 775.714844 C 676.058594 773.71875 676.511719 771.730469 677.007812 769.757812 C 677.507812 767.785156 678.054688 765.824219 678.652344 763.875 C 679.246094 761.929688 679.890625 760 680.582031 758.082031 C 681.273438 756.167969 682.011719 754.269531 682.796875 752.394531 C 683.582031 750.515625 684.414062 748.65625 685.292969 746.820312 C 686.167969 744.980469 687.089844 743.167969 688.058594 741.375 C 689.027344 739.582031 690.035156 737.816406 691.089844 736.074219 C 692.144531 734.332031 693.242188 732.621094 694.382812 730.933594 C 695.523438 729.246094 696.703125 727.585938 697.925781 725.957031 C 699.144531 724.328125 700.40625 722.730469 701.707031 721.164062 C 703.007812 719.597656 704.347656 718.066406 705.722656 716.566406 C 707.101562 715.066406 708.515625 713.601562 709.964844 712.167969 C 711.414062 710.738281 712.894531 709.347656 714.414062 707.988281 C 715.933594 706.632812 717.484375 705.3125 719.066406 704.035156 C 720.648438 702.753906 722.265625 701.515625 723.910156 700.3125 C 725.554688 699.113281 727.226562 697.957031 728.929688 696.839844 C 730.632812 695.722656 732.359375 694.644531 734.117188 693.613281 C 735.871094 692.582031 737.652344 691.59375 739.457031 690.652344 C 741.261719 689.707031 743.085938 688.808594 744.9375 687.957031 C 746.785156 687.105469 748.652344 686.296875 750.542969 685.535156 C 752.429688 684.777344 754.335938 684.0625 756.261719 683.398438 C 758.183594 682.730469 760.125 682.113281 762.078125 681.542969 C 764.035156 680.972656 766 680.449219 767.980469 679.976562 C 769.960938 679.503906 771.953125 679.082031 773.953125 678.707031 C 775.957031 678.332031 777.964844 678.007812 779.984375 677.734375 C 782 677.460938 784.023438 677.234375 786.050781 677.0625 C 788.082031 676.886719 790.113281 676.761719 792.148438 676.6875 C 794.183594 676.613281 796.21875 676.589844 798.253906 676.617188 L 909.582031 676.617188 C 910.144531 676.617188 910.707031 676.644531 911.265625 676.699219 C 911.824219 676.753906 912.378906 676.835938 912.929688 676.945312 C 913.480469 677.058594 914.023438 677.191406 914.5625 677.355469 C 915.097656 677.519531 915.628906 677.707031 916.148438 677.921875 C 916.664062 678.136719 917.171875 678.378906 917.667969 678.644531 C 918.164062 678.90625 918.644531 679.195312 919.113281 679.507812 C 919.578125 679.820312 920.03125 680.152344 920.464844 680.511719 C 920.898438 680.867188 921.3125 681.242188 921.710938 681.640625 C 922.109375 682.039062 922.484375 682.453125 922.839844 682.886719 C 923.199219 683.320312 923.53125 683.773438 923.84375 684.238281 C 924.15625 684.707031 924.445312 685.1875 924.710938 685.683594 C 924.972656 686.179688 925.214844 686.6875 925.429688 687.203125 C 925.644531 687.722656 925.832031 688.25 925.996094 688.789062 C 926.160156 689.328125 926.296875 689.871094 926.40625 690.421875 C 926.515625 690.972656 926.597656 691.527344 926.652344 692.085938 C 926.707031 692.644531 926.734375 693.207031 926.734375 693.769531 C 926.734375 694.328125 926.707031 694.890625 926.652344 695.449219 C 926.597656 696.007812 926.515625 696.5625 926.40625 697.113281 C 926.296875 697.664062 926.160156 698.207031 925.996094 698.746094 C 925.832031 699.285156 925.644531 699.8125 925.429688 700.332031 C 925.214844 700.851562 924.972656 701.355469 924.710938 701.851562 C 924.445312 702.347656 924.15625 702.828125 923.84375 703.296875 C 923.53125 703.761719 923.199219 704.214844 922.839844 704.648438 C 922.484375 705.082031 922.109375 705.496094 921.710938 705.894531 C 921.3125 706.292969 920.898438 706.667969 920.464844 707.023438 C 920.03125 707.382812 919.578125 707.714844 919.113281 708.027344 C 918.644531 708.339844 918.164062 708.628906 917.667969 708.894531 C 917.171875 709.15625 916.664062 709.398438 916.148438 709.613281 C 915.628906 709.828125 915.097656 710.015625 914.5625 710.179688 C 914.023438 710.34375 913.480469 710.480469 912.929688 710.589844 C 912.378906 710.699219 911.824219 710.78125 911.265625 710.835938 C 910.707031 710.890625 910.144531 710.917969 909.582031 710.917969 L 798.253906 710.917969 C 796.78125 710.894531 795.308594 710.910156 793.839844 710.960938 C 792.367188 711.007812 790.898438 711.097656 789.429688 711.21875 C 787.964844 711.339844 786.5 711.5 785.042969 711.695312 C 783.582031 711.890625 782.128906 712.125 780.679688 712.390625 C 779.234375 712.660156 777.792969 712.960938 776.359375 713.300781 C 774.929688 713.640625 773.503906 714.015625 772.089844 714.421875 C 770.675781 714.832031 769.273438 715.277344 767.882812 715.757812 C 766.488281 716.234375 765.109375 716.75 763.742188 717.296875 C 762.378906 717.84375 761.023438 718.425781 759.6875 719.039062 C 758.347656 719.65625 757.027344 720.300781 755.722656 720.980469 C 754.417969 721.660156 753.128906 722.375 751.859375 723.117188 C 750.585938 723.863281 749.335938 724.636719 748.105469 725.441406 C 746.871094 726.25 745.660156 727.085938 744.46875 727.949219 C 743.28125 728.816406 742.113281 729.710938 740.964844 730.636719 C 739.820312 731.558594 738.695312 732.511719 737.597656 733.492188 C 736.5 734.472656 735.425781 735.476562 734.375 736.511719 C 733.328125 737.542969 732.304688 738.601562 731.308594 739.683594 C 730.3125 740.769531 729.339844 741.875 728.398438 743.007812 C 727.457031 744.140625 726.546875 745.292969 725.660156 746.46875 C 724.777344 747.648438 723.921875 748.84375 723.097656 750.066406 C 722.269531 751.285156 721.476562 752.523438 720.714844 753.78125 C 719.949219 755.039062 719.21875 756.316406 718.519531 757.613281 C 717.816406 758.90625 717.148438 760.21875 716.515625 761.546875 C 715.878906 762.875 715.277344 764.21875 714.707031 765.574219 C 714.140625 766.933594 713.605469 768.304688 713.105469 769.6875 C 712.605469 771.074219 712.136719 772.46875 711.707031 773.878906 C 711.273438 775.285156 710.878906 776.703125 710.515625 778.128906 C 710.15625 779.554688 709.832031 780.992188 709.539062 782.433594 C 709.25 783.878906 708.996094 785.328125 708.777344 786.785156 C 708.558594 788.238281 708.378906 789.699219 708.234375 791.164062 C 708.085938 792.628906 707.976562 794.097656 707.90625 795.566406 C 707.832031 797.039062 707.796875 798.507812 707.796875 799.980469 C 707.796875 801.453125 707.832031 802.925781 707.90625 804.394531 C 707.976562 805.867188 708.085938 807.332031 708.234375 808.796875 C 708.378906 810.261719 708.558594 811.722656 708.777344 813.179688 C 708.996094 814.636719 709.25 816.085938 709.539062 817.527344 C 709.832031 818.972656 710.15625 820.40625 710.515625 821.835938 C 710.878906 823.261719 711.273438 824.679688 711.707031 826.085938 C 712.136719 827.496094 712.605469 828.890625 713.105469 830.273438 C 713.605469 831.660156 714.140625 833.03125 714.707031 834.386719 C 715.277344 835.746094 715.878906 837.089844 716.515625 838.417969 C 717.148438 839.746094 717.816406 841.058594 718.519531 842.351562 C 719.21875 843.648438 719.949219 844.921875 720.714844 846.183594 C 721.476562 847.441406 722.269531 848.679688 723.097656 849.898438 C 723.921875 851.117188 724.777344 852.316406 725.660156 853.492188 C 726.546875 854.671875 727.457031 855.824219 728.398438 856.957031 C 729.339844 858.085938 730.3125 859.195312 731.308594 860.277344 C 732.304688 861.363281 733.328125 862.421875 734.375 863.453125 C 735.425781 864.488281 736.5 865.492188 737.597656 866.472656 C 738.695312 867.453125 739.820312 868.402344 740.964844 869.328125 C 742.113281 870.25 743.28125 871.148438 744.46875 872.011719 C 745.660156 872.878906 746.871094 873.714844 748.105469 874.519531 C 749.335938 875.328125 750.585938 876.101562 751.859375 876.847656 C 753.128906 877.589844 754.417969 878.300781 755.722656 878.980469 C 757.027344 879.660156 758.347656 880.308594 759.6875 880.925781 C 761.023438 881.539062 762.378906 882.121094 763.742188 882.667969 C 765.109375 883.214844 766.488281 883.726562 767.882812 884.207031 C 769.273438 884.6875 770.675781 885.128906 772.089844 885.539062 C 773.503906 885.949219 774.929688 886.324219 776.359375 886.664062 C 777.792969 887 779.234375 887.304688 780.679688 887.574219 C 782.128906 887.839844 783.582031 888.070312 785.042969 888.265625 C 786.5 888.460938 787.964844 888.621094 789.429688 888.746094 C 790.898438 888.867188 792.367188 888.953125 793.839844 889.003906 C 795.308594 889.054688 796.78125 889.066406 798.253906 889.046875 L 871.617188 889.046875 C 873.980469 888.964844 876.347656 888.941406 878.714844 888.976562 C 881.082031 889.011719 883.445312 889.109375 885.808594 889.261719 C 888.167969 889.417969 890.527344 889.632812 892.878906 889.90625 C 895.226562 890.179688 897.570312 890.511719 899.90625 890.902344 C 902.238281 891.292969 904.5625 891.742188 906.875 892.25 C 909.1875 892.757812 911.484375 893.320312 913.769531 893.945312 C 916.050781 894.566406 918.320312 895.246094 920.570312 895.984375 C 922.816406 896.71875 925.046875 897.511719 927.257812 898.359375 C 929.46875 899.207031 931.652344 900.113281 933.820312 901.070312 C 935.984375 902.027344 938.121094 903.039062 940.234375 904.105469 C 942.347656 905.171875 944.433594 906.289062 946.492188 907.460938 C 948.550781 908.628906 950.578125 909.851562 952.574219 911.121094 C 954.570312 912.394531 956.53125 913.714844 958.460938 915.085938 C 960.390625 916.457031 962.285156 917.875 964.144531 919.339844 C 966.003906 920.804688 967.824219 922.316406 969.609375 923.871094 C 971.390625 925.429688 973.132812 927.03125 974.835938 928.675781 C 976.539062 930.320312 978.199219 932.003906 979.816406 933.730469 C 981.433594 935.460938 983.007812 937.226562 984.539062 939.035156 C 986.066406 940.839844 987.550781 942.683594 988.988281 944.566406 C 990.425781 946.445312 991.8125 948.363281 993.152344 950.3125 C 994.492188 952.261719 995.785156 954.246094 997.027344 956.261719 C 998.265625 958.277344 999.457031 960.324219 1000.59375 962.398438 C 1001.734375 964.472656 1002.820312 966.574219 1003.851562 968.707031 C 1004.886719 970.835938 1005.863281 972.988281 1006.789062 975.167969 C 1007.714844 977.347656 1008.582031 979.546875 1009.398438 981.769531 C 1010.210938 983.992188 1010.96875 986.234375 1011.671875 988.496094 C 1012.375 990.753906 1013.019531 993.03125 1013.605469 995.324219 C 1014.195312 997.617188 1014.722656 999.921875 1015.195312 1002.242188 C 1015.667969 1004.5625 1016.082031 1006.890625 1016.4375 1009.230469 C 1016.789062 1011.570312 1017.085938 1013.917969 1017.324219 1016.273438 C 1017.5625 1018.628906 1017.738281 1020.988281 1017.859375 1023.351562 C 1017.976562 1025.71875 1018.035156 1028.082031 1018.035156 1030.449219 C 1018.035156 1032.816406 1017.976562 1035.183594 1017.859375 1037.546875 C 1017.738281 1039.910156 1017.5625 1042.269531 1017.324219 1044.625 C 1017.085938 1046.980469 1016.789062 1049.328125 1016.4375 1051.667969 C 1016.082031 1054.007812 1015.667969 1056.335938 1015.195312 1058.65625 C 1014.722656 1060.976562 1014.195312 1063.28125 1013.605469 1065.574219 C 1013.019531 1067.867188 1012.375 1070.144531 1011.671875 1072.40625 C 1010.96875 1074.664062 1010.210938 1076.90625 1009.398438 1079.128906 C 1008.582031 1081.351562 1007.714844 1083.554688 1006.789062 1085.730469 C 1005.863281 1087.910156 1004.886719 1090.066406 1003.851562 1092.195312 C 1002.820312 1094.324219 1001.734375 1096.425781 1000.59375 1098.5 C 999.457031 1100.578125 998.265625 1102.621094 997.027344 1104.636719 C 995.785156 1106.652344 994.492188 1108.636719 993.152344 1110.585938 C 991.8125 1112.539062 990.425781 1114.453125 988.988281 1116.335938 C 987.550781 1118.214844 986.066406 1120.058594 984.539062 1121.867188 C 983.007812 1123.671875 981.433594 1125.441406 979.816406 1127.167969 C 978.199219 1128.894531 976.539062 1130.582031 974.835938 1132.226562 C 973.132812 1133.871094 971.390625 1135.46875 969.609375 1137.027344 C 967.824219 1138.582031 966.003906 1140.09375 964.144531 1141.558594 C 962.285156 1143.027344 960.390625 1144.445312 958.460938 1145.8125 C 956.53125 1147.183594 954.570312 1148.503906 952.574219 1149.777344 C 950.578125 1151.050781 948.550781 1152.269531 946.492188 1153.441406 C 944.433594 1154.609375 942.347656 1155.726562 940.234375 1156.792969 C 938.121094 1157.859375 935.984375 1158.871094 933.820312 1159.828125 C 931.652344 1160.789062 929.46875 1161.691406 927.257812 1162.539062 C 925.046875 1163.386719 922.816406 1164.179688 920.570312 1164.917969 C 918.320312 1165.652344 916.050781 1166.332031 913.769531 1166.953125 C 911.484375 1167.578125 909.1875 1168.144531 906.875 1168.648438 C 904.5625 1169.15625 902.238281 1169.605469 899.90625 1169.996094 C 897.570312 1170.386719 895.226562 1170.71875 892.878906 1170.992188 C 890.527344 1171.265625 888.167969 1171.480469 885.808594 1171.636719 C 883.445312 1171.789062 881.082031 1171.886719 878.714844 1171.921875 C 876.347656 1171.960938 873.980469 1171.9375 871.617188 1171.855469 Z M 871.617188 1171.855469 " fill-opacity="1" fill-rule="nonzero"/></svg>