<svg xmlns="http://www.w3.org/2000/svg" xmlns:xlink="http://www.w3.org/1999/xlink" width="2000" zoomAndPan="magnify" viewBox="0 0 1500 1499.999933" height="2000" preserveAspectRatio="xMidYMid meet" version="1.0"><defs><clipPath id="8d6c620dd9"><path d="M 234.554688 311.226562 L 1265.804688 311.226562 L 1265.804688 1188.726562 L 234.554688 1188.726562 Z M 234.554688 311.226562 " clip-rule="nonzero"/></clipPath></defs><rect x="-150" width="1800" fill="#ffffff" y="-149.999993" height="1799.99992" fill-opacity="1"/><rect x="-150" width="1800" fill="#ffffff" y="-149.999993" height="1799.99992" fill-opacity="1"/><g clip-path="url(#8d6c620dd9)"><path fill="#000000" d="M 737.96875 311.375 C 666.8125 311.375 624.773438 366.019531 627.074219 420.660156 C 628.5 454.480469 648.441406 486.714844 681.550781 508.300781 C 615.558594 529.261719 566.257812 587.515625 566.257812 658.441406 L 566.257812 695.207031 C 566.257812 695.78125 566.289062 696.351562 566.34375 696.917969 C 566.398438 697.488281 566.484375 698.050781 566.59375 698.613281 C 566.707031 699.171875 566.84375 699.726562 567.011719 700.273438 C 567.175781 700.820312 567.371094 701.355469 567.589844 701.882812 C 567.808594 702.414062 568.050781 702.929688 568.320312 703.433594 C 568.589844 703.9375 568.882812 704.425781 569.203125 704.902344 C 569.519531 705.375 569.859375 705.835938 570.222656 706.277344 C 570.585938 706.71875 570.96875 707.140625 571.371094 707.542969 C 571.777344 707.949219 572.199219 708.332031 572.640625 708.695312 C 573.082031 709.058594 573.542969 709.398438 574.015625 709.714844 C 574.492188 710.03125 574.980469 710.324219 575.484375 710.59375 C 575.992188 710.863281 576.507812 711.109375 577.035156 711.328125 C 577.5625 711.546875 578.101562 711.738281 578.648438 711.902344 C 579.195312 712.070312 579.746094 712.207031 580.308594 712.320312 C 580.867188 712.429688 581.433594 712.515625 582.003906 712.570312 C 582.570312 712.628906 583.140625 712.65625 583.714844 712.65625 L 880.425781 712.65625 L 880.425781 747.550781 L 478.992188 747.550781 C 478.34375 747.546875 477.703125 747.582031 477.058594 747.65625 C 476.417969 747.726562 475.78125 747.832031 475.152344 747.972656 C 474.523438 748.113281 473.902344 748.289062 473.289062 748.5 C 472.679688 748.710938 472.082031 748.953125 471.5 749.230469 C 470.914062 749.507812 470.347656 749.816406 469.800781 750.15625 C 469.25 750.496094 468.722656 750.863281 468.214844 751.261719 C 467.707031 751.660156 467.21875 752.085938 466.757812 752.535156 C 466.296875 752.988281 465.863281 753.464844 465.453125 753.964844 C 465.046875 754.464844 464.667969 754.984375 464.316406 755.527344 C 463.964844 756.070312 463.648438 756.628906 463.359375 757.207031 C 463.070312 757.785156 462.8125 758.375 462.589844 758.984375 C 462.371094 759.589844 462.179688 760.203125 462.027344 760.832031 C 461.871094 761.457031 461.753906 762.09375 461.667969 762.730469 C 461.585938 763.371094 461.539062 764.015625 461.523438 764.660156 C 461.511719 765.304688 461.535156 765.949219 461.59375 766.59375 C 461.652344 767.234375 461.75 767.875 461.878906 768.503906 L 481.308594 863.066406 C 481.496094 863.976562 481.753906 864.863281 482.082031 865.730469 C 482.410156 866.601562 482.804688 867.4375 483.265625 868.242188 C 483.726562 869.046875 484.25 869.808594 484.832031 870.53125 C 485.417969 871.253906 486.054688 871.925781 486.742188 872.546875 C 487.433594 873.164062 488.167969 873.726562 488.949219 874.230469 C 489.730469 874.734375 490.546875 875.171875 491.394531 875.542969 C 492.246094 875.917969 493.121094 876.21875 494.019531 876.453125 C 494.917969 876.6875 495.828125 876.847656 496.75 876.933594 L 612.554688 887.90625 C 612.746094 887.921875 612.9375 887.933594 613.132812 887.941406 C 655.046875 890.484375 687.828125 924.664062 688.707031 967.03125 L 692.015625 1126.679688 C 692.324219 1141.765625 680.652344 1153.664062 665.800781 1153.664062 C 652.9375 1153.664062 642.136719 1144.5 639.996094 1131.585938 L 613.4375 971.496094 C 613.269531 970.484375 613.015625 969.496094 612.671875 968.53125 C 612.332031 967.566406 611.90625 966.636719 611.402344 965.746094 C 610.894531 964.855469 610.316406 964.015625 609.660156 963.226562 C 609.007812 962.4375 608.289062 961.710938 607.507812 961.050781 C 606.722656 960.386719 605.890625 959.796875 605.003906 959.28125 C 604.117188 958.765625 603.195312 958.332031 602.234375 957.980469 C 601.269531 957.625 600.285156 957.359375 599.277344 957.179688 C 598.265625 957 597.25 956.910156 596.222656 956.910156 L 385.039062 956.910156 C 331.234375 956.910156 287.976562 913.1875 288.363281 858.910156 L 289.589844 679.089844 C 289.589844 679.054688 289.589844 679.023438 289.589844 678.988281 C 289.589844 652.425781 309.597656 630.621094 335.679688 628.691406 C 335.703125 628.691406 335.726562 628.691406 335.746094 628.691406 C 336.011719 628.671875 336.175781 628.671875 336.328125 628.65625 C 341.636719 628.273438 346.480469 627.492188 351.222656 626.679688 C 357.414062 627.597656 363.804688 628.4375 370.824219 628.726562 C 371.15625 628.742188 371.65625 628.773438 371.40625 628.761719 C 371.496094 628.761719 371.585938 628.761719 371.679688 628.761719 C 410.769531 630.457031 450.921875 662.238281 462.253906 700.183594 C 462.417969 700.730469 462.605469 701.269531 462.820312 701.796875 C 463.039062 702.328125 463.28125 702.84375 463.546875 703.351562 C 463.8125 703.855469 464.105469 704.347656 464.417969 704.824219 C 464.734375 705.300781 465.074219 705.761719 465.433594 706.207031 C 465.792969 706.648438 466.175781 707.074219 466.578125 707.480469 C 466.980469 707.886719 467.398438 708.273438 467.839844 708.636719 C 468.28125 709 468.738281 709.34375 469.210938 709.664062 C 469.683594 709.984375 470.171875 710.28125 470.675781 710.550781 C 471.179688 710.824219 471.695312 711.070312 472.222656 711.292969 C 472.746094 711.515625 473.285156 711.710938 473.832031 711.878906 C 474.375 712.046875 474.929688 712.1875 475.492188 712.304688 C 476.050781 712.417969 476.613281 712.503906 477.183594 712.5625 C 477.753906 712.625 478.324219 712.65625 478.894531 712.65625 C 479.464844 712.660156 480.035156 712.636719 480.605469 712.582031 C 481.175781 712.53125 481.742188 712.449219 482.300781 712.339844 C 482.863281 712.230469 483.417969 712.097656 483.964844 711.933594 C 484.515625 711.769531 485.054688 711.582031 485.582031 711.367188 C 486.113281 711.148438 486.628906 710.910156 487.136719 710.640625 C 487.640625 710.375 488.132812 710.085938 488.609375 709.769531 C 489.085938 709.453125 489.546875 709.117188 489.992188 708.757812 C 490.4375 708.398438 490.859375 708.015625 491.265625 707.613281 C 491.675781 707.210938 492.058594 706.792969 492.425781 706.351562 C 492.789062 705.910156 493.132812 705.457031 493.453125 704.980469 C 493.773438 704.507812 494.070312 704.019531 494.34375 703.519531 C 494.613281 703.015625 494.863281 702.5 495.082031 701.972656 C 495.304688 701.445312 495.5 700.910156 495.671875 700.363281 C 495.839844 699.820312 495.980469 699.265625 496.097656 698.707031 C 496.210938 698.144531 496.296875 697.582031 496.355469 697.011719 C 496.417969 696.445312 496.449219 695.875 496.453125 695.304688 C 496.453125 694.730469 496.429688 694.160156 496.378906 693.59375 C 496.324219 693.023438 496.242188 692.457031 496.136719 691.898438 C 496.027344 691.335938 495.890625 690.78125 495.730469 690.234375 C 483.550781 649.445312 451.058594 616.398438 411.597656 601.875 C 445.21875 576.890625 462.566406 538.183594 462.117188 500.941406 C 461.785156 473.636719 452.308594 446.613281 433.210938 426.246094 C 414.109375 405.878906 385.332031 392.921875 350.234375 392.921875 C 279.125 392.921875 236.0625 446.015625 234.671875 501.113281 C 233.664062 541.15625 254.21875 582.65625 294.535156 607.054688 C 270.613281 622.285156 254.683594 648.917969 254.683594 678.988281 L 253.457031 858.671875 C 252.933594 931.789062 312.167969 991.804688 385.039062 991.804688 L 581.429688 991.804688 L 605.566406 1137.308594 C 610.441406 1166.71875 636.007812 1188.558594 665.800781 1188.558594 C 699.890625 1188.558594 727.589844 1160.039062 726.886719 1125.960938 L 723.617188 966.316406 C 722.367188 906.199219 675.085938 856.75 615.246094 853.117188 L 615.859375 853.148438 L 512.910156 843.4375 L 500.398438 782.441406 L 897.878906 782.441406 C 898.453125 782.441406 899.023438 782.414062 899.589844 782.359375 C 900.160156 782.300781 900.726562 782.21875 901.285156 782.105469 C 901.847656 781.996094 902.398438 781.855469 902.945312 781.691406 C 903.492188 781.523438 904.03125 781.332031 904.558594 781.113281 C 905.085938 780.894531 905.605469 780.652344 906.109375 780.382812 C 906.613281 780.113281 907.101562 779.820312 907.578125 779.5 C 908.050781 779.183594 908.511719 778.84375 908.953125 778.480469 C 909.394531 778.121094 909.816406 777.734375 910.222656 777.332031 C 910.625 776.929688 911.007812 776.503906 911.371094 776.0625 C 911.734375 775.621094 912.074219 775.164062 912.390625 774.6875 C 912.710938 774.214844 913.003906 773.722656 913.273438 773.21875 C 913.542969 772.714844 913.785156 772.199219 914.003906 771.671875 C 914.222656 771.144531 914.417969 770.605469 914.582031 770.058594 C 914.75 769.511719 914.886719 768.960938 915 768.398438 C 915.109375 767.839844 915.195312 767.273438 915.25 766.707031 C 915.304688 766.136719 915.335938 765.566406 915.335938 764.996094 L 915.335938 712.65625 L 1020.054688 712.65625 C 1020.988281 712.65625 1021.917969 712.582031 1022.839844 712.433594 C 1023.761719 712.285156 1024.664062 712.066406 1025.550781 711.773438 C 1026.4375 711.480469 1027.292969 711.121094 1028.121094 710.691406 C 1028.949219 710.257812 1029.738281 709.765625 1030.488281 709.210938 C 1031.238281 708.652344 1031.9375 708.039062 1032.585938 707.371094 C 1033.238281 706.703125 1033.832031 705.988281 1034.367188 705.222656 C 1034.902344 704.457031 1035.375 703.65625 1035.78125 702.816406 C 1036.1875 701.976562 1036.527344 701.109375 1036.792969 700.21875 C 1048.066406 662.515625 1089.378906 630.457031 1128.5625 628.761719 C 1128.652344 628.761719 1128.746094 628.761719 1128.835938 628.761719 C 1128.585938 628.773438 1129.082031 628.742188 1129.414062 628.726562 C 1136.453125 628.4375 1142.851562 627.597656 1149.050781 626.679688 C 1153.78125 627.488281 1158.617188 628.273438 1163.914062 628.65625 C 1164.070312 628.671875 1164.265625 628.667969 1164.5625 628.691406 C 1164.582031 628.691406 1164.605469 628.691406 1164.628906 628.691406 C 1190.773438 630.621094 1210.820312 652.441406 1210.820312 678.988281 C 1210.820312 679.023438 1210.820312 679.054688 1210.820312 679.089844 L 1212.046875 858.910156 C 1212.417969 913.175781 1169.09375 956.910156 1115.164062 956.910156 L 903.640625 956.910156 C 902.617188 956.910156 901.597656 957 900.589844 957.179688 C 899.582031 957.359375 898.59375 957.625 897.632812 957.980469 C 896.671875 958.332031 895.746094 958.765625 894.859375 959.28125 C 893.976562 959.796875 893.140625 960.386719 892.359375 961.050781 C 891.578125 961.710938 890.859375 962.4375 890.207031 963.226562 C 889.550781 964.015625 888.972656 964.855469 888.464844 965.746094 C 887.960938 966.636719 887.535156 967.566406 887.191406 968.53125 C 886.851562 969.496094 886.59375 970.484375 886.425781 971.496094 L 859.871094 1131.585938 C 857.734375 1144.484375 846.875 1153.664062 833.964844 1153.664062 C 819.0625 1153.664062 807.402344 1141.75 807.714844 1126.679688 L 811.019531 967.03125 C 811.902344 924.675781 844.714844 890.488281 886.734375 887.941406 C 886.925781 887.933594 887.121094 887.921875 887.3125 887.90625 L 1003.285156 876.933594 C 1004.214844 876.847656 1005.132812 876.683594 1006.039062 876.449219 C 1006.945312 876.210938 1007.824219 875.902344 1008.679688 875.527344 C 1009.535156 875.148438 1010.355469 874.703125 1011.140625 874.195312 C 1011.925781 873.683594 1012.664062 873.113281 1013.355469 872.488281 C 1014.050781 871.859375 1014.6875 871.179688 1015.273438 870.449219 C 1015.855469 869.714844 1016.375 868.941406 1016.835938 868.128906 C 1017.292969 867.3125 1017.6875 866.46875 1018.007812 865.589844 C 1018.332031 864.710938 1018.582031 863.8125 1018.761719 862.894531 L 1037.203125 768.335938 C 1037.3125 767.773438 1037.394531 767.207031 1037.449219 766.640625 C 1037.503906 766.070312 1037.527344 765.5 1037.527344 764.925781 C 1037.523438 764.355469 1037.492188 763.785156 1037.433594 763.214844 C 1037.375 762.648438 1037.289062 762.082031 1037.175781 761.523438 C 1037.0625 760.960938 1036.921875 760.40625 1036.753906 759.859375 C 1036.585938 759.3125 1036.390625 758.777344 1036.167969 758.25 C 1035.949219 757.722656 1035.703125 757.207031 1035.429688 756.703125 C 1035.160156 756.199219 1034.863281 755.710938 1034.542969 755.238281 C 1034.222656 754.761719 1033.882812 754.304688 1033.515625 753.863281 C 1033.152344 753.425781 1032.765625 753.003906 1032.359375 752.597656 C 1031.953125 752.195312 1031.53125 751.816406 1031.085938 751.453125 C 1030.640625 751.09375 1030.183594 750.753906 1029.703125 750.4375 C 1029.226562 750.121094 1028.738281 749.832031 1028.230469 749.5625 C 1027.726562 749.296875 1027.207031 749.054688 1026.679688 748.835938 C 1026.148438 748.621094 1025.609375 748.429688 1025.0625 748.265625 C 1024.515625 748.101562 1023.957031 747.964844 1023.398438 747.855469 C 1022.835938 747.746094 1022.269531 747.664062 1021.699219 747.609375 C 1021.128906 747.558594 1020.558594 747.53125 1019.988281 747.535156 C 1019.414062 747.535156 1018.84375 747.566406 1018.277344 747.625 C 1017.707031 747.683594 1017.140625 747.769531 1016.582031 747.882812 C 1016.019531 747.996094 1015.464844 748.136719 1014.917969 748.304688 C 1014.371094 748.472656 1013.835938 748.667969 1013.308594 748.890625 C 1012.78125 749.109375 1012.265625 749.355469 1011.761719 749.628906 C 1011.257812 749.898438 1010.769531 750.195312 1010.292969 750.515625 C 1009.820312 750.835938 1009.363281 751.175781 1008.921875 751.539062 C 1008.480469 751.90625 1008.058594 752.289062 1007.65625 752.695312 C 1007.253906 753.101562 1006.871094 753.527344 1006.507812 753.972656 C 1006.148438 754.414062 1005.808594 754.875 1005.492188 755.351562 C 1005.175781 755.828125 1004.886719 756.320312 1004.617188 756.824219 C 1004.351562 757.332031 1004.109375 757.847656 1003.890625 758.375 C 1003.675781 758.90625 1003.484375 759.445312 1003.320312 759.992188 C 1003.15625 760.539062 1003.019531 761.09375 1002.910156 761.65625 L 986.988281 843.4375 L 884.007812 853.148438 L 884.621094 853.117188 C 824.707031 856.746094 777.363281 906.1875 776.113281 966.316406 L 772.808594 1125.960938 C 772.105469 1160.054688 799.851562 1188.558594 833.964844 1188.558594 C 863.777344 1188.558594 889.421875 1166.738281 894.300781 1137.308594 L 918.4375 991.804688 L 1115.164062 991.804688 C 1188.125 991.804688 1247.457031 931.800781 1246.953125 858.671875 L 1245.726562 678.988281 C 1245.726562 648.898438 1229.769531 622.277344 1205.808594 607.054688 C 1246.179688 582.660156 1266.785156 541.164062 1265.773438 501.113281 C 1264.378906 446 1221.203125 392.921875 1150.003906 392.921875 C 1114.863281 392.921875 1086.09375 405.882812 1066.964844 426.246094 C 1047.832031 446.613281 1038.316406 473.628906 1037.988281 500.941406 C 1037.539062 538.199219 1054.921875 576.964844 1088.609375 601.941406 C 1053.59375 615.03125 1024.222656 642.9375 1009.421875 677.761719 L 915.335938 677.761719 L 915.335938 660.316406 C 915.335938 587.402344 863.554688 525.992188 794.625 506.769531 C 825.261719 484.71875 843.835938 452.5 845.246094 419.226562 C 846.382812 392.378906 837.957031 365.4375 819.578125 344.976562 C 801.199219 324.515625 772.835938 311.375 737.96875 311.375 Z M 737.96875 346.269531 C 764.441406 346.269531 781.910156 355.269531 793.601562 368.285156 C 805.292969 381.296875 811.160156 399.15625 810.375 417.761719 C 808.960938 451.097656 786.457031 484.332031 738.546875 494.332031 C 686.472656 484.878906 663.335938 452.082031 661.949219 419.191406 C 660.378906 381.96875 683.5625 346.269531 737.96875 346.269531 Z M 350.234375 427.8125 C 377.074219 427.8125 395.261719 436.824219 407.746094 450.132812 C 420.226562 463.445312 426.972656 481.835938 427.210938 501.351562 C 427.671875 539.59375 404.175781 579.839844 350.78125 590.96875 C 292.222656 580.207031 268.621094 540.082031 269.582031 501.996094 C 270.558594 463.179688 295.484375 427.8125 350.234375 427.8125 Z M 1150.003906 427.8125 C 1204.875 427.8125 1229.882812 463.191406 1230.863281 501.996094 C 1231.828125 540.070312 1208.175781 580.207031 1149.492188 590.96875 C 1095.988281 579.839844 1072.433594 539.585938 1072.894531 501.351562 C 1073.128906 481.84375 1079.890625 463.445312 1092.394531 450.132812 C 1104.898438 436.820312 1123.109375 427.8125 1150.003906 427.8125 Z M 760.5 498.25 L 760.910156 498.285156 C 760.761719 498.273438 760.703125 498.292969 760.570312 498.285156 C 760.539062 498.28125 760.527344 498.25 760.5 498.25 Z M 739.433594 529.328125 C 745.722656 530.269531 750.714844 532.765625 757.5 533.039062 C 757.535156 533.039062 757.570312 533.039062 757.601562 533.039062 C 758.089844 533.058594 758.378906 533.066406 758.457031 533.074219 C 758.589844 533.089844 758.726562 533.097656 758.863281 533.109375 C 826.078125 536.257812 880.425781 594.410156 880.425781 660.316406 L 880.425781 677.761719 L 601.167969 677.761719 L 601.167969 658.441406 C 601.167969 593.46875 653.777344 538.550781 720.480469 533.28125 C 720.503906 533.28125 720.523438 533.28125 720.546875 533.28125 C 721.878906 533.167969 723.273438 533.078125 724.742188 532.972656 C 724.753906 532.972656 724.761719 532.972656 724.773438 532.972656 C 730.273438 532.574219 734.289062 530.222656 739.433594 529.328125 Z M 739.433594 529.328125 " fill-opacity="1" fill-rule="nonzero"/></g></svg>