<svg xmlns="http://www.w3.org/2000/svg" xmlns:xlink="http://www.w3.org/1999/xlink" width="2000" zoomAndPan="magnify" viewBox="0 0 1500 1499.999933" height="2000" preserveAspectRatio="xMidYMid meet" version="1.0"><defs><clipPath id="11b6bc89f4"><path d="M 235.617188 326.070312 L 686.367188 326.070312 L 686.367188 1173.570312 L 235.617188 1173.570312 Z M 235.617188 326.070312 " clip-rule="nonzero"/></clipPath><clipPath id="6d9554399d"><path d="M 704.503906 888 L 1264.753906 888 L 1264.753906 933 L 704.503906 933 Z M 704.503906 888 " clip-rule="nonzero"/></clipPath><clipPath id="7ac12d31ee"><path d="M 704.503906 640 L 1264.753906 640 L 1264.753906 685 L 704.503906 685 Z M 704.503906 640 " clip-rule="nonzero"/></clipPath></defs><rect x="-150" width="1800" fill="#ffffff" y="-149.999993" height="1799.99992" fill-opacity="1"/><rect x="-150" width="1800" fill="#ffffff" y="-149.999993" height="1799.99992" fill-opacity="1"/><path fill="#000000" d="M 307.949219 508.726562 C 320.832031 508.320312 325.074219 500.441406 325.03125 490.746094 C 324.992188 477.164062 325.011719 463.582031 325.03125 450.019531 C 325.03125 436.4375 325.03125 422.855469 325.050781 409.292969 C 325.074219 398.90625 320.425781 390.863281 306.359375 391.167969 C 293.207031 391.453125 289.375 399.601562 289.355469 409.128906 C 289.292969 436.296875 289.292969 463.441406 289.3125 490.605469 C 289.3125 500.886719 293.757812 509.175781 307.949219 508.726562 Z M 307.949219 508.726562 " fill-opacity="1" fill-rule="nonzero"/><g clip-path="url(#11b6bc89f4)"><path fill="#000000" d="M 686.261719 369.15625 C 686.242188 337.0625 672.972656 326.71875 633.117188 326.679688 C 518.847656 326.578125 404.582031 326.597656 290.3125 326.660156 C 248.214844 326.679688 235.675781 337.144531 235.65625 372.253906 C 235.59375 491.621094 235.636719 611.011719 235.636719 730.382812 C 235.636719 851.160156 235.59375 971.953125 235.675781 1092.730469 C 235.695312 1119.855469 243.566406 1126.308594 269.375 1136.980469 C 266.277344 1140.6875 264.460938 1145.144531 264.460938 1149.972656 C 264.460938 1162.699219 277.082031 1173.003906 292.636719 1173.003906 L 308.007812 1173.003906 C 323.5625 1173.003906 336.183594 1162.699219 336.183594 1149.972656 C 336.183594 1146.121094 335.019531 1142.476562 332.960938 1139.300781 C 333.042969 1139.21875 333.125 1139.160156 333.207031 1139.078125 C 335.878906 1136.613281 344.765625 1138.589844 350.78125 1138.589844 C 420.378906 1138.566406 489.960938 1138.488281 559.558594 1138.648438 C 569.691406 1138.667969 580.050781 1137.324219 589.507812 1139.992188 C 587.714844 1143.007812 586.714844 1146.40625 586.714844 1149.992188 C 586.714844 1162.71875 599.335938 1173.023438 614.890625 1173.023438 L 630.261719 1173.023438 C 645.816406 1173.023438 658.4375 1162.71875 658.4375 1149.992188 C 658.4375 1144.984375 656.480469 1140.339844 653.136719 1136.550781 C 680.085938 1128.8125 686.222656 1120.546875 686.222656 1093.851562 C 686.40625 852.277344 686.40625 610.726562 686.261719 369.15625 Z M 253.738281 436.558594 C 253.738281 414.097656 254.289062 391.617188 253.554688 369.175781 C 252.945312 350.054688 261.8125 340.832031 286.683594 340.933594 C 403.480469 341.402344 520.273438 341.21875 637.050781 341.054688 C 654.992188 341.035156 668.222656 345.617188 668.304688 361.929688 C 668.691406 427.089844 668.464844 492.273438 668.464844 558.984375 C 530.019531 558.984375 393.308594 558.984375 253.71875 558.984375 C 253.738281 517.585938 253.738281 477.0625 253.738281 436.558594 Z M 668.609375 629.382812 C 668.609375 782.433594 668.609375 935.464844 668.589844 1088.515625 C 668.589844 1119.324219 662.902344 1124.027344 625.753906 1124.027344 C 514.097656 1124.050781 402.441406 1124.109375 290.78125 1123.96875 C 261.976562 1123.925781 253.964844 1118.328125 253.921875 1096.394531 C 253.679688 937.03125 253.800781 777.667969 253.882812 618.304688 C 253.882812 614.921875 254.757812 611.5625 255.453125 606.511719 C 393.796875 606.511719 529.304688 606.511719 668.628906 606.511719 C 668.609375 614.578125 668.609375 621.988281 668.609375 629.382812 Z M 668.609375 629.382812 " fill-opacity="1" fill-rule="nonzero"/></g><path fill="#000000" d="M 325.03125 672.53125 C 325.050781 662.144531 320.402344 654.101562 306.335938 654.40625 C 293.1875 654.691406 289.355469 662.839844 289.335938 672.367188 C 289.273438 699.53125 289.273438 726.675781 289.292969 753.84375 C 289.292969 764.144531 293.738281 772.414062 307.925781 771.964844 C 320.8125 771.558594 325.050781 763.675781 325.011719 753.984375 C 324.96875 740.402344 324.992188 726.820312 325.011719 713.257812 C 325.03125 699.675781 325.011719 686.09375 325.03125 672.53125 Z M 325.03125 672.53125 " fill-opacity="1" fill-rule="nonzero"/><path fill="#000000" d="M 1236.527344 927.652344 C 1236.527344 924.371094 1239.152344 922.074219 1242.109375 922.074219 C 1245.0625 922.074219 1247.359375 924.371094 1247.359375 927.652344 L 1247.359375 1127.53125 C 1247.359375 1133.4375 1245.0625 1138.359375 1241.453125 1142.300781 C 1237.511719 1145.910156 1232.589844 1148.207031 1226.683594 1148.207031 L 742.25 1148.207031 C 736.667969 1148.207031 731.417969 1145.910156 727.808594 1142.300781 C 723.867188 1138.359375 721.570312 1133.4375 721.570312 1127.53125 L 721.570312 927.652344 C 721.570312 924.371094 724.195312 922.074219 727.152344 922.074219 C 730.105469 922.074219 732.730469 924.371094 732.730469 927.652344 L 732.730469 1127.53125 C 732.730469 1130.484375 733.714844 1132.78125 735.355469 1134.421875 C 737.324219 1136.390625 739.621094 1137.375 742.25 1137.375 L 1226.683594 1137.375 C 1229.636719 1137.375 1231.933594 1136.390625 1233.574219 1134.421875 C 1235.542969 1132.78125 1236.527344 1130.484375 1236.527344 1127.53125 Z M 1236.527344 927.652344 " fill-opacity="1" fill-rule="nonzero"/><g clip-path="url(#6d9554399d)"><path fill="#000000" d="M 717.632812 922.074219 L 1251.625 922.074219 C 1252.28125 922.074219 1252.609375 921.746094 1252.9375 921.414062 C 1253.59375 921.085938 1253.59375 920.429688 1253.59375 920.101562 L 1253.59375 901.722656 C 1253.59375 901.394531 1253.59375 900.738281 1252.9375 900.410156 C 1252.609375 900.082031 1252.28125 899.753906 1251.625 899.753906 L 717.632812 899.753906 C 716.976562 899.753906 716.320312 900.082031 715.992188 900.410156 C 715.664062 900.738281 715.335938 901.394531 715.335938 901.722656 L 715.335938 920.101562 C 715.335938 920.429688 715.664062 921.085938 715.992188 921.414062 C 716.320312 921.746094 716.976562 922.074219 717.632812 922.074219 Z M 1251.625 932.902344 L 717.632812 932.902344 C 714.023438 932.902344 710.742188 931.589844 708.441406 929.292969 C 705.816406 926.667969 704.503906 923.386719 704.503906 920.101562 L 704.503906 901.722656 C 704.503906 898.113281 705.816406 894.832031 708.441406 892.535156 C 710.742188 890.234375 714.023438 888.921875 717.632812 888.921875 L 1251.625 888.921875 C 1255.238281 888.921875 1258.519531 890.234375 1260.816406 892.535156 C 1263.113281 894.832031 1264.753906 898.113281 1264.753906 901.722656 L 1264.753906 920.101562 C 1264.753906 923.386719 1263.113281 926.667969 1260.816406 929.292969 C 1258.519531 931.589844 1255.238281 932.902344 1251.625 932.902344 Z M 1251.625 932.902344 " fill-opacity="1" fill-rule="nonzero"/></g><path fill="#000000" d="M 727.152344 1103.570312 C 724.195312 1103.570312 721.570312 1101.273438 721.570312 1098.320312 C 721.570312 1095.367188 724.195312 1092.738281 727.152344 1092.738281 L 1242.109375 1092.738281 C 1245.0625 1092.738281 1247.359375 1095.367188 1247.359375 1098.320312 C 1247.359375 1101.273438 1245.0625 1103.570312 1242.109375 1103.570312 Z M 727.152344 1103.570312 " fill-opacity="1" fill-rule="nonzero"/><path fill="#000000" d="M 1044.527344 927.652344 C 1044.527344 924.371094 1047.152344 922.074219 1050.105469 922.074219 C 1053.0625 922.074219 1055.6875 924.371094 1055.6875 927.652344 L 1055.6875 964.082031 C 1055.6875 967.363281 1053.0625 969.664062 1050.105469 969.664062 L 919.152344 969.664062 C 915.871094 969.664062 913.574219 967.363281 913.574219 964.082031 L 913.574219 927.652344 C 913.574219 924.371094 915.871094 922.074219 919.152344 922.074219 C 922.105469 922.074219 924.402344 924.371094 924.402344 927.652344 L 924.402344 958.832031 L 1044.527344 958.832031 Z M 1044.527344 927.652344 " fill-opacity="1" fill-rule="nonzero"/><path fill="#000000" d="M 1218.804688 1073.046875 C 1218.804688 1076.328125 1216.507812 1078.628906 1213.226562 1078.628906 C 1210.273438 1078.628906 1207.972656 1076.328125 1207.972656 1073.046875 L 1207.972656 956.207031 C 1207.972656 952.925781 1210.273438 950.625 1213.226562 950.625 C 1216.507812 950.625 1218.804688 952.925781 1218.804688 956.207031 Z M 750.453125 956.207031 C 750.453125 952.925781 752.75 950.625 755.703125 950.625 C 758.660156 950.625 761.285156 952.925781 761.285156 956.207031 L 761.285156 1073.046875 C 761.285156 1076.328125 758.660156 1078.628906 755.703125 1078.628906 C 752.75 1078.628906 750.453125 1076.328125 750.453125 1073.046875 Z M 750.453125 956.207031 " fill-opacity="1" fill-rule="nonzero"/><path fill="#000000" d="M 1236.527344 678.871094 C 1236.527344 675.917969 1239.152344 673.292969 1242.109375 673.292969 C 1245.0625 673.292969 1247.359375 675.917969 1247.359375 678.871094 L 1247.359375 879.078125 C 1247.359375 884.65625 1245.0625 889.90625 1241.453125 893.847656 C 1237.839844 897.457031 1232.589844 899.753906 1226.683594 899.753906 C 1223.726562 899.753906 1221.429688 897.457031 1221.429688 894.175781 C 1221.429688 891.222656 1223.726562 888.921875 1226.683594 888.921875 C 1229.636719 888.921875 1231.933594 887.609375 1233.574219 885.96875 C 1235.542969 884.328125 1236.527344 881.703125 1236.527344 879.078125 Z M 742.25 888.921875 C 745.203125 888.921875 747.828125 891.222656 747.828125 894.175781 C 747.828125 897.457031 745.203125 899.753906 742.25 899.753906 C 736.667969 899.753906 731.417969 897.457031 727.808594 893.847656 C 723.867188 889.90625 721.570312 884.65625 721.570312 879.078125 L 721.570312 678.871094 C 721.570312 675.917969 724.195312 673.292969 727.152344 673.292969 C 730.105469 673.292969 732.730469 675.917969 732.730469 678.871094 L 732.730469 879.078125 C 732.730469 881.703125 733.714844 884.328125 735.355469 885.96875 C 737.324219 887.609375 739.621094 888.921875 742.25 888.921875 Z M 742.25 888.921875 " fill-opacity="1" fill-rule="nonzero"/><g clip-path="url(#7ac12d31ee)"><path fill="#000000" d="M 717.632812 673.292969 L 1251.625 673.292969 C 1252.28125 673.292969 1252.609375 673.292969 1252.9375 672.964844 C 1253.59375 672.304688 1253.59375 671.976562 1253.59375 671.320312 L 1253.59375 653.269531 C 1253.59375 652.613281 1253.59375 652.285156 1252.9375 651.957031 C 1252.609375 651.300781 1252.28125 651.300781 1251.625 651.300781 L 717.632812 651.300781 C 716.976562 651.300781 716.320312 651.300781 715.992188 651.957031 C 715.664062 652.285156 715.335938 652.613281 715.335938 653.269531 L 715.335938 671.320312 C 715.335938 671.976562 715.664062 672.304688 715.992188 672.964844 C 716.320312 673.292969 716.976562 673.292969 717.632812 673.292969 Z M 1251.625 684.449219 L 717.632812 684.449219 C 714.023438 684.449219 710.742188 682.808594 708.441406 680.511719 C 705.816406 678.214844 704.503906 674.933594 704.503906 671.320312 L 704.503906 653.269531 C 704.503906 649.660156 705.816406 646.378906 708.441406 644.082031 C 710.742188 641.785156 714.023438 640.140625 717.632812 640.140625 L 1251.625 640.140625 C 1255.238281 640.140625 1258.519531 641.785156 1260.816406 644.082031 C 1263.113281 646.378906 1264.753906 649.660156 1264.753906 653.269531 L 1264.753906 671.320312 C 1264.753906 674.933594 1263.113281 678.214844 1260.816406 680.511719 C 1258.519531 682.808594 1255.238281 684.449219 1251.625 684.449219 Z M 1251.625 684.449219 " fill-opacity="1" fill-rule="nonzero"/></g><path fill="#000000" d="M 727.152344 855.117188 C 724.195312 855.117188 721.570312 852.820312 721.570312 849.539062 C 721.570312 846.585938 724.195312 844.289062 727.152344 844.289062 L 1242.109375 844.289062 C 1245.0625 844.289062 1247.359375 846.585938 1247.359375 849.539062 C 1247.359375 852.820312 1245.0625 855.117188 1242.109375 855.117188 Z M 727.152344 855.117188 " fill-opacity="1" fill-rule="nonzero"/><path fill="#000000" d="M 1044.527344 678.871094 C 1044.527344 675.917969 1047.152344 673.292969 1050.105469 673.292969 C 1053.0625 673.292969 1055.6875 675.917969 1055.6875 678.871094 L 1055.6875 715.628906 C 1055.6875 718.582031 1053.0625 721.210938 1050.105469 721.210938 L 919.152344 721.210938 C 915.871094 721.210938 913.574219 718.582031 913.574219 715.628906 L 913.574219 678.871094 C 913.574219 675.917969 915.871094 673.292969 919.152344 673.292969 C 922.105469 673.292969 924.402344 675.917969 924.402344 678.871094 L 924.402344 710.050781 L 1044.527344 710.050781 Z M 1044.527344 678.871094 " fill-opacity="1" fill-rule="nonzero"/><path fill="#000000" d="M 1218.804688 824.59375 C 1218.804688 827.546875 1216.507812 830.175781 1213.226562 830.175781 C 1210.273438 830.175781 1207.972656 827.546875 1207.972656 824.59375 L 1207.972656 707.425781 C 1207.972656 704.472656 1210.273438 702.171875 1213.226562 702.171875 C 1216.507812 702.171875 1218.804688 704.472656 1218.804688 707.425781 Z M 750.453125 707.425781 C 750.453125 704.472656 752.75 702.171875 755.703125 702.171875 C 758.660156 702.171875 761.285156 704.472656 761.285156 707.425781 L 761.285156 824.59375 C 761.285156 827.546875 758.660156 830.175781 755.703125 830.175781 C 752.75 830.175781 750.453125 827.546875 750.453125 824.59375 Z M 750.453125 707.425781 " fill-opacity="1" fill-rule="nonzero"/></svg>