<svg xmlns="http://www.w3.org/2000/svg" xmlns:xlink="http://www.w3.org/1999/xlink" width="2000" zoomAndPan="magnify" viewBox="0 0 1500 1499.999933" height="2000" preserveAspectRatio="xMidYMid meet" version="1.0"><defs><clipPath id="526c0caec9"><path d="M 288.742188 311.226562 L 1211.242188 311.226562 L 1211.242188 1188.726562 L 288.742188 1188.726562 Z M 288.742188 311.226562 " clip-rule="nonzero"/></clipPath></defs><rect x="-150" width="1800" fill="#ffffff" y="-149.999993" height="1799.99992" fill-opacity="1"/><rect x="-150" width="1800" fill="#ffffff" y="-149.999993" height="1799.99992" fill-opacity="1"/><g clip-path="url(#526c0caec9)"><path fill="#000000" d="M 1164.179688 1126.972656 C 1179.371094 1126.972656 1192.558594 1126.972656 1208.234375 1126.972656 C 1208.234375 1147.84375 1208.234375 1167.246094 1208.234375 1188.4375 C 902.820312 1188.4375 597.84375 1188.4375 290.863281 1188.4375 C 290.863281 1168.464844 290.863281 1149.785156 290.863281 1129.378906 C 304.683594 1128.644531 317.820312 1127.941406 333.195312 1127.140625 C 333.195312 878.121094 333.195312 629.503906 333.195312 378.148438 C 318.355469 377.429688 304.515625 376.777344 288.742188 376.039062 C 288.742188 354.75 288.742188 334.347656 288.742188 311.550781 C 595.972656 311.550781 902.539062 311.550781 1211.242188 311.550781 C 1211.242188 331.335938 1211.242188 351.59375 1211.242188 373.601562 C 1195.515625 374.503906 1180.773438 375.355469 1164.179688 376.324219 C 1164.179688 626.078125 1164.179688 874.847656 1164.179688 1126.972656 Z M 726.328125 1110.160156 C 726.328125 866.40625 726.328125 624.839844 726.328125 383.34375 C 608.742188 383.34375 494.398438 383.34375 380.808594 383.34375 C 380.808594 626.613281 380.808594 867.691406 380.808594 1110.160156 C 497.054688 1110.160156 610.8125 1110.160156 726.328125 1110.160156 Z M 1115.984375 1110.359375 C 1115.984375 866.324219 1115.984375 624.523438 1115.984375 381.085938 C 1106.40625 381.085938 1098.921875 381.085938 1091.433594 381.085938 C 994.121094 381.019531 896.789062 381.757812 799.476562 380.300781 C 775.210938 379.933594 768.558594 386.9375 768.675781 410.953125 C 769.746094 634.933594 769.644531 858.9375 769.980469 1082.9375 C 769.996094 1091.777344 771.097656 1100.617188 771.765625 1110.359375 C 887.582031 1110.359375 1000.636719 1110.359375 1115.984375 1110.359375 Z M 1115.984375 1110.359375 " fill-opacity="1" fill-rule="nonzero"/></g><path fill="#000000" d="M 465.871094 816.421875 C 462.945312 816.054688 460.742188 813.632812 460.574219 810.671875 C 460.273438 805.359375 459.65625 799.726562 462.160156 797.222656 C 504.109375 755.324219 546.742188 714.113281 589.707031 673.253906 C 591.511719 671.535156 594.855469 671.417969 598.347656 671.46875 C 601.757812 671.515625 604.480469 674.375 604.363281 677.785156 C 604.230469 681.761719 603.996094 685.636719 601.941406 687.660156 C 558.738281 730.390625 514.953125 772.519531 471.320312 814.785156 C 469.980469 816.070312 468.144531 816.691406 466.304688 816.457031 Z M 465.871094 816.421875 " fill-opacity="1" fill-rule="nonzero"/><path fill="#000000" d="M 432.214844 778.722656 C 429.574219 777.851562 427.886719 775.328125 428.035156 772.554688 C 428.320312 766.890625 428.167969 760.804688 431.144531 757.847656 C 471.519531 717.65625 512.5625 678.117188 553.960938 638.964844 C 556.398438 636.65625 560.410156 635.988281 564.488281 635.402344 C 567.914062 634.917969 571.089844 637.34375 571.457031 640.785156 C 571.808594 644.160156 571.976562 647.335938 570.472656 648.824219 C 526.753906 691.972656 482.515625 734.601562 438.378906 777.316406 C 436.742188 778.886719 434.371094 779.421875 432.214844 778.722656 Z M 432.214844 778.722656 " fill-opacity="1" fill-rule="nonzero"/><path fill="#000000" d="M 665.8125 762.894531 C 665.8125 747.820312 664.695312 732.613281 666.398438 717.742188 C 666.597656 716.035156 667.417969 714.398438 668.585938 712.8125 C 673.417969 706.261719 683.511719 706.125 688.542969 712.527344 C 689.894531 714.25 690.8125 715.96875 690.882812 717.742188 C 692.050781 748.675781 691.933594 779.707031 690.929688 810.65625 C 690.898438 811.875 690.394531 813.097656 689.644531 814.300781 C 685.332031 821.066406 675.640625 821.71875 669.925781 816.089844 C 668.136719 814.332031 666.832031 812.511719 666.613281 810.574219 C 664.84375 794.863281 665.964844 778.820312 665.964844 762.914062 C 665.914062 762.894531 665.863281 762.894531 665.8125 762.894531 Z M 665.8125 762.894531 " fill-opacity="1" fill-rule="nonzero"/><path fill="#000000" d="M 915.972656 782.78125 C 912.847656 781.410156 910.675781 778.488281 910.277344 775.09375 C 909.640625 769.746094 908.738281 764.132812 911.09375 761.757812 C 954.210938 718.34375 998.03125 675.609375 1042.199219 633.246094 C 1042.734375 632.730469 1043.453125 632.394531 1044.289062 632.179688 C 1051.242188 630.40625 1057.039062 637.574219 1055.167969 644.511719 C 1054.71875 646.148438 1054.082031 647.621094 1053.046875 648.722656 C 1011.882812 693.207031 970.1875 737.226562 928.609375 781.328125 C 925.816406 784.304688 921.457031 785.1875 917.710938 783.550781 Z M 915.972656 782.78125 " fill-opacity="1" fill-rule="nonzero"/><path fill="#000000" d="M 877.085938 740.203125 C 917.980469 695.046875 958.640625 649.675781 1000.101562 605.054688 C 1002.410156 602.582031 1006.019531 601.328125 1009.929688 600.359375 C 1014.574219 599.207031 1018.652344 603.652344 1017.199219 608.214844 C 1016.046875 611.789062 1014.660156 615.117188 1012.285156 617.488281 C 972.84375 657.144531 932.570312 695.964844 892.945312 735.4375 C 882.769531 745.582031 874.828125 750.964844 877.085938 740.203125 Z M 877.085938 740.203125 " fill-opacity="1" fill-rule="nonzero"/><path fill="#000000" d="M 831.59375 763.714844 C 831.59375 779.558594 832.480469 795.464844 831.078125 811.175781 C 830.992188 812.195312 830.660156 813.179688 830.160156 814.167969 C 826.347656 821.621094 815.9375 822.640625 809.988281 816.757812 C 808.214844 815 806.980469 813.230469 806.910156 811.425781 C 805.59375 779.808594 805.507812 748.089844 806.644531 716.472656 C 806.726562 714.363281 808.382812 712.328125 810.640625 710.289062 C 816.085938 705.375 824.792969 705.992188 829.207031 711.839844 C 830.292969 713.277344 831.042969 714.75 831.179688 716.269531 C 832.613281 731.960938 831.710938 747.886719 831.710938 763.714844 C 831.679688 763.714844 831.628906 763.714844 831.59375 763.714844 Z M 831.59375 763.714844 " fill-opacity="1" fill-rule="nonzero"/></svg>