<svg xmlns="http://www.w3.org/2000/svg" xmlns:xlink="http://www.w3.org/1999/xlink" width="2000" zoomAndPan="magnify" viewBox="0 0 1500 1499.999933" height="2000" preserveAspectRatio="xMidYMid meet" version="1.0"><defs><clipPath id="29124da359"><path d="M 317.808594 311.226562 L 1182.558594 311.226562 L 1182.558594 1188.726562 L 317.808594 1188.726562 Z M 317.808594 311.226562 " clip-rule="nonzero"/></clipPath></defs><rect x="-150" width="1800" fill="#ffffff" y="-149.999993" height="1799.99992" fill-opacity="1"/><rect x="-150" width="1800" fill="#ffffff" y="-149.999993" height="1799.99992" fill-opacity="1"/><g clip-path="url(#29124da359)"><path fill="#000000" d="M 1146.320312 731.492188 L 1092.097656 731.492188 L 1092.097656 664.527344 C 1092.097656 628.921875 1066.46875 599.195312 1032.6875 592.773438 L 1032.6875 429.328125 C 1032.6875 364.382812 979.8125 311.53125 914.835938 311.53125 C 849.855469 311.53125 796.980469 364.382812 796.980469 429.328125 L 796.980469 592.773438 C 763.199219 599.195312 737.570312 628.921875 737.570312 664.527344 L 737.570312 731.492188 L 500.1875 731.492188 L 506.921875 672.640625 L 596.308594 672.640625 C 616.402344 672.640625 632.765625 656.285156 632.765625 636.199219 L 632.765625 464.625 C 632.765625 444.539062 616.402344 428.183594 596.308594 428.183594 L 356.90625 428.183594 C 336.8125 428.183594 320.449219 444.539062 320.449219 464.625 L 320.449219 636.199219 C 320.449219 656.285156 336.8125 672.640625 356.90625 672.640625 L 413.09375 672.640625 L 406.359375 731.492188 L 354.210938 731.492188 C 334.191406 731.492188 317.882812 747.777344 317.882812 767.804688 L 317.882812 788.347656 C 317.882812 808.359375 334.171875 824.660156 354.210938 824.660156 L 362.4375 824.660156 L 362.4375 1152.128906 C 362.4375 1172.140625 378.730469 1188.425781 398.75 1188.425781 L 1101.761719 1188.425781 C 1121.785156 1188.425781 1138.074219 1172.140625 1138.074219 1152.128906 L 1138.074219 824.660156 L 1146.300781 824.660156 C 1166.324219 824.660156 1182.632812 808.375 1182.632812 788.347656 L 1182.632812 767.804688 C 1182.632812 747.792969 1166.339844 731.492188 1146.300781 731.492188 Z M 1070.257812 664.527344 L 1070.257812 731.492188 L 1037.292969 731.492188 L 1037.292969 699.730469 C 1037.292969 693.707031 1032.398438 688.8125 1026.371094 688.8125 C 1020.347656 688.8125 1015.453125 693.707031 1015.453125 699.730469 L 1015.453125 731.492188 L 925.425781 731.492188 L 993.902344 671.566406 C 997.707031 668.238281 998.722656 662.742188 996.359375 658.269531 L 987.984375 642.386719 L 1002.054688 642.386719 C 1005.515625 642.386719 1008.753906 640.75 1010.828125 637.984375 C 1012.886719 635.21875 1013.523438 631.632812 1012.519531 628.324219 L 1008.007812 613.3125 L 1019.019531 613.3125 C 1047.269531 613.3125 1070.257812 636.289062 1070.257812 664.527344 Z M 869.113281 625.8125 C 867.128906 622.535156 863.578125 620.535156 859.757812 620.535156 L 842.265625 620.535156 L 845.597656 609.472656 L 868.402344 595.230469 L 895.105469 694.507812 L 856.589844 660.796875 L 869.386719 636.527344 C 871.167969 633.144531 871.058594 629.066406 869.074219 625.792969 Z M 960.230469 636.546875 L 973.023438 660.816406 L 934.511719 694.527344 L 961.210938 595.246094 L 984.019531 609.472656 L 987.347656 620.535156 L 969.855469 620.535156 C 966.035156 620.535156 962.484375 622.535156 960.5 625.8125 C 958.519531 629.085938 958.410156 633.160156 960.191406 636.546875 Z M 900.5625 630.632812 L 909.648438 635.527344 C 911.265625 636.398438 913.03125 636.835938 914.816406 636.835938 C 916.601562 636.835938 918.382812 636.398438 919.984375 635.527344 L 929.066406 630.632812 L 914.796875 683.648438 L 900.527344 630.632812 Z M 949.035156 537.667969 C 948.632812 537.902344 948.234375 538.160156 947.871094 538.449219 C 938.367188 544.691406 927.027344 548.347656 914.835938 548.347656 C 902.640625 548.347656 891.300781 544.691406 881.796875 538.449219 C 881.433594 538.160156 881.050781 537.902344 880.632812 537.667969 C 864.890625 526.789062 854.570312 508.632812 854.570312 488.109375 L 854.570312 451.796875 L 892.484375 451.796875 C 910.9375 451.796875 927.921875 442.082031 938.222656 427.511719 C 947.140625 439.460938 960.445312 448.160156 975.097656 450.886719 L 975.097656 488.109375 C 975.097656 508.632812 964.761719 526.789062 949.035156 537.667969 Z M 914.835938 570.179688 C 924.953125 570.179688 934.636719 568.324219 943.59375 564.976562 L 943.59375 576.746094 L 936.894531 601.667969 L 914.835938 613.53125 L 892.773438 601.667969 L 886.074219 576.746094 L 886.074219 564.976562 C 895.03125 568.339844 904.714844 570.179688 914.835938 570.179688 Z M 914.835938 333.363281 C 967.78125 333.363281 1010.847656 376.40625 1010.847656 429.328125 L 1010.847656 591.480469 L 996.449219 591.480469 L 965.433594 572.144531 L 965.433594 552.675781 C 984.601562 537.632812 996.941406 514.308594 996.941406 488.128906 L 996.941406 440.898438 C 996.941406 434.878906 992.042969 429.984375 986.019531 429.984375 L 984.835938 429.984375 C 967.507812 429.984375 951.035156 415.320312 948.890625 397.964844 L 948.453125 394.507812 C 947.761719 388.941406 943.027344 384.8125 937.367188 384.9375 C 931.761719 385.066406 927.15625 389.414062 926.71875 395 L 926.445312 398.457031 C 925.101562 415.539062 909.539062 429.984375 892.464844 429.984375 L 843.628906 429.984375 C 837.605469 429.984375 832.710938 434.878906 832.710938 440.898438 L 832.710938 488.128906 C 832.710938 514.308594 845.050781 537.648438 864.214844 552.675781 L 864.214844 572.144531 L 833.199219 591.5 L 818.804688 591.5 L 818.804688 429.347656 C 818.804688 376.425781 861.867188 333.378906 914.816406 333.378906 Z M 759.394531 664.527344 C 759.394531 636.273438 782.382812 613.296875 810.648438 613.296875 L 821.644531 613.296875 L 817.128906 628.304688 C 816.128906 631.617188 816.765625 635.199219 818.820312 637.964844 C 820.878906 640.730469 824.136719 642.367188 827.59375 642.367188 L 841.664062 642.367188 L 833.292969 658.25 C 830.925781 662.726562 831.964844 668.21875 835.75 671.546875 L 904.222656 731.476562 L 814.199219 731.476562 L 814.199219 699.710938 C 814.199219 693.6875 809.300781 688.796875 803.277344 688.796875 C 797.253906 688.796875 792.355469 693.6875 792.355469 699.710938 L 792.355469 731.476562 L 759.394531 731.476562 L 759.394531 664.507812 Z M 356.90625 650.808594 C 348.84375 650.808594 342.289062 644.257812 342.289062 636.199219 L 342.289062 464.625 C 342.289062 456.5625 348.84375 450.015625 356.90625 450.015625 L 596.292969 450.015625 C 604.355469 450.015625 610.90625 456.5625 610.90625 464.625 L 610.90625 636.199219 C 610.90625 644.257812 604.355469 650.808594 596.292969 650.808594 L 509.398438 650.808594 L 517.605469 579.074219 C 519.882812 559.191406 505.539062 541.160156 485.644531 538.886719 L 471.664062 537.285156 C 460.34375 535.992188 449.167969 539.195312 440.195312 546.328125 C 431.222656 553.457031 425.5625 563.609375 424.269531 574.925781 L 415.585938 650.808594 Z M 445.964844 577.402344 C 446.601562 571.871094 449.367188 566.902344 453.773438 563.410156 C 458.179688 559.917969 463.640625 558.335938 469.171875 558.972656 L 483.152344 560.574219 C 491.085938 561.480469 496.800781 568.667969 495.890625 576.601562 L 478.183594 731.492188 L 428.328125 731.492188 L 445.945312 577.402344 Z M 1116.25 1152.128906 C 1116.25 1160.097656 1109.773438 1166.59375 1101.78125 1166.59375 L 398.769531 1166.59375 C 390.796875 1166.59375 384.300781 1160.097656 384.300781 1152.128906 L 384.300781 824.660156 L 1116.25 824.660156 Z M 1160.808594 788.347656 C 1160.808594 796.332031 1154.308594 802.828125 1146.320312 802.828125 L 354.230469 802.828125 C 346.238281 802.828125 339.742188 796.332031 339.742188 788.347656 L 339.742188 767.804688 C 339.742188 759.820312 346.238281 753.324219 354.230469 753.324219 L 1146.320312 753.324219 C 1154.308594 753.324219 1160.808594 759.820312 1160.808594 767.804688 Z M 1160.808594 788.347656 " fill-opacity="1" fill-rule="nonzero"/></g></svg>