<svg xmlns="http://www.w3.org/2000/svg" xmlns:xlink="http://www.w3.org/1999/xlink" width="2000" zoomAndPan="magnify" viewBox="0 0 1500 1499.999933" height="2000" preserveAspectRatio="xMidYMid meet" version="1.0"><defs><clipPath id="e876a93044"><path d="M 228 327 L 1275 327 L 1275 1173.484375 L 228 1173.484375 Z M 228 327 " clip-rule="nonzero"/></clipPath></defs><rect x="-150" width="1800" fill="#ffffff" y="-149.999993" height="1799.99992" fill-opacity="1"/><rect x="-150" width="1800" fill="#ffffff" y="-149.999993" height="1799.99992" fill-opacity="1"/><path fill="#000000" d="M 506.171875 511.371094 C 529.898438 511.371094 548.472656 498.730469 548.472656 482.585938 C 548.472656 466.441406 529.898438 453.800781 506.171875 453.800781 C 482.210938 453.800781 463.449219 466.441406 463.449219 482.585938 C 463.449219 498.730469 482.210938 511.371094 506.171875 511.371094 Z M 506.171875 511.371094 " fill-opacity="1" fill-rule="nonzero"/><path fill="#000000" d="M 704.097656 675.996094 C 720.21875 675.996094 732.855469 658.878906 732.855469 637.027344 C 732.855469 614.96875 720.21875 597.691406 704.097656 597.691406 C 687.960938 597.691406 675.328125 614.96875 675.328125 637.027344 C 675.328125 658.878906 687.960938 675.996094 704.097656 675.996094 Z M 704.097656 675.996094 " fill-opacity="1" fill-rule="nonzero"/><path fill="#000000" d="M 578.832031 766.1875 C 562.707031 766.1875 550.074219 783.464844 550.074219 805.535156 C 550.074219 827.386719 562.707031 844.492188 578.832031 844.492188 C 594.96875 844.492188 607.601562 827.386719 607.601562 805.535156 C 607.601562 783.464844 594.96875 766.1875 578.832031 766.1875 Z M 578.832031 766.1875 " fill-opacity="1" fill-rule="nonzero"/><g clip-path="url(#e876a93044)"><path fill="#000000" d="M 1268.367188 872.835938 L 1136.453125 638.488281 C 1128.089844 623.597656 1112.277344 614.246094 1095.203125 614.058594 L 826.410156 611.179688 C 826.238281 611.179688 826.066406 611.179688 825.890625 611.179688 C 811.863281 611.179688 798.867188 617.632812 789.847656 628.085938 L 789.847656 510.207031 C 789.847656 493.714844 780.984375 477.320312 765.882812 468.546875 L 533.167969 334.136719 C 518.351562 325.554688 499.949219 325.507812 485.195312 334.121094 L 252.402344 468.578125 C 238.382812 476.71875 228.484375 493.125 228.484375 510.207031 L 228.484375 779.0625 C 228.484375 796.183594 237.660156 812.136719 252.449219 820.722656 C 255.667969 822.582031 500.882812 964.238281 485.285156 955.226562 C 502.308594 964.128906 519.183594 963.257812 533.136719 955.148438 L 641.410156 892.6875 C 641.738281 900.09375 643.5 907.460938 647.246094 914.101562 L 779.144531 1148.464844 C 787.519531 1163.335938 803.328125 1172.691406 820.394531 1172.878906 C 832.484375 1173.007812 1084.222656 1175.699219 1089.703125 1175.757812 C 1106.582031 1175.757812 1122.339844 1166.78125 1130.953125 1152.222656 L 1267.847656 920.785156 C 1276.550781 906.085938 1276.757812 887.707031 1268.367188 872.835938 Z M 812.332031 651.113281 C 815.191406 646.285156 819.90625 642.6875 826.066406 643.378906 L 1085.386719 646.152344 L 948.617188 877.402344 L 680.167969 874.554688 C 727.359375 794.769531 729.089844 791.847656 812.332031 651.113281 Z M 757.523438 960.960938 C 757.523438 945.03125 774.394531 932.609375 796.046875 932.609375 C 796.046875 932.609375 796.367188 932.609375 796.683594 932.609375 C 815.0625 933.222656 835.527344 943.78125 835.527344 961.917969 C 835.210938 977.84375 818.335938 990.269531 796.683594 990.269531 C 796.367188 990.269531 796.046875 990.269531 796.046875 990.269531 C 777.257812 989.664062 756.824219 979.140625 757.523438 960.960938 Z M 963.527344 1117.371094 C 963.210938 1117.371094 963.210938 1117.371094 962.890625 1117.371094 C 944.242188 1116.769531 924.367188 1106.234375 924.367188 1088.0625 C 924.367188 1071.589844 943.632812 1059.710938 962.890625 1059.710938 C 963.210938 1059.710938 963.527344 1059.710938 963.527344 1059.710938 C 982.484375 1060.320312 1003.054688 1071.234375 1002.375 1089.019531 C 1002.375 1104.945312 985.179688 1117.371094 963.527344 1117.371094 Z M 501.332031 361.976562 C 506.203125 359.148438 512.082031 359.117188 517.046875 362.011719 L 741.625 491.714844 L 508.894531 626.191406 L 276.332031 491.9375 Z M 284.691406 638.269531 C 284.691406 616.289062 297.425781 599.085938 313.347656 599.085938 C 329.585938 599.085938 342.003906 616.289062 342.003906 638.269531 C 342.003906 660.246094 329.585938 677.132812 313.347656 677.132812 C 297.425781 677.132812 284.691406 660.246094 284.691406 638.269531 Z M 348.050781 721.09375 C 348.050781 699.113281 360.789062 681.910156 376.710938 681.910156 C 392.945312 681.910156 405.367188 699.113281 405.367188 721.09375 C 405.367188 743.070312 392.945312 759.957031 376.710938 759.957031 C 360.789062 759.957031 348.050781 743.070312 348.050781 721.09375 Z M 411.417969 804.234375 C 411.417969 781.933594 424.148438 764.734375 440.070312 764.734375 C 456.308594 764.734375 468.730469 781.933594 468.730469 804.234375 C 468.730469 825.894531 456.308594 843.097656 440.070312 843.097656 C 424.148438 843.097656 411.417969 825.894531 411.417969 804.234375 Z M 525.085938 922.621094 L 525.085938 654.023438 L 757.664062 519.632812 L 757.664062 680.328125 L 660.578125 844.457031 Z M 1240.160156 904.386719 L 1108.039062 1127.753906 L 976.308594 893.777344 L 1113.070312 662.535156 L 1240.332031 888.632812 C 1243.082031 893.507812 1243.019531 899.542969 1240.160156 904.386719 Z M 1240.160156 904.386719 " fill-opacity="1" fill-rule="nonzero"/></g><path fill="#000000" d="M 1120.1875 849.523438 C 1120.125 849.523438 1120.046875 849.523438 1119.984375 849.523438 C 1103.957031 849.523438 1091.230469 868.105469 1090.976562 891.96875 C 1090.726562 915.691406 1103.15625 934.414062 1119.277344 934.585938 C 1119.359375 934.585938 1119.417969 934.585938 1119.496094 934.585938 C 1135.523438 934.585938 1148.253906 916.191406 1148.503906 892.582031 C 1148.753906 868.605469 1136.328125 849.695312 1120.1875 849.523438 Z M 1120.1875 849.523438 " fill-opacity="1" fill-rule="nonzero"/><path fill="#000000" d="M 965.851562 726.554688 C 966.039062 726.554688 966.230469 726.554688 966.433594 726.554688 C 988.195312 726.554688 1005.308594 714.183594 1005.480469 698.179688 C 1005.636719 682.035156 988.496094 669.222656 966.464844 669.003906 C 966.246094 669.003906 966.039062 669.003906 965.835938 669.003906 C 944.308594 669.003906 927.386719 681.375 927.210938 697.347656 C 927.003906 715.546875 947.011719 726.34375 965.851562 726.554688 Z M 965.851562 726.554688 " fill-opacity="1" fill-rule="nonzero"/><path fill="#000000" d="M 882.320312 789.042969 C 882.539062 789.042969 882.742188 789.042969 882.964844 789.042969 C 904.710938 789.042969 921.792969 776.671875 921.964844 760.699219 C 922.171875 742.539062 901.878906 731.703125 882.933594 731.492188 C 861.246094 731.835938 843.867188 743.738281 843.695312 759.851562 C 843.492188 777.476562 862.667969 788.855469 882.320312 789.042969 Z M 882.320312 789.042969 " fill-opacity="1" fill-rule="nonzero"/><path fill="#000000" d="M 760.179688 822.355469 C 760.179688 822.371094 760.179688 822.371094 760.179688 822.371094 C 760.023438 838.515625 776.992188 851.328125 798.800781 851.550781 C 799.023438 851.550781 799.226562 851.550781 799.445312 851.550781 C 821.195312 851.550781 838.273438 839.175781 838.449219 823.207031 C 838.65625 805.007812 818.339844 794.207031 799.429688 793.996094 C 777.886719 793.492188 760.351562 806.242188 760.179688 822.355469 Z M 760.179688 822.355469 " fill-opacity="1" fill-rule="nonzero"/></svg>