<svg xmlns="http://www.w3.org/2000/svg" xmlns:xlink="http://www.w3.org/1999/xlink" width="2000" zoomAndPan="magnify" viewBox="0 0 1500 1499.999933" height="2000" preserveAspectRatio="xMidYMid meet" version="1.0"><defs><clipPath id="e81f88ef02"><path d="M 155 212.214844 L 1345 212.214844 L 1345 1287.714844 L 155 1287.714844 Z M 155 212.214844 " clip-rule="nonzero"/></clipPath></defs><rect x="-150" width="1800" fill="#ffffff" y="-149.999993" height="1799.99992" fill-opacity="1"/><rect x="-150" width="1800" fill="#ffffff" y="-149.999993" height="1799.99992" fill-opacity="1"/><path fill="#1a1a1a" d="M 562.359375 1034.191406 C 562.359375 1033.660156 562.332031 1033.128906 562.28125 1032.597656 C 562.226562 1032.070312 562.148438 1031.542969 562.046875 1031.019531 C 561.941406 1030.5 561.8125 1029.984375 561.65625 1029.472656 C 561.503906 1028.964844 561.324219 1028.460938 561.121094 1027.972656 C 560.917969 1027.480469 560.6875 1027 560.4375 1026.527344 C 560.1875 1026.058594 559.914062 1025.601562 559.617188 1025.160156 C 559.320312 1024.71875 559.003906 1024.289062 558.667969 1023.878906 C 558.328125 1023.46875 557.972656 1023.074219 557.59375 1022.695312 C 557.21875 1022.320312 556.824219 1021.964844 556.414062 1021.625 C 556 1021.289062 555.574219 1020.972656 555.132812 1020.675781 C 554.6875 1020.378906 554.230469 1020.105469 553.761719 1019.855469 C 553.292969 1019.605469 552.8125 1019.375 552.320312 1019.171875 C 551.828125 1018.96875 551.328125 1018.789062 550.816406 1018.636719 C 550.308594 1018.480469 549.792969 1018.351562 549.269531 1018.246094 C 548.746094 1018.144531 548.222656 1018.066406 547.691406 1018.011719 C 547.160156 1017.960938 546.628906 1017.933594 546.097656 1017.933594 L 339.671875 1017.933594 C 338.613281 1017.949219 337.566406 1018.0625 336.527344 1018.28125 C 335.492188 1018.5 334.484375 1018.8125 333.511719 1019.226562 C 332.535156 1019.640625 331.609375 1020.148438 330.734375 1020.742188 C 329.855469 1021.335938 329.046875 1022.011719 328.300781 1022.765625 C 327.558594 1023.519531 326.894531 1024.335938 326.308594 1025.21875 C 325.722656 1026.101562 325.230469 1027.035156 324.828125 1028.015625 C 324.425781 1028.996094 324.121094 1030.003906 323.917969 1031.042969 C 323.710938 1032.082031 323.609375 1033.132812 323.609375 1034.191406 C 323.609375 1035.25 323.710938 1036.300781 323.917969 1037.339844 C 324.121094 1038.378906 324.425781 1039.386719 324.828125 1040.367188 C 325.230469 1041.347656 325.722656 1042.277344 326.308594 1043.160156 C 326.894531 1044.046875 327.558594 1044.863281 328.300781 1045.617188 C 329.046875 1046.371094 329.855469 1047.046875 330.734375 1047.640625 C 331.609375 1048.234375 332.535156 1048.738281 333.511719 1049.152344 C 334.484375 1049.566406 335.492188 1049.882812 336.527344 1050.101562 C 337.566406 1050.320312 338.613281 1050.433594 339.671875 1050.445312 L 546.097656 1050.445312 C 546.628906 1050.445312 547.160156 1050.421875 547.691406 1050.367188 C 548.222656 1050.316406 548.746094 1050.238281 549.269531 1050.136719 C 549.792969 1050.03125 550.308594 1049.902344 550.816406 1049.746094 C 551.328125 1049.59375 551.828125 1049.414062 552.320312 1049.210938 C 552.8125 1049.007812 553.292969 1048.78125 553.761719 1048.527344 C 554.230469 1048.277344 554.6875 1048.003906 555.132812 1047.707031 C 555.574219 1047.414062 556 1047.097656 556.414062 1046.757812 C 556.824219 1046.421875 557.21875 1046.0625 557.59375 1045.6875 C 557.972656 1045.308594 558.328125 1044.917969 558.667969 1044.503906 C 559.003906 1044.09375 559.320312 1043.667969 559.617188 1043.222656 C 559.914062 1042.78125 560.1875 1042.324219 560.4375 1041.855469 C 560.6875 1041.386719 560.914062 1040.90625 561.121094 1040.414062 C 561.324219 1039.921875 561.503906 1039.421875 561.65625 1038.910156 C 561.8125 1038.402344 561.941406 1037.886719 562.046875 1037.363281 C 562.148438 1036.839844 562.226562 1036.316406 562.277344 1035.785156 C 562.332031 1035.253906 562.359375 1034.726562 562.359375 1034.191406 Z M 562.359375 1034.191406 " fill-opacity="1" fill-rule="nonzero"/><g clip-path="url(#e81f88ef02)"><path fill="#1a1a1a" d="M 1312.757812 382.054688 C 1312.761719 374.496094 1312.265625 366.972656 1311.261719 359.480469 C 1310.253906 351.992188 1308.753906 344.601562 1306.757812 337.3125 C 1304.761719 330.023438 1302.285156 322.898438 1299.332031 315.941406 C 1296.378906 308.984375 1292.972656 302.257812 1289.113281 295.757812 L 1325.113281 260.535156 C 1325.496094 260.160156 1325.859375 259.773438 1326.207031 259.363281 C 1326.550781 258.957031 1326.875 258.535156 1327.175781 258.09375 C 1327.480469 257.65625 1327.761719 257.203125 1328.019531 256.734375 C 1328.277344 256.265625 1328.511719 255.789062 1328.722656 255.296875 C 1328.933594 254.808594 1329.121094 254.308594 1329.28125 253.800781 C 1329.441406 253.292969 1329.578125 252.777344 1329.691406 252.253906 C 1329.800781 251.730469 1329.886719 251.207031 1329.945312 250.675781 C 1330.003906 250.144531 1330.039062 249.613281 1330.046875 249.078125 C 1330.050781 248.546875 1330.03125 248.011719 1329.988281 247.480469 C 1329.941406 246.949219 1329.871094 246.421875 1329.773438 245.898438 C 1329.675781 245.371094 1329.550781 244.851562 1329.402344 244.339844 C 1329.253906 243.828125 1329.078125 243.324219 1328.882812 242.828125 C 1328.683594 242.332031 1328.460938 241.847656 1328.214844 241.375 C 1327.96875 240.902344 1327.699219 240.441406 1327.40625 239.996094 C 1327.117188 239.546875 1326.804688 239.117188 1326.46875 238.699219 C 1326.136719 238.28125 1325.78125 237.882812 1325.410156 237.503906 C 1325.035156 237.121094 1324.644531 236.757812 1324.234375 236.417969 C 1323.824219 236.074219 1323.402344 235.75 1322.960938 235.449219 C 1322.519531 235.148438 1322.066406 234.871094 1321.597656 234.613281 C 1321.128906 234.359375 1320.648438 234.125 1320.15625 233.914062 C 1319.667969 233.707031 1319.167969 233.523438 1318.65625 233.363281 C 1318.148438 233.203125 1317.632812 233.070312 1317.109375 232.960938 C 1316.585938 232.851562 1316.058594 232.765625 1315.527344 232.710938 C 1315 232.652344 1314.464844 232.621094 1313.933594 232.617188 C 1313.398438 232.613281 1312.867188 232.632812 1312.335938 232.683594 C 1311.800781 232.730469 1311.273438 232.804688 1310.75 232.902344 C 1310.226562 233.003906 1309.707031 233.128906 1309.195312 233.277344 C 1308.683594 233.429688 1308.179688 233.605469 1307.683594 233.804688 C 1307.191406 234.007812 1306.707031 234.230469 1306.234375 234.476562 C 1305.761719 234.726562 1305.300781 234.996094 1304.855469 235.289062 C 1304.410156 235.582031 1303.980469 235.898438 1303.566406 236.234375 C 1303.148438 236.570312 1302.753906 236.925781 1302.371094 237.300781 L 1269.738281 269.226562 C 1267.550781 266.761719 1265.292969 264.363281 1262.96875 262.027344 C 1260.640625 259.695312 1258.246094 257.429688 1255.789062 255.234375 C 1253.328125 253.039062 1250.808594 250.917969 1248.222656 248.871094 C 1245.640625 246.824219 1243 244.851562 1240.304688 242.957031 C 1237.605469 241.0625 1234.855469 239.25 1232.054688 237.515625 C 1229.25 235.78125 1226.398438 234.132812 1223.5 232.5625 C 1220.601562 230.996094 1217.65625 229.511719 1214.671875 228.117188 C 1211.6875 226.71875 1208.660156 225.410156 1205.601562 224.191406 C 1202.539062 222.96875 1199.445312 221.839844 1196.316406 220.800781 C 1193.1875 219.757812 1190.03125 218.808594 1186.847656 217.953125 C 1183.667969 217.097656 1180.460938 216.332031 1177.234375 215.664062 C 1174.007812 214.992188 1170.761719 214.417969 1167.5 213.933594 C 1164.242188 213.453125 1160.96875 213.066406 1157.683594 212.777344 C 1154.402344 212.488281 1151.113281 212.292969 1147.816406 212.191406 C 1144.523438 212.09375 1141.226562 212.089844 1137.933594 212.183594 C 1134.636719 212.273438 1131.347656 212.464844 1128.0625 212.746094 C 1124.78125 213.03125 1121.507812 213.410156 1118.246094 213.886719 C 1114.984375 214.359375 1111.738281 214.929688 1108.507812 215.59375 C 1105.28125 216.253906 1102.074219 217.011719 1098.886719 217.863281 C 1095.703125 218.714844 1092.546875 219.65625 1089.417969 220.6875 C 1086.285156 221.722656 1083.191406 222.847656 1080.125 224.0625 C 1077.0625 225.277344 1074.035156 226.578125 1071.046875 227.96875 C 1068.058594 229.359375 1065.113281 230.835938 1062.207031 232.398438 C 1059.304688 233.960938 1056.453125 235.605469 1053.644531 237.332031 C 1050.839844 239.0625 1048.085938 240.871094 1045.382812 242.757812 C 1042.679688 244.648438 1040.035156 246.613281 1037.449219 248.65625 C 1034.863281 250.699219 1032.335938 252.8125 1029.875 255.003906 C 1027.410156 257.191406 1025.011719 259.453125 1022.679688 261.78125 C 1020.347656 264.109375 1018.085938 266.503906 1015.894531 268.964844 C 1013.699219 271.425781 1011.582031 273.949219 1009.535156 276.535156 C 1007.488281 279.117188 1005.519531 281.757812 1003.628906 284.457031 C 1001.738281 287.15625 999.925781 289.910156 998.191406 292.710938 C 993.324219 291.144531 988.429688 289.652344 983.515625 288.234375 C 978.601562 286.820312 973.664062 285.476562 968.707031 284.210938 C 963.75 282.945312 958.777344 281.757812 953.78125 280.644531 C 948.789062 279.53125 943.78125 278.496094 938.753906 277.539062 C 933.730469 276.578125 928.691406 275.699219 923.640625 274.894531 C 918.585938 274.089844 913.523438 273.363281 908.449219 272.714844 C 903.375 272.066406 898.292969 271.496094 893.199219 271.003906 C 888.109375 270.511719 883.011719 270.097656 877.90625 269.761719 C 872.800781 269.425781 867.691406 269.167969 862.578125 268.988281 C 857.46875 268.808594 852.351562 268.707031 847.238281 268.6875 C 842.121094 268.664062 837.007812 268.722656 831.894531 268.855469 C 826.777344 268.992188 821.667969 269.207031 816.5625 269.496094 C 811.453125 269.789062 806.351562 270.160156 801.257812 270.609375 C 796.160156 271.058594 791.070312 271.585938 785.992188 272.191406 C 780.914062 272.796875 775.84375 273.476562 770.785156 274.238281 C 765.726562 275 760.679688 275.839844 755.648438 276.753906 C 750.613281 277.667969 745.597656 278.664062 740.59375 279.730469 C 735.589844 280.800781 730.605469 281.949219 725.636719 283.171875 C 720.671875 284.394531 715.722656 285.691406 710.796875 287.066406 C 705.867188 288.441406 700.964844 289.894531 696.082031 291.417969 C 691.199219 292.945312 686.339844 294.542969 681.507812 296.21875 C 676.671875 297.894531 671.867188 299.644531 667.085938 301.464844 C 662.304688 303.289062 657.554688 305.183594 652.832031 307.152344 C 648.109375 309.121094 643.421875 311.160156 638.761719 313.273438 C 634.101562 315.382812 629.476562 317.566406 624.886719 319.820312 C 620.292969 322.078125 615.738281 324.402344 611.214844 326.796875 C 606.695312 329.191406 602.214844 331.652344 597.769531 334.183594 C 593.324219 336.714844 588.917969 339.316406 584.554688 341.984375 C 580.1875 344.652344 575.867188 347.382812 571.585938 350.183594 C 567.304688 352.984375 563.066406 355.851562 558.875 358.78125 C 554.679688 361.710938 550.535156 364.703125 546.433594 367.761719 C 542.332031 370.820312 538.277344 373.9375 534.273438 377.121094 L 512.363281 355.226562 C 511.796875 354.660156 511.195312 354.140625 510.550781 353.664062 C 509.910156 353.191406 509.234375 352.765625 508.53125 352.386719 C 507.824219 352.011719 507.097656 351.6875 506.34375 351.421875 C 505.59375 351.152344 504.824219 350.9375 504.039062 350.78125 C 503.257812 350.628906 502.464844 350.53125 501.667969 350.492188 C 500.867188 350.453125 500.070312 350.472656 499.277344 350.550781 C 498.480469 350.628906 497.695312 350.765625 496.921875 350.960938 C 496.144531 351.152344 495.390625 351.40625 494.648438 351.710938 C 493.910156 352.015625 493.199219 352.375 492.515625 352.785156 C 491.828125 353.195312 491.179688 353.65625 490.558594 354.164062 C 489.941406 354.667969 489.363281 355.21875 488.828125 355.8125 C 488.292969 356.402344 487.800781 357.03125 487.359375 357.695312 C 486.914062 358.359375 486.519531 359.054688 486.179688 359.777344 C 485.835938 360.496094 485.550781 361.242188 485.320312 362.007812 C 485.085938 362.769531 484.910156 363.546875 484.792969 364.339844 C 484.675781 365.128906 484.617188 365.921875 484.617188 366.722656 L 484.617188 422.449219 C 472.097656 435.398438 460.320312 448.996094 449.292969 463.238281 C 438.265625 477.480469 428.046875 492.285156 418.644531 507.648438 C 409.238281 523.011719 400.703125 538.84375 393.039062 555.144531 C 385.371094 571.445312 378.621094 588.113281 372.78125 605.15625 L 263.644531 605.15625 C 262.351562 605.15625 261.0625 605.222656 259.773438 605.347656 C 258.488281 605.476562 257.210938 605.667969 255.941406 605.921875 C 254.675781 606.175781 253.421875 606.488281 252.183594 606.863281 C 250.945312 607.242188 249.730469 607.675781 248.535156 608.171875 C 247.34375 608.667969 246.175781 609.222656 245.035156 609.832031 C 243.894531 610.441406 242.785156 611.105469 241.710938 611.824219 C 240.636719 612.542969 239.597656 613.3125 238.597656 614.132812 C 237.601562 614.953125 236.644531 615.820312 235.730469 616.734375 C 234.8125 617.648438 233.945312 618.605469 233.125 619.605469 C 232.304688 620.605469 231.535156 621.640625 230.816406 622.714844 C 230.097656 623.792969 229.433594 624.898438 228.824219 626.039062 C 228.214844 627.179688 227.660156 628.347656 227.167969 629.539062 C 226.671875 630.734375 226.234375 631.949219 225.859375 633.1875 C 225.484375 634.425781 225.167969 635.675781 224.914062 636.945312 C 224.664062 638.214844 224.472656 639.492188 224.34375 640.777344 C 224.214844 642.0625 224.152344 643.355469 224.152344 644.648438 L 224.152344 684.945312 C 218.601562 687.488281 213.804688 691.046875 209.761719 695.621094 C 207.8125 697.847656 206.082031 700.234375 204.5625 702.773438 C 203.046875 705.316406 201.769531 707.972656 200.734375 710.742188 C 199.695312 713.515625 198.917969 716.359375 198.394531 719.269531 C 197.871094 722.183594 197.613281 725.121094 197.621094 728.078125 L 197.484375 755.066406 L 172.753906 754.949219 L 172.675781 754.949219 C 172.144531 754.949219 171.617188 754.976562 171.089844 755.027344 C 170.558594 755.078125 170.035156 755.15625 169.515625 755.257812 C 168.996094 755.363281 168.480469 755.488281 167.972656 755.644531 C 167.464844 755.796875 166.96875 755.972656 166.476562 756.175781 C 165.988281 756.378906 165.507812 756.605469 165.039062 756.851562 C 164.570312 757.101562 164.117188 757.375 163.675781 757.667969 C 163.234375 757.960938 162.808594 758.273438 162.394531 758.609375 C 161.984375 758.945312 161.589844 759.300781 161.214844 759.671875 C 160.839844 760.046875 160.480469 760.4375 160.144531 760.847656 C 159.804688 761.257812 159.488281 761.679688 159.191406 762.121094 C 158.898438 762.558594 158.621094 763.011719 158.371094 763.480469 C 158.117188 763.945312 157.890625 764.421875 157.683594 764.914062 C 157.480469 765.402344 157.296875 765.898438 157.140625 766.40625 C 156.984375 766.914062 156.855469 767.425781 156.746094 767.945312 C 156.640625 768.464844 156.558594 768.988281 156.503906 769.515625 C 156.449219 770.042969 156.421875 770.570312 156.417969 771.101562 L 155.691406 885.152344 C 155.6875 885.6875 155.710938 886.21875 155.761719 886.746094 C 155.808594 887.277344 155.882812 887.804688 155.984375 888.328125 C 156.085938 888.847656 156.210938 889.367188 156.363281 889.875 C 156.515625 890.386719 156.691406 890.886719 156.890625 891.382812 C 157.089844 891.875 157.316406 892.355469 157.5625 892.828125 C 157.8125 893.300781 158.082031 893.757812 158.375 894.203125 C 158.667969 894.644531 158.984375 895.074219 159.316406 895.488281 C 159.652344 895.902344 160.007812 896.296875 160.382812 896.675781 C 160.757812 897.054688 161.148438 897.414062 161.558594 897.757812 C 161.96875 898.097656 162.390625 898.414062 162.832031 898.714844 C 163.273438 899.011719 163.726562 899.289062 164.195312 899.542969 C 164.664062 899.796875 165.144531 900.027344 165.632812 900.234375 C 166.125 900.441406 166.625 900.625 167.132812 900.78125 C 167.640625 900.9375 168.15625 901.070312 168.679688 901.179688 C 169.199219 901.285156 169.726562 901.367188 170.253906 901.421875 C 170.785156 901.476562 171.316406 901.507812 171.847656 901.511719 L 171.953125 901.511719 C 172.484375 901.511719 173.011719 901.484375 173.539062 901.433594 C 174.066406 901.382812 174.589844 901.304688 175.113281 901.199219 C 175.632812 901.097656 176.144531 900.96875 176.652344 900.816406 C 177.160156 900.660156 177.660156 900.484375 178.148438 900.28125 C 178.640625 900.078125 179.121094 899.855469 179.585938 899.605469 C 180.054688 899.355469 180.511719 899.085938 180.953125 898.792969 C 181.394531 898.496094 181.820312 898.183594 182.230469 897.847656 C 182.640625 897.511719 183.035156 897.160156 183.410156 896.785156 C 183.789062 896.410156 184.144531 896.019531 184.484375 895.609375 C 184.820312 895.203125 185.136719 894.777344 185.433594 894.339844 C 185.730469 893.898438 186.003906 893.445312 186.257812 892.980469 C 186.507812 892.511719 186.738281 892.035156 186.941406 891.546875 C 187.148438 891.058594 187.328125 890.558594 187.484375 890.054688 C 187.640625 889.546875 187.773438 889.035156 187.878906 888.515625 C 187.988281 887.996094 188.066406 887.472656 188.121094 886.945312 C 188.179688 886.417969 188.207031 885.886719 188.210938 885.359375 L 188.832031 787.535156 L 197.320312 787.578125 L 195.519531 1143.089844 C 195.503906 1146.03125 196.230469 1148.769531 197.703125 1151.3125 L 224.152344 1197.027344 L 224.152344 1248.015625 C 224.152344 1249.308594 224.214844 1250.601562 224.339844 1251.886719 C 224.46875 1253.175781 224.660156 1254.453125 224.910156 1255.722656 C 225.164062 1256.992188 225.476562 1258.246094 225.851562 1259.484375 C 226.226562 1260.722656 226.664062 1261.9375 227.160156 1263.132812 C 227.652344 1264.332031 228.207031 1265.5 228.816406 1266.640625 C 229.425781 1267.78125 230.089844 1268.890625 230.808594 1269.964844 C 231.527344 1271.042969 232.296875 1272.082031 233.117188 1273.082031 C 233.9375 1274.082031 234.804688 1275.042969 235.71875 1275.957031 C 236.632812 1276.871094 237.589844 1277.742188 238.589844 1278.5625 C 239.585938 1279.386719 240.625 1280.15625 241.699219 1280.875 C 242.777344 1281.597656 243.882812 1282.261719 245.023438 1282.875 C 246.164062 1283.484375 247.332031 1284.039062 248.527344 1284.535156 C 249.722656 1285.035156 250.9375 1285.46875 252.175781 1285.847656 C 253.414062 1286.226562 254.667969 1286.542969 255.9375 1286.796875 C 257.207031 1287.050781 258.484375 1287.242188 259.773438 1287.371094 C 261.058594 1287.5 262.351562 1287.566406 263.644531 1287.570312 L 533.921875 1287.570312 C 534.464844 1287.570312 535.011719 1287.542969 535.550781 1287.484375 C 535.941406 1287.449219 536.316406 1287.382812 536.695312 1287.316406 C 536.839844 1287.289062 536.984375 1287.277344 537.128906 1287.25 C 537.597656 1287.15625 538.0625 1287.035156 538.511719 1286.902344 C 538.5625 1286.886719 538.617188 1286.878906 538.667969 1286.863281 C 539.132812 1286.722656 539.582031 1286.554688 540.027344 1286.375 L 540.160156 1286.324219 C 540.585938 1286.152344 541 1285.949219 541.40625 1285.738281 L 541.597656 1285.644531 C 541.972656 1285.441406 542.335938 1285.21875 542.691406 1284.988281 C 542.78125 1284.929688 542.878906 1284.882812 542.96875 1284.820312 C 543.304688 1284.589844 543.625 1284.355469 543.945312 1284.101562 C 544.042969 1284.019531 544.148438 1283.953125 544.246094 1283.867188 C 544.65625 1283.527344 545.050781 1283.167969 545.425781 1282.800781 L 615.960938 1212.25 C 633.5625 1221.351562 651.640625 1229.375 670.199219 1236.3125 C 688.761719 1243.253906 707.667969 1249.0625 726.921875 1253.742188 C 746.179688 1258.417969 765.644531 1261.933594 785.320312 1264.28125 C 804.996094 1266.628906 824.742188 1267.800781 844.554688 1267.785156 C 859.925781 1267.785156 875.34375 1267.082031 890.8125 1265.667969 C 902.648438 1264.605469 914.429688 1263.117188 926.15625 1261.207031 C 937.882812 1259.296875 949.527344 1256.96875 961.089844 1254.222656 C 972.648438 1251.476562 984.097656 1248.320312 995.429688 1244.753906 C 1006.765625 1241.183594 1017.957031 1237.214844 1029.003906 1232.84375 C 1040.050781 1228.472656 1050.929688 1223.707031 1061.636719 1218.554688 C 1072.34375 1213.402344 1082.851562 1207.871094 1093.160156 1201.964844 C 1103.46875 1196.054688 1113.550781 1189.785156 1123.410156 1183.152344 C 1133.269531 1176.519531 1142.875 1169.542969 1152.234375 1162.222656 L 1177.71875 1187.652344 C 1178.28125 1188.214844 1178.886719 1188.734375 1179.527344 1189.210938 C 1180.171875 1189.683594 1180.84375 1190.109375 1181.550781 1190.488281 C 1182.253906 1190.863281 1182.984375 1191.183594 1183.738281 1191.453125 C 1184.488281 1191.71875 1185.257812 1191.933594 1186.039062 1192.085938 C 1186.824219 1192.242188 1187.617188 1192.339844 1188.414062 1192.378906 C 1189.210938 1192.417969 1190.007812 1192.394531 1190.804688 1192.316406 C 1191.597656 1192.238281 1192.382812 1192.101562 1193.15625 1191.90625 C 1193.933594 1191.710938 1194.6875 1191.460938 1195.425781 1191.15625 C 1196.164062 1190.847656 1196.875 1190.492188 1197.5625 1190.078125 C 1198.246094 1189.667969 1198.898438 1189.210938 1199.515625 1188.703125 C 1200.132812 1188.195312 1200.710938 1187.648438 1201.246094 1187.054688 C 1201.78125 1186.460938 1202.273438 1185.835938 1202.714844 1185.171875 C 1203.160156 1184.507812 1203.550781 1183.8125 1203.894531 1183.089844 C 1204.234375 1182.367188 1204.523438 1181.625 1204.753906 1180.863281 C 1204.984375 1180.097656 1205.160156 1179.320312 1205.277344 1178.53125 C 1205.394531 1177.738281 1205.453125 1176.945312 1205.453125 1176.144531 L 1205.453125 1114.132812 C 1365.097656 947.867188 1389.867188 692.367188 1265.921875 499.027344 C 1269.640625 495.132812 1273.160156 491.070312 1276.492188 486.839844 C 1279.820312 482.609375 1282.941406 478.230469 1285.851562 473.699219 C 1288.765625 469.171875 1291.453125 464.515625 1293.921875 459.730469 C 1296.390625 454.945312 1298.625 450.054688 1300.625 445.058594 C 1302.625 440.058594 1304.386719 434.980469 1305.902344 429.8125 C 1307.417969 424.648438 1308.683594 419.421875 1309.703125 414.136719 C 1310.71875 408.851562 1311.484375 403.527344 1311.996094 398.167969 C 1312.503906 392.808594 1312.757812 387.4375 1312.757812 382.054688 Z M 1142.730469 244.636719 C 1147.636719 244.636719 1152.527344 244.898438 1157.402344 245.421875 C 1162.277344 245.949219 1167.113281 246.730469 1171.90625 247.773438 C 1176.699219 248.816406 1181.421875 250.109375 1186.074219 251.660156 C 1190.726562 253.207031 1195.285156 255 1199.746094 257.039062 C 1204.207031 259.074219 1208.546875 261.34375 1212.765625 263.847656 C 1216.984375 266.347656 1221.054688 269.070312 1224.980469 272.007812 C 1228.90625 274.949219 1232.664062 278.089844 1236.253906 281.429688 C 1239.84375 284.769531 1243.242188 288.296875 1246.453125 292 L 1135.738281 400.335938 L 1089.867188 347.921875 C 1089.515625 347.519531 1089.144531 347.136719 1088.757812 346.773438 C 1088.371094 346.410156 1087.964844 346.0625 1087.542969 345.738281 C 1087.121094 345.414062 1086.683594 345.113281 1086.230469 344.832031 C 1085.78125 344.546875 1085.316406 344.289062 1084.835938 344.054688 C 1084.359375 343.816406 1083.871094 343.605469 1083.375 343.417969 C 1082.875 343.230469 1082.371094 343.066406 1081.855469 342.925781 C 1081.339844 342.789062 1080.820312 342.675781 1080.296875 342.589844 C 1079.769531 342.5 1079.242188 342.441406 1078.710938 342.40625 C 1078.179688 342.371094 1077.648438 342.359375 1077.117188 342.375 C 1076.582031 342.394531 1076.054688 342.4375 1075.523438 342.503906 C 1074.996094 342.574219 1074.472656 342.667969 1073.957031 342.789062 C 1073.4375 342.910156 1072.925781 343.054688 1072.421875 343.226562 C 1071.914062 343.394531 1071.421875 343.589844 1070.9375 343.808594 C 1070.449219 344.03125 1069.976562 344.273438 1069.515625 344.539062 C 1069.054688 344.804688 1068.605469 345.089844 1068.171875 345.402344 C 1067.738281 345.710938 1067.324219 346.039062 1066.921875 346.390625 C 1066.523438 346.742188 1066.140625 347.109375 1065.773438 347.5 C 1065.410156 347.886719 1065.066406 348.292969 1064.742188 348.714844 C 1064.417969 349.136719 1064.113281 349.574219 1063.832031 350.023438 C 1063.550781 350.476562 1063.289062 350.941406 1063.054688 351.417969 C 1062.820312 351.894531 1062.605469 352.382812 1062.417969 352.882812 C 1062.230469 353.378906 1062.066406 353.886719 1061.929688 354.398438 C 1061.789062 354.914062 1061.675781 355.433594 1061.589844 355.960938 C 1061.503906 356.484375 1061.441406 357.011719 1061.40625 357.542969 C 1061.371094 358.074219 1061.359375 358.605469 1061.378906 359.140625 C 1061.394531 359.671875 1061.4375 360.199219 1061.507812 360.730469 C 1061.574219 361.257812 1061.667969 361.78125 1061.789062 362.300781 C 1061.910156 362.816406 1062.054688 363.328125 1062.226562 363.832031 C 1062.398438 364.339844 1062.59375 364.832031 1062.8125 365.316406 C 1063.03125 365.804688 1063.273438 366.277344 1063.539062 366.738281 C 1063.804688 367.199219 1064.09375 367.648438 1064.402344 368.078125 C 1064.710938 368.511719 1065.042969 368.929688 1065.390625 369.332031 L 1122.59375 434.683594 C 1124.066406 436.363281 1125.8125 437.6875 1127.828125 438.648438 C 1129.84375 439.609375 1131.96875 440.136719 1134.203125 440.222656 C 1134.410156 440.222656 1134.621094 440.222656 1134.832031 440.222656 C 1136.957031 440.222656 1139.003906 439.820312 1140.972656 439.019531 C 1142.9375 438.214844 1144.683594 437.070312 1146.203125 435.585938 L 1265.015625 319.328125 C 1266.148438 321.527344 1267.21875 323.761719 1268.230469 326.023438 C 1269.238281 328.28125 1270.1875 330.570312 1271.074219 332.882812 C 1271.960938 335.191406 1272.785156 337.527344 1273.542969 339.882812 C 1274.304688 342.242188 1275 344.617188 1275.632812 347.011719 C 1276.265625 349.402344 1276.832031 351.8125 1277.332031 354.238281 C 1277.835938 356.664062 1278.269531 359.101562 1278.640625 361.546875 C 1279.011719 363.996094 1279.3125 366.453125 1279.550781 368.917969 C 1279.789062 371.382812 1279.960938 373.851562 1280.0625 376.324219 C 1280.167969 378.800781 1280.203125 381.273438 1280.171875 383.75 C 1280.144531 386.226562 1280.046875 388.699219 1279.882812 391.171875 C 1279.71875 393.640625 1279.488281 396.105469 1279.191406 398.5625 C 1278.894531 401.023438 1278.53125 403.46875 1278.101562 405.910156 C 1277.671875 408.347656 1277.179688 410.773438 1276.617188 413.183594 C 1276.058594 415.597656 1275.433594 417.992188 1274.742188 420.371094 C 1274.054688 422.75 1273.300781 425.105469 1272.484375 427.445312 C 1271.664062 429.78125 1270.785156 432.09375 1269.84375 434.382812 C 1268.902344 436.675781 1267.898438 438.9375 1266.832031 441.171875 C 1265.769531 443.410156 1264.644531 445.613281 1263.460938 447.789062 C 1262.277344 449.964844 1261.035156 452.105469 1259.734375 454.214844 C 1258.4375 456.320312 1257.082031 458.390625 1255.667969 460.425781 C 1254.257812 462.460938 1252.792969 464.457031 1251.273438 466.410156 C 1249.753906 468.367188 1248.183594 470.28125 1246.558594 472.152344 C 1244.9375 474.019531 1243.265625 475.847656 1241.542969 477.625 C 1239.820312 479.40625 1238.054688 481.140625 1236.238281 482.824219 C 1234.425781 484.507812 1232.566406 486.144531 1230.660156 487.726562 C 1228.757812 489.3125 1226.8125 490.84375 1224.828125 492.320312 C 1222.839844 493.800781 1220.816406 495.226562 1218.753906 496.59375 C 1216.691406 497.964844 1214.589844 499.277344 1212.457031 500.535156 C 1210.324219 501.789062 1208.15625 502.988281 1205.957031 504.128906 C 1203.757812 505.265625 1201.53125 506.347656 1199.273438 507.363281 C 1197.015625 508.382812 1194.734375 509.339844 1192.425781 510.238281 C 1190.117188 511.132812 1187.785156 511.964844 1185.429688 512.734375 C 1183.078125 513.503906 1180.703125 514.210938 1178.3125 514.851562 C 1175.917969 515.492188 1173.511719 516.070312 1171.089844 516.578125 C 1168.664062 517.089844 1166.230469 517.535156 1163.78125 517.917969 C 1161.335938 518.296875 1158.878906 518.609375 1156.414062 518.855469 C 1153.949219 519.101562 1151.480469 519.285156 1149.007812 519.398438 C 1146.535156 519.511719 1144.058594 519.558594 1141.582031 519.535156 C 1139.105469 519.515625 1136.632812 519.429688 1134.160156 519.277344 C 1131.6875 519.121094 1129.222656 518.902344 1126.761719 518.613281 C 1124.300781 518.328125 1121.851562 517.972656 1119.410156 517.554688 C 1116.96875 517.136719 1114.542969 516.648438 1112.128906 516.101562 C 1109.714844 515.550781 1107.316406 514.933594 1104.933594 514.253906 C 1102.554688 513.574219 1100.191406 512.828125 1097.851562 512.023438 C 1095.511719 511.214844 1093.191406 510.34375 1090.898438 509.410156 C 1088.605469 508.476562 1086.335938 507.484375 1084.097656 506.425781 C 1081.855469 505.371094 1079.644531 504.257812 1077.464844 503.082031 C 1075.285156 501.90625 1073.140625 500.675781 1071.027344 499.382812 C 1068.914062 498.09375 1066.835938 496.746094 1064.796875 495.34375 C 1062.753906 493.9375 1060.753906 492.480469 1058.792969 490.96875 C 1056.832031 489.460938 1054.910156 487.894531 1053.035156 486.28125 C 1051.15625 484.667969 1049.324219 483 1047.535156 481.289062 C 1045.75 479.574219 1044.007812 477.8125 1042.316406 476.003906 C 1040.625 474.195312 1038.984375 472.34375 1037.390625 470.449219 C 1035.796875 468.550781 1034.257812 466.613281 1032.773438 464.632812 C 1031.285156 462.652344 1029.851562 460.632812 1028.472656 458.578125 C 1027.09375 456.519531 1025.773438 454.425781 1024.507812 452.296875 C 1023.242188 450.167969 1022.039062 448.007812 1020.890625 445.8125 C 1019.742188 443.621094 1018.652344 441.398438 1017.625 439.144531 C 1016.597656 436.890625 1015.628906 434.613281 1014.726562 432.308594 C 1013.820312 430.003906 1012.976562 427.675781 1012.199219 425.324219 C 1011.421875 422.972656 1010.707031 420.605469 1010.054688 418.214844 C 1009.402344 415.828125 1008.816406 413.421875 1008.296875 411 C 1007.773438 408.578125 1007.320312 406.148438 1006.929688 403.703125 C 1006.542969 401.257812 1006.21875 398.800781 1005.960938 396.339844 C 1005.703125 393.875 1005.515625 391.410156 1005.390625 388.9375 C 1005.265625 386.460938 1005.210938 383.988281 1005.222656 381.511719 C 1005.230469 379.035156 1005.308594 376.5625 1005.453125 374.089844 C 1005.597656 371.617188 1005.808594 369.152344 1006.085938 366.691406 C 1006.363281 364.230469 1006.707031 361.78125 1007.117188 359.335938 C 1007.527344 356.894531 1008 354.464844 1008.542969 352.050781 C 1009.082031 349.632812 1009.6875 347.234375 1010.359375 344.851562 C 1011.03125 342.46875 1011.765625 340.101562 1012.5625 337.757812 C 1013.363281 335.414062 1014.222656 333.09375 1015.148438 330.796875 C 1016.074219 328.5 1017.058594 326.230469 1018.105469 323.984375 C 1019.152344 321.742188 1020.257812 319.527344 1021.425781 317.34375 C 1022.589844 315.160156 1023.816406 313.007812 1025.097656 310.890625 C 1026.382812 308.769531 1027.71875 306.691406 1029.117188 304.644531 C 1030.511719 302.597656 1031.960938 300.589844 1033.464844 298.625 C 1034.96875 296.65625 1036.523438 294.730469 1038.132812 292.847656 C 1039.738281 290.964844 1041.394531 289.125 1043.101562 287.332031 C 1044.8125 285.539062 1046.566406 283.792969 1048.367188 282.09375 C 1050.167969 280.394531 1052.015625 278.746094 1053.90625 277.144531 C 1055.796875 275.546875 1057.726562 274 1059.703125 272.503906 C 1061.675781 271.007812 1063.691406 269.570312 1065.742188 268.183594 C 1067.792969 266.796875 1069.882812 265.46875 1072.007812 264.195312 C 1074.128906 262.921875 1076.289062 261.707031 1078.476562 260.546875 C 1080.667969 259.390625 1082.886719 258.296875 1085.136719 257.257812 C 1087.382812 256.222656 1089.660156 255.246094 1091.960938 254.332031 C 1094.261719 253.417969 1096.589844 252.566406 1098.9375 251.78125 C 1101.285156 250.992188 1103.652344 250.265625 1106.039062 249.605469 C 1108.425781 248.945312 1110.828125 248.351562 1113.246094 247.820312 C 1115.664062 247.289062 1118.097656 246.824219 1120.542969 246.425781 C 1122.984375 246.027344 1125.4375 245.695312 1127.902344 245.425781 C 1130.363281 245.160156 1132.832031 244.960938 1135.304688 244.828125 C 1137.777344 244.695312 1140.25 244.628906 1142.726562 244.628906 Z M 1142.730469 552.050781 C 1150.109375 552.03125 1157.460938 551.539062 1164.777344 550.570312 C 1167.84375 555.0625 1170.816406 559.617188 1173.695312 564.230469 C 1176.570312 568.847656 1179.347656 573.523438 1182.027344 578.253906 C 1184.703125 582.988281 1187.28125 587.777344 1189.757812 592.621094 C 1192.234375 597.460938 1194.609375 602.355469 1196.875 607.296875 C 1199.144531 612.242188 1201.308594 617.230469 1203.367188 622.261719 C 1205.425781 627.296875 1207.378906 632.371094 1209.222656 637.488281 C 1211.066406 642.605469 1212.800781 647.757812 1214.425781 652.949219 C 1216.050781 658.140625 1217.566406 663.363281 1218.972656 668.617188 C 1220.375 673.871094 1221.671875 679.152344 1222.851562 684.460938 C 1224.035156 689.769531 1225.101562 695.101562 1226.058594 700.453125 C 1227.015625 705.808594 1227.859375 711.179688 1228.585938 716.570312 C 1229.316406 721.957031 1229.929688 727.363281 1230.429688 732.777344 C 1230.933594 738.191406 1231.316406 743.617188 1231.589844 749.046875 C 1231.859375 754.480469 1232.015625 759.914062 1232.058594 765.355469 C 1232.101562 770.792969 1232.027344 776.230469 1231.835938 781.664062 C 1231.648438 787.101562 1231.347656 792.527344 1230.929688 797.953125 C 1230.511719 803.375 1229.976562 808.785156 1229.332031 814.183594 C 1228.683594 819.585938 1227.921875 824.96875 1227.046875 830.335938 C 1226.175781 835.703125 1225.1875 841.050781 1224.085938 846.378906 C 1222.984375 851.703125 1221.773438 857.003906 1220.449219 862.28125 C 1219.125 867.554688 1217.6875 872.800781 1216.140625 878.011719 C 1214.59375 883.226562 1212.9375 888.40625 1211.171875 893.550781 C 1209.40625 898.695312 1207.535156 903.800781 1205.554688 908.863281 C 1203.570312 913.929688 1201.484375 918.949219 1199.289062 923.925781 C 1197.097656 928.902344 1194.800781 933.832031 1192.398438 938.710938 C 1189.996094 943.589844 1187.492188 948.417969 1184.882812 953.191406 C 1182.277344 957.964844 1179.574219 962.683594 1176.765625 967.34375 C 1173.960938 972 1171.058594 976.597656 1168.058594 981.136719 C 1165.058594 985.671875 1161.964844 990.144531 1158.773438 994.550781 C 1155.585938 998.957031 1152.304688 1003.292969 1148.933594 1007.558594 C 1145.558594 1011.828125 1142.097656 1016.019531 1138.550781 1020.140625 C 1135 1024.261719 1131.363281 1028.308594 1127.644531 1032.273438 L 1061.570312 1032.273438 C 1060.769531 1032.273438 1059.972656 1032.332031 1059.183594 1032.449219 C 1058.390625 1032.566406 1057.613281 1032.742188 1056.847656 1032.972656 C 1056.082031 1033.207031 1055.339844 1033.492188 1054.617188 1033.835938 C 1053.894531 1034.175781 1053.199219 1034.570312 1052.535156 1035.011719 C 1051.867188 1035.457031 1051.238281 1035.949219 1050.648438 1036.484375 C 1050.054688 1037.023438 1049.503906 1037.597656 1048.996094 1038.21875 C 1048.488281 1038.835938 1048.03125 1039.488281 1047.621094 1040.171875 C 1047.207031 1040.859375 1046.851562 1041.570312 1046.542969 1042.308594 C 1046.238281 1043.050781 1045.988281 1043.804688 1045.792969 1044.582031 C 1045.597656 1045.359375 1045.460938 1046.144531 1045.382812 1046.9375 C 1045.304688 1047.734375 1045.285156 1048.53125 1045.324219 1049.332031 C 1045.363281 1050.128906 1045.460938 1050.921875 1045.617188 1051.707031 C 1045.773438 1052.488281 1045.988281 1053.257812 1046.257812 1054.011719 C 1046.527344 1054.765625 1046.851562 1055.492188 1047.226562 1056.199219 C 1047.605469 1056.902344 1048.03125 1057.578125 1048.507812 1058.21875 C 1048.984375 1058.859375 1049.503906 1059.464844 1050.070312 1060.03125 L 1071.726562 1081.6875 C 1065.128906 1086.421875 1058.390625 1090.945312 1051.511719 1095.257812 C 1044.628906 1099.570312 1037.621094 1103.660156 1030.488281 1107.535156 C 1023.351562 1111.410156 1016.101562 1115.054688 1008.738281 1118.476562 C 1001.371094 1121.898438 993.910156 1125.082031 986.34375 1128.039062 C 978.78125 1130.992188 971.132812 1133.707031 963.402344 1136.179688 C 955.667969 1138.65625 947.863281 1140.886719 939.992188 1142.875 C 932.117188 1144.863281 924.191406 1146.601562 916.210938 1148.09375 C 908.226562 1149.585938 900.207031 1150.828125 892.148438 1151.816406 C 884.089844 1152.808594 876.007812 1153.546875 867.902344 1154.03125 C 859.796875 1154.515625 851.683594 1154.746094 843.5625 1154.722656 C 835.445312 1154.699219 827.332031 1154.425781 819.230469 1153.894531 C 811.128906 1153.367188 803.050781 1152.582031 794.996094 1151.550781 C 786.941406 1150.515625 778.929688 1149.230469 770.957031 1147.691406 C 762.984375 1146.15625 755.066406 1144.375 747.203125 1142.34375 C 739.34375 1140.3125 731.550781 1138.039062 723.832031 1135.519531 C 716.113281 1133 708.480469 1130.246094 700.933594 1127.25 L 713.261719 1114.917969 L 713.308594 1114.867188 C 713.664062 1114.507812 714.003906 1114.132812 714.328125 1113.738281 C 714.40625 1113.644531 714.476562 1113.539062 714.5625 1113.441406 C 714.8125 1113.121094 715.058594 1112.796875 715.289062 1112.460938 C 715.347656 1112.375 715.394531 1112.28125 715.449219 1112.191406 C 715.683594 1111.832031 715.914062 1111.46875 716.109375 1111.09375 C 716.140625 1111.03125 716.164062 1110.96875 716.199219 1110.910156 C 716.410156 1110.5 716.613281 1110.082031 716.789062 1109.65625 C 716.808594 1109.613281 716.820312 1109.566406 716.835938 1109.527344 C 717.019531 1109.078125 717.183594 1108.625 717.324219 1108.160156 C 717.339844 1108.113281 717.347656 1108.058594 717.363281 1108.015625 C 717.5 1107.546875 717.621094 1107.09375 717.710938 1106.617188 C 717.742188 1106.476562 717.753906 1106.335938 717.777344 1106.199219 C 717.84375 1105.8125 717.910156 1105.433594 717.949219 1105.035156 C 718.003906 1104.496094 718.03125 1103.953125 718.03125 1103.402344 L 718.03125 1043.386719 C 722.332031 1045.425781 726.679688 1047.359375 731.074219 1049.191406 C 735.46875 1051.023438 739.902344 1052.746094 744.375 1054.367188 C 748.851562 1055.988281 753.363281 1057.503906 757.910156 1058.90625 C 762.457031 1060.3125 767.035156 1061.609375 771.644531 1062.800781 C 776.253906 1063.988281 780.890625 1065.066406 785.550781 1066.035156 C 790.210938 1067 794.890625 1067.859375 799.59375 1068.605469 C 804.292969 1069.347656 809.011719 1069.980469 813.742188 1070.503906 C 818.472656 1071.023438 823.214844 1071.433594 827.964844 1071.726562 C 832.714844 1072.023438 837.46875 1072.207031 842.230469 1072.277344 C 846.988281 1072.34375 851.746094 1072.300781 856.503906 1072.144531 C 861.261719 1071.988281 866.011719 1071.71875 870.757812 1071.335938 C 875.503906 1070.953125 880.234375 1070.457031 884.957031 1069.851562 C 889.675781 1069.242188 894.378906 1068.523438 899.066406 1067.691406 C 903.753906 1066.859375 908.417969 1065.917969 913.058594 1064.863281 C 917.703125 1063.8125 922.316406 1062.648438 926.902344 1061.375 C 931.488281 1060.101562 936.042969 1058.722656 940.5625 1057.230469 C 945.085938 1055.742188 949.566406 1054.148438 954.011719 1052.445312 C 958.457031 1050.742188 962.859375 1048.933594 967.21875 1047.023438 C 971.578125 1045.113281 975.886719 1043.097656 980.152344 1040.980469 C 984.414062 1038.863281 988.625 1036.648438 992.78125 1034.332031 C 996.941406 1032.011719 1001.039062 1029.597656 1005.082031 1027.085938 C 1009.125 1024.574219 1013.105469 1021.96875 1017.027344 1019.265625 C 1020.945312 1016.566406 1024.796875 1013.773438 1028.582031 1010.886719 C 1032.371094 1008.003906 1036.085938 1005.03125 1039.730469 1001.96875 C 1043.375 998.910156 1046.945312 995.761719 1050.4375 992.53125 C 1053.933594 989.300781 1057.347656 985.988281 1060.6875 982.597656 C 1064.023438 979.203125 1067.277344 975.730469 1070.453125 972.183594 C 1073.625 968.636719 1076.710938 965.015625 1079.710938 961.320312 C 1082.710938 957.625 1085.621094 953.859375 1088.441406 950.027344 C 1091.261719 946.195312 1093.988281 942.296875 1096.625 938.332031 C 1099.261719 934.371094 1101.800781 930.347656 1104.246094 926.261719 C 1106.6875 922.179688 1109.035156 918.039062 1111.28125 913.84375 C 1113.527344 909.648438 1115.675781 905.402344 1117.71875 901.105469 C 1119.765625 896.808594 1121.707031 892.464844 1123.546875 888.074219 C 1125.382812 883.683594 1127.117188 879.253906 1128.746094 874.78125 C 1130.371094 870.308594 1131.894531 865.800781 1133.304688 861.257812 C 1134.71875 856.710938 1136.023438 852.136719 1137.21875 847.53125 C 1138.414062 842.925781 1139.5 838.292969 1140.476562 833.632812 C 1141.453125 828.976562 1142.316406 824.296875 1143.066406 819.597656 C 1143.820312 814.898438 1144.460938 810.183594 1144.988281 805.453125 C 1145.519531 800.726562 1145.933594 795.984375 1146.238281 791.238281 C 1146.539062 786.488281 1146.730469 781.734375 1146.804688 776.976562 C 1146.882812 772.214844 1146.847656 767.457031 1146.699219 762.703125 C 1146.546875 757.945312 1146.285156 753.195312 1145.910156 748.449219 C 1145.535156 743.707031 1145.046875 738.972656 1144.445312 734.253906 C 1143.84375 729.53125 1143.132812 724.828125 1142.308594 720.140625 C 1141.484375 715.453125 1140.546875 710.789062 1139.503906 706.144531 C 1138.457031 701.503906 1137.300781 696.886719 1136.035156 692.300781 C 1134.769531 687.714844 1133.394531 683.15625 1131.910156 678.636719 C 1130.429688 674.113281 1128.839844 669.628906 1127.144531 665.183594 C 1125.449219 660.734375 1123.648438 656.332031 1121.742188 651.96875 C 1119.835938 647.609375 1117.828125 643.296875 1115.71875 639.03125 C 1113.605469 634.765625 1111.398438 630.550781 1109.085938 626.390625 C 1106.773438 622.230469 1104.367188 618.128906 1101.859375 614.082031 C 1099.355469 610.035156 1096.753906 606.050781 1094.058594 602.128906 C 1091.359375 598.207031 1088.574219 594.351562 1085.695312 590.5625 C 1082.816406 586.769531 1079.847656 583.050781 1076.792969 579.402344 C 1073.734375 575.753906 1070.59375 572.179688 1067.367188 568.683594 C 1064.140625 565.183594 1060.835938 561.761719 1057.445312 558.421875 C 1054.058594 555.078125 1050.589844 551.820312 1047.046875 548.640625 C 1043.503906 545.464844 1039.886719 542.375 1036.195312 539.367188 C 1032.503906 536.363281 1028.742188 533.445312 1024.914062 530.621094 C 1021.085938 527.792969 1017.191406 525.0625 1013.230469 522.417969 C 1009.269531 519.777344 1005.25 517.234375 1001.167969 514.785156 C 997.089844 512.332031 992.953125 509.980469 988.761719 507.730469 C 984.566406 505.476562 980.324219 503.324219 976.027344 501.273438 C 971.734375 499.21875 967.390625 497.273438 963.003906 495.425781 C 958.617188 493.582031 954.1875 491.84375 949.71875 490.207031 C 945.246094 488.574219 940.738281 487.046875 936.195312 485.628906 C 931.652344 484.207031 927.078125 482.894531 922.472656 481.691406 C 917.867188 480.492188 913.238281 479.398438 908.578125 478.417969 C 903.921875 477.433594 899.246094 476.5625 894.546875 475.804688 C 889.847656 475.042969 885.132812 474.394531 880.402344 473.859375 C 875.671875 473.324219 870.933594 472.902344 866.183594 472.589844 C 861.433594 472.28125 856.679688 472.082031 851.921875 472 C 847.160156 471.914062 842.402344 471.945312 837.644531 472.085938 C 832.886719 472.230469 828.136719 472.484375 823.390625 472.851562 C 818.644531 473.21875 813.910156 473.699219 809.1875 474.292969 C 804.464844 474.886719 799.757812 475.59375 795.070312 476.410156 C 790.378906 477.226562 785.710938 478.15625 781.066406 479.195312 C 776.421875 480.234375 771.804688 481.382812 767.214844 482.640625 C 762.625 483.898438 758.066406 485.265625 753.539062 486.742188 C 749.015625 488.214844 744.527344 489.796875 740.078125 491.488281 C 735.625 493.175781 731.21875 494.96875 726.855469 496.867188 C 722.488281 498.765625 718.171875 500.765625 713.902344 502.871094 C 709.632812 504.972656 705.414062 507.179688 701.25 509.480469 C 697.085938 511.785156 692.976562 514.1875 688.925781 516.6875 C 684.878906 519.1875 680.886719 521.78125 676.960938 524.472656 C 673.035156 527.160156 669.171875 529.941406 665.378906 532.8125 C 661.582031 535.6875 657.859375 538.648438 654.203125 541.699219 C 650.550781 544.746094 646.972656 547.882812 643.464844 551.101562 C 639.960938 554.324219 636.535156 557.625 633.1875 561.007812 C 629.839844 564.390625 626.574219 567.851562 623.390625 571.390625 C 620.207031 574.929688 617.109375 578.539062 614.101562 582.226562 C 611.089844 585.910156 608.167969 589.667969 605.332031 593.492188 C 602.5 597.316406 599.761719 601.203125 597.113281 605.160156 L 494.183594 605.160156 C 502.183594 587.9375 511.414062 571.402344 521.871094 555.554688 C 532.328125 539.707031 543.902344 524.714844 556.585938 510.585938 L 628.511719 510.585938 C 629.308594 510.585938 630.105469 510.527344 630.894531 510.410156 C 631.6875 510.292969 632.464844 510.117188 633.230469 509.886719 C 633.996094 509.65625 634.738281 509.367188 635.460938 509.027344 C 636.183594 508.683594 636.878906 508.292969 637.542969 507.847656 C 638.210938 507.402344 638.839844 506.914062 639.429688 506.375 C 640.023438 505.839844 640.574219 505.261719 641.082031 504.644531 C 641.585938 504.027344 642.046875 503.375 642.457031 502.6875 C 642.867188 502.003906 643.226562 501.292969 643.535156 500.554688 C 643.839844 499.8125 644.089844 499.058594 644.285156 498.28125 C 644.476562 497.507812 644.613281 496.71875 644.691406 495.925781 C 644.769531 495.128906 644.789062 494.332031 644.75 493.535156 C 644.710938 492.734375 644.613281 491.945312 644.457031 491.160156 C 644.300781 490.375 644.089844 489.609375 643.820312 488.855469 C 643.550781 488.101562 643.226562 487.375 642.847656 486.667969 C 642.472656 485.964844 642.046875 485.289062 641.570312 484.648438 C 641.09375 484.003906 640.570312 483.402344 640.007812 482.835938 L 614.640625 457.46875 C 620.980469 452.785156 627.457031 448.296875 634.074219 444.003906 C 640.6875 439.714844 647.425781 435.628906 654.289062 431.75 C 661.152344 427.867188 668.125 424.203125 675.214844 420.746094 C 682.300781 417.292969 689.484375 414.058594 696.769531 411.039062 C 704.054688 408.023438 711.425781 405.234375 718.878906 402.667969 C 726.332031 400.101562 733.859375 397.761719 741.457031 395.65625 C 749.054688 393.546875 756.707031 391.675781 764.421875 390.03125 C 772.132812 388.390625 779.886719 386.988281 787.683594 385.820312 C 795.480469 384.652344 803.308594 383.722656 811.160156 383.035156 C 819.015625 382.34375 826.882812 381.894531 834.765625 381.683594 C 842.644531 381.472656 850.527344 381.503906 858.40625 381.773438 C 866.285156 382.042969 874.152344 382.554688 882 383.304688 C 889.847656 384.054688 897.667969 385.042969 905.453125 386.269531 C 913.242188 387.496094 920.984375 388.957031 928.683594 390.65625 C 936.382812 392.355469 944.023438 394.289062 951.605469 396.453125 C 959.1875 398.621094 966.695312 401.015625 974.128906 403.636719 C 974.457031 406.171875 974.839844 408.695312 975.28125 411.214844 C 975.722656 413.730469 976.21875 416.238281 976.773438 418.730469 C 977.328125 421.226562 977.9375 423.707031 978.605469 426.171875 C 979.269531 428.640625 979.992188 431.089844 980.765625 433.527344 C 981.542969 435.960938 982.375 438.375 983.257812 440.773438 C 984.144531 443.171875 985.082031 445.546875 986.074219 447.902344 C 987.066406 450.257812 988.109375 452.589844 989.207031 454.898438 C 990.304688 457.203125 991.453125 459.488281 992.652344 461.742188 C 993.851562 464 995.101562 466.226562 996.402344 468.425781 C 997.703125 470.628906 999.050781 472.796875 1000.449219 474.9375 C 1001.847656 477.074219 1003.292969 479.183594 1004.785156 481.257812 C 1006.277344 483.332031 1007.816406 485.371094 1009.402344 487.375 C 1010.988281 489.378906 1012.617188 491.347656 1014.289062 493.277344 C 1015.960938 495.210938 1017.679688 497.105469 1019.4375 498.957031 C 1021.195312 500.8125 1022.996094 502.625 1024.835938 504.398438 C 1026.675781 506.171875 1028.554688 507.902344 1030.472656 509.589844 C 1032.390625 511.28125 1034.347656 512.925781 1036.339844 514.523438 C 1038.332031 516.125 1040.359375 517.679688 1042.421875 519.191406 C 1044.484375 520.699219 1046.578125 522.160156 1048.707031 523.574219 C 1050.835938 524.992188 1052.996094 526.355469 1055.183594 527.675781 C 1057.375 528.992188 1059.59375 530.261719 1061.839844 531.476562 C 1064.085938 532.695312 1066.359375 533.863281 1068.660156 534.976562 C 1070.957031 536.09375 1073.28125 537.15625 1075.628906 538.167969 C 1077.976562 539.175781 1080.34375 540.136719 1082.734375 541.039062 C 1085.125 541.941406 1087.535156 542.792969 1089.964844 543.589844 C 1092.394531 544.382812 1094.839844 545.125 1097.300781 545.808594 C 1099.761719 546.496094 1102.238281 547.125 1104.730469 547.699219 C 1107.21875 548.273438 1109.722656 548.792969 1112.234375 549.253906 C 1114.75 549.714844 1117.273438 550.117188 1119.804688 550.464844 C 1122.335938 550.8125 1124.875 551.105469 1127.421875 551.335938 C 1129.964844 551.570312 1132.515625 551.746094 1135.066406 551.867188 C 1137.621094 551.984375 1140.175781 552.046875 1142.730469 552.050781 Z M 678.46875 605.160156 L 637.394531 605.160156 C 640.027344 601.863281 642.738281 598.632812 645.523438 595.464844 C 648.308594 592.292969 651.167969 589.195312 654.101562 586.160156 C 657.035156 583.128906 660.039062 580.167969 663.109375 577.273438 C 666.183594 574.382812 669.324219 571.566406 672.53125 568.824219 C 675.734375 566.082031 679.003906 563.417969 682.335938 560.828125 C 685.667969 558.242188 689.0625 555.734375 692.511719 553.304688 C 695.960938 550.878906 699.46875 548.53125 703.03125 546.269531 C 706.59375 544.007812 710.207031 541.832031 713.871094 539.742188 C 717.535156 537.652344 721.246094 535.648438 725.007812 533.730469 C 728.765625 531.816406 732.566406 529.992188 736.414062 528.253906 C 740.257812 526.519531 744.144531 524.875 748.066406 523.324219 C 751.992188 521.769531 755.949219 520.3125 759.941406 518.949219 C 763.933594 517.582031 767.957031 516.3125 772.007812 515.136719 C 776.0625 513.964844 780.140625 512.886719 784.242188 511.902344 C 788.347656 510.921875 792.472656 510.039062 796.617188 509.25 C 800.761719 508.464844 804.925781 507.773438 809.101562 507.183594 C 813.28125 506.59375 817.46875 506.105469 821.671875 505.710938 C 825.871094 505.320312 830.078125 505.027344 834.296875 504.835938 C 838.511719 504.640625 842.726562 504.546875 846.945312 504.554688 C 851.167969 504.5625 855.382812 504.667969 859.597656 504.875 C 863.8125 505.078125 868.019531 505.382812 872.21875 505.789062 C 876.417969 506.195312 880.605469 506.699219 884.785156 507.300781 C 888.960938 507.902344 893.117188 508.605469 897.261719 509.402344 C 901.40625 510.203125 905.527344 511.101562 909.628906 512.09375 C 913.726562 513.089844 917.804688 514.179688 921.851562 515.367188 C 925.902344 516.554688 929.917969 517.835938 933.90625 519.210938 C 937.894531 520.589844 941.851562 522.058594 945.769531 523.625 C 949.6875 525.1875 953.566406 526.84375 957.40625 528.589844 C 961.246094 530.339844 965.042969 532.175781 968.796875 534.101562 C 972.550781 536.027344 976.257812 538.042969 979.914062 540.144531 C 983.574219 542.246094 987.179688 544.433594 990.734375 546.707031 C 994.289062 548.980469 997.789062 551.335938 1001.234375 553.773438 C 1004.675781 556.210938 1008.058594 558.730469 1011.382812 561.328125 C 1014.707031 563.925781 1017.96875 566.601562 1021.167969 569.355469 C 1024.367188 572.105469 1027.496094 574.933594 1030.558594 577.832031 C 1033.625 580.734375 1036.617188 583.703125 1039.542969 586.746094 C 1042.464844 589.789062 1045.316406 592.898438 1048.09375 596.074219 C 1050.867188 599.25 1053.566406 602.492188 1056.191406 605.796875 C 1058.816406 609.101562 1061.359375 612.464844 1063.820312 615.890625 C 1066.285156 619.3125 1068.667969 622.796875 1070.96875 626.332031 C 1073.265625 629.871094 1075.480469 633.460938 1077.609375 637.101562 C 1079.742188 640.742188 1081.78125 644.433594 1083.738281 648.171875 C 1085.691406 651.910156 1087.558594 655.691406 1089.335938 659.519531 C 1091.109375 663.347656 1092.796875 667.210938 1094.386719 671.117188 C 1095.980469 675.027344 1097.480469 678.96875 1098.886719 682.945312 C 1100.296875 686.921875 1101.605469 690.929688 1102.824219 694.96875 C 1104.042969 699.007812 1105.164062 703.074219 1106.1875 707.167969 C 1107.210938 711.257812 1108.140625 715.375 1108.96875 719.507812 C 1109.800781 723.644531 1110.53125 727.800781 1111.167969 731.96875 C 1111.800781 736.140625 1112.335938 740.324219 1112.769531 744.519531 C 1113.207031 748.714844 1113.542969 752.921875 1113.78125 757.132812 C 1114.019531 761.34375 1114.15625 765.558594 1114.191406 769.777344 C 1114.230469 773.996094 1114.167969 778.214844 1114.007812 782.429688 C 1113.84375 786.644531 1113.582031 790.855469 1113.222656 795.058594 C 1112.863281 799.261719 1112.402344 803.453125 1111.84375 807.632812 C 1111.285156 811.816406 1110.625 815.980469 1109.871094 820.132812 C 1109.113281 824.28125 1108.257812 828.414062 1107.308594 832.523438 C 1106.355469 836.632812 1105.308594 840.71875 1104.164062 844.777344 C 1103.019531 848.839844 1101.777344 852.871094 1100.441406 856.871094 C 1099.105469 860.875 1097.675781 864.839844 1096.152344 868.777344 C 1094.632812 872.710938 1093.015625 876.605469 1091.308594 880.464844 C 1089.601562 884.320312 1087.804688 888.136719 1085.914062 891.910156 C 1084.027344 895.683594 1082.050781 899.410156 1079.988281 903.089844 C 1077.921875 906.765625 1075.773438 910.394531 1073.535156 913.972656 C 1071.300781 917.550781 1068.980469 921.074219 1066.578125 924.542969 C 1064.175781 928.011719 1061.695312 931.417969 1059.128906 934.769531 C 1056.566406 938.121094 1053.925781 941.410156 1051.207031 944.636719 C 1048.488281 947.859375 1045.691406 951.019531 1042.824219 954.113281 C 1039.953125 957.207031 1037.015625 960.230469 1034.003906 963.1875 C 1030.992188 966.140625 1027.910156 969.023438 1024.761719 971.832031 C 1021.617188 974.640625 1018.402344 977.375 1015.125 980.03125 C 1011.847656 982.6875 1008.507812 985.265625 1005.109375 987.765625 C 1001.710938 990.265625 998.253906 992.683594 994.742188 995.019531 C 991.226562 997.355469 987.660156 999.605469 984.039062 1001.773438 C 980.417969 1003.941406 976.75 1006.019531 973.03125 1008.015625 C 969.3125 1010.007812 965.550781 1011.914062 961.742188 1013.726562 C 957.933594 1015.542969 954.082031 1017.269531 950.191406 1018.902344 C 946.300781 1020.535156 942.375 1022.078125 938.414062 1023.523438 C 934.449219 1024.972656 930.453125 1026.328125 926.425781 1027.585938 C 922.402344 1028.84375 918.347656 1030.007812 914.265625 1031.074219 C 910.179688 1032.144531 906.078125 1033.113281 901.949219 1033.988281 C 897.820312 1034.859375 893.675781 1035.636719 889.507812 1036.3125 C 885.34375 1036.988281 881.167969 1037.566406 876.972656 1038.046875 C 872.78125 1038.527344 868.582031 1038.90625 864.371094 1039.1875 C 860.160156 1039.46875 855.945312 1039.652344 851.726562 1039.734375 C 847.507812 1039.816406 843.289062 1039.796875 839.074219 1039.679688 C 834.855469 1039.5625 830.644531 1039.34375 826.433594 1039.027344 C 822.226562 1038.710938 818.03125 1038.292969 813.84375 1037.777344 C 809.652344 1037.261719 805.480469 1036.648438 801.320312 1035.9375 C 797.164062 1035.222656 793.023438 1034.414062 788.902344 1033.503906 C 784.78125 1032.597656 780.6875 1031.589844 776.613281 1030.488281 C 772.539062 1029.386719 768.496094 1028.1875 764.480469 1026.894531 C 760.464844 1025.601562 756.480469 1024.214844 752.527344 1022.734375 C 748.578125 1021.25 744.664062 1019.675781 740.789062 1018.011719 C 736.914062 1016.34375 733.078125 1014.585938 729.285156 1012.738281 C 725.492188 1010.890625 721.746094 1008.953125 718.042969 1006.929688 L 718.042969 644.648438 C 718.039062 643.351562 717.976562 642.0625 717.847656 640.773438 C 717.714844 639.484375 717.523438 638.207031 717.269531 636.9375 C 717.015625 635.671875 716.699219 634.417969 716.320312 633.179688 C 715.945312 631.941406 715.507812 630.722656 715.007812 629.53125 C 714.511719 628.335938 713.957031 627.167969 713.347656 626.027344 C 712.734375 624.886719 712.066406 623.777344 711.347656 622.703125 C 710.625 621.628906 709.855469 620.589844 709.03125 619.589844 C 708.210938 618.589844 707.339844 617.632812 706.425781 616.71875 C 705.507812 615.804688 704.550781 614.9375 703.550781 614.117188 C 702.546875 613.296875 701.507812 612.527344 700.433594 611.8125 C 699.355469 611.09375 698.246094 610.429688 697.101562 609.820312 C 695.960938 609.210938 694.792969 608.65625 693.597656 608.164062 C 692.398438 607.667969 691.183594 607.234375 689.945312 606.859375 C 688.703125 606.484375 687.449219 606.167969 686.179688 605.917969 C 684.910156 605.664062 683.632812 605.476562 682.34375 605.351562 C 681.054688 605.222656 679.765625 605.160156 678.46875 605.160156 Z M 517.132812 405.964844 L 521.699219 410.527344 C 522.414062 411.242188 523.191406 411.886719 524.023438 412.457031 C 524.859375 413.027344 525.738281 413.515625 526.664062 413.921875 C 527.589844 414.328125 528.546875 414.644531 529.53125 414.871094 C 530.515625 415.101562 531.511719 415.234375 532.523438 415.277344 C 533.53125 415.320312 534.539062 415.265625 535.539062 415.121094 C 536.539062 414.976562 537.515625 414.738281 538.472656 414.410156 C 539.429688 414.082031 540.347656 413.667969 541.226562 413.171875 C 542.105469 412.671875 542.929688 412.09375 543.703125 411.441406 C 547.433594 408.300781 551.210938 405.222656 555.039062 402.199219 C 558.867188 399.179688 562.738281 396.21875 566.660156 393.316406 C 570.578125 390.417969 574.542969 387.578125 578.550781 384.800781 C 582.558594 382.027344 586.609375 379.3125 590.703125 376.664062 C 594.796875 374.011719 598.929688 371.425781 603.101562 368.90625 C 607.277344 366.382812 611.488281 363.929688 615.738281 361.539062 C 619.988281 359.148438 624.277344 356.824219 628.597656 354.570312 C 632.921875 352.3125 637.277344 350.125 641.671875 348.003906 C 646.0625 345.886719 650.484375 343.835938 654.941406 341.851562 C 659.394531 339.871094 663.878906 337.957031 668.394531 336.117188 C 672.910156 334.273438 677.453125 332.503906 682.023438 330.804688 C 686.59375 329.101562 691.1875 327.472656 695.808594 325.917969 C 700.429688 324.359375 705.074219 322.875 709.742188 321.464844 C 714.410156 320.050781 719.097656 318.714844 723.808594 317.449219 C 728.515625 316.183594 733.246094 314.992188 737.992188 313.871094 C 742.738281 312.753906 747.5 311.710938 752.28125 310.742188 C 757.058594 309.773438 761.851562 308.878906 766.660156 308.058594 C 771.464844 307.238281 776.285156 306.492188 781.113281 305.824219 C 785.945312 305.15625 790.785156 304.5625 795.632812 304.042969 C 800.480469 303.523438 805.335938 303.082031 810.199219 302.714844 C 815.0625 302.347656 819.929688 302.058594 824.800781 301.84375 C 829.671875 301.628906 834.546875 301.488281 839.421875 301.425781 C 844.296875 301.363281 849.175781 301.375 854.050781 301.464844 C 858.925781 301.554688 863.796875 301.722656 868.667969 301.960938 C 873.539062 302.203125 878.40625 302.519531 883.265625 302.914062 C 888.125 303.308594 892.980469 303.777344 897.824219 304.320312 C 902.671875 304.867188 907.507812 305.488281 912.332031 306.183594 C 917.160156 306.878906 921.972656 307.648438 926.777344 308.496094 C 931.578125 309.339844 936.367188 310.261719 941.140625 311.257812 C 945.914062 312.253906 950.671875 313.320312 955.410156 314.464844 C 960.152344 315.609375 964.875 316.828125 969.574219 318.117188 C 974.277344 319.410156 978.957031 320.773438 983.617188 322.210938 C 977.917969 337.328125 974.460938 352.941406 973.25 369.054688 C 964.96875 366.402344 956.609375 364.007812 948.179688 361.875 C 939.75 359.742188 931.257812 357.871094 922.710938 356.265625 C 914.164062 354.65625 905.574219 353.320312 896.945312 352.246094 C 888.316406 351.171875 879.660156 350.367188 870.976562 349.832031 C 862.296875 349.296875 853.609375 349.03125 844.910156 349.035156 C 836.214844 349.039062 827.527344 349.3125 818.847656 349.855469 C 810.167969 350.402344 801.511719 351.214844 792.882812 352.292969 C 784.253906 353.375 775.664062 354.722656 767.117188 356.335938 C 758.574219 357.953125 750.085938 359.828125 741.65625 361.972656 C 733.226562 364.113281 724.871094 366.511719 716.59375 369.171875 C 708.3125 371.832031 700.121094 374.75 692.023438 377.917969 C 683.925781 381.085938 675.933594 384.503906 668.042969 388.167969 C 660.15625 391.832031 652.394531 395.738281 644.75 399.886719 C 637.105469 404.035156 629.597656 408.414062 622.226562 413.027344 C 614.851562 417.640625 607.632812 422.480469 600.558594 427.542969 C 593.488281 432.605469 586.582031 437.878906 579.835938 443.371094 C 579.398438 443.730469 578.980469 444.109375 578.582031 444.511719 C 578.183594 444.914062 577.804688 445.335938 577.453125 445.777344 C 577.097656 446.21875 576.765625 446.679688 576.460938 447.15625 C 576.152344 447.632812 575.871094 448.121094 575.617188 448.628906 C 575.363281 449.132812 575.132812 449.652344 574.933594 450.179688 C 574.730469 450.710938 574.558594 451.25 574.414062 451.796875 C 574.269531 452.34375 574.152344 452.898438 574.066406 453.457031 C 573.980469 454.015625 573.921875 454.578125 573.894531 455.144531 C 573.867188 455.710938 573.867188 456.273438 573.898438 456.839844 C 573.929688 457.40625 573.988281 457.96875 574.078125 458.527344 C 574.167969 459.085938 574.285156 459.640625 574.433594 460.1875 C 574.582031 460.734375 574.757812 461.269531 574.960938 461.800781 C 575.164062 462.328125 575.394531 462.84375 575.652344 463.347656 C 575.910156 463.851562 576.195312 464.34375 576.503906 464.816406 C 576.8125 465.292969 577.144531 465.75 577.5 466.1875 C 577.855469 466.628906 578.234375 467.046875 578.636719 467.449219 L 589.257812 478.066406 L 517.132812 478.066406 Z M 484.617188 471.125 L 484.617188 494.324219 C 484.617188 494.855469 484.644531 495.386719 484.695312 495.917969 C 484.75 496.445312 484.828125 496.972656 484.929688 497.496094 C 485.035156 498.015625 485.164062 498.53125 485.320312 499.042969 C 485.472656 499.550781 485.652344 500.050781 485.855469 500.542969 C 486.058594 501.035156 486.285156 501.515625 486.539062 501.984375 C 486.789062 502.457031 487.0625 502.910156 487.359375 503.355469 C 487.652344 503.796875 487.972656 504.222656 488.308594 504.636719 C 488.648438 505.046875 489.003906 505.441406 489.378906 505.816406 C 489.757812 506.195312 490.152344 506.550781 490.5625 506.890625 C 490.972656 507.226562 491.402344 507.542969 491.84375 507.839844 C 492.285156 508.136719 492.742188 508.410156 493.210938 508.660156 C 493.683594 508.910156 494.164062 509.136719 494.65625 509.339844 C 495.148438 509.546875 495.648438 509.722656 496.15625 509.878906 C 496.667969 510.035156 497.183594 510.164062 497.703125 510.265625 C 498.226562 510.371094 498.753906 510.449219 499.28125 510.5 C 499.8125 510.550781 500.34375 510.578125 500.875 510.578125 L 514.203125 510.578125 C 502.886719 525.042969 492.574219 540.1875 483.269531 556.019531 C 473.964844 571.851562 465.746094 588.230469 458.613281 605.152344 L 407.320312 605.152344 C 416.3125 580.789062 427.296875 557.355469 440.273438 534.855469 C 453.25 512.359375 468.03125 491.113281 484.617188 471.125 Z M 249.84375 1138.953125 L 238.855469 1157.515625 L 228.058594 1138.851562 L 229.835938 787.734375 L 251.570312 787.84375 Z M 251.726562 755.328125 L 230 755.222656 L 230.136719 728.226562 C 230.113281 726.207031 230.445312 724.25 231.125 722.347656 C 231.808594 720.449219 232.796875 718.726562 234.097656 717.183594 C 234.957031 716.140625 235.988281 715.316406 237.195312 714.707031 C 238.402344 714.097656 239.679688 713.757812 241.03125 713.6875 L 241.0625 713.6875 C 246.949219 713.714844 251.894531 720.464844 251.863281 728.414062 Z M 517.664062 1126.394531 L 517.664062 1255.054688 L 263.644531 1255.054688 C 263.1875 1255.046875 262.734375 1254.996094 262.285156 1254.898438 C 261.835938 1254.804688 261.402344 1254.664062 260.980469 1254.484375 C 260.558594 1254.304688 260.15625 1254.085938 259.777344 1253.828125 C 259.398438 1253.570312 259.046875 1253.277344 258.726562 1252.953125 C 258.402344 1252.628906 258.113281 1252.273438 257.859375 1251.890625 C 257.605469 1251.511719 257.390625 1251.109375 257.214844 1250.683594 C 257.039062 1250.261719 256.902344 1249.824219 256.8125 1249.375 C 256.71875 1248.925781 256.671875 1248.472656 256.667969 1248.015625 L 256.667969 1191.257812 L 280.074219 1151.714844 C 281.570312 1149.1875 282.328125 1146.457031 282.339844 1143.519531 L 284.378906 728.550781 C 284.457031 708.472656 272.917969 691.265625 256.667969 684.402344 L 256.667969 644.648438 C 256.675781 644.191406 256.722656 643.738281 256.816406 643.292969 C 256.910156 642.84375 257.046875 642.410156 257.222656 641.992188 C 257.402344 641.570312 257.617188 641.171875 257.871094 640.792969 C 258.125 640.414062 258.414062 640.0625 258.738281 639.742188 C 259.0625 639.417969 259.410156 639.128906 259.789062 638.875 C 260.167969 638.621094 260.570312 638.402344 260.988281 638.226562 C 261.410156 638.046875 261.84375 637.914062 262.289062 637.820312 C 262.738281 637.726562 263.1875 637.675781 263.644531 637.667969 L 678.46875 637.667969 C 678.929688 637.671875 679.382812 637.722656 679.832031 637.8125 C 680.28125 637.90625 680.71875 638.039062 681.140625 638.214844 C 681.566406 638.390625 681.96875 638.605469 682.347656 638.859375 C 682.730469 639.113281 683.085938 639.402344 683.410156 639.726562 C 683.738281 640.050781 684.027344 640.398438 684.285156 640.78125 C 684.542969 641.160156 684.761719 641.558594 684.945312 641.980469 C 685.125 642.402344 685.261719 642.839844 685.359375 643.285156 C 685.453125 643.734375 685.503906 644.1875 685.515625 644.648438 L 685.515625 1087.167969 L 556.835938 1087.167969 C 555.550781 1087.171875 554.273438 1087.234375 552.996094 1087.363281 C 551.71875 1087.492188 550.449219 1087.679688 549.191406 1087.933594 C 547.933594 1088.1875 546.6875 1088.5 545.460938 1088.875 C 544.234375 1089.246094 543.027344 1089.679688 541.84375 1090.171875 C 540.65625 1090.667969 539.5 1091.214844 538.367188 1091.820312 C 537.234375 1092.429688 536.136719 1093.089844 535.070312 1093.800781 C 534.003906 1094.515625 532.976562 1095.28125 531.984375 1096.097656 C 530.992188 1096.910156 530.042969 1097.773438 529.136719 1098.679688 C 528.230469 1099.589844 527.367188 1100.539062 526.554688 1101.53125 C 525.742188 1102.523438 524.976562 1103.554688 524.265625 1104.621094 C 523.554688 1105.691406 522.894531 1106.789062 522.289062 1107.921875 C 521.683594 1109.054688 521.136719 1110.210938 520.644531 1111.398438 C 520.15625 1112.582031 519.722656 1113.789062 519.351562 1115.019531 C 518.980469 1116.246094 518.667969 1117.492188 518.417969 1118.75 C 518.167969 1120.007812 517.976562 1121.277344 517.851562 1122.554688 C 517.726562 1123.832031 517.664062 1125.109375 517.664062 1126.394531 Z M 601.917969 1180.308594 C 601.617188 1180.582031 601.335938 1180.871094 601.054688 1181.171875 L 550.179688 1232.054688 L 550.179688 1126.394531 C 550.183594 1125.957031 550.226562 1125.523438 550.3125 1125.09375 C 550.402344 1124.667969 550.527344 1124.25 550.695312 1123.847656 C 550.863281 1123.445312 551.066406 1123.058594 551.308594 1122.695312 C 551.550781 1122.332031 551.828125 1121.996094 552.136719 1121.683594 C 552.441406 1121.375 552.777344 1121.09375 553.140625 1120.851562 C 553.5 1120.605469 553.882812 1120.394531 554.285156 1120.222656 C 554.6875 1120.050781 555.101562 1119.921875 555.527344 1119.828125 C 555.957031 1119.738281 556.390625 1119.6875 556.828125 1119.683594 L 662.53125 1119.683594 Z M 1172.945312 1136.960938 L 1164.882812 1128.914062 C 1164.171875 1128.207031 1163.402344 1127.570312 1162.574219 1127 C 1161.742188 1126.433594 1160.871094 1125.949219 1159.953125 1125.542969 C 1159.035156 1125.140625 1158.085938 1124.824219 1157.109375 1124.59375 C 1156.128906 1124.363281 1155.140625 1124.226562 1154.136719 1124.179688 C 1153.136719 1124.136719 1152.136719 1124.183594 1151.144531 1124.320312 C 1150.148438 1124.460938 1149.175781 1124.6875 1148.222656 1125.007812 C 1147.273438 1125.328125 1146.359375 1125.730469 1145.480469 1126.222656 C 1144.605469 1126.710938 1143.78125 1127.273438 1143.007812 1127.914062 C 1002.691406 1244.402344 803.253906 1267.488281 640.164062 1188.054688 L 676.109375 1152.082031 C 680.460938 1153.992188 684.84375 1155.832031 689.253906 1157.59375 C 693.667969 1159.355469 698.109375 1161.042969 702.582031 1162.65625 C 707.050781 1164.265625 711.550781 1165.800781 716.074219 1167.261719 C 720.59375 1168.71875 725.140625 1170.101562 729.710938 1171.40625 C 734.28125 1172.710938 738.871094 1173.9375 743.484375 1175.085938 C 748.09375 1176.234375 752.726562 1177.304688 757.375 1178.296875 C 762.019531 1179.285156 766.683594 1180.199219 771.363281 1181.03125 C 776.042969 1181.863281 780.734375 1182.617188 785.4375 1183.292969 C 790.144531 1183.964844 794.859375 1184.558594 799.582031 1185.074219 C 804.308594 1185.585938 809.039062 1186.019531 813.777344 1186.371094 C 818.519531 1186.726562 823.261719 1186.996094 828.011719 1187.1875 C 832.757812 1187.378906 837.511719 1187.492188 842.261719 1187.519531 C 847.015625 1187.550781 851.765625 1187.5 856.515625 1187.371094 C 861.269531 1187.238281 866.015625 1187.027344 870.757812 1186.734375 C 875.5 1186.441406 880.238281 1186.070312 884.96875 1185.617188 C 889.699219 1185.164062 894.421875 1184.628906 899.136719 1184.015625 C 903.847656 1183.402344 908.550781 1182.710938 913.238281 1181.9375 C 917.925781 1181.164062 922.601562 1180.308594 927.261719 1179.378906 C 931.921875 1178.445312 936.566406 1177.433594 941.191406 1176.347656 C 945.816406 1175.257812 950.421875 1174.089844 955.007812 1172.84375 C 959.59375 1171.59375 964.160156 1170.273438 968.699219 1168.871094 C 973.242188 1167.46875 977.757812 1165.992188 982.25 1164.4375 C 986.738281 1162.882812 991.203125 1161.253906 995.636719 1159.546875 C 1000.074219 1157.839844 1004.480469 1156.058594 1008.855469 1154.203125 C 1013.230469 1152.347656 1017.570312 1150.417969 1021.882812 1148.414062 C 1026.191406 1146.410156 1030.464844 1144.335938 1034.703125 1142.1875 C 1038.941406 1140.039062 1043.144531 1137.820312 1047.308594 1135.527344 C 1051.472656 1133.238281 1055.59375 1130.875 1059.679688 1128.445312 C 1063.761719 1126.011719 1067.800781 1123.511719 1071.800781 1120.945312 C 1075.800781 1118.375 1079.753906 1115.742188 1083.660156 1113.039062 C 1087.570312 1110.335938 1091.433594 1107.566406 1095.246094 1104.734375 C 1099.0625 1101.898438 1102.828125 1099 1106.542969 1096.039062 C 1106.988281 1095.683594 1107.414062 1095.304688 1107.820312 1094.90625 C 1108.226562 1094.503906 1108.609375 1094.082031 1108.96875 1093.640625 C 1109.332031 1093.203125 1109.667969 1092.742188 1109.980469 1092.265625 C 1110.292969 1091.789062 1110.582031 1091.296875 1110.84375 1090.792969 C 1111.105469 1090.285156 1111.339844 1089.765625 1111.542969 1089.234375 C 1111.75 1088.703125 1111.929688 1088.164062 1112.078125 1087.613281 C 1112.230469 1087.0625 1112.347656 1086.507812 1112.441406 1085.941406 C 1112.53125 1085.378906 1112.59375 1084.816406 1112.625 1084.246094 C 1112.65625 1083.675781 1112.660156 1083.105469 1112.628906 1082.539062 C 1112.601562 1081.96875 1112.542969 1081.402344 1112.457031 1080.839844 C 1112.367188 1080.277344 1112.25 1079.71875 1112.105469 1079.167969 C 1111.957031 1078.617188 1111.78125 1078.074219 1111.578125 1077.542969 C 1111.375 1077.011719 1111.144531 1076.488281 1110.886719 1075.980469 C 1110.628906 1075.472656 1110.34375 1074.980469 1110.035156 1074.5 C 1109.722656 1074.023438 1109.390625 1073.5625 1109.03125 1073.121094 C 1108.671875 1072.675781 1108.292969 1072.253906 1107.890625 1071.851562 L 1100.820312 1064.785156 L 1172.945312 1064.785156 Z M 1205.460938 1065.3125 L 1205.460938 1048.546875 C 1205.460938 1048.011719 1205.433594 1047.480469 1205.382812 1046.953125 C 1205.332031 1046.421875 1205.253906 1045.894531 1205.148438 1045.375 C 1205.046875 1044.851562 1204.917969 1044.335938 1204.761719 1043.828125 C 1204.609375 1043.316406 1204.429688 1042.816406 1204.226562 1042.324219 C 1204.019531 1041.832031 1203.792969 1041.351562 1203.542969 1040.882812 C 1203.292969 1040.414062 1203.019531 1039.957031 1202.722656 1039.515625 C 1202.425781 1039.070312 1202.109375 1038.644531 1201.773438 1038.230469 C 1201.433594 1037.820312 1201.078125 1037.425781 1200.699219 1037.050781 C 1200.324219 1036.671875 1199.929688 1036.316406 1199.519531 1035.980469 C 1199.105469 1035.640625 1198.679688 1035.324219 1198.238281 1035.027344 C 1197.792969 1034.730469 1197.335938 1034.457031 1196.867188 1034.207031 C 1196.398438 1033.957031 1195.917969 1033.730469 1195.425781 1033.527344 C 1194.933594 1033.320312 1194.433594 1033.144531 1193.921875 1032.988281 C 1193.414062 1032.832031 1192.898438 1032.703125 1192.375 1032.601562 C 1191.851562 1032.496094 1191.328125 1032.417969 1190.796875 1032.367188 C 1190.265625 1032.3125 1189.734375 1032.289062 1189.203125 1032.289062 L 1170.753906 1032.289062 C 1174.191406 1028.046875 1177.542969 1023.742188 1180.8125 1019.375 C 1184.082031 1015.003906 1187.265625 1010.570312 1190.359375 1006.074219 C 1193.457031 1001.582031 1196.464844 997.027344 1199.382812 992.414062 C 1202.300781 987.804688 1205.128906 983.136719 1207.863281 978.414062 C 1210.597656 973.691406 1213.242188 968.917969 1215.792969 964.09375 C 1218.339844 959.265625 1220.796875 954.394531 1223.15625 949.472656 C 1225.515625 944.550781 1227.777344 939.585938 1229.941406 934.574219 C 1232.105469 929.566406 1234.175781 924.515625 1236.140625 919.425781 C 1238.109375 914.335938 1239.976562 909.207031 1241.746094 904.042969 C 1243.515625 898.878906 1245.179688 893.683594 1246.746094 888.457031 C 1248.308594 883.226562 1249.773438 877.972656 1251.132812 872.6875 C 1252.492188 867.398438 1253.746094 862.089844 1254.898438 856.753906 C 1256.050781 851.421875 1257.101562 846.066406 1258.042969 840.691406 C 1258.988281 835.316406 1259.824219 829.921875 1260.558594 824.515625 C 1261.289062 819.109375 1261.917969 813.6875 1262.4375 808.253906 C 1262.957031 802.820312 1263.371094 797.382812 1263.679688 791.933594 C 1263.988281 786.484375 1264.191406 781.03125 1264.285156 775.574219 C 1264.382812 770.117188 1264.371094 764.660156 1264.253906 759.203125 C 1264.136719 753.75 1263.910156 748.296875 1263.582031 742.847656 C 1263.25 737.402344 1262.8125 731.960938 1262.269531 726.53125 C 1261.726562 721.101562 1261.078125 715.683594 1260.324219 710.277344 C 1259.570312 704.875 1258.710938 699.484375 1257.746094 694.113281 C 1256.78125 688.742188 1255.710938 683.390625 1254.535156 678.0625 C 1253.363281 672.734375 1252.085938 667.425781 1250.703125 662.148438 C 1249.324219 656.867188 1247.839844 651.617188 1246.253906 646.394531 C 1244.667969 641.171875 1242.980469 635.984375 1241.191406 630.828125 C 1239.402344 625.671875 1237.511719 620.550781 1235.523438 615.46875 C 1233.535156 610.386719 1231.449219 605.347656 1229.261719 600.34375 C 1227.074219 595.34375 1224.792969 590.386719 1222.414062 585.476562 C 1220.035156 580.566406 1217.5625 575.699219 1214.992188 570.886719 C 1212.421875 566.070312 1209.761719 561.308594 1207.003906 556.597656 C 1204.25 551.886719 1201.402344 547.230469 1198.464844 542.628906 C 1213.726562 537.3125 1227.933594 529.96875 1241.089844 520.59375 C 1347.824219 690.867188 1332.402344 911.347656 1205.460938 1065.304688 Z M 1205.460938 1065.3125 " fill-opacity="1" fill-rule="nonzero"/></g><path fill="#1a1a1a" d="M 339.671875 977.722656 L 546.097656 977.722656 C 546.632812 977.730469 547.167969 977.710938 547.703125 977.664062 C 548.238281 977.617188 548.769531 977.542969 549.296875 977.445312 C 549.824219 977.34375 550.347656 977.21875 550.859375 977.070312 C 551.375 976.917969 551.882812 976.742188 552.378906 976.542969 C 552.878906 976.339844 553.363281 976.117188 553.839844 975.867188 C 554.316406 975.617188 554.777344 975.347656 555.226562 975.050781 C 555.671875 974.757812 556.105469 974.441406 556.523438 974.105469 C 556.941406 973.765625 557.339844 973.410156 557.722656 973.03125 C 558.101562 972.65625 558.464844 972.257812 558.808594 971.847656 C 559.152344 971.433594 559.472656 971.003906 559.773438 970.558594 C 560.074219 970.117188 560.351562 969.65625 560.605469 969.183594 C 560.859375 968.710938 561.089844 968.230469 561.296875 967.734375 C 561.503906 967.238281 561.6875 966.734375 561.84375 966.222656 C 562 965.707031 562.128906 965.1875 562.234375 964.664062 C 562.339844 964.136719 562.421875 963.605469 562.472656 963.074219 C 562.527344 962.539062 562.554688 962.003906 562.554688 961.46875 C 562.554688 960.929688 562.527344 960.394531 562.472656 959.863281 C 562.421875 959.328125 562.339844 958.796875 562.234375 958.273438 C 562.128906 957.746094 562 957.226562 561.84375 956.714844 C 561.6875 956.199219 561.503906 955.695312 561.296875 955.199219 C 561.089844 954.707031 560.859375 954.222656 560.605469 953.75 C 560.351562 953.277344 560.074219 952.820312 559.773438 952.375 C 559.472656 951.929688 559.152344 951.5 558.808594 951.085938 C 558.464844 950.675781 558.101562 950.28125 557.722656 949.902344 C 557.339844 949.527344 556.941406 949.167969 556.523438 948.832031 C 556.105469 948.492188 555.671875 948.175781 555.226562 947.882812 C 554.777344 947.585938 554.316406 947.316406 553.839844 947.066406 C 553.363281 946.816406 552.878906 946.59375 552.378906 946.390625 C 551.882812 946.191406 551.375 946.015625 550.859375 945.863281 C 550.347656 945.714844 549.824219 945.589844 549.296875 945.488281 C 548.769531 945.390625 548.238281 945.316406 547.703125 945.269531 C 547.167969 945.226562 546.632812 945.203125 546.097656 945.210938 L 339.671875 945.210938 C 338.613281 945.222656 337.566406 945.339844 336.527344 945.558594 C 335.492188 945.773438 334.484375 946.089844 333.511719 946.503906 C 332.535156 946.917969 331.609375 947.421875 330.734375 948.019531 C 329.855469 948.613281 329.046875 949.289062 328.300781 950.042969 C 327.558594 950.792969 326.894531 951.613281 326.308594 952.496094 C 325.722656 953.378906 325.230469 954.3125 324.828125 955.292969 C 324.425781 956.269531 324.121094 957.28125 323.917969 958.320312 C 323.710938 959.359375 323.609375 960.40625 323.609375 961.46875 C 323.609375 962.527344 323.710938 963.574219 323.917969 964.613281 C 324.121094 965.652344 324.425781 966.664062 324.828125 967.644531 C 325.230469 968.625 325.722656 969.554688 326.308594 970.4375 C 326.894531 971.320312 327.558594 972.140625 328.300781 972.894531 C 329.046875 973.648438 329.855469 974.320312 330.734375 974.917969 C 331.609375 975.511719 332.535156 976.015625 333.511719 976.429688 C 334.484375 976.84375 335.492188 977.160156 336.527344 977.378906 C 337.566406 977.59375 338.613281 977.710938 339.671875 977.722656 Z M 339.671875 977.722656 " fill-opacity="1" fill-rule="nonzero"/><path fill="#1a1a1a" d="M 339.671875 905 L 598.824219 905 C 599.882812 904.988281 600.929688 904.871094 601.96875 904.652344 C 603.003906 904.4375 604.011719 904.121094 604.984375 903.707031 C 605.960938 903.292969 606.886719 902.789062 607.761719 902.191406 C 608.640625 901.597656 609.449219 900.921875 610.195312 900.167969 C 610.941406 899.417969 611.605469 898.597656 612.1875 897.714844 C 612.773438 896.832031 613.265625 895.898438 613.667969 894.917969 C 614.070312 893.941406 614.375 892.929688 614.582031 891.890625 C 614.785156 890.851562 614.886719 889.800781 614.886719 888.742188 C 614.886719 887.683594 614.785156 886.636719 614.582031 885.597656 C 614.375 884.554688 614.070312 883.546875 613.667969 882.566406 C 613.265625 881.585938 612.773438 880.65625 612.1875 879.773438 C 611.605469 878.890625 610.941406 878.070312 610.195312 877.316406 C 609.449219 876.5625 608.640625 875.890625 607.761719 875.292969 C 606.886719 874.699219 605.960938 874.195312 604.984375 873.78125 C 604.011719 873.367188 603.003906 873.050781 601.96875 872.832031 C 600.929688 872.617188 599.882812 872.5 598.824219 872.488281 L 339.671875 872.488281 C 338.613281 872.5 337.566406 872.617188 336.527344 872.832031 C 335.492188 873.050781 334.484375 873.367188 333.511719 873.78125 C 332.535156 874.195312 331.609375 874.699219 330.734375 875.292969 C 329.855469 875.890625 329.046875 876.5625 328.300781 877.316406 C 327.558594 878.070312 326.894531 878.890625 326.308594 879.773438 C 325.722656 880.65625 325.230469 881.585938 324.828125 882.566406 C 324.425781 883.546875 324.121094 884.554688 323.917969 885.597656 C 323.710938 886.636719 323.609375 887.683594 323.609375 888.742188 C 323.609375 889.800781 323.710938 890.851562 323.917969 891.890625 C 324.121094 892.929688 324.425781 893.941406 324.828125 894.917969 C 325.230469 895.898438 325.722656 896.832031 326.308594 897.714844 C 326.894531 898.597656 327.558594 899.414062 328.300781 900.167969 C 329.046875 900.921875 329.855469 901.597656 330.734375 902.191406 C 331.609375 902.789062 332.535156 903.292969 333.511719 903.707031 C 334.484375 904.121094 335.492188 904.4375 336.527344 904.652344 C 337.566406 904.871094 338.613281 904.988281 339.671875 905 Z M 339.671875 905 " fill-opacity="1" fill-rule="nonzero"/><path fill="#1a1a1a" d="M 339.671875 832.277344 L 598.824219 832.277344 C 599.882812 832.265625 600.929688 832.148438 601.96875 831.933594 C 603.003906 831.714844 604.011719 831.398438 604.984375 830.984375 C 605.960938 830.570312 606.886719 830.066406 607.761719 829.472656 C 608.640625 828.875 609.449219 828.203125 610.195312 827.449219 C 610.941406 826.695312 611.605469 825.875 612.1875 824.992188 C 612.773438 824.109375 613.265625 823.179688 613.667969 822.199219 C 614.070312 821.21875 614.375 820.207031 614.582031 819.167969 C 614.785156 818.128906 614.886719 817.082031 614.886719 816.023438 C 614.886719 814.960938 614.785156 813.914062 614.582031 812.875 C 614.375 811.835938 614.070312 810.824219 613.667969 809.847656 C 613.265625 808.867188 612.773438 807.933594 612.1875 807.050781 C 611.605469 806.167969 610.941406 805.347656 610.195312 804.597656 C 609.449219 803.84375 608.640625 803.167969 607.761719 802.574219 C 606.886719 801.976562 605.960938 801.472656 604.984375 801.058594 C 604.011719 800.644531 603.003906 800.328125 601.96875 800.113281 C 600.929688 799.894531 599.882812 799.777344 598.824219 799.765625 L 339.671875 799.765625 C 338.613281 799.777344 337.566406 799.894531 336.527344 800.113281 C 335.492188 800.328125 334.484375 800.644531 333.511719 801.058594 C 332.535156 801.472656 331.609375 801.976562 330.734375 802.574219 C 329.855469 803.167969 329.046875 803.84375 328.300781 804.59375 C 327.558594 805.347656 326.894531 806.167969 326.308594 807.050781 C 325.722656 807.933594 325.230469 808.867188 324.828125 809.847656 C 324.425781 810.824219 324.121094 811.835938 323.917969 812.875 C 323.710938 813.914062 323.609375 814.960938 323.609375 816.023438 C 323.609375 817.082031 323.710938 818.128906 323.917969 819.167969 C 324.121094 820.207031 324.425781 821.21875 324.828125 822.199219 C 325.230469 823.179688 325.722656 824.109375 326.308594 824.992188 C 326.894531 825.875 327.558594 826.695312 328.300781 827.449219 C 329.046875 828.203125 329.855469 828.875 330.734375 829.472656 C 331.609375 830.066406 332.535156 830.570312 333.511719 830.984375 C 334.484375 831.398438 335.492188 831.714844 336.527344 831.933594 C 337.566406 832.148438 338.613281 832.265625 339.671875 832.277344 Z M 339.671875 832.277344 " fill-opacity="1" fill-rule="nonzero"/><path fill="#1a1a1a" d="M 339.671875 759.554688 L 598.824219 759.554688 C 599.355469 759.554688 599.886719 759.527344 600.417969 759.476562 C 600.949219 759.421875 601.472656 759.34375 601.996094 759.242188 C 602.519531 759.136719 603.035156 759.007812 603.542969 758.855469 C 604.054688 758.699219 604.554688 758.519531 605.046875 758.316406 C 605.539062 758.113281 606.019531 757.886719 606.488281 757.632812 C 606.957031 757.382812 607.414062 757.109375 607.855469 756.816406 C 608.300781 756.519531 608.726562 756.203125 609.136719 755.863281 C 609.550781 755.527344 609.945312 755.167969 610.320312 754.792969 C 610.695312 754.417969 611.054688 754.023438 611.390625 753.609375 C 611.730469 753.199219 612.046875 752.773438 612.34375 752.328125 C 612.636719 751.886719 612.910156 751.429688 613.164062 750.960938 C 613.414062 750.492188 613.640625 750.011719 613.84375 749.519531 C 614.046875 749.027344 614.226562 748.527344 614.382812 748.019531 C 614.535156 747.507812 614.664062 746.992188 614.769531 746.46875 C 614.875 745.949219 614.953125 745.421875 615.003906 744.890625 C 615.054688 744.363281 615.082031 743.832031 615.082031 743.300781 C 615.082031 742.765625 615.054688 742.234375 615.003906 741.707031 C 614.953125 741.175781 614.875 740.648438 614.769531 740.128906 C 614.664062 739.605469 614.535156 739.089844 614.382812 738.582031 C 614.226562 738.070312 614.046875 737.570312 613.84375 737.078125 C 613.640625 736.585938 613.414062 736.105469 613.164062 735.636719 C 612.910156 735.167969 612.636719 734.710938 612.34375 734.269531 C 612.046875 733.824219 611.730469 733.398438 611.390625 732.988281 C 611.054688 732.574219 610.695312 732.183594 610.320312 731.804688 C 609.945312 731.429688 609.550781 731.070312 609.136719 730.734375 C 608.726562 730.394531 608.300781 730.078125 607.855469 729.785156 C 607.414062 729.488281 606.957031 729.214844 606.488281 728.964844 C 606.019531 728.710938 605.539062 728.484375 605.046875 728.28125 C 604.554688 728.078125 604.054688 727.898438 603.542969 727.746094 C 603.035156 727.589844 602.519531 727.460938 601.996094 727.355469 C 601.472656 727.253906 600.949219 727.175781 600.417969 727.121094 C 599.886719 727.070312 599.355469 727.042969 598.824219 727.042969 L 339.671875 727.042969 C 339.140625 727.042969 338.609375 727.070312 338.078125 727.121094 C 337.550781 727.175781 337.023438 727.253906 336.5 727.355469 C 335.980469 727.460938 335.464844 727.589844 334.953125 727.746094 C 334.445312 727.898438 333.945312 728.078125 333.453125 728.28125 C 332.960938 728.484375 332.480469 728.710938 332.007812 728.964844 C 331.539062 729.214844 331.082031 729.488281 330.640625 729.785156 C 330.199219 730.078125 329.769531 730.394531 329.359375 730.734375 C 328.949219 731.070312 328.554688 731.429688 328.175781 731.804688 C 327.800781 732.183594 327.445312 732.574219 327.105469 732.988281 C 326.769531 733.398438 326.449219 733.824219 326.15625 734.269531 C 325.859375 734.710938 325.585938 735.167969 325.335938 735.636719 C 325.085938 736.105469 324.855469 736.585938 324.652344 737.078125 C 324.449219 737.570312 324.269531 738.070312 324.117188 738.582031 C 323.960938 739.089844 323.832031 739.605469 323.726562 740.128906 C 323.625 740.648438 323.546875 741.175781 323.492188 741.707031 C 323.441406 742.234375 323.414062 742.765625 323.414062 743.300781 C 323.414062 743.832031 323.441406 744.363281 323.492188 744.890625 C 323.546875 745.421875 323.625 745.949219 323.726562 746.46875 C 323.832031 746.992188 323.960938 747.507812 324.117188 748.019531 C 324.269531 748.527344 324.449219 749.027344 324.652344 749.519531 C 324.855469 750.011719 325.085938 750.492188 325.335938 750.960938 C 325.585938 751.429688 325.859375 751.886719 326.15625 752.328125 C 326.449219 752.773438 326.769531 753.199219 327.105469 753.609375 C 327.445312 754.023438 327.800781 754.417969 328.175781 754.792969 C 328.554688 755.167969 328.949219 755.527344 329.359375 755.863281 C 329.769531 756.203125 330.199219 756.519531 330.640625 756.816406 C 331.082031 757.109375 331.539062 757.382812 332.007812 757.636719 C 332.480469 757.886719 332.960938 758.113281 333.453125 758.316406 C 333.945312 758.519531 334.445312 758.699219 334.953125 758.855469 C 335.464844 759.007812 335.980469 759.136719 336.5 759.242188 C 337.023438 759.34375 337.550781 759.421875 338.078125 759.476562 C 338.609375 759.527344 339.140625 759.554688 339.671875 759.554688 Z M 339.671875 759.554688 " fill-opacity="1" fill-rule="nonzero"/><path fill="#1a1a1a" d="M 765.277344 865.464844 C 765.679688 865.816406 766.097656 866.144531 766.53125 866.453125 C 766.964844 866.761719 767.414062 867.046875 767.875 867.3125 C 768.339844 867.578125 768.8125 867.820312 769.296875 868.035156 C 769.785156 868.253906 770.277344 868.449219 770.785156 868.617188 C 771.289062 868.785156 771.800781 868.929688 772.320312 869.050781 C 772.839844 869.167969 773.363281 869.261719 773.890625 869.332031 C 774.417969 869.398438 774.949219 869.441406 775.480469 869.457031 C 776.011719 869.472656 776.542969 869.460938 777.074219 869.421875 C 777.605469 869.386719 778.136719 869.324219 778.660156 869.234375 C 779.183594 869.148438 779.703125 869.035156 780.21875 868.894531 C 780.730469 868.753906 781.238281 868.589844 781.734375 868.402344 C 782.234375 868.210938 782.71875 868 783.195312 867.761719 C 783.675781 867.523438 784.136719 867.265625 784.589844 866.980469 C 785.039062 866.699219 785.476562 866.394531 785.898438 866.070312 C 786.320312 865.742188 786.722656 865.398438 787.109375 865.035156 C 787.5 864.667969 787.867188 864.285156 788.214844 863.882812 L 858.84375 782.800781 C 860.128906 781.324219 861.117188 779.664062 861.808594 777.824219 C 862.496094 775.988281 862.839844 774.085938 862.839844 772.125 L 862.839844 628.324219 C 862.839844 627.792969 862.8125 627.261719 862.761719 626.730469 C 862.710938 626.203125 862.632812 625.675781 862.527344 625.152344 C 862.421875 624.632812 862.292969 624.117188 862.140625 623.605469 C 861.984375 623.097656 861.804688 622.597656 861.601562 622.105469 C 861.398438 621.613281 861.171875 621.132812 860.917969 620.660156 C 860.667969 620.191406 860.394531 619.738281 860.101562 619.292969 C 859.804688 618.851562 859.488281 618.425781 859.148438 618.011719 C 858.8125 617.601562 858.453125 617.207031 858.078125 616.832031 C 857.703125 616.453125 857.308594 616.097656 856.894531 615.757812 C 856.484375 615.421875 856.058594 615.105469 855.613281 614.808594 C 855.171875 614.511719 854.714844 614.238281 854.246094 613.988281 C 853.777344 613.738281 853.296875 613.511719 852.804688 613.308594 C 852.3125 613.101562 851.8125 612.925781 851.300781 612.769531 C 850.792969 612.613281 850.277344 612.484375 849.753906 612.382812 C 849.230469 612.277344 848.707031 612.199219 848.175781 612.148438 C 847.644531 612.097656 847.113281 612.070312 846.582031 612.070312 C 846.050781 612.070312 845.519531 612.097656 844.988281 612.148438 C 844.457031 612.199219 843.933594 612.277344 843.410156 612.382812 C 842.886719 612.484375 842.371094 612.613281 841.863281 612.769531 C 841.351562 612.925781 840.851562 613.101562 840.359375 613.308594 C 839.867188 613.511719 839.386719 613.738281 838.917969 613.988281 C 838.449219 614.238281 837.992188 614.511719 837.550781 614.808594 C 837.105469 615.105469 836.679688 615.421875 836.269531 615.757812 C 835.855469 616.097656 835.460938 616.453125 835.085938 616.832031 C 834.710938 617.207031 834.351562 617.601562 834.015625 618.011719 C 833.675781 618.425781 833.359375 618.851562 833.0625 619.292969 C 832.769531 619.738281 832.496094 620.191406 832.242188 620.660156 C 831.992188 621.132812 831.765625 621.613281 831.5625 622.105469 C 831.359375 622.597656 831.179688 623.097656 831.023438 623.605469 C 830.871094 624.117188 830.738281 624.632812 830.636719 625.152344 C 830.53125 625.675781 830.453125 626.203125 830.402344 626.730469 C 830.351562 627.261719 830.324219 627.792969 830.324219 628.324219 L 830.324219 766.039062 L 763.695312 842.53125 C 763.347656 842.929688 763.015625 843.347656 762.707031 843.78125 C 762.398438 844.214844 762.113281 844.664062 761.847656 845.125 C 761.582031 845.589844 761.34375 846.0625 761.125 846.546875 C 760.90625 847.035156 760.710938 847.527344 760.542969 848.035156 C 760.375 848.539062 760.230469 849.050781 760.109375 849.570312 C 759.992188 850.089844 759.898438 850.613281 759.828125 851.140625 C 759.761719 851.667969 759.71875 852.199219 759.703125 852.730469 C 759.6875 853.261719 759.699219 853.792969 759.734375 854.324219 C 759.773438 854.855469 759.835938 855.382812 759.925781 855.910156 C 760.011719 856.433594 760.125 856.953125 760.265625 857.46875 C 760.40625 857.980469 760.570312 858.488281 760.757812 858.984375 C 760.949219 859.484375 761.164062 859.96875 761.398438 860.445312 C 761.636719 860.921875 761.898438 861.386719 762.179688 861.839844 C 762.460938 862.289062 762.765625 862.726562 763.09375 863.148438 C 763.417969 863.570312 763.761719 863.972656 764.128906 864.359375 C 764.492188 864.746094 764.878906 865.117188 765.277344 865.464844 Z M 765.277344 865.464844 " fill-opacity="1" fill-rule="nonzero"/></svg>