<svg xmlns="http://www.w3.org/2000/svg" xmlns:xlink="http://www.w3.org/1999/xlink" width="2000" zoomAndPan="magnify" viewBox="0 0 1500 1499.999933" height="2000" preserveAspectRatio="xMidYMid meet" version="1.0"><defs><clipPath id="d74a741745"><path d="M 1232 725.179688 L 1345.191406 725.179688 L 1345.191406 1221.648438 L 1232 1221.648438 Z M 1232 725.179688 " clip-rule="nonzero"/></clipPath><clipPath id="c5c32690bb"><path d="M 154.941406 725.179688 L 1010 725.179688 L 1010 1221.648438 L 154.941406 1221.648438 Z M 154.941406 725.179688 " clip-rule="nonzero"/></clipPath><clipPath id="a840813f3f"><path d="M 658 278.414062 L 866 278.414062 L 866 487 L 658 487 Z M 658 278.414062 " clip-rule="nonzero"/></clipPath><clipPath id="1a9397679a"><path d="M 1016 278.414062 L 1225 278.414062 L 1225 487 L 1016 487 Z M 1016 278.414062 " clip-rule="nonzero"/></clipPath><clipPath id="52853d110e"><path d="M 976 518.519531 L 1264.988281 518.519531 L 1264.988281 1221.648438 L 976 1221.648438 Z M 976 518.519531 " clip-rule="nonzero"/></clipPath></defs><rect x="-150" width="1800" fill="#ffffff" y="-149.999993" height="1799.99992" fill-opacity="1"/><rect x="-150" width="1800" fill="#ffffff" y="-149.999993" height="1799.99992" fill-opacity="1"/><path fill="#2e2a2b" d="M 915.671875 1153.835938 C 915.671875 1160.757812 921.273438 1166.363281 928.191406 1166.363281 L 971.933594 1166.363281 C 978.847656 1166.363281 984.453125 1160.757812 984.453125 1153.835938 C 984.453125 1146.925781 978.847656 1141.3125 971.933594 1141.3125 L 928.191406 1141.3125 C 921.273438 1141.3125 915.671875 1146.925781 915.671875 1153.835938 " fill-opacity="1" fill-rule="nonzero"/><g clip-path="url(#d74a741745)"><path fill="#2e2a2b" d="M 1332.675781 725.230469 L 1301.734375 725.230469 C 1294.816406 725.230469 1289.210938 730.839844 1289.210938 737.757812 C 1289.210938 744.675781 1294.816406 750.28125 1301.734375 750.28125 L 1320.152344 750.28125 L 1320.152344 1141.3125 L 1262.191406 1141.3125 C 1255.277344 1141.3125 1249.667969 1146.925781 1249.667969 1153.835938 C 1249.667969 1160.757812 1255.277344 1166.363281 1262.191406 1166.363281 L 1281.242188 1166.363281 L 1281.242188 1196.597656 L 1244.867188 1196.597656 C 1237.953125 1196.597656 1232.34375 1202.207031 1232.34375 1209.121094 C 1232.34375 1216.039062 1237.953125 1221.648438 1244.867188 1221.648438 L 1293.765625 1221.648438 C 1300.683594 1221.648438 1306.285156 1216.039062 1306.285156 1209.121094 L 1306.285156 1166.363281 L 1332.675781 1166.363281 C 1339.585938 1166.363281 1345.195312 1160.757812 1345.195312 1153.835938 L 1345.195312 737.757812 C 1345.195312 730.839844 1339.585938 725.230469 1332.675781 725.230469 " fill-opacity="1" fill-rule="nonzero"/></g><g clip-path="url(#c5c32690bb)"><path fill="#2e2a2b" d="M 997.457031 1196.597656 L 218.890625 1196.597656 L 218.890625 1166.363281 L 804.039062 1166.363281 C 810.953125 1166.363281 816.5625 1160.757812 816.5625 1153.835938 C 816.5625 1146.925781 810.953125 1141.3125 804.039062 1141.3125 L 179.984375 1141.3125 L 179.984375 750.28125 L 917.234375 750.28125 C 924.152344 750.28125 929.757812 744.675781 929.757812 737.757812 C 929.757812 730.839844 924.152344 725.230469 917.234375 725.230469 L 167.460938 725.230469 C 160.546875 725.230469 154.941406 730.839844 154.941406 737.757812 L 154.941406 1153.835938 C 154.941406 1160.757812 160.546875 1166.363281 167.460938 1166.363281 L 193.847656 1166.363281 L 193.847656 1209.121094 C 193.847656 1216.039062 199.453125 1221.648438 206.371094 1221.648438 L 997.457031 1221.648438 C 1004.367188 1221.648438 1009.980469 1216.039062 1009.980469 1209.121094 C 1009.980469 1202.207031 1004.367188 1196.597656 997.457031 1196.597656 " fill-opacity="1" fill-rule="nonzero"/></g><path fill="#2e2a2b" d="M 220.355469 444.089844 L 526.558594 444.089844 L 526.558594 637.03125 L 429.347656 637.03125 L 429.347656 526.425781 C 429.347656 519.503906 423.742188 513.898438 416.824219 513.898438 L 330.089844 513.898438 C 323.171875 513.898438 317.566406 519.503906 317.566406 526.425781 L 317.566406 637.03125 L 220.355469 637.03125 Z M 207.835938 662.082031 L 317.566406 662.082031 L 317.566406 680.496094 C 317.566406 687.414062 323.171875 693.023438 330.089844 693.023438 C 337.003906 693.023438 342.613281 687.414062 342.613281 680.496094 L 342.613281 538.949219 L 404.304688 538.949219 L 404.304688 680.496094 C 404.304688 687.414062 409.910156 693.023438 416.824219 693.023438 C 423.742188 693.023438 429.347656 687.414062 429.347656 680.496094 L 429.347656 662.082031 L 539.078125 662.082031 C 545.996094 662.082031 551.601562 656.476562 551.601562 649.558594 L 551.601562 431.566406 C 551.601562 424.648438 545.996094 419.042969 539.078125 419.042969 L 207.835938 419.042969 C 200.917969 419.042969 195.3125 424.648438 195.3125 431.566406 L 195.3125 649.558594 C 195.3125 656.476562 200.917969 662.082031 207.835938 662.082031 " fill-opacity="1" fill-rule="nonzero"/><g clip-path="url(#a840813f3f)"><path fill="#2e2a2b" d="M 762.21875 303.722656 C 805.609375 303.722656 840.917969 339.035156 840.917969 382.433594 C 840.917969 425.835938 805.609375 461.152344 762.21875 461.152344 C 718.828125 461.152344 683.523438 425.835938 683.523438 382.433594 C 683.523438 339.035156 718.828125 303.722656 762.21875 303.722656 Z M 762.21875 486.199219 C 819.421875 486.199219 865.960938 439.652344 865.960938 382.433594 C 865.960938 325.21875 819.421875 278.671875 762.21875 278.671875 C 705.019531 278.671875 658.480469 325.21875 658.480469 382.433594 C 658.480469 439.652344 705.019531 486.199219 762.21875 486.199219 " fill-opacity="1" fill-rule="nonzero"/></g><path fill="#2e2a2b" d="M 630.539062 689.582031 C 637.453125 689.582031 643.058594 683.976562 643.058594 677.058594 L 643.058594 604.398438 C 643.058594 571.238281 670.03125 544.265625 703.179688 544.265625 L 821.261719 544.265625 C 854.414062 544.265625 881.386719 571.238281 881.386719 604.398438 L 881.386719 677.058594 C 881.386719 683.976562 886.988281 689.582031 893.910156 689.582031 C 900.820312 689.582031 906.429688 683.976562 906.429688 677.058594 L 906.429688 604.398438 C 906.429688 557.425781 868.21875 519.214844 821.261719 519.214844 L 703.179688 519.214844 C 656.21875 519.214844 618.015625 557.425781 618.015625 604.398438 L 618.015625 677.058594 C 618.015625 683.976562 623.621094 689.582031 630.539062 689.582031 " fill-opacity="1" fill-rule="nonzero"/><g clip-path="url(#1a9397679a)"><path fill="#2e2a2b" d="M 1120.398438 303.722656 C 1163.796875 303.722656 1199.101562 339.035156 1199.101562 382.433594 C 1199.101562 425.835938 1163.796875 461.152344 1120.398438 461.152344 C 1077.007812 461.152344 1041.703125 425.835938 1041.703125 382.433594 C 1041.703125 339.035156 1077.007812 303.722656 1120.398438 303.722656 Z M 1120.398438 486.199219 C 1177.605469 486.199219 1224.144531 439.652344 1224.144531 382.433594 C 1224.144531 325.21875 1177.605469 278.671875 1120.398438 278.671875 C 1063.195312 278.671875 1016.65625 325.21875 1016.65625 382.433594 C 1016.65625 439.652344 1063.195312 486.199219 1120.398438 486.199219 " fill-opacity="1" fill-rule="nonzero"/></g><g clip-path="url(#52853d110e)"><path fill="#2e2a2b" d="M 1239.5625 827.574219 C 1239.5625 852.871094 1223.578125 875.621094 1199.796875 884.175781 C 1194.832031 885.964844 1191.511719 890.679688 1191.511719 895.960938 L 1191.511719 1162.972656 C 1191.511719 1181.515625 1176.433594 1196.597656 1157.894531 1196.597656 L 1082.90625 1196.597656 C 1064.363281 1196.597656 1049.289062 1181.515625 1049.289062 1162.972656 L 1049.289062 895.960938 C 1049.289062 890.679688 1045.980469 885.964844 1041.007812 884.175781 C 1017.222656 875.621094 1001.238281 852.871094 1001.238281 827.574219 L 1001.238281 604.128906 C 1001.238281 570.96875 1028.207031 543.996094 1061.363281 543.996094 L 1179.441406 543.996094 C 1212.589844 543.996094 1239.5625 570.96875 1239.5625 604.128906 Z M 1264.605469 827.574219 L 1264.605469 604.128906 C 1264.605469 557.160156 1226.402344 518.945312 1179.441406 518.945312 L 1061.363281 518.945312 C 1014.398438 518.945312 976.195312 557.160156 976.195312 604.128906 L 976.195312 827.574219 C 976.195312 860.382812 995.179688 890.164062 1024.246094 904.261719 L 1024.246094 1162.972656 C 1024.246094 1195.324219 1050.5625 1221.648438 1082.90625 1221.648438 L 1157.894531 1221.648438 C 1190.238281 1221.648438 1216.554688 1195.324219 1216.554688 1162.972656 L 1216.554688 904.261719 C 1245.625 890.164062 1264.605469 860.382812 1264.605469 827.574219 " fill-opacity="1" fill-rule="nonzero"/></g><path fill="#2e2a2b" d="M 684.019531 657.707031 L 684.019531 677.058594 C 684.019531 683.976562 689.625 689.582031 696.539062 689.582031 C 703.457031 689.582031 709.0625 683.976562 709.0625 677.058594 L 709.0625 657.707031 C 709.0625 650.789062 703.457031 645.179688 696.539062 645.179688 C 689.625 645.179688 684.019531 650.789062 684.019531 657.707031 " fill-opacity="1" fill-rule="nonzero"/><path fill="#2e2a2b" d="M 808.402344 657.707031 L 808.402344 677.058594 C 808.402344 683.976562 814.015625 689.582031 820.925781 689.582031 C 827.84375 689.582031 833.449219 683.976562 833.449219 677.058594 L 833.449219 657.707031 C 833.449219 650.789062 827.84375 645.179688 820.925781 645.179688 C 814.015625 645.179688 808.402344 650.789062 808.402344 657.707031 " fill-opacity="1" fill-rule="nonzero"/></svg>