<svg xmlns="http://www.w3.org/2000/svg" xmlns:xlink="http://www.w3.org/1999/xlink" width="2000" zoomAndPan="magnify" viewBox="0 0 1500 1499.999933" height="2000" preserveAspectRatio="xMidYMid meet" version="1.0"><defs><clipPath id="b08453c11d"><path d="M 859 309 L 1124.421875 309 L 1124.421875 391 L 859 391 Z M 859 309 " clip-rule="nonzero"/></clipPath><clipPath id="da4fec33b2"><path d="M 375.921875 305 L 843 305 L 843 976 L 375.921875 976 Z M 375.921875 305 " clip-rule="nonzero"/></clipPath></defs><rect x="-150" width="1800" fill="#ffffff" y="-149.999993" height="1799.99992" fill-opacity="1"/><rect x="-150" width="1800" fill="#ffffff" y="-149.999993" height="1799.99992" fill-opacity="1"/><path fill="#000000" d="M 965.875 1323.976562 L 700.96875 1323.976562 C 653.503906 1323.976562 614.734375 1285.222656 614.734375 1237.769531 L 614.734375 595.574219 C 614.734375 504.152344 689.039062 429.871094 780.488281 429.871094 L 886.351562 429.871094 C 977.800781 429.871094 1052.105469 504.152344 1052.105469 595.574219 L 1052.105469 1237.769531 C 1052.105469 1285.46875 1013.339844 1323.976562 965.875 1323.976562 Z M 780.488281 459.679688 C 705.6875 459.679688 644.554688 520.546875 644.554688 595.574219 L 644.554688 1237.769531 C 644.554688 1268.824219 669.902344 1294.164062 700.96875 1294.164062 L 965.875 1294.164062 C 996.9375 1294.164062 1022.285156 1268.824219 1022.285156 1237.769531 L 1022.285156 595.574219 C 1022.285156 520.796875 961.402344 459.679688 886.351562 459.679688 Z M 780.488281 459.679688 " fill-opacity="1" fill-rule="nonzero"/><path fill="#000000" d="M 1037.195312 1164.234375 L 629.644531 1164.234375 C 621.445312 1164.234375 614.734375 1157.527344 614.734375 1149.328125 L 614.734375 654.203125 C 614.734375 646.003906 621.445312 639.296875 629.644531 639.296875 L 1037.195312 639.296875 C 1045.394531 639.296875 1052.105469 646.003906 1052.105469 654.203125 L 1052.105469 1149.328125 C 1052.105469 1157.527344 1045.394531 1164.234375 1037.195312 1164.234375 Z M 644.554688 1134.421875 L 1022.285156 1134.421875 L 1022.285156 669.109375 L 644.554688 669.109375 Z M 644.554688 1134.421875 " fill-opacity="1" fill-rule="nonzero"/><path fill="#000000" d="M 862 1069.085938 C 858.023438 1069.085938 854.046875 1067.59375 851.3125 1064.613281 C 847.335938 1060.640625 846.09375 1054.675781 848.082031 1049.210938 C 848.828125 1047.222656 862.746094 1005.488281 838.390625 960.519531 C 836.402344 963.253906 834.664062 966.234375 832.675781 968.96875 C 817.515625 991.078125 805.339844 1008.46875 817.515625 1045.238281 C 819.503906 1051.199219 817.515625 1057.65625 812.792969 1061.632812 C 807.824219 1065.609375 801.113281 1066.105469 795.894531 1062.875 C 757.875 1040.019531 735.011719 1016.914062 724.328125 990.332031 C 713.144531 962.261719 716.125 931.207031 733.769531 895.679688 C 746.691406 869.347656 764.335938 852.949219 779.742188 838.789062 C 803.101562 817.175781 817.269531 804.007812 806.582031 764.757812 C 805.089844 759.042969 807.078125 752.832031 811.800781 749.105469 C 816.523438 745.378906 822.984375 744.882812 828.203125 747.863281 C 885.605469 780.40625 928.847656 832.082031 944.007812 885.992188 C 963.886719 956.546875 943.261719 1044.492188 866.222656 1068.835938 C 864.980469 1068.835938 863.488281 1069.085938 862 1069.085938 Z M 837.148438 916.796875 C 841.621094 916.796875 845.847656 918.785156 848.828125 922.511719 C 879.644531 961.019531 883.867188 1001.015625 881.878906 1027.847656 C 920.644531 999.773438 929.09375 941.886719 915.675781 893.691406 C 904.992188 855.683594 877.65625 818.667969 840.128906 790.839844 C 839.136719 824.132812 819.253906 842.515625 800.121094 860.402344 C 785.957031 873.570312 771.046875 887.234375 760.609375 908.597656 C 738.242188 953.566406 744.207031 986.109375 782.726562 1017.410156 C 782.726562 988.84375 795.894531 969.464844 808.074219 951.824219 C 814.039062 943.128906 819.753906 934.933594 823.480469 925.988281 C 825.46875 921.269531 829.941406 917.789062 835.160156 917.046875 C 835.90625 917.046875 836.652344 916.796875 837.148438 916.796875 Z M 837.148438 916.796875 " fill-opacity="1" fill-rule="nonzero"/><path fill="#000000" d="M 833.421875 459.679688 C 790.925781 459.679688 756.136719 425.148438 756.136719 382.417969 C 756.136719 339.6875 790.925781 305.40625 833.421875 305.40625 C 875.914062 305.40625 910.707031 339.9375 910.707031 382.667969 C 910.707031 425.398438 876.164062 459.679688 833.421875 459.679688 Z M 833.421875 335.21875 C 807.328125 335.21875 785.957031 356.332031 785.957031 382.667969 C 785.957031 409 807.078125 430.117188 833.421875 430.117188 C 859.761719 430.117188 880.886719 409 880.886719 382.667969 C 880.886719 356.332031 859.515625 335.21875 833.421875 335.21875 Z M 833.421875 335.21875 " fill-opacity="1" fill-rule="nonzero"/><path fill="#000000" d="M 833.421875 335.21875 C 825.21875 335.21875 818.511719 328.507812 818.511719 320.3125 L 818.511719 247.273438 C 818.511719 239.074219 825.21875 232.367188 833.421875 232.367188 C 841.621094 232.367188 848.332031 239.074219 848.332031 247.273438 L 848.332031 320.3125 C 848.332031 328.507812 841.621094 335.21875 833.421875 335.21875 Z M 833.421875 335.21875 " fill-opacity="1" fill-rule="nonzero"/><path fill="#000000" d="M 761.851562 267.394531 C 754.894531 267.394531 748.679688 262.425781 747.1875 255.222656 C 745.699219 247.023438 750.917969 239.320312 759.117188 237.832031 L 1076.707031 176.46875 C 1084.660156 174.976562 1092.613281 180.195312 1094.101562 188.394531 C 1095.59375 196.589844 1090.375 204.292969 1082.175781 205.785156 L 764.832031 267.144531 C 763.839844 267.144531 762.84375 267.394531 761.851562 267.394531 Z M 761.851562 267.394531 " fill-opacity="1" fill-rule="nonzero"/><g clip-path="url(#b08453c11d)"><path fill="#000000" d="M 1109.511719 390.121094 C 1108.019531 390.121094 1106.28125 389.871094 1104.789062 389.375 L 979.046875 346.894531 C 946.492188 335.960938 911.699219 337.703125 880.636719 352.109375 C 873.179688 355.589844 864.234375 352.359375 860.757812 344.90625 C 857.277344 337.453125 860.507812 328.507812 867.964844 325.03125 C 905.984375 307.390625 948.726562 305.15625 988.488281 318.570312 L 1114.230469 361.054688 C 1121.9375 363.785156 1126.160156 372.234375 1123.675781 379.933594 C 1121.4375 386.144531 1115.722656 390.121094 1109.511719 390.121094 Z M 1109.511719 390.121094 " fill-opacity="1" fill-rule="nonzero"/></g><g clip-path="url(#da4fec33b2)"><path fill="#000000" d="M 556.832031 975.425781 L 390.832031 975.425781 C 386.359375 975.425781 382.382812 973.441406 379.398438 970.210938 C 376.667969 966.980469 375.425781 962.507812 375.921875 958.285156 L 415.683594 702.152344 C 416.925781 694.945312 423.136719 689.480469 430.34375 689.480469 L 450.222656 689.480469 L 450.222656 534.707031 C 450.222656 408.503906 552.855469 305.652344 679.347656 305.652344 L 827.207031 305.652344 C 835.410156 305.652344 842.117188 312.359375 842.117188 320.558594 C 842.117188 328.757812 835.410156 335.464844 827.207031 335.464844 L 679.347656 335.464844 C 569.507812 335.464844 480.046875 424.902344 480.046875 534.707031 L 480.046875 689.480469 L 500.421875 689.480469 C 507.378906 689.480469 513.59375 694.449219 515.085938 701.15625 L 571.246094 957.292969 C 572.242188 961.761719 571.246094 966.234375 568.265625 969.714844 C 565.53125 973.191406 561.304688 975.425781 556.832031 975.425781 Z M 408.226562 945.613281 L 538.195312 945.613281 L 488.496094 719.292969 L 443.265625 719.292969 Z M 408.226562 945.613281 " fill-opacity="1" fill-rule="nonzero"/></g></svg>