<svg xmlns="http://www.w3.org/2000/svg" xmlns:xlink="http://www.w3.org/1999/xlink" width="2000" zoomAndPan="magnify" viewBox="0 0 1500 1499.999933" height="2000" preserveAspectRatio="xMidYMid meet" version="1.0"><defs><clipPath id="51275583eb"><path d="M 262.476562 176 L 1237.476562 176 L 1237.476562 1324 L 262.476562 1324 Z M 262.476562 176 " clip-rule="nonzero"/></clipPath></defs><rect x="-150" width="1800" fill="#ffffff" y="-149.999993" height="1799.99992" fill-opacity="1"/><rect x="-150" width="1800" fill="#ffffff" y="-149.999993" height="1799.99992" fill-opacity="1"/><path fill="#000000" d="M 982.980469 1019.746094 C 945.1875 1030.949219 913.746094 1062.558594 900.945312 1102.214844 C 879.125 1169.726562 915.785156 1225.363281 959.097656 1248.484375 C 975.210938 1257.089844 993.832031 1261.242188 1012.613281 1261.21875 C 1043.707031 1261.21875 1075.261719 1249.875 1096.6875 1228.703125 C 1115.261719 1210.335938 1127.757812 1185.566406 1131.863281 1158.988281 C 1138.144531 1118.195312 1123.234375 1074.039062 1093.859375 1046.511719 C 1064.015625 1018.5625 1021.5625 1008.289062 982.980469 1019.746094 Z M 1104.339844 1154.746094 C 1101.140625 1175.476562 1091.46875 1194.703125 1077.09375 1208.921875 C 1051.796875 1233.921875 1003.753906 1240.785156 972.175781 1223.925781 C 938.761719 1206.089844 910.5 1163.070312 927.402344 1110.773438 C 937.277344 1080.207031 962.203125 1054.953125 990.886719 1046.441406 C 998.515625 1044.191406 1006.421875 1043.078125 1014.351562 1043.078125 C 1036.308594 1043.078125 1058.429688 1051.472656 1074.800781 1066.800781 C 1097.683594 1088.253906 1109.277344 1122.761719 1104.339844 1154.746094 Z M 1104.339844 1154.746094 " fill-opacity="1" fill-rule="nonzero"/><path fill="#000000" d="M 540.113281 1012.789062 C 502.320312 1023.992188 470.878906 1055.601562 458.078125 1095.257812 C 436.261719 1162.769531 472.917969 1218.40625 516.230469 1241.527344 C 532.347656 1250.132812 550.964844 1254.28125 569.746094 1254.257812 C 600.839844 1254.257812 632.398438 1242.917969 653.820312 1221.746094 C 672.394531 1203.378906 684.890625 1178.609375 688.996094 1152.03125 C 695.28125 1111.238281 680.371094 1067.082031 650.992188 1039.550781 C 621.152344 1011.605469 578.695312 1001.332031 540.113281 1012.789062 Z M 661.472656 1147.789062 C 658.273438 1168.519531 648.605469 1187.746094 634.230469 1201.960938 C 608.933594 1226.964844 560.890625 1233.828125 529.308594 1216.96875 C 495.898438 1199.132812 467.632812 1156.113281 484.535156 1103.816406 C 494.414062 1073.25 519.339844 1047.992188 548.019531 1039.484375 C 555.648438 1037.234375 563.554688 1036.121094 571.484375 1036.121094 C 593.445312 1036.121094 615.5625 1044.515625 631.933594 1059.84375 C 654.820312 1081.296875 666.414062 1115.804688 661.472656 1147.789062 Z M 661.472656 1147.789062 " fill-opacity="1" fill-rule="nonzero"/><g clip-path="url(#51275583eb)"><path fill="#000000" d="M 380.890625 731.636719 C 364.777344 704.273438 335.074219 688.710938 303.449219 691.03125 C 292.363281 691.839844 281.210938 693.234375 273.628906 694.765625 C 266.09375 696.269531 261.203125 703.601562 262.730469 711.136719 C 264.238281 718.675781 271.589844 723.566406 279.101562 722.035156 C 285.523438 720.738281 295.632812 719.507812 305.488281 718.765625 C 326.519531 717.214844 346.203125 727.554688 356.917969 745.738281 L 374.46875 775.5625 C 358.46875 787.855469 351.257812 805.433594 351.652344 822.503906 C 352.394531 854.644531 352.605469 885.46875 352.789062 915.292969 C 352.972656 945.230469 353.160156 976.167969 353.925781 1008.546875 C 354.0625 1014.203125 354.019531 1020.023438 353.996094 1025.660156 C 353.832031 1057.804688 353.648438 1094.238281 385.597656 1118.914062 C 385.875 1119.121094 386.15625 1119.308594 386.433594 1119.492188 C 378.179688 1202.03125 428.355469 1268.058594 486.183594 1297.953125 C 510.550781 1310.570312 539.1875 1316.597656 568.214844 1316.597656 C 616.863281 1316.597656 666.621094 1299.644531 699.40625 1268.265625 C 728.390625 1240.53125 747.867188 1203.074219 754.289062 1162.839844 C 754.3125 1162.699219 754.335938 1162.558594 754.359375 1162.421875 C 765.859375 1162.558594 775.296875 1162.839844 784.433594 1163.117188 C 795.722656 1163.464844 806.574219 1163.789062 819.976562 1163.789062 C 823.015625 1163.789062 826.191406 1163.765625 829.53125 1163.742188 C 836.878906 1228.703125 880.261719 1279.699219 929.070312 1304.933594 C 953.441406 1317.550781 982.074219 1323.578125 1011.105469 1323.578125 C 1059.75 1323.578125 1109.507812 1306.625 1142.296875 1275.246094 C 1171.277344 1247.511719 1190.753906 1210.054688 1197.179688 1169.820312 C 1199.289062 1156.554688 1199.867188 1143.054688 1199.035156 1129.605469 C 1199.40625 1129.375 1199.773438 1129.1875 1200.144531 1128.933594 C 1226.347656 1109.683594 1229.777344 1076.472656 1232.050781 1054.511719 C 1240.234375 975.265625 1239.078125 894.953125 1228.574219 815.824219 C 1224.863281 787.808594 1197.6875 766.402344 1165.34375 766.03125 L 1148.742188 765.890625 C 1148.789062 765.359375 1148.835938 764.800781 1148.835938 764.246094 L 1145.9375 493.578125 C 1153.796875 490.050781 1160.960938 485.855469 1167.175781 480.9375 C 1250.996094 414.933594 1236.109375 310.664062 1235.4375 306.257812 C 1234.925781 302.917969 1233.210938 299.882812 1230.636719 297.703125 C 1225.722656 293.574219 1109.835938 196.46875 1072.898438 178.773438 C 1071.019531 177.871094 1068.957031 177.40625 1066.890625 177.40625 C 1064.132812 177.40625 1061.375 177.40625 1058.613281 177.40625 C 866.027344 177.40625 673.902344 176.941406 488.035156 176.503906 C 488.035156 176.503906 488.015625 176.503906 488.015625 176.503906 C 485.417969 176.503906 482.867188 177.222656 480.664062 178.589844 C 427.265625 211.777344 383.742188 247.191406 347.59375 286.894531 C 346.179688 288.449219 345.136719 290.304688 344.535156 292.320312 C 325.914062 355.285156 346.226562 421.730469 395.035156 457.628906 C 395.871094 458.234375 396.726562 458.8125 397.5625 459.417969 C 397.378906 460.390625 397.285156 461.410156 397.308594 462.453125 L 406.117188 761.71875 C 403.871094 762.183594 401.714844 762.738281 399.601562 763.339844 Z M 726.765625 1158.5 C 721.296875 1192.800781 704.738281 1224.644531 680.136719 1248.230469 C 636.476562 1290.042969 553.492188 1301.523438 498.957031 1273.300781 C 441.6875 1243.683594 393.179688 1172.347656 422.070312 1085.726562 C 439.207031 1034.335938 480.964844 993.472656 531.046875 979.09375 C 544.265625 975.289062 557.992188 973.457031 571.765625 973.457031 C 609.742188 973.457031 647.980469 987.488281 676.242188 1013.160156 C 715.335938 1048.644531 735.160156 1105.695312 726.765625 1158.5 Z M 1169.632812 1165.460938 C 1164.160156 1199.757812 1147.605469 1231.601562 1123.003906 1255.1875 C 1079.34375 1297 996.359375 1308.480469 941.824219 1280.257812 C 884.550781 1250.640625 836.046875 1179.304688 864.9375 1092.683594 C 882.070312 1041.292969 923.832031 1000.429688 973.914062 986.050781 C 987.128906 982.246094 1000.855469 980.414062 1014.628906 980.414062 C 1052.609375 980.414062 1090.84375 994.445312 1119.109375 1020.117188 C 1158.203125 1055.601562 1178.027344 1112.652344 1169.632812 1165.460938 Z M 1200.910156 819.488281 C 1211.113281 896.460938 1212.273438 974.570312 1204.296875 1051.660156 C 1202.835938 1065.828125 1201.097656 1082.550781 1193.675781 1095.121094 C 1184.703125 1058.523438 1165.320312 1024.476562 1137.820312 999.476562 C 1092.328125 958.171875 1024.996094 942.402344 966.238281 959.285156 C 907.484375 976.171875 858.558594 1023.921875 838.550781 1083.871094 C 832.542969 1101.84375 829.390625 1119.261719 828.601562 1135.960938 C 811.5625 1136.144531 799.179688 1135.773438 785.242188 1135.355469 C 776.433594 1135.101562 767.390625 1134.824219 756.492188 1134.660156 C 756.585938 1081.460938 733.933594 1027.910156 694.976562 992.542969 C 649.484375 951.238281 582.152344 935.46875 523.398438 952.351562 C 464.640625 969.234375 415.71875 1016.988281 395.707031 1076.9375 C 394.617188 1080.230469 393.621094 1083.5 392.691406 1086.746094 C 382.28125 1072.207031 381.703125 1052.980469 381.84375 1025.847656 C 381.863281 1020.003906 381.910156 1013.972656 381.75 1007.941406 C 381.007812 975.800781 380.796875 944.976562 380.613281 915.152344 C 380.425781 885.210938 380.242188 854.273438 379.476562 821.898438 C 379.011719 802.304688 396.007812 789.105469 423.878906 787.367188 L 709.746094 789.894531 C 711.140625 790.453125 712.644531 790.800781 714.246094 790.894531 C 714.476562 790.894531 714.6875 790.914062 714.917969 790.914062 C 716.65625 790.914062 718.304688 790.589844 719.835938 790.011719 L 1165.019531 793.929688 C 1183.566406 794.070312 1199.011719 805.085938 1200.910156 819.488281 Z M 483.238281 632.214844 C 548.324219 625.628906 614.265625 622.453125 679.699219 622.753906 C 689.691406 622.800781 699.5 623.496094 703.605469 628.179688 C 707.476562 632.585938 707.382812 641.703125 706.941406 650.652344 L 701.632812 761.925781 L 486.113281 760.023438 Z M 808.292969 687.410156 C 808.988281 679.226562 809.890625 671.386719 813.554688 665.472656 C 818.726562 657.125 834.050781 651.140625 844.578125 656.082031 C 852.324219 659.699219 855.246094 667.558594 856.125 670.785156 C 858.210938 678.226562 857.773438 686.714844 857.285156 695.667969 L 853.761719 763.273438 L 808.175781 762.878906 C 806.160156 737.808594 806.179688 712.457031 808.292969 687.410156 Z M 924.226562 680.453125 C 924.921875 672.269531 925.824219 664.429688 929.488281 658.515625 C 934.660156 650.167969 949.984375 644.183594 960.511719 649.121094 C 968.257812 652.742188 971.179688 660.601562 972.058594 663.828125 C 974.144531 671.269531 973.707031 679.757812 973.21875 688.710938 L 969.300781 764.292969 L 924.851562 763.898438 C 922.113281 736.230469 921.882812 708.167969 924.226562 680.453125 Z M 1149.878906 459.089844 C 1112.941406 488.171875 1032.878906 481.472656 995.664062 455.773438 C 951.214844 425.117188 942.332031 380.519531 941.777344 351.945312 C 943.421875 340.90625 943.980469 332.023438 944.164062 326.667969 L 1204.503906 328.617188 C 1204.550781 328.617188 1204.574219 328.617188 1204.621094 328.617188 C 1206.152344 328.617188 1207.636719 328.359375 1209.003906 327.898438 C 1209.304688 357.28125 1202.765625 417.4375 1149.878906 459.089844 Z M 703.394531 204.820312 C 764.003906 204.933594 825.007812 205.050781 886.246094 205.121094 C 894.570312 236.730469 904.746094 268.109375 916.574219 298.605469 L 652.988281 296.632812 C 668.105469 267.320312 684.382812 238.332031 701.46875 210.246094 C 702.535156 208.554688 703.140625 206.699219 703.394531 204.820312 Z M 649.648438 324.464844 L 915.414062 326.4375 C 914.695312 331.863281 913.976562 339.679688 913.976562 349.117188 C 908.898438 381.632812 893.386719 434.761719 845.992188 462.871094 C 802.496094 488.683594 739.242188 483.882812 695.605469 451.460938 C 665.160156 428.851562 649.554688 394.246094 648.28125 346.195312 C 649.253906 339.121094 649.671875 331.863281 649.648438 324.464844 Z M 1063.460938 205.238281 C 1088.617188 218.710938 1151.128906 268.386719 1190.476562 300.648438 L 946.207031 298.835938 C 946.042969 297.863281 945.789062 296.890625 945.394531 295.9375 C 933.617188 266.417969 923.4375 235.917969 915.042969 205.167969 C 962.761719 205.214844 1010.617188 205.238281 1058.5 205.238281 C 1060.167969 205.238281 1061.816406 205.238281 1063.460938 205.238281 Z M 491.863281 204.332031 C 551.429688 204.472656 611.667969 204.609375 672.324219 204.75 C 654.449219 234.621094 637.523438 265.371094 621.894531 296.402344 L 378.433594 294.59375 C 409.945312 262.054688 447.207031 232.394531 491.863281 204.332031 Z M 366.863281 319.710938 C 369.136719 321.378906 371.941406 322.402344 374.980469 322.421875 L 620.851562 324.253906 C 620.503906 330.933594 620.386719 337.476562 620.480469 343.828125 C 614.472656 384.183594 589.316406 418.113281 548.691406 439.378906 C 502.714844 463.453125 447.554688 461.757812 411.453125 435.203125 C 376.949219 409.855469 360.253906 365.164062 366.863281 319.710938 Z M 561.585938 464.03125 C 591.289062 448.492188 614.101562 427.226562 629.082031 401.949219 C 638.332031 431.933594 655.027344 455.984375 679.027344 473.816406 C 708.984375 496.082031 745.757812 507.492188 781.742188 507.46875 C 809.542969 507.46875 836.855469 500.671875 860.207031 486.804688 C 893.039062 467.324219 913.070312 438.730469 925.269531 410.761719 C 934.613281 434.484375 951.191406 458.882812 979.871094 478.664062 C 1003.40625 494.898438 1037.515625 504.871094 1073.453125 506.03125 C 1089.359375 506.542969 1104.386719 505.289062 1118.113281 502.414062 L 1120.917969 764.546875 C 1120.917969 764.917969 1120.941406 765.289062 1120.988281 765.636719 L 997.171875 764.546875 L 1001.042969 690.148438 C 1001.574219 679.851562 1002.179688 668.164062 998.886719 656.335938 C 994.804688 641.726562 985.136719 629.921875 972.335938 623.914062 C 949.960938 613.429688 918.890625 622.753906 905.835938 643.859375 C 898.953125 654.992188 897.445312 666.886719 896.515625 678.113281 C 894.128906 706.5 894.289062 735.257812 896.933594 763.664062 L 881.675781 763.527344 L 885.132812 697.105469 C 885.664062 686.808594 886.269531 675.121094 882.976562 663.292969 C 878.894531 648.683594 869.226562 636.878906 856.425781 630.871094 C 834.050781 620.386719 802.980469 629.710938 789.925781 650.816406 C 783.042969 661.949219 781.535156 673.84375 780.605469 685.070312 C 778.449219 710.8125 778.355469 736.832031 780.328125 762.621094 L 729.550781 762.179688 L 734.789062 652 C 735.300781 641.191406 736.15625 623.078125 724.5625 609.859375 C 711.601562 595.085938 690.945312 594.992188 679.859375 594.949219 C 609.234375 594.644531 537.796875 598.308594 467.5625 605.894531 C 460.375 606.660156 454.996094 612.828125 455.160156 620.039062 L 458.3125 759.816406 L 433.828125 759.605469 L 425.433594 474.144531 C 466.867188 490.027344 517.902344 486.898438 561.585938 464.03125 Z M 561.585938 464.03125 " fill-opacity="1" fill-rule="nonzero"/></g></svg>