<svg xmlns="http://www.w3.org/2000/svg" xmlns:xlink="http://www.w3.org/1999/xlink" width="2000" zoomAndPan="magnify" viewBox="0 0 1500 1499.999933" height="2000" preserveAspectRatio="xMidYMid meet" version="1.0"><defs><clipPath id="e29614f1bd"><path d="M 175.597656 175.597656 L 1324.597656 175.597656 L 1324.597656 1324.597656 L 175.597656 1324.597656 Z M 175.597656 175.597656 " clip-rule="nonzero"/></clipPath></defs><rect x="-150" width="1800" fill="#ffffff" y="-149.999993" height="1799.99992" fill-opacity="1"/><rect x="-150" width="1800" fill="#ffffff" y="-149.999993" height="1799.99992" fill-opacity="1"/><g clip-path="url(#e29614f1bd)"><path fill="#000000" d="M 1204.429688 484.828125 C 1204.289062 484.828125 1204.144531 484.828125 1203.976562 484.828125 L 956.726562 484.828125 C 899.109375 484.828125 849.195312 517.773438 826.476562 570.789062 L 795.964844 641.96875 L 640.492188 641.96875 L 640.492188 607.09375 C 640.492188 515.054688 565.710938 440.179688 473.789062 440.179688 L 417.914062 440.179688 C 325.992188 440.179688 251.238281 515.054688 251.238281 607.09375 L 251.238281 641.96875 L 189.902344 641.96875 C 182.011719 641.96875 175.597656 648.382812 175.597656 656.273438 L 175.597656 1310.082031 C 175.597656 1317.972656 182.011719 1324.382812 189.902344 1324.382812 L 284.777344 1324.382812 C 292.667969 1324.382812 299.082031 1317.972656 299.082031 1310.082031 L 299.082031 797.871094 L 729.191406 797.871094 L 717.179688 825.878906 C 702.375 860.398438 717.917969 895.320312 755.820312 912.769531 C 787.785156 927.480469 825.214844 913.722656 841.042969 881.445312 L 937.777344 683.949219 L 937.777344 1240.09375 C 937.777344 1282.808594 972.484375 1317.566406 1015.15625 1317.566406 C 1041.164062 1317.566406 1064.214844 1304.644531 1078.230469 1284.882812 C 1092.273438 1304.644531 1115.300781 1317.566406 1141.308594 1317.566406 C 1183.570312 1317.566406 1218.019531 1282.808594 1218.066406 1240.117188 L 1218.589844 962.117188 C 1229.53125 969.957031 1242.832031 974.605469 1257.136719 974.605469 C 1294.324219 974.605469 1324.597656 944.308594 1324.597656 907.074219 L 1324.597656 612.148438 C 1324.597656 541.683594 1272.941406 486.949219 1204.429688 484.828125 Z M 279.890625 607.070312 C 279.890625 530.8125 341.847656 468.761719 417.960938 468.761719 L 473.839844 468.761719 C 549.976562 468.761719 611.933594 530.8125 611.933594 607.070312 L 611.933594 641.945312 L 279.890625 641.945312 Z M 270.476562 1295.753906 L 204.203125 1295.753906 L 204.203125 797.871094 L 270.476562 797.871094 Z M 204.203125 769.265625 L 204.203125 670.550781 L 783.734375 670.550781 L 741.421875 769.265625 Z M 1295.992188 907.097656 C 1295.992188 928.550781 1278.566406 946.023438 1257.136719 946.023438 C 1236.183594 946.023438 1218.972656 928.574219 1218.6875 907.097656 L 1218.804688 890.265625 C 1218.875 879.324219 1218.972656 867.167969 1218.972656 867.144531 L 1218.6875 622.230469 C 1218.6875 614.339844 1212.273438 607.953125 1204.382812 607.953125 C 1204.382812 607.953125 1204.382812 607.953125 1204.359375 607.953125 C 1196.46875 607.953125 1190.054688 614.363281 1190.078125 622.277344 L 1190.367188 867.074219 L 1190.199219 890.054688 C 1190.152344 898.300781 1190.078125 905.832031 1190.078125 907.074219 C 1190.078125 907.074219 1190.078125 907.097656 1190.078125 907.097656 L 1189.460938 1240.117188 C 1189.414062 1267.078125 1167.816406 1289.007812 1141.308594 1289.007812 C 1114.417969 1289.007812 1092.535156 1267.078125 1092.535156 1240.140625 L 1092.535156 865.976562 C 1092.535156 858.085938 1086.121094 851.671875 1078.230469 851.671875 C 1070.339844 851.671875 1063.929688 858.085938 1063.929688 865.976562 L 1063.929688 1240.09375 C 1063.929688 1267.054688 1042.046875 1288.960938 1015.15625 1288.960938 C 988.265625 1288.960938 966.382812 1267.03125 966.382812 1240.09375 L 966.382812 622.230469 C 966.382812 615.578125 961.78125 609.8125 955.296875 608.308594 C 948.8125 606.808594 942.164062 609.976562 939.230469 615.960938 L 815.367188 868.882812 C 806.453125 887.097656 785.546875 894.964844 767.8125 886.8125 C 756.367188 881.542969 731.074219 866.167969 743.496094 837.179688 L 852.839844 582.039062 C 871.269531 539.082031 910.125 513.433594 956.800781 513.433594 L 1203.8125 513.433594 C 1256.398438 515.171875 1296.039062 557.582031 1296.039062 612.171875 L 1296.039062 907.097656 Z M 1074.15625 428.59375 C 1141.496094 428.59375 1196.277344 373.742188 1196.277344 306.304688 C 1196.277344 238.867188 1141.496094 184.015625 1074.15625 184.015625 C 1006.8125 184.015625 952.03125 238.867188 952.03125 306.304688 C 952.03125 373.742188 1006.8125 428.59375 1074.15625 428.59375 Z M 1074.15625 212.644531 C 1125.71875 212.644531 1167.671875 254.671875 1167.671875 306.328125 C 1167.671875 357.984375 1125.71875 400.011719 1074.15625 400.011719 C 1022.59375 400.011719 980.636719 357.984375 980.636719 306.328125 C 980.636719 254.671875 1022.59375 212.644531 1074.15625 212.644531 Z M 775.199219 957.394531 L 694.269531 957.394531 L 694.269531 930.984375 C 694.269531 902.972656 671.503906 880.207031 643.542969 880.207031 L 570.691406 880.207031 C 542.730469 880.207031 519.964844 902.996094 519.964844 930.984375 L 519.964844 957.394531 L 431.40625 957.394531 C 396.839844 957.394531 368.734375 985.5 368.734375 1020.066406 L 368.734375 1247.457031 C 368.734375 1282.023438 396.839844 1310.128906 431.40625 1310.128906 L 775.199219 1310.128906 C 809.742188 1310.128906 837.871094 1282.023438 837.871094 1247.457031 L 837.871094 1020.066406 C 837.871094 985.5 809.742188 957.394531 775.199219 957.394531 Z M 738.085938 986 L 738.085938 1281.5 L 472.742188 1281.5 L 472.742188 986 Z M 548.570312 930.984375 C 548.570312 918.753906 558.488281 908.8125 570.691406 908.8125 L 643.542969 908.8125 C 655.746094 908.8125 665.664062 918.753906 665.664062 930.984375 L 665.664062 957.394531 L 548.570312 957.394531 Z M 397.339844 1247.433594 L 397.339844 1020.066406 C 397.339844 1001.28125 412.621094 986 431.40625 986 L 444.136719 986 L 444.136719 1281.5 L 431.40625 1281.5 C 412.621094 1281.5 397.339844 1266.21875 397.339844 1247.433594 Z M 809.265625 1247.433594 C 809.265625 1266.21875 793.984375 1281.5 775.199219 1281.5 L 766.691406 1281.5 L 766.691406 986 L 775.199219 986 C 793.984375 986 809.265625 1001.28125 809.265625 1020.066406 Z M 445.898438 411.097656 C 510.738281 411.097656 563.492188 358.269531 563.492188 293.359375 C 563.492188 228.449219 510.738281 175.621094 445.898438 175.621094 C 381.058594 175.621094 328.328125 228.425781 328.328125 293.359375 C 328.328125 358.292969 381.058594 411.097656 445.898438 411.097656 Z M 445.898438 204.203125 C 494.957031 204.203125 534.886719 244.179688 534.886719 293.335938 C 534.886719 342.488281 494.957031 382.464844 445.898438 382.464844 C 396.839844 382.464844 356.910156 342.488281 356.910156 293.335938 C 356.9375 244.207031 396.839844 204.203125 445.898438 204.203125 Z M 445.898438 204.203125 " fill-opacity="1" fill-rule="nonzero"/></g></svg>