<svg xmlns="http://www.w3.org/2000/svg" xmlns:xlink="http://www.w3.org/1999/xlink" width="2000" zoomAndPan="magnify" viewBox="0 0 1500 1499.999933" height="2000" preserveAspectRatio="xMidYMid meet" version="1.0"><defs><clipPath id="e3e5971192"><path d="M 175.597656 175.597656 L 1324.597656 175.597656 L 1324.597656 1324.597656 L 175.597656 1324.597656 Z M 175.597656 175.597656 " clip-rule="nonzero"/></clipPath></defs><rect x="-150" width="1800" fill="#ffffff" y="-149.999993" height="1799.99992" fill-opacity="1"/><rect x="-150" width="1800" fill="#ffffff" y="-149.999993" height="1799.99992" fill-opacity="1"/><g clip-path="url(#e3e5971192)"><path fill="#191919" d="M 1324.398438 518.789062 C 1324.320312 518.289062 1324.226562 517.796875 1324.109375 517.3125 C 1324.066406 517.152344 1324.027344 516.992188 1323.980469 516.832031 C 1323.820312 516.246094 1323.628906 515.675781 1323.402344 515.113281 C 1323.386719 515.074219 1323.378906 515.03125 1323.359375 514.992188 C 1323.101562 514.382812 1322.8125 513.785156 1322.480469 513.210938 C 1322.457031 513.167969 1322.441406 513.117188 1322.417969 513.074219 L 1195.976562 294.148438 L 1195.976562 218.859375 C 1195.972656 217.445312 1195.902344 216.03125 1195.761719 214.621094 C 1195.621094 213.214844 1195.414062 211.8125 1195.136719 210.425781 C 1194.859375 209.035156 1194.511719 207.664062 1194.101562 206.308594 C 1193.6875 204.957031 1193.210938 203.625 1192.667969 202.316406 C 1192.125 201.007812 1191.519531 199.730469 1190.851562 198.480469 C 1190.183594 197.234375 1189.457031 196.019531 1188.667969 194.84375 C 1187.878906 193.664062 1187.039062 192.53125 1186.140625 191.433594 C 1185.238281 190.339844 1184.289062 189.292969 1183.289062 188.292969 C 1182.285156 187.289062 1181.238281 186.339844 1180.144531 185.441406 C 1179.046875 184.542969 1177.914062 183.699219 1176.734375 182.914062 C 1175.558594 182.128906 1174.34375 181.398438 1173.09375 180.730469 C 1171.847656 180.0625 1170.566406 179.460938 1169.261719 178.917969 C 1167.953125 178.375 1166.621094 177.898438 1165.265625 177.484375 C 1163.910156 177.074219 1162.539062 176.730469 1161.148438 176.453125 C 1159.761719 176.175781 1158.363281 175.964844 1156.953125 175.828125 C 1155.542969 175.6875 1154.128906 175.617188 1152.714844 175.613281 L 662.53125 175.613281 C 661.113281 175.617188 659.699219 175.6875 658.292969 175.828125 C 656.882812 175.96875 655.484375 176.175781 654.09375 176.453125 C 652.703125 176.730469 651.332031 177.074219 649.976562 177.488281 C 648.621094 177.898438 647.289062 178.375 645.980469 178.917969 C 644.671875 179.460938 643.394531 180.066406 642.144531 180.734375 C 640.894531 181.402344 639.683594 182.132812 638.503906 182.917969 C 637.328125 183.707031 636.191406 184.546875 635.097656 185.445312 C 634 186.347656 632.953125 187.296875 631.953125 188.296875 C 630.949219 189.300781 630 190.347656 629.101562 191.441406 C 628.203125 192.539062 627.359375 193.671875 626.570312 194.851562 C 625.785156 196.027344 625.058594 197.242188 624.386719 198.492188 C 623.71875 199.742188 623.113281 201.019531 622.570312 202.328125 C 622.03125 203.636719 621.550781 204.96875 621.140625 206.324219 C 620.726562 207.679688 620.382812 209.050781 620.105469 210.441406 C 619.828125 211.828125 619.621094 213.226562 619.480469 214.636719 C 619.339844 216.046875 619.269531 217.460938 619.269531 218.878906 L 619.269531 294.148438 L 492.824219 513.074219 C 492.792969 513.121094 492.777344 513.167969 492.75 513.214844 C 492.566406 513.542969 492.398438 513.878906 492.238281 514.222656 C 492.164062 514.371094 492.085938 514.519531 492.019531 514.671875 C 491.875 514.992188 491.753906 515.324219 491.632812 515.65625 C 491.566406 515.835938 491.492188 516.019531 491.433594 516.207031 C 491.339844 516.488281 491.269531 516.777344 491.203125 517.066406 C 491.140625 517.296875 491.070312 517.542969 491.015625 517.789062 C 490.960938 518.035156 490.933594 518.253906 490.890625 518.5 C 490.839844 518.804688 490.789062 519.101562 490.753906 519.40625 C 490.730469 519.613281 490.71875 519.820312 490.707031 520.03125 C 490.683594 520.367188 490.660156 520.703125 490.65625 521.035156 C 490.65625 521.097656 490.65625 521.15625 490.65625 521.21875 L 490.65625 640.949219 L 215.191406 640.949219 C 212.4375 640.929688 209.714844 641.195312 207.015625 641.75 C 204.320312 642.304688 201.710938 643.136719 199.191406 644.242188 C 196.667969 645.347656 194.289062 646.703125 192.054688 648.3125 C 189.820312 649.921875 187.78125 651.746094 185.929688 653.789062 C 184.070312 655.839844 182.441406 658.0625 181.042969 660.453125 C 179.644531 662.84375 178.507812 665.355469 177.632812 667.984375 C 176.761719 670.613281 176.167969 673.300781 175.851562 676.054688 C 175.539062 678.808594 175.515625 681.5625 175.777344 684.320312 L 227 1213.402344 L 227 1274.011719 C 227.003906 1275.664062 227.085938 1277.316406 227.25 1278.964844 C 227.414062 1280.613281 227.660156 1282.25 227.984375 1283.871094 C 228.308594 1285.496094 228.710938 1287.097656 229.191406 1288.683594 C 229.671875 1290.265625 230.230469 1291.824219 230.867188 1293.351562 C 231.5 1294.882812 232.207031 1296.378906 232.988281 1297.835938 C 233.769531 1299.296875 234.621094 1300.714844 235.542969 1302.089844 C 236.460938 1303.46875 237.449219 1304.796875 238.5 1306.074219 C 239.546875 1307.355469 240.660156 1308.582031 241.828125 1309.75 C 243 1310.921875 244.226562 1312.03125 245.503906 1313.082031 C 246.785156 1314.132812 248.113281 1315.121094 249.488281 1316.039062 C 250.867188 1316.960938 252.285156 1317.8125 253.746094 1318.589844 C 255.203125 1319.371094 256.699219 1320.082031 258.226562 1320.714844 C 259.757812 1321.351562 261.3125 1321.90625 262.898438 1322.390625 C 264.480469 1322.871094 266.085938 1323.273438 267.710938 1323.597656 C 269.332031 1323.921875 270.96875 1324.167969 272.617188 1324.332031 C 274.265625 1324.496094 275.914062 1324.578125 277.570312 1324.582031 L 1254.316406 1324.582031 C 1255.464844 1324.578125 1256.617188 1324.550781 1257.765625 1324.492188 C 1258.914062 1324.433594 1260.058594 1324.347656 1261.203125 1324.234375 C 1262.347656 1324.121094 1263.488281 1323.980469 1264.625 1323.808594 C 1265.761719 1323.640625 1266.894531 1323.441406 1268.023438 1323.214844 C 1269.148438 1322.992188 1270.273438 1322.738281 1271.386719 1322.457031 C 1272.5 1322.179688 1273.609375 1321.871094 1274.710938 1321.535156 C 1275.808594 1321.203125 1276.902344 1320.839844 1277.984375 1320.453125 C 1279.066406 1320.0625 1280.136719 1319.648438 1281.199219 1319.210938 C 1282.261719 1318.769531 1283.3125 1318.300781 1284.351562 1317.808594 C 1285.390625 1317.316406 1286.417969 1316.800781 1287.433594 1316.257812 C 1288.445312 1315.714844 1289.445312 1315.148438 1290.433594 1314.558594 C 1291.417969 1313.964844 1292.390625 1313.351562 1293.34375 1312.710938 C 1294.300781 1312.070312 1295.238281 1311.410156 1296.164062 1310.726562 C 1297.085938 1310.039062 1297.992188 1309.332031 1298.882812 1308.601562 C 1299.769531 1307.875 1300.640625 1307.121094 1301.492188 1306.351562 C 1302.34375 1305.578125 1303.175781 1304.785156 1303.992188 1303.972656 C 1304.804688 1303.160156 1305.597656 1302.328125 1306.367188 1301.472656 C 1307.140625 1300.621094 1307.890625 1299.753906 1308.621094 1298.863281 C 1309.351562 1297.972656 1310.058594 1297.070312 1310.742188 1296.144531 C 1311.429688 1295.222656 1312.089844 1294.28125 1312.730469 1293.324219 C 1313.367188 1292.371094 1313.984375 1291.398438 1314.574219 1290.414062 C 1315.167969 1289.425781 1315.734375 1288.425781 1316.277344 1287.414062 C 1316.820312 1286.398438 1317.335938 1285.371094 1317.828125 1284.332031 C 1318.320312 1283.292969 1318.789062 1282.242188 1319.226562 1281.183594 C 1319.667969 1280.121094 1320.082031 1279.046875 1320.472656 1277.964844 C 1320.859375 1276.882812 1321.21875 1275.792969 1321.554688 1274.691406 C 1321.890625 1273.589844 1322.195312 1272.484375 1322.476562 1271.367188 C 1322.757812 1270.253906 1323.011719 1269.132812 1323.234375 1268.003906 C 1323.460938 1266.875 1323.65625 1265.742188 1323.828125 1264.605469 C 1323.996094 1263.46875 1324.140625 1262.328125 1324.253906 1261.183594 C 1324.367188 1260.039062 1324.453125 1258.894531 1324.511719 1257.746094 C 1324.566406 1256.597656 1324.597656 1255.449219 1324.597656 1254.296875 L 1324.597656 521.230469 C 1324.597656 520.578125 1324.554688 519.933594 1324.472656 519.285156 C 1324.453125 519.113281 1324.421875 518.953125 1324.398438 518.789062 Z M 1280.105469 504.949219 L 1079.320312 504.949219 L 1179.695312 331.078125 Z M 651.851562 218.859375 C 651.851562 218.160156 651.921875 217.464844 652.058594 216.777344 C 652.195312 216.089844 652.398438 215.421875 652.667969 214.777344 C 652.9375 214.128906 653.265625 213.515625 653.65625 212.929688 C 654.046875 212.347656 654.488281 211.808594 654.984375 211.3125 C 655.480469 210.816406 656.019531 210.375 656.601562 209.984375 C 657.183594 209.597656 657.796875 209.265625 658.445312 209 C 659.09375 208.730469 659.761719 208.527344 660.449219 208.386719 C 661.136719 208.25 661.828125 208.179688 662.53125 208.179688 L 1152.714844 208.179688 C 1153.414062 208.179688 1154.109375 208.25 1154.796875 208.386719 C 1155.484375 208.527344 1156.152344 208.730469 1156.796875 209 C 1157.445312 209.265625 1158.0625 209.597656 1158.644531 209.984375 C 1159.226562 210.375 1159.765625 210.816406 1160.261719 211.3125 C 1160.757812 211.808594 1161.199219 212.347656 1161.589844 212.929688 C 1161.980469 213.515625 1162.308594 214.128906 1162.578125 214.777344 C 1162.84375 215.421875 1163.046875 216.089844 1163.1875 216.777344 C 1163.324219 217.464844 1163.394531 218.160156 1163.394531 218.859375 L 1163.394531 282.226562 L 651.851562 282.226562 Z M 208.195312 681.21875 C 208.101562 680.210938 208.210938 679.230469 208.527344 678.269531 C 208.84375 677.3125 209.339844 676.457031 210.019531 675.707031 C 210.679688 674.980469 211.460938 674.425781 212.363281 674.042969 C 213.269531 673.664062 214.210938 673.488281 215.191406 673.519531 L 676.765625 673.519531 C 677.75 673.488281 678.691406 673.664062 679.59375 674.042969 C 680.5 674.425781 681.28125 674.980469 681.941406 675.707031 C 682.617188 676.453125 683.113281 677.300781 683.429688 678.25 C 683.746094 679.203125 683.859375 680.179688 683.769531 681.179688 L 669.964844 823.78125 C 666.90625 822.503906 663.808594 821.3125 660.683594 820.214844 C 657.554688 819.117188 654.394531 818.109375 651.207031 817.195312 C 648.019531 816.28125 644.808594 815.460938 641.574219 814.730469 C 638.335938 814.003906 635.082031 813.371094 631.8125 812.835938 C 628.539062 812.296875 625.253906 811.855469 621.957031 811.507812 C 618.65625 811.164062 615.351562 810.914062 612.039062 810.761719 C 608.726562 810.609375 605.414062 810.550781 602.097656 810.589844 C 598.78125 810.628906 595.46875 810.765625 592.160156 811 C 588.851562 811.234375 585.554688 811.5625 582.265625 811.988281 C 578.976562 812.414062 575.703125 812.933594 572.445312 813.550781 C 569.1875 814.167969 565.949219 814.878906 562.734375 815.683594 C 559.515625 816.488281 556.324219 817.386719 553.160156 818.378906 C 549.996094 819.367188 546.863281 820.449219 543.761719 821.625 C 540.660156 822.796875 537.59375 824.0625 534.566406 825.414062 C 531.539062 826.765625 528.554688 828.207031 525.609375 829.734375 C 522.667969 831.261719 519.769531 832.871094 516.917969 834.566406 C 471.839844 860.894531 420.125 860.890625 375.058594 834.566406 C 372.207031 832.871094 369.308594 831.257812 366.367188 829.734375 C 363.421875 828.207031 360.4375 826.765625 357.40625 825.414062 C 354.378906 824.0625 351.316406 822.796875 348.214844 821.625 C 345.113281 820.449219 341.976562 819.367188 338.8125 818.375 C 335.648438 817.382812 332.457031 816.484375 329.242188 815.679688 C 326.023438 814.875 322.785156 814.164062 319.527344 813.546875 C 316.269531 812.929688 312.996094 812.410156 309.707031 811.984375 C 306.417969 811.558594 303.117188 811.230469 299.808594 810.996094 C 296.5 810.761719 293.1875 810.625 289.871094 810.585938 C 286.554688 810.546875 283.242188 810.601562 279.929688 810.753906 C 276.617188 810.910156 273.308594 811.15625 270.011719 811.503906 C 266.714844 811.851562 263.429688 812.292969 260.15625 812.828125 C 256.882812 813.367188 253.628906 814 250.394531 814.726562 C 247.15625 815.453125 243.945312 816.273438 240.757812 817.1875 C 237.570312 818.101562 234.410156 819.109375 231.28125 820.207031 C 228.152344 821.304688 225.058594 822.496094 222 823.773438 Z M 225.3125 858.03125 C 268.289062 836.402344 316.359375 837.960938 358.621094 862.683594 C 361.910156 864.632812 365.257812 866.472656 368.667969 868.195312 C 372.078125 869.921875 375.542969 871.53125 379.058594 873.023438 C 382.578125 874.519531 386.140625 875.894531 389.75 877.148438 C 393.359375 878.402344 397.007812 879.535156 400.691406 880.546875 C 404.378906 881.558594 408.09375 882.445312 411.835938 883.207031 C 415.582031 883.96875 419.347656 884.605469 423.136719 885.113281 C 426.921875 885.625 430.722656 886.007812 434.535156 886.261719 C 438.347656 886.515625 442.167969 886.644531 445.988281 886.644531 C 449.808594 886.644531 453.628906 886.515625 457.441406 886.261719 C 461.253906 886.007812 465.054688 885.625 468.839844 885.113281 C 472.628906 884.605469 476.394531 883.96875 480.140625 883.207031 C 483.882812 882.445312 487.597656 881.558594 491.285156 880.546875 C 494.96875 879.535156 498.617188 878.402344 502.226562 877.148438 C 505.835938 875.894531 509.398438 874.519531 512.917969 873.023438 C 516.433594 871.53125 519.898438 869.921875 523.308594 868.195312 C 526.71875 866.472656 530.066406 864.632812 533.355469 862.683594 C 575.605469 837.960938 623.675781 836.402344 666.648438 858.03125 L 633.898438 1196.34375 L 258.0625 1196.34375 Z M 259.5625 1274.011719 L 259.5625 1228.914062 L 632.40625 1228.914062 L 632.40625 1274.011719 C 632.40625 1274.597656 632.378906 1275.1875 632.320312 1275.773438 C 632.261719 1276.359375 632.175781 1276.941406 632.058594 1277.519531 C 631.941406 1278.097656 631.800781 1278.667969 631.628906 1279.234375 C 631.457031 1279.796875 631.257812 1280.351562 631.03125 1280.894531 C 630.804688 1281.441406 630.554688 1281.972656 630.277344 1282.492188 C 630 1283.011719 629.695312 1283.515625 629.367188 1284.003906 C 629.039062 1284.496094 628.691406 1284.96875 628.316406 1285.421875 C 627.941406 1285.878906 627.546875 1286.316406 627.128906 1286.730469 C 626.714844 1287.148438 626.277344 1287.542969 625.820312 1287.917969 C 625.367188 1288.292969 624.894531 1288.640625 624.402344 1288.96875 C 623.914062 1289.296875 623.410156 1289.601562 622.890625 1289.878906 C 622.371094 1290.15625 621.835938 1290.40625 621.292969 1290.632812 C 620.75 1290.859375 620.195312 1291.058594 619.628906 1291.230469 C 619.066406 1291.402344 618.496094 1291.542969 617.917969 1291.660156 C 617.339844 1291.773438 616.757812 1291.863281 616.171875 1291.921875 C 615.585938 1291.976562 614.996094 1292.007812 614.40625 1292.007812 L 277.5625 1292.007812 C 276.972656 1292.007812 276.386719 1291.976562 275.796875 1291.921875 C 275.210938 1291.863281 274.628906 1291.773438 274.050781 1291.660156 C 273.472656 1291.542969 272.902344 1291.402344 272.339844 1291.230469 C 271.777344 1291.058594 271.222656 1290.859375 270.675781 1290.632812 C 270.132812 1290.40625 269.601562 1290.15625 269.082031 1289.878906 C 268.5625 1289.601562 268.058594 1289.296875 267.566406 1288.96875 C 267.078125 1288.640625 266.605469 1288.292969 266.148438 1287.917969 C 265.691406 1287.542969 265.257812 1287.148438 264.839844 1286.730469 C 264.421875 1286.316406 264.027344 1285.878906 263.65625 1285.421875 C 263.28125 1284.96875 262.929688 1284.496094 262.601562 1284.003906 C 262.273438 1283.515625 261.972656 1283.011719 261.695312 1282.492188 C 261.417969 1281.972656 261.164062 1281.441406 260.9375 1280.894531 C 260.710938 1280.351562 260.515625 1279.796875 260.34375 1279.234375 C 260.171875 1278.667969 260.027344 1278.097656 259.914062 1277.519531 C 259.796875 1276.941406 259.710938 1276.359375 259.652344 1275.773438 C 259.59375 1275.1875 259.566406 1274.597656 259.5625 1274.011719 Z M 1034.832031 1292.007812 L 661.648438 1292.007812 C 663.863281 1286.214844 664.972656 1280.214844 664.96875 1274.011719 L 664.96875 1213.402344 L 716.1875 684.277344 C 716.449219 681.519531 716.421875 678.769531 716.105469 676.019531 C 715.792969 673.269531 715.195312 670.582031 714.324219 667.957031 C 713.449219 665.332031 712.3125 662.828125 710.914062 660.4375 C 709.519531 658.050781 707.890625 655.832031 706.03125 653.78125 C 704.179688 651.742188 702.140625 649.917969 699.90625 648.308594 C 697.671875 646.699219 695.292969 645.34375 692.769531 644.238281 C 690.25 643.128906 687.640625 642.300781 684.941406 641.746094 C 682.246094 641.191406 679.519531 640.925781 676.765625 640.945312 L 523.21875 640.945312 L 523.21875 537.511719 L 1034.832031 537.511719 Z M 1041.714844 504.9375 L 535.132812 504.9375 L 644.96875 314.792969 L 1151.480469 314.792969 Z M 1254.316406 1292.007812 L 1079.320312 1292.007812 L 1179.695312 1118.089844 L 1276.089844 1285.039062 C 1272.914062 1287.308594 1269.464844 1289.035156 1265.746094 1290.226562 C 1262.03125 1291.414062 1258.21875 1292.007812 1254.316406 1292.007812 Z M 1292.035156 1247.519531 L 1195.976562 1081.152344 L 1195.976562 787.183594 C 1195.976562 786.648438 1195.949219 786.117188 1195.898438 785.585938 C 1195.84375 785.054688 1195.765625 784.53125 1195.664062 784.007812 C 1195.558594 783.484375 1195.429688 782.96875 1195.273438 782.457031 C 1195.121094 781.945312 1194.941406 781.445312 1194.738281 780.953125 C 1194.53125 780.460938 1194.304688 779.976562 1194.054688 779.507812 C 1193.800781 779.039062 1193.527344 778.582031 1193.230469 778.136719 C 1192.9375 777.695312 1192.617188 777.265625 1192.28125 776.855469 C 1191.941406 776.441406 1191.585938 776.046875 1191.207031 775.671875 C 1190.832031 775.292969 1190.433594 774.9375 1190.023438 774.597656 C 1189.609375 774.257812 1189.183594 773.941406 1188.738281 773.644531 C 1188.296875 773.347656 1187.839844 773.074219 1187.371094 772.824219 C 1186.898438 772.574219 1186.417969 772.34375 1185.925781 772.140625 C 1185.433594 771.9375 1184.929688 771.757812 1184.421875 771.601562 C 1183.910156 771.449219 1183.394531 771.320312 1182.871094 771.214844 C 1182.347656 771.109375 1181.820312 771.03125 1181.289062 770.980469 C 1180.757812 770.929688 1180.226562 770.902344 1179.695312 770.902344 C 1179.160156 770.902344 1178.628906 770.929688 1178.097656 770.980469 C 1177.566406 771.03125 1177.042969 771.109375 1176.519531 771.214844 C 1175.996094 771.320312 1175.480469 771.449219 1174.96875 771.601562 C 1174.457031 771.757812 1173.957031 771.9375 1173.464844 772.140625 C 1172.972656 772.34375 1172.488281 772.574219 1172.019531 772.824219 C 1171.550781 773.074219 1171.09375 773.347656 1170.648438 773.644531 C 1170.207031 773.941406 1169.777344 774.257812 1169.367188 774.597656 C 1168.953125 774.9375 1168.558594 775.292969 1168.183594 775.671875 C 1167.804688 776.046875 1167.445312 776.441406 1167.109375 776.855469 C 1166.769531 777.265625 1166.453125 777.695312 1166.15625 778.136719 C 1165.859375 778.582031 1165.585938 779.039062 1165.335938 779.507812 C 1165.085938 779.976562 1164.855469 780.460938 1164.652344 780.953125 C 1164.449219 781.445312 1164.269531 781.945312 1164.113281 782.457031 C 1163.960938 782.96875 1163.828125 783.484375 1163.726562 784.007812 C 1163.621094 784.53125 1163.542969 785.054688 1163.492188 785.585938 C 1163.4375 786.117188 1163.414062 786.648438 1163.414062 787.183594 L 1163.414062 1081.152344 L 1067.417969 1247.492188 L 1067.417969 537.511719 L 1292.035156 537.511719 Z M 1292.035156 1247.519531 " fill-opacity="1" fill-rule="nonzero"/></g></svg>