<svg xmlns="http://www.w3.org/2000/svg" xmlns:xlink="http://www.w3.org/1999/xlink" width="2000" zoomAndPan="magnify" viewBox="0 0 1500 1499.999933" height="2000" preserveAspectRatio="xMidYMid meet" version="1.0"><defs><clipPath id="fc9ebeabed"><path d="M 301.25 475 L 1036 475 L 1036 1030 L 301.25 1030 Z M 301.25 475 " clip-rule="nonzero"/></clipPath><clipPath id="6d13f5ea24"><path d="M 301.25 963 L 867 963 L 867 1280 L 301.25 1280 Z M 301.25 963 " clip-rule="nonzero"/></clipPath><clipPath id="dfacec73a8"><path d="M 301.25 597 L 662 597 L 662 1324.597656 L 301.25 1324.597656 Z M 301.25 597 " clip-rule="nonzero"/></clipPath><clipPath id="fe9dbc84c4"><path d="M 389 598 L 720 598 L 720 1324.597656 L 389 1324.597656 Z M 389 598 " clip-rule="nonzero"/></clipPath><clipPath id="ba4c74ebb4"><path d="M 474 600 L 808 600 L 808 1324.597656 L 474 1324.597656 Z M 474 600 " clip-rule="nonzero"/></clipPath><clipPath id="fd4133473b"><path d="M 809 701 L 1196 701 L 1196 1324.597656 L 809 1324.597656 Z M 809 701 " clip-rule="nonzero"/></clipPath><clipPath id="8b1d5f9326"><path d="M 841 175.597656 L 1054 175.597656 L 1054 386 L 841 386 Z M 841 175.597656 " clip-rule="nonzero"/></clipPath></defs><rect x="-150" width="1800" fill="#ffffff" y="-149.999993" height="1799.99992" fill-opacity="1"/><rect x="-150" width="1800" fill="#ffffff" y="-149.999993" height="1799.99992" fill-opacity="1"/><g clip-path="url(#fc9ebeabed)"><path stroke-linecap="round" transform="matrix(3.452917, 0, 0, 3.452524, -1180.056657, 15.912738)" fill="none" stroke-linejoin="miter" d="M 436.249723 213.099687 C 561.620404 213.099687 561.620404 213.599774 561.620404 213.599774 " stroke="#000000" stroke-width="14.152" stroke-opacity="1" stroke-miterlimit="4"/></g><path stroke-linecap="butt" transform="matrix(3.452917, 0, 0, 3.452524, -1180.056657, 15.912738)" fill="none" stroke-linejoin="round" d="M 557.789856 218.909522 L 542.680348 372.220139 L 469.329772 372.220139 L 441.010191 218.590462 " stroke="#000000" stroke-width="9" stroke-opacity="1" stroke-miterlimit="4"/><path stroke-linecap="butt" transform="matrix(3.452917, 0, 0, 3.452524, -1180.056657, 15.912738)" fill="none" stroke-linejoin="miter" d="M 445.070391 242.530148 L 556.289766 242.530148 " stroke="#000000" stroke-width="8" stroke-opacity="1" stroke-miterlimit="4"/><path stroke-linecap="butt" transform="matrix(3.452917, 0, 0, 3.452524, -1180.056657, 15.912738)" fill="none" stroke-linejoin="miter" d="M 552.299706 269.960261 L 450.560541 269.960261 " stroke="#000000" stroke-width="8" stroke-opacity="1" stroke-miterlimit="4"/><path stroke-linecap="butt" transform="matrix(3.452917, 0, 0, 3.452524, -1180.056657, 15.912738)" fill="none" stroke-linejoin="miter" d="M 455.049499 294.900122 L 549.809737 294.900122 " stroke="#000000" stroke-width="8" stroke-opacity="1" stroke-miterlimit="4"/><g clip-path="url(#6d13f5ea24)"><path stroke-linecap="butt" transform="matrix(3.452917, 0, 0, 3.452524, -1180.056657, 15.912738)" fill="none" stroke-linejoin="miter" d="M 460.029437 319.839983 C 547.309586 319.839983 547.309586 320.829974 547.309586 320.829974 " stroke="#000000" stroke-width="8" stroke-opacity="1" stroke-miterlimit="4"/></g><path stroke-linecap="butt" transform="matrix(3.452917, 0, 0, 3.452524, -1180.056657, 15.912738)" fill="none" stroke-linejoin="miter" d="M 544.819617 346.770009 L 464.519527 346.770009 " stroke="#000000" stroke-width="8" stroke-opacity="1" stroke-miterlimit="4"/><g clip-path="url(#dfacec73a8)"><path stroke-linecap="butt" transform="matrix(3.452917, 0, 0, 3.452524, -1180.056657, 15.912738)" fill="none" stroke-linejoin="miter" d="M 468.509587 213.599774 L 487.959854 370.709695 " stroke="#000000" stroke-width="8" stroke-opacity="1" stroke-miterlimit="4"/></g><g clip-path="url(#fe9dbc84c4)"><path stroke-linecap="butt" transform="matrix(3.452917, 0, 0, 3.452524, -1180.056657, 15.912738)" fill="none" stroke-linejoin="miter" d="M 504.920153 370.209608 L 499.930033 214.099861 " stroke="#000000" stroke-width="8" stroke-opacity="1" stroke-miterlimit="4"/></g><g clip-path="url(#ba4c74ebb4)"><path stroke-linecap="butt" transform="matrix(3.452917, 0, 0, 3.452524, -1180.056657, 15.912738)" fill="none" stroke-linejoin="miter" d="M 530.359469 214.599948 L 524.370421 371.709869 " stroke="#000000" stroke-width="8" stroke-opacity="1" stroke-miterlimit="4"/></g><path stroke-linecap="round" transform="matrix(3.452917, 0, 0, 3.452524, 302.625974, 175.253622)" fill="none" stroke-linejoin="round" d="M 28.197119 137.950561 C 55.627506 124.229847 55.431793 102.41949 57.623101 103.289551 C 83.649558 113.639769 108.370505 116.750039 124.329612 113.259612 C 77.969351 148.619838 101.56014 150.24003 95.153645 147.91949 C 75.464675 140.809656 46.899604 162.140291 28.197119 137.950561 Z M 28.197119 137.950561 " stroke="#000000" stroke-width="6" stroke-opacity="1" stroke-miterlimit="4"/><path stroke-linecap="butt" transform="matrix(3.452917, 0, 0, 3.452524, 302.625974, 175.253622)" fill="none" stroke-linejoin="miter" d="M 77.069975 109.549691 C 102.359962 109.570056 103.079462 101.50983 107.750558 99.541161 C 108.069582 99.40426 110.379676 110.270404 116.720556 114.499647 " stroke="#000000" stroke-width="6" stroke-opacity="1" stroke-miterlimit="4"/><path stroke-linecap="round" transform="matrix(3.452917, 0, 0, 3.452524, 140.836106, 32.246623)" fill-opacity="1" fill="#000000" fill-rule="evenodd" stroke-linejoin="round" d="M 105.730308 105.739968 L 265.830458 106.190273 C 279.340322 121.78009 301.960464 174.610551 303.669844 186.78009 L 223.929742 190.769472 C 221.689788 164.589577 209.219579 140.149803 207.469473 136.410464 Z M 105.730308 105.739968 " stroke="#000000" stroke-width="5" stroke-opacity="1" stroke-miterlimit="4"/><path fill="#000000" d="M 911.835938 709.769531 L 817.816406 1314.273438 L 1033.933594 916.574219 L 1129.128906 1315.859375 L 1186.65625 718.195312 L 911.839844 709.769531 Z M 911.835938 709.769531 " fill-opacity="1" fill-rule="evenodd"/><g clip-path="url(#fd4133473b)"><path stroke-linecap="round" transform="matrix(3.452917, 0, 0, 3.452524, 140.836106, 32.246623)" fill="none" stroke-linejoin="round" d="M 223.289432 196.239881 L 196.060414 371.330307 L 258.650161 256.139446 L 286.219696 371.789663 L 302.880203 198.680351 L 223.290563 196.239881 Z M 223.289432 196.239881 " stroke="#000000" stroke-width="5" stroke-opacity="1" stroke-miterlimit="4"/></g><path fill="#000000" d="M 1048.503906 280.742188 C 1048.503906 335.882812 1003.253906 380.585938 947.433594 380.585938 C 891.613281 380.585938 846.359375 335.882812 846.359375 280.742188 C 846.359375 225.601562 891.613281 180.902344 947.433594 180.902344 C 1003.253906 180.902344 1048.503906 225.601562 1048.503906 280.742188 Z M 1048.503906 280.742188 " fill-opacity="1" fill-rule="evenodd"/><g clip-path="url(#8b1d5f9326)"><path stroke-linecap="round" transform="matrix(3.452917, 0, 0, 3.452524, 931.602433, 308.748909)" fill="none" stroke-linejoin="round" d="M 33.855861 -8.111955 C 33.855861 7.85915 20.750999 20.807105 4.584866 20.807105 C -11.581267 20.807105 -24.687261 7.85915 -24.687261 -8.111955 C -24.687261 -24.083061 -11.581267 -37.029884 4.584866 -37.029884 C 20.750999 -37.029884 33.855861 -24.083061 33.855861 -8.111955 Z M 33.855861 -8.111955 " stroke="#000000" stroke-width="3" stroke-opacity="1" stroke-miterlimit="4"/></g></svg>