<svg xmlns="http://www.w3.org/2000/svg" xmlns:xlink="http://www.w3.org/1999/xlink" width="2000" zoomAndPan="magnify" viewBox="0 0 1500 1499.999933" height="2000" preserveAspectRatio="xMidYMid meet" version="1.0"><defs><clipPath id="ad2f6127b1"><path d="M 154.941406 226 L 1345.191406 226 L 1345.191406 1274 L 154.941406 1274 Z M 154.941406 226 " clip-rule="nonzero"/></clipPath></defs><rect x="-150" width="1800" fill="#ffffff" y="-149.999993" height="1799.99992" fill-opacity="1"/><rect x="-150" width="1800" fill="#ffffff" y="-149.999993" height="1799.99992" fill-opacity="1"/><path fill="#000000" d="M 1185.527344 955.289062 L 1075.40625 1065.417969 L 1028.75 1018.769531 C 1019.453125 1009.472656 1004.386719 1009.472656 995.089844 1018.769531 C 985.789062 1028.066406 985.789062 1043.128906 995.089844 1052.425781 C 995.089844 1052.425781 1058.523438 1115.847656 1058.578125 1115.902344 C 1067.769531 1125.09375 1083.054688 1125.085938 1092.238281 1115.902344 L 1219.191406 988.949219 C 1228.488281 979.648438 1228.488281 964.589844 1219.191406 955.289062 C 1209.890625 945.992188 1194.828125 945.992188 1185.527344 955.289062 Z M 1185.527344 955.289062 " fill-opacity="1" fill-rule="nonzero"/><g clip-path="url(#ad2f6127b1)"><path fill="#000000" d="M 1202.359375 817.597656 L 1202.359375 500.066406 C 1202.359375 491.046875 1197.269531 482.820312 1189.203125 478.773438 L 689.296875 228.859375 C 682.601562 225.511719 674.722656 225.511719 668.027344 228.859375 L 514.96875 305.261719 C 503.203125 311.117188 498.414062 325.414062 504.296875 337.175781 C 510.15625 348.960938 524.476562 353.746094 536.214844 347.84375 L 678.648438 276.765625 L 827.757812 351.308594 L 381.082031 574.613281 L 232.003906 500.089844 L 366.234375 433.054688 C 377.996094 427.175781 382.785156 412.878906 376.902344 401.140625 C 371.042969 389.355469 356.65625 384.613281 344.984375 390.472656 L 168.121094 478.773438 C 160.03125 482.796875 154.941406 491.046875 154.941406 500.066406 L 154.941406 999.894531 C 154.941406 1008.914062 160.03125 1017.140625 168.097656 1021.1875 C 168.097656 1021.1875 668.003906 1271.101562 668.003906 1271.101562 C 674.816406 1274.484375 682.449219 1274.296875 689.296875 1271.101562 L 906.152344 1162.574219 C 948.398438 1229.175781 1022.597656 1273.609375 1107.140625 1273.609375 C 1238.394531 1273.609375 1345.191406 1166.832031 1345.191406 1035.597656 C 1345.191406 938.21875 1286.324219 854.414062 1202.359375 817.597656 Z M 880.992188 377.921875 L 922.976562 398.910156 L 476.300781 622.214844 L 434.316406 601.226562 Z M 654.84375 1211.296875 L 202.550781 985.183594 L 202.550781 538.582031 L 654.84375 764.695312 Z M 678.648438 723.367188 L 529.539062 648.824219 L 976.210938 425.523438 L 1125.320312 500.066406 Z M 884.839844 1120 L 702.457031 1211.277344 L 702.457031 764.695312 L 1154.75 538.582031 L 1154.75 802.382812 C 1139.359375 799.246094 1123.441406 797.582031 1107.140625 797.582031 C 975.886719 797.582031 869.089844 904.363281 869.089844 1035.597656 C 869.089844 1065.347656 874.820312 1093.722656 884.839844 1120 Z M 1107.140625 1226.007812 C 1002.132812 1226.007812 916.699219 1140.589844 916.699219 1035.597656 C 916.699219 930.605469 1002.132812 845.1875 1107.140625 845.1875 C 1212.148438 845.1875 1297.578125 930.605469 1297.578125 1035.597656 C 1297.578125 1140.589844 1212.148438 1226.007812 1107.140625 1226.007812 Z M 1107.140625 1226.007812 " fill-opacity="1" fill-rule="nonzero"/></g><path fill="#000000" d="M 263.316406 961.683594 C 263.316406 961.683594 406 1033.011719 406.148438 1033.085938 C 417.226562 1038.625 432.089844 1034.40625 438.089844 1022.441406 C 443.972656 1010.679688 439.207031 996.386719 427.441406 990.503906 L 284.613281 919.101562 C 272.847656 913.265625 258.574219 917.984375 252.671875 929.746094 C 246.789062 941.507812 251.554688 955.800781 263.316406 961.683594 Z M 263.316406 961.683594 " fill-opacity="1" fill-rule="nonzero"/><path fill="#000000" d="M 263.316406 866.476562 C 263.316406 866.476562 358.492188 914.058594 358.539062 914.078125 C 369.617188 919.621094 384.480469 915.394531 390.480469 903.433594 C 396.359375 891.671875 391.59375 877.378906 379.832031 871.496094 L 284.613281 823.894531 C 272.847656 818.0625 258.574219 822.777344 252.671875 834.539062 C 246.789062 846.300781 251.554688 860.597656 263.316406 866.476562 Z M 263.316406 866.476562 " fill-opacity="1" fill-rule="nonzero"/><path fill="#000000" d="M 464.40625 369.160156 C 464.40625 369.9375 464.367188 370.714844 464.289062 371.492188 C 464.214844 372.265625 464.101562 373.035156 463.949219 373.800781 C 463.796875 374.566406 463.605469 375.320312 463.378906 376.066406 C 463.152344 376.8125 462.890625 377.546875 462.59375 378.265625 C 462.292969 378.988281 461.960938 379.691406 461.59375 380.378906 C 461.226562 381.066406 460.828125 381.734375 460.394531 382.382812 C 459.960938 383.03125 459.496094 383.65625 459 384.257812 C 458.507812 384.859375 457.984375 385.4375 457.433594 385.988281 C 456.882812 386.539062 456.304688 387.0625 455.703125 387.558594 C 455.097656 388.050781 454.472656 388.515625 453.824219 388.949219 C 453.175781 389.382812 452.507812 389.78125 451.820312 390.148438 C 451.132812 390.515625 450.429688 390.847656 449.710938 391.148438 C 448.988281 391.445312 448.257812 391.707031 447.511719 391.933594 C 446.765625 392.160156 446.007812 392.351562 445.246094 392.503906 C 444.480469 392.65625 443.710938 392.769531 442.933594 392.84375 C 442.15625 392.921875 441.378906 392.960938 440.601562 392.960938 C 439.820312 392.960938 439.042969 392.921875 438.265625 392.84375 C 437.492188 392.769531 436.71875 392.65625 435.957031 392.503906 C 435.191406 392.351562 434.4375 392.160156 433.691406 391.933594 C 432.945312 391.707031 432.210938 391.445312 431.492188 391.148438 C 430.769531 390.847656 430.066406 390.515625 429.378906 390.148438 C 428.691406 389.78125 428.023438 389.382812 427.375 388.949219 C 426.726562 388.515625 426.101562 388.050781 425.5 387.558594 C 424.894531 387.0625 424.320312 386.539062 423.765625 385.988281 C 423.214844 385.4375 422.691406 384.859375 422.199219 384.257812 C 421.703125 383.65625 421.238281 383.03125 420.808594 382.382812 C 420.375 381.734375 419.972656 381.066406 419.605469 380.378906 C 419.238281 379.691406 418.90625 378.988281 418.605469 378.265625 C 418.308594 377.546875 418.046875 376.8125 417.820312 376.066406 C 417.59375 375.320312 417.40625 374.566406 417.253906 373.800781 C 417.101562 373.035156 416.984375 372.265625 416.910156 371.492188 C 416.832031 370.714844 416.796875 369.9375 416.796875 369.160156 C 416.796875 368.378906 416.832031 367.601562 416.910156 366.824219 C 416.984375 366.050781 417.101562 365.28125 417.253906 364.515625 C 417.40625 363.75 417.59375 362.996094 417.820312 362.25 C 418.046875 361.503906 418.308594 360.769531 418.605469 360.050781 C 418.90625 359.328125 419.238281 358.625 419.605469 357.9375 C 419.972656 357.25 420.375 356.582031 420.808594 355.933594 C 421.238281 355.285156 421.703125 354.660156 422.199219 354.058594 C 422.691406 353.457031 423.214844 352.878906 423.765625 352.328125 C 424.320312 351.777344 424.894531 351.253906 425.5 350.757812 C 426.101562 350.265625 426.726562 349.800781 427.375 349.367188 C 428.023438 348.933594 428.691406 348.535156 429.378906 348.167969 C 430.066406 347.800781 430.769531 347.46875 431.492188 347.167969 C 432.210938 346.871094 432.945312 346.609375 433.691406 346.382812 C 434.4375 346.15625 435.191406 345.964844 435.957031 345.8125 C 436.71875 345.664062 437.492188 345.546875 438.265625 345.472656 C 439.042969 345.394531 439.820312 345.355469 440.601562 345.355469 C 441.378906 345.355469 442.15625 345.394531 442.933594 345.472656 C 443.710938 345.546875 444.480469 345.664062 445.246094 345.8125 C 446.007812 345.964844 446.765625 346.15625 447.511719 346.382812 C 448.257812 346.609375 448.988281 346.871094 449.710938 347.167969 C 450.429688 347.46875 451.132812 347.800781 451.820312 348.167969 C 452.507812 348.535156 453.175781 348.933594 453.824219 349.367188 C 454.472656 349.800781 455.097656 350.265625 455.703125 350.757812 C 456.304688 351.253906 456.882812 351.777344 457.433594 352.328125 C 457.984375 352.878906 458.507812 353.457031 459 354.058594 C 459.496094 354.660156 459.960938 355.285156 460.394531 355.933594 C 460.828125 356.582031 461.226562 357.25 461.59375 357.9375 C 461.960938 358.625 462.292969 359.328125 462.59375 360.050781 C 462.890625 360.769531 463.152344 361.503906 463.378906 362.25 C 463.605469 362.996094 463.796875 363.75 463.949219 364.515625 C 464.101562 365.28125 464.214844 366.050781 464.289062 366.824219 C 464.367188 367.601562 464.40625 368.378906 464.40625 369.160156 Z M 464.40625 369.160156 " fill-opacity="1" fill-rule="nonzero"/></svg>