<svg xmlns="http://www.w3.org/2000/svg" xmlns:xlink="http://www.w3.org/1999/xlink" width="2000" zoomAndPan="magnify" viewBox="0 0 1500 1499.999933" height="2000" preserveAspectRatio="xMidYMid meet" version="1.0"><defs><clipPath id="9292673775"><path d="M 175.597656 794 L 1324.597656 794 L 1324.597656 922 L 175.597656 922 Z M 175.597656 794 " clip-rule="nonzero"/></clipPath><clipPath id="78758fc8a9"><path d="M 175.597656 895 L 1324.597656 895 L 1324.597656 1324.597656 L 175.597656 1324.597656 Z M 175.597656 895 " clip-rule="nonzero"/></clipPath><clipPath id="07a28b19cd"><path d="M 499 895 L 1002 895 L 1002 1324.597656 L 499 1324.597656 Z M 499 895 " clip-rule="nonzero"/></clipPath><clipPath id="bd78a39908"><path d="M 175.597656 175.597656 L 578 175.597656 L 578 530 L 175.597656 530 Z M 175.597656 175.597656 " clip-rule="nonzero"/></clipPath><clipPath id="dbfebd40c9"><path d="M 364 175.597656 L 390 175.597656 L 390 530 L 364 530 Z M 364 175.597656 " clip-rule="nonzero"/></clipPath><clipPath id="a264ef8fe6"><path d="M 923 175.597656 L 1324.597656 175.597656 L 1324.597656 530 L 923 530 Z M 923 175.597656 " clip-rule="nonzero"/></clipPath><clipPath id="163d0a8156"><path d="M 1111 175.597656 L 1137 175.597656 L 1137 530 L 1111 530 Z M 1111 175.597656 " clip-rule="nonzero"/></clipPath><clipPath id="9a6a0f1962"><path d="M 175.597656 1030 L 525 1030 L 525 1056 L 175.597656 1056 Z M 175.597656 1030 " clip-rule="nonzero"/></clipPath><clipPath id="f83931c99a"><path d="M 175.597656 1165 L 525 1165 L 525 1191 L 175.597656 1191 Z M 175.597656 1165 " clip-rule="nonzero"/></clipPath><clipPath id="da4dda2ca4"><path d="M 976 994 L 1324.597656 994 L 1324.597656 1020 L 976 1020 Z M 976 994 " clip-rule="nonzero"/></clipPath><clipPath id="79369e33f5"><path d="M 1138 994 L 1164 994 L 1164 1324.597656 L 1138 1324.597656 Z M 1138 994 " clip-rule="nonzero"/></clipPath></defs><rect x="-150" width="1800" fill="#ffffff" y="-149.999993" height="1799.99992" fill-opacity="1"/><rect x="-150" width="1800" fill="#ffffff" y="-149.999993" height="1799.99992" fill-opacity="1"/><g clip-path="url(#9292673775)"><path fill="#000000" d="M 200.984375 895.996094 L 1299.9375 895.996094 L 1299.9375 819.273438 L 200.984375 819.273438 Z M 1312.472656 921.078125 L 188.445312 921.078125 C 181.515625 921.078125 175.890625 915.464844 175.890625 908.539062 L 175.894531 806.726562 C 175.894531 799.800781 181.507812 794.1875 188.433594 794.1875 L 1312.46875 794.183594 C 1319.429688 794.183594 1325.011719 799.804688 1325.011719 806.730469 L 1325.015625 908.535156 C 1325.015625 915.464844 1319.421875 921.082031 1312.46875 921.078125 Z M 1312.472656 921.078125 " fill-opacity="1" fill-rule="evenodd"/></g><g clip-path="url(#78758fc8a9)"><path fill="#000000" d="M 1312.472656 1325.019531 L 188.445312 1325.019531 C 181.515625 1325.019531 175.890625 1319.40625 175.890625 1312.476562 L 175.894531 908.539062 C 175.894531 901.605469 181.507812 895.996094 188.4375 895.996094 C 195.371094 895.996094 200.980469 901.609375 200.980469 908.539062 L 200.980469 1299.929688 L 1299.929688 1299.929688 L 1299.929688 908.539062 C 1299.929688 901.605469 1305.539062 895.996094 1312.46875 895.996094 C 1319.429688 895.996094 1325.011719 901.609375 1325.011719 908.539062 L 1325.015625 1312.472656 C 1325.015625 1319.40625 1319.417969 1325.023438 1312.46875 1325.019531 Z M 1312.472656 1325.019531 " fill-opacity="1" fill-rule="evenodd"/></g><g clip-path="url(#07a28b19cd)"><path fill="#000000" d="M 512.226562 1325.019531 C 505.296875 1325.019531 499.675781 1319.40625 499.675781 1312.476562 L 499.675781 908.539062 C 499.675781 901.605469 505.292969 895.996094 512.21875 895.996094 C 519.152344 895.988281 524.761719 901.609375 524.761719 908.539062 L 524.761719 1312.472656 C 524.761719 1319.40625 519.144531 1325.023438 512.226562 1325.019531 Z M 988.734375 1325.019531 C 981.804688 1325.019531 976.179688 1319.40625 976.179688 1312.476562 L 976.183594 908.539062 C 976.183594 901.605469 981.796875 895.996094 988.722656 895.996094 C 995.648438 895.988281 1001.265625 901.609375 1001.265625 908.539062 L 1001.269531 1312.472656 C 1001.269531 1319.40625 995.648438 1325.023438 988.722656 1325.023438 Z M 988.734375 1325.019531 " fill-opacity="1" fill-rule="evenodd"/></g><path fill="#000000" d="M 963.636719 819.277344 C 956.6875 819.277344 951.09375 813.664062 951.09375 806.734375 L 951.101562 717.472656 L 549.859375 717.472656 L 549.859375 806.734375 C 549.859375 813.660156 544.234375 819.28125 537.308594 819.28125 C 530.386719 819.277344 524.765625 813.664062 524.765625 806.734375 L 524.765625 704.921875 C 524.765625 697.996094 530.382812 692.382812 537.308594 692.382812 L 963.636719 692.382812 C 970.566406 692.382812 976.179688 698 976.179688 704.929688 L 976.1875 806.734375 C 976.1875 813.660156 970.5625 819.28125 963.636719 819.277344 Z M 963.636719 819.277344 " fill-opacity="1" fill-rule="evenodd"/><path fill="#000000" d="M 644.542969 717.472656 C 637.613281 717.472656 631.992188 711.855469 631.992188 704.929688 L 631.992188 645.097656 C 631.992188 638.171875 637.609375 632.554688 644.535156 632.554688 L 692.652344 632.550781 C 699.578125 632.550781 705.191406 638.171875 705.191406 645.101562 C 705.199219 652.027344 699.574219 657.640625 692.648438 657.640625 L 657.089844 657.640625 L 657.089844 704.921875 C 657.089844 711.855469 651.460938 717.472656 644.542969 717.472656 Z M 644.542969 717.472656 " fill-opacity="1" fill-rule="evenodd"/><path fill="#000000" d="M 856.382812 717.472656 C 849.457031 717.472656 843.835938 711.855469 843.835938 704.929688 L 843.847656 657.640625 L 808.296875 657.640625 C 801.378906 657.640625 795.75 652.027344 795.75 645.101562 C 795.757812 638.171875 801.371094 632.554688 808.296875 632.554688 L 856.382812 632.550781 C 863.3125 632.550781 868.925781 638.171875 868.925781 645.101562 L 868.933594 704.921875 C 868.933594 711.855469 863.308594 717.472656 856.382812 717.472656 Z M 856.382812 717.472656 " fill-opacity="1" fill-rule="evenodd"/><path fill="#000000" d="M 750.46875 717.472656 C 743.539062 717.472656 737.914062 711.855469 737.914062 704.929688 L 737.917969 645.097656 C 737.917969 638.171875 743.53125 632.554688 750.457031 632.554688 C 757.382812 632.550781 763 638.171875 763 645.101562 L 763.003906 704.921875 C 763.003906 711.855469 757.382812 717.472656 750.46875 717.472656 Z M 750.46875 717.472656 " fill-opacity="1" fill-rule="evenodd"/><g clip-path="url(#bd78a39908)"><path fill="#000000" d="M 200.984375 503.960938 L 552.785156 503.960938 L 552.785156 200.984375 L 200.984375 200.984375 Z M 565.324219 529.054688 L 188.449219 529.054688 C 181.523438 529.054688 175.898438 523.4375 175.898438 516.511719 L 175.902344 188.4375 C 175.902344 181.511719 181.515625 175.894531 188.441406 175.894531 L 565.324219 175.894531 C 572.25 175.894531 577.867188 181.511719 577.867188 188.4375 L 577.871094 516.511719 C 577.871094 523.4375 572.246094 529.054688 565.324219 529.054688 Z M 565.324219 529.054688 " fill-opacity="1" fill-rule="evenodd"/></g><g clip-path="url(#dbfebd40c9)"><path fill="#000000" d="M 376.875 529.054688 C 369.949219 529.054688 364.324219 523.4375 364.324219 516.511719 L 364.324219 188.4375 C 364.324219 181.511719 369.945312 175.894531 376.867188 175.894531 C 383.824219 175.894531 389.414062 181.511719 389.414062 188.4375 L 389.421875 516.511719 C 389.421875 523.4375 383.820312 529.058594 376.875 529.054688 Z M 376.875 529.054688 " fill-opacity="1" fill-rule="evenodd"/></g><path fill="#000000" d="M 448.25 396.378906 C 441.296875 396.378906 435.695312 390.765625 435.695312 383.839844 L 435.699219 321.113281 C 435.699219 314.183594 441.289062 308.566406 448.242188 308.566406 C 455.175781 308.5625 460.785156 314.183594 460.785156 321.113281 L 460.785156 383.835938 C 460.785156 390.761719 455.167969 396.382812 448.242188 396.382812 Z M 448.25 396.378906 " fill-opacity="1" fill-rule="evenodd"/><path fill="#000000" d="M 305.523438 396.378906 C 298.597656 396.378906 292.976562 390.765625 292.976562 383.839844 L 292.988281 321.113281 C 292.988281 314.183594 298.597656 308.566406 305.523438 308.566406 C 312.453125 308.5625 318.066406 314.183594 318.066406 321.113281 L 318.074219 383.835938 C 318.074219 390.761719 312.449219 396.382812 305.523438 396.378906 Z M 305.523438 396.378906 " fill-opacity="1" fill-rule="evenodd"/><g clip-path="url(#a264ef8fe6)"><path fill="#000000" d="M 948.167969 503.960938 L 1299.9375 503.960938 L 1299.9375 200.984375 L 948.167969 200.984375 Z M 1312.472656 529.054688 L 935.621094 529.054688 C 928.695312 529.054688 923.070312 523.4375 923.070312 516.511719 L 923.074219 188.4375 C 923.074219 181.511719 928.691406 175.894531 935.617188 175.894531 L 1312.472656 175.894531 C 1319.433594 175.894531 1325.015625 181.511719 1325.015625 188.4375 L 1325.019531 516.511719 C 1325.019531 523.4375 1319.421875 529.054688 1312.472656 529.054688 Z M 1312.472656 529.054688 " fill-opacity="1" fill-rule="evenodd"/></g><g clip-path="url(#163d0a8156)"><path fill="#000000" d="M 1124.046875 529.054688 C 1117.121094 529.054688 1111.5 523.4375 1111.5 516.511719 L 1111.511719 188.4375 C 1111.511719 181.511719 1117.117188 175.894531 1124.042969 175.894531 C 1130.972656 175.894531 1136.589844 181.511719 1136.589844 188.4375 L 1136.59375 516.511719 C 1136.59375 523.4375 1130.96875 529.058594 1124.046875 529.054688 Z M 1124.046875 529.054688 " fill-opacity="1" fill-rule="evenodd"/></g><path fill="#000000" d="M 1195.402344 396.378906 C 1188.472656 396.378906 1182.851562 390.765625 1182.851562 383.839844 L 1182.851562 321.113281 C 1182.851562 314.183594 1188.46875 308.566406 1195.394531 308.566406 C 1202.328125 308.5625 1207.941406 314.183594 1207.941406 321.113281 L 1207.949219 383.835938 C 1207.949219 390.761719 1202.320312 396.382812 1195.402344 396.378906 Z M 1195.402344 396.378906 " fill-opacity="1" fill-rule="evenodd"/><path fill="#000000" d="M 1052.714844 396.378906 C 1045.785156 396.378906 1040.15625 390.765625 1040.15625 383.839844 L 1040.164062 321.113281 C 1040.164062 314.183594 1045.777344 308.566406 1052.703125 308.566406 C 1059.625 308.5625 1065.246094 314.183594 1065.246094 321.113281 L 1065.246094 383.835938 C 1065.246094 390.761719 1059.625 396.382812 1052.703125 396.382812 Z M 1052.714844 396.378906 " fill-opacity="1" fill-rule="evenodd"/><g clip-path="url(#9a6a0f1962)"><path fill="#000000" d="M 512.226562 1055.726562 L 188.449219 1055.726562 C 181.523438 1055.726562 175.898438 1050.113281 175.898438 1043.183594 C 175.902344 1036.253906 181.515625 1030.640625 188.441406 1030.640625 L 512.226562 1030.636719 C 519.152344 1030.636719 524.761719 1036.257812 524.761719 1043.183594 C 524.761719 1050.113281 519.144531 1055.730469 512.226562 1055.726562 Z M 512.226562 1055.726562 " fill-opacity="1" fill-rule="evenodd"/></g><g clip-path="url(#f83931c99a)"><path fill="#000000" d="M 512.226562 1190.371094 L 188.449219 1190.371094 C 181.523438 1190.371094 175.898438 1184.757812 175.898438 1177.832031 C 175.902344 1170.902344 181.515625 1165.285156 188.441406 1165.285156 L 512.226562 1165.285156 C 519.152344 1165.285156 524.761719 1170.902344 524.761719 1177.832031 C 524.761719 1184.753906 519.144531 1190.375 512.21875 1190.375 Z M 512.226562 1190.371094 " fill-opacity="1" fill-rule="evenodd"/></g><path fill="#000000" d="M 374.652344 988.402344 L 326.046875 988.402344 C 319.09375 988.402344 313.492188 982.792969 313.492188 975.863281 C 313.5 968.933594 319.085938 963.320312 326.035156 963.320312 L 374.652344 963.320312 C 381.578125 963.320312 387.191406 968.9375 387.191406 975.863281 C 387.199219 982.789062 381.570312 988.40625 374.652344 988.402344 Z M 374.652344 988.402344 " fill-opacity="1" fill-rule="evenodd"/><path fill="#000000" d="M 374.652344 1123.054688 L 326.046875 1123.054688 C 319.09375 1123.054688 313.492188 1117.4375 313.492188 1110.511719 C 313.5 1103.578125 319.085938 1097.964844 326.035156 1097.964844 L 374.652344 1097.960938 C 381.578125 1097.960938 387.191406 1103.582031 387.191406 1110.511719 C 387.199219 1117.433594 381.570312 1123.054688 374.652344 1123.054688 Z M 374.652344 1123.054688 " fill-opacity="1" fill-rule="evenodd"/><path fill="#000000" d="M 374.652344 1257.703125 L 326.046875 1257.703125 C 319.09375 1257.703125 313.492188 1252.085938 313.492188 1245.160156 C 313.5 1238.226562 319.085938 1232.613281 326.035156 1232.613281 L 374.652344 1232.613281 C 381.578125 1232.613281 387.191406 1238.230469 387.191406 1245.160156 C 387.199219 1252.082031 381.570312 1257.703125 374.652344 1257.703125 Z M 374.652344 1257.703125 " fill-opacity="1" fill-rule="evenodd"/><g clip-path="url(#da4dda2ca4)"><path fill="#000000" d="M 1312.472656 1019.878906 L 988.730469 1019.878906 C 981.804688 1019.878906 976.175781 1014.269531 976.175781 1007.34375 C 976.183594 1000.410156 981.796875 994.796875 988.71875 994.796875 L 1312.472656 994.796875 C 1319.433594 994.796875 1325.015625 1000.414062 1325.015625 1007.34375 C 1325.019531 1014.265625 1319.421875 1019.886719 1312.472656 1019.878906 Z M 1312.472656 1019.878906 " fill-opacity="1" fill-rule="evenodd"/></g><g clip-path="url(#79369e33f5)"><path fill="#000000" d="M 1150.605469 1325.019531 C 1143.675781 1325.019531 1138.054688 1319.40625 1138.054688 1312.476562 L 1138.054688 1007.335938 C 1138.054688 1000.410156 1143.675781 994.792969 1150.601562 994.792969 C 1157.53125 994.792969 1163.144531 1000.414062 1163.144531 1007.339844 L 1163.152344 1312.472656 C 1163.152344 1319.40625 1157.523438 1325.023438 1150.605469 1325.019531 Z M 1150.605469 1325.019531 " fill-opacity="1" fill-rule="evenodd"/></g><path fill="#000000" d="M 1214.898438 1199.105469 C 1207.972656 1199.105469 1202.34375 1193.492188 1202.34375 1186.566406 L 1202.351562 1133.246094 C 1202.351562 1126.320312 1207.964844 1120.703125 1214.890625 1120.703125 C 1221.824219 1120.699219 1227.433594 1126.320312 1227.433594 1133.25 L 1227.433594 1186.5625 C 1227.433594 1193.488281 1221.816406 1199.109375 1214.890625 1199.109375 Z M 1214.898438 1199.105469 " fill-opacity="1" fill-rule="evenodd"/><path fill="#000000" d="M 1086.308594 1199.105469 C 1079.382812 1199.105469 1073.765625 1193.492188 1073.765625 1186.566406 L 1073.773438 1133.246094 C 1073.773438 1126.320312 1079.382812 1120.703125 1086.308594 1120.703125 C 1093.238281 1120.699219 1098.851562 1126.320312 1098.851562 1133.25 L 1098.859375 1186.5625 C 1098.859375 1193.488281 1093.234375 1199.109375 1086.308594 1199.105469 Z M 1086.308594 1199.105469 " fill-opacity="1" fill-rule="evenodd"/><path fill="#000000" d="M 618.84375 1205.839844 L 882.078125 1205.839844 L 882.078125 1015.164062 L 618.84375 1015.164062 Z M 894.613281 1230.929688 L 606.308594 1230.929688 C 599.382812 1230.929688 593.757812 1225.316406 593.757812 1218.386719 L 593.761719 1002.621094 C 593.761719 995.691406 599.375 990.082031 606.300781 990.082031 L 894.613281 990.078125 C 901.5625 990.078125 907.160156 995.695312 907.160156 1002.625 L 907.164062 1218.382812 C 907.164062 1225.3125 901.5625 1230.933594 894.613281 1230.929688 Z M 894.613281 1230.929688 " fill-opacity="1" fill-rule="evenodd"/><path fill="#000000" d="M 314.863281 819.277344 C 271.734375 819.277344 236.65625 784.195312 236.65625 741.078125 L 236.667969 687.964844 C 236.667969 681.039062 242.277344 675.421875 249.203125 675.421875 C 256.128906 675.421875 261.746094 681.039062 261.746094 687.964844 L 261.753906 741.074219 C 261.753906 770.359375 285.554688 794.191406 314.851562 794.191406 C 321.777344 794.183594 327.394531 799.804688 327.394531 806.734375 C 327.398438 813.660156 321.777344 819.28125 314.851562 819.28125 Z M 385.8125 819.277344 C 378.886719 819.277344 373.261719 813.664062 373.261719 806.734375 C 373.265625 799.804688 378.882812 794.191406 385.804688 794.191406 C 415.109375 794.183594 438.9375 770.363281 438.9375 741.078125 L 438.945312 687.964844 C 438.945312 681.039062 444.53125 675.421875 451.480469 675.421875 C 458.410156 675.421875 464.027344 681.039062 464.027344 687.964844 L 464.03125 741.074219 C 464.03125 784.195312 428.929688 819.28125 385.8125 819.277344 Z M 385.8125 819.277344 " fill-opacity="1" fill-rule="evenodd"/><path fill="#000000" d="M 249.203125 635.671875 C 245.734375 635.671875 242.773438 638.613281 242.773438 642.089844 L 242.78125 669.007812 C 242.78125 672.484375 245.726562 675.421875 249.203125 675.421875 L 451.484375 675.417969 C 454.964844 675.417969 457.882812 672.484375 457.882812 669.011719 L 457.890625 642.085938 C 457.890625 638.613281 454.957031 635.675781 451.480469 635.675781 Z M 451.484375 700.507812 L 249.203125 700.507812 C 231.832031 700.507812 217.683594 686.378906 217.683594 669.011719 L 217.6875 642.085938 C 217.6875 624.71875 231.824219 610.589844 249.203125 610.589844 L 451.484375 610.585938 C 468.839844 610.585938 482.972656 624.722656 482.972656 642.089844 L 482.976562 669.007812 C 482.976562 686.378906 468.835938 700.511719 451.484375 700.507812 Z M 451.484375 700.507812 " fill-opacity="1" fill-rule="evenodd"/><path fill="#000000" d="M 350.34375 635.671875 C 343.394531 635.671875 337.796875 630.058594 337.796875 623.132812 L 337.804688 589.414062 C 337.804688 582.488281 343.390625 576.875 350.34375 576.875 C 357.269531 576.871094 362.886719 582.488281 362.886719 589.417969 L 362.890625 623.128906 C 362.890625 630.058594 357.265625 635.675781 350.34375 635.671875 Z M 350.34375 635.671875 " fill-opacity="1" fill-rule="evenodd"/><path fill="#000000" d="M 1186.097656 819.277344 C 1179.167969 819.277344 1173.542969 813.664062 1173.542969 806.734375 C 1173.546875 799.804688 1179.164062 794.1875 1186.089844 794.1875 C 1217.273438 794.183594 1234.855469 778.859375 1238.488281 748.578125 L 1062.71875 748.578125 C 1066.351562 778.855469 1083.929688 794.1875 1115.109375 794.1875 C 1122.0625 794.183594 1127.652344 799.804688 1127.652344 806.734375 C 1127.660156 813.660156 1122.0625 819.28125 1115.109375 819.28125 C 1066.164062 819.277344 1036.914062 788.160156 1036.914062 736.035156 C 1036.917969 729.101562 1042.535156 723.488281 1049.457031 723.488281 L 1251.746094 723.488281 C 1258.667969 723.488281 1264.285156 729.105469 1264.285156 736.035156 C 1264.292969 788.15625 1235.039062 819.28125 1186.097656 819.277344 Z M 1186.097656 819.277344 " fill-opacity="1" fill-rule="evenodd"/><path fill="#000000" d="M 1186.097656 748.578125 C 1179.167969 748.578125 1173.542969 742.960938 1173.542969 736.035156 C 1173.546875 729.101562 1179.164062 723.488281 1186.089844 723.488281 C 1217.273438 723.488281 1234.855469 708.160156 1238.488281 677.878906 L 1062.71875 677.875 C 1066.351562 708.15625 1083.929688 723.488281 1115.109375 723.488281 C 1122.0625 723.488281 1127.652344 729.105469 1127.652344 736.035156 C 1127.660156 742.957031 1122.0625 748.578125 1115.109375 748.578125 C 1066.164062 748.578125 1036.914062 717.460938 1036.914062 665.332031 C 1036.917969 658.398438 1042.535156 652.792969 1049.457031 652.792969 L 1251.746094 652.789062 C 1258.667969 652.789062 1264.285156 658.40625 1264.285156 665.332031 C 1264.292969 717.460938 1235.039062 748.578125 1186.097656 748.578125 Z M 1186.097656 748.578125 " fill-opacity="1" fill-rule="evenodd"/></svg>