<svg xmlns="http://www.w3.org/2000/svg" xmlns:xlink="http://www.w3.org/1999/xlink" width="2000" zoomAndPan="magnify" viewBox="0 0 1500 1499.999933" height="2000" preserveAspectRatio="xMidYMid meet" version="1.0"><defs><clipPath id="acfc3dc9b7"><path d="M 659 1131 L 842 1131 L 842 1324.597656 L 659 1324.597656 Z M 659 1131 " clip-rule="nonzero"/></clipPath><clipPath id="c8f730220e"><path d="M 262 932 L 1239 932 L 1239 1324.597656 L 262 1324.597656 Z M 262 932 " clip-rule="nonzero"/></clipPath><clipPath id="cf8f9194e2"><path d="M 403 1199 L 564 1199 L 564 1324.597656 L 403 1324.597656 Z M 403 1199 " clip-rule="nonzero"/></clipPath><clipPath id="d46157e8a6"><path d="M 937 1199 L 1097 1199 L 1097 1324.597656 L 937 1324.597656 Z M 937 1199 " clip-rule="nonzero"/></clipPath><clipPath id="3c1229fabf"><path d="M 408 175.597656 L 1092 175.597656 L 1092 476 L 408 476 Z M 408 175.597656 " clip-rule="nonzero"/></clipPath></defs><rect x="-150" width="1800" fill="#ffffff" y="-149.999993" height="1799.99992" fill-opacity="1"/><rect x="-150" width="1800" fill="#ffffff" y="-149.999993" height="1799.99992" fill-opacity="1"/><path fill="#000000" d="M 750.394531 870.554688 C 733.042969 870.554688 715.691406 863.367188 692.355469 849.019531 C 654.988281 826.023438 568.097656 764.660156 568.097656 691.40625 L 568.097656 583.546875 C 568.097656 576.621094 573.714844 571.003906 580.640625 571.003906 C 587.566406 571.003906 593.183594 576.625 593.183594 583.550781 L 593.1875 691.402344 C 593.1875 753.707031 679.15625 811.441406 705.5 827.644531 C 744.515625 851.660156 756.273438 851.660156 795.289062 827.644531 C 821.65625 811.4375 907.628906 753.710938 907.628906 691.40625 L 907.632812 583.546875 C 907.632812 576.621094 913.21875 571.003906 920.171875 571.003906 C 927.097656 571.003906 932.714844 576.625 932.714844 583.550781 L 932.714844 691.402344 C 932.714844 764.660156 845.800781 826.023438 808.433594 849.019531 C 785.121094 863.367188 767.742188 870.554688 750.394531 870.554688 Z M 750.394531 870.554688 " fill-opacity="1" fill-rule="evenodd"/><path fill="#000000" d="M 578.210938 718.242188 C 524.640625 718.269531 498.558594 663.804688 494.667969 628.445312 C 492.574219 609.445312 498.324219 593.320312 510.894531 583.078125 C 522.160156 573.851562 544.082031 565.59375 584.457031 578.554688 C 591.070312 580.671875 594.699219 587.730469 592.582031 594.339844 C 590.464844 600.925781 583.382812 604.558594 576.800781 602.441406 C 553.675781 595.019531 535.902344 595.046875 526.757812 602.496094 C 519.023438 608.84375 518.941406 619.769531 519.597656 625.703125 C 522.132812 648.648438 540.5 695.167969 581.214844 693.078125 C 588.113281 692.65625 594.046875 698.015625 594.410156 704.941406 C 594.777344 711.839844 589.472656 717.773438 582.546875 718.140625 C 581.085938 718.214844 579.648438 718.242188 578.210938 718.242188 Z M 578.210938 718.242188 " fill-opacity="1" fill-rule="evenodd"/><path fill="#000000" d="M 922.574219 718.242188 C 921.136719 718.242188 919.699219 718.21875 918.234375 718.140625 C 911.3125 717.769531 906.007812 711.839844 906.371094 704.941406 C 906.765625 698.015625 912.671875 692.734375 919.570312 693.078125 C 960.3125 695.269531 978.652344 648.648438 981.1875 625.703125 C 981.84375 619.769531 981.789062 608.84375 974.027344 602.496094 C 964.910156 595.046875 947.136719 595.019531 923.984375 602.441406 C 917.402344 604.554688 910.320312 600.925781 908.203125 594.339844 C 906.085938 587.726562 909.71875 580.671875 916.328125 578.554688 C 956.703125 565.59375 978.628906 573.851562 989.890625 583.078125 C 1002.460938 593.320312 1008.207031 609.445312 1006.117188 628.445312 C 1002.222656 663.804688 976.117188 718.242188 922.574219 718.242188 Z M 922.574219 718.242188 " fill-opacity="1" fill-rule="evenodd"/><path fill="#000000" d="M 750.394531 1028.585938 C 746.839844 1028.585938 743.46875 1027.097656 741.089844 1024.480469 L 630.582031 902.382812 C 628.488281 900.082031 627.339844 897.078125 627.339844 893.96875 L 627.339844 794.449219 C 627.339844 787.523438 632.957031 781.902344 639.882812 781.902344 C 646.808594 781.902344 652.425781 787.523438 652.425781 794.449219 L 652.425781 889.132812 L 750.394531 997.355469 L 848.363281 889.132812 L 848.363281 794.449219 C 848.363281 787.523438 853.980469 781.902344 860.90625 781.902344 C 867.832031 781.902344 873.449219 787.523438 873.449219 794.449219 L 873.449219 893.964844 C 873.449219 897.078125 872.296875 900.082031 870.207031 902.382812 L 759.699219 1024.480469 C 757.320312 1027.09375 753.945312 1028.585938 750.394531 1028.585938 Z M 750.394531 1028.585938 " fill-opacity="1" fill-rule="evenodd"/><path fill="#000000" d="M 668.417969 1115.195312 C 668.078125 1115.195312 667.710938 1115.195312 667.371094 1115.144531 C 663.582031 1114.828125 660.132812 1112.816406 657.992188 1109.65625 L 552.445312 952.480469 C 550.589844 949.710938 549.910156 946.316406 550.535156 943.050781 C 551.191406 939.78125 553.097656 936.90625 555.867188 935.054688 L 632.90625 883.539062 C 638.652344 879.699219 646.441406 881.242188 650.308594 886.992188 C 654.148438 892.765625 652.609375 900.554688 646.859375 904.398438 L 580.273438 948.925781 L 670.09375 1082.632812 L 741.273438 1007.445312 C 746.058594 1002.398438 754 1002.191406 759.015625 1006.949219 C 764.0625 1011.703125 764.269531 1019.648438 759.511719 1024.667969 L 677.511719 1111.273438 C 675.132812 1113.78125 671.839844 1115.195312 668.417969 1115.195312 Z M 668.417969 1115.195312 " fill-opacity="1" fill-rule="evenodd"/><path fill="#000000" d="M 832.371094 1115.195312 C 828.945312 1115.195312 825.652344 1113.785156 823.273438 1111.277344 L 741.273438 1024.664062 C 736.519531 1019.648438 736.753906 1011.703125 741.769531 1006.949219 C 746.8125 1002.191406 754.730469 1002.402344 759.511719 1007.445312 L 830.699219 1082.632812 L 920.511719 948.925781 L 853.929688 904.398438 C 848.179688 900.554688 846.636719 892.769531 850.476562 886.992188 C 854.347656 881.242188 862.132812 879.699219 867.882812 883.542969 L 944.917969 935.050781 C 947.6875 936.90625 949.597656 939.78125 950.25 943.050781 C 950.90625 946.316406 950.222656 949.714844 948.339844 952.484375 L 842.796875 1109.652344 C 840.652344 1112.816406 837.230469 1114.832031 833.414062 1115.144531 C 833.078125 1115.195312 832.734375 1115.195312 832.371094 1115.195312 Z M 832.371094 1115.195312 " fill-opacity="1" fill-rule="evenodd"/><path fill="#000000" d="M 775.269531 1156.671875 L 725.515625 1156.671875 C 720.839844 1156.671875 716.550781 1154.085938 714.410156 1149.957031 L 680.046875 1084.464844 C 676.832031 1078.320312 679.210938 1070.742188 685.324219 1067.53125 C 691.46875 1064.289062 699.042969 1066.667969 702.257812 1072.808594 L 733.09375 1131.582031 L 767.695312 1131.582031 L 798.527344 1072.808594 C 801.742188 1066.667969 809.320312 1064.289062 815.460938 1067.53125 C 821.601562 1070.742188 823.953125 1078.324219 820.738281 1084.464844 L 786.402344 1149.957031 C 784.234375 1154.085938 779.949219 1156.671875 775.269531 1156.671875 Z M 775.269531 1156.671875 " fill-opacity="1" fill-rule="evenodd"/><g clip-path="url(#acfc3dc9b7)"><path fill="#000000" d="M 671.554688 1325 C 670.273438 1325 668.992188 1324.816406 667.710938 1324.398438 C 661.128906 1322.28125 657.496094 1315.226562 659.609375 1308.613281 L 713.574219 1140.3125 C 715.691406 1133.699219 722.71875 1130.066406 729.332031 1132.183594 C 735.945312 1134.296875 739.574219 1141.382812 737.457031 1147.96875 L 683.496094 1316.269531 C 681.773438 1321.601562 676.859375 1325 671.554688 1325 Z M 829.234375 1325 C 823.929688 1325 819.015625 1321.605469 817.289062 1316.273438 L 763.328125 1147.96875 C 761.210938 1141.382812 764.84375 1134.300781 771.457031 1132.183594 C 778.070312 1130.089844 785.121094 1133.699219 787.214844 1140.3125 L 841.203125 1308.613281 C 843.320312 1315.226562 839.683594 1322.285156 833.074219 1324.402344 C 831.796875 1324.789062 830.511719 1325 829.234375 1325 Z M 829.234375 1325 " fill-opacity="1" fill-rule="evenodd"/></g><g clip-path="url(#c8f730220e)"><path fill="#000000" d="M 481.445312 980.683594 C 475.957031 980.683594 470.914062 977.054688 469.371094 971.511719 C 467.488281 964.820312 471.410156 957.898438 478.074219 956.042969 L 559.5 933.40625 C 566.164062 931.550781 573.085938 935.445312 574.945312 942.136719 C 576.800781 948.800781 572.878906 955.726562 566.214844 957.582031 L 484.816406 980.214844 C 483.691406 980.527344 482.542969 980.6875 481.445312 980.683594 Z M 1019.34375 980.683594 C 1018.246094 980.683594 1017.121094 980.53125 1015.972656 980.214844 L 934.570312 957.582031 C 927.90625 955.726562 923.988281 948.800781 925.867188 942.136719 C 927.722656 935.445312 934.621094 931.554688 941.3125 933.410156 L 1022.714844 956.039062 C 1029.378906 957.894531 1033.296875 964.824219 1031.441406 971.511719 C 1029.875 977.050781 1024.855469 980.6875 1019.34375 980.683594 Z M 1170.492188 1325 L 330.300781 1325 C 310.074219 1325 292.355469 1316.902344 279.082031 1301.613281 C 266.042969 1286.558594 260.554688 1267.925781 263.21875 1247.726562 L 281.539062 1107.957031 C 286.476562 1070.378906 302.703125 1038.992188 327.265625 1019.523438 C 332.703125 1015.234375 340.59375 1016.148438 344.882812 1021.585938 C 349.195312 1026.992188 348.277344 1034.886719 342.84375 1039.199219 C 323.429688 1054.566406 310.492188 1080.152344 306.414062 1111.226562 L 288.070312 1250.992188 C 286.371094 1264.054688 289.714844 1275.558594 298.050781 1285.175781 C 306.519531 1294.949219 317.363281 1299.914062 330.296875 1299.914062 L 1170.488281 1299.914062 C 1183.425781 1299.914062 1194.269531 1294.949219 1202.734375 1285.175781 C 1211.070312 1275.558594 1214.414062 1264.058594 1212.71875 1250.992188 L 1194.371094 1111.222656 C 1190.296875 1080.148438 1177.359375 1054.566406 1157.945312 1039.199219 C 1152.507812 1034.886719 1151.59375 1026.996094 1155.90625 1021.585938 C 1160.195312 1016.148438 1168.082031 1015.234375 1173.519531 1019.523438 C 1198.085938 1038.988281 1214.3125 1070.378906 1219.25 1107.960938 L 1237.597656 1247.722656 C 1240.234375 1267.925781 1234.746094 1286.5625 1221.707031 1301.613281 C 1208.433594 1316.902344 1190.742188 1325.003906 1170.488281 1325 Z M 1170.492188 1325 " fill-opacity="1" fill-rule="evenodd"/></g><path fill="#000000" d="M 406.261719 1150.242188 C 403.128906 1150.242188 400.511719 1152.878906 400.511719 1155.992188 L 400.515625 1194.066406 C 400.515625 1197.175781 403.125 1199.816406 406.261719 1199.816406 L 561.4375 1199.816406 C 564.570312 1199.816406 567.207031 1197.179688 567.207031 1194.070312 L 567.210938 1155.988281 C 567.210938 1152.878906 564.570312 1150.242188 561.433594 1150.242188 Z M 561.4375 1224.90625 L 406.261719 1224.90625 C 389.253906 1224.90625 375.425781 1211.082031 375.425781 1194.070312 L 375.425781 1155.988281 C 375.425781 1139 389.25 1125.152344 406.261719 1125.152344 L 561.4375 1125.152344 C 578.445312 1125.152344 592.292969 1139.003906 592.292969 1155.992188 L 592.296875 1194.066406 C 592.296875 1211.082031 578.445312 1224.90625 561.4375 1224.90625 Z M 561.4375 1224.90625 " fill-opacity="1" fill-rule="evenodd"/><g clip-path="url(#cf8f9194e2)"><path fill="#000000" d="M 416.507812 1325 C 409.582031 1325 403.964844 1319.382812 403.964844 1312.457031 L 403.964844 1212.359375 C 403.964844 1205.4375 409.582031 1199.820312 416.507812 1199.820312 C 423.429688 1199.816406 429.050781 1205.4375 429.050781 1212.363281 L 429.050781 1312.457031 C 429.050781 1319.378906 423.429688 1325 416.507812 1325 Z M 551.191406 1325 C 544.265625 1325 538.644531 1319.382812 538.644531 1312.457031 L 538.644531 1212.359375 C 538.644531 1205.4375 544.265625 1199.820312 551.191406 1199.820312 C 558.117188 1199.816406 563.734375 1205.4375 563.734375 1212.363281 L 563.734375 1312.457031 C 563.734375 1319.378906 558.113281 1325 551.191406 1325 Z M 551.191406 1325 " fill-opacity="1" fill-rule="evenodd"/></g><path fill="#000000" d="M 939.351562 1150.242188 C 936.214844 1150.242188 933.601562 1152.878906 933.601562 1155.992188 L 933.601562 1194.066406 C 933.601562 1197.175781 936.214844 1199.816406 939.351562 1199.816406 L 1094.523438 1199.816406 C 1097.660156 1199.816406 1100.296875 1197.179688 1100.296875 1194.070312 L 1100.296875 1155.988281 C 1100.296875 1152.878906 1097.65625 1150.242188 1094.523438 1150.242188 Z M 1094.523438 1224.90625 L 939.351562 1224.90625 C 922.339844 1224.90625 908.515625 1211.082031 908.515625 1194.070312 L 908.515625 1155.988281 C 908.515625 1139 922.339844 1125.152344 939.351562 1125.152344 L 1094.523438 1125.152344 C 1111.535156 1125.152344 1125.382812 1139.003906 1125.382812 1155.992188 L 1125.386719 1194.066406 C 1125.386719 1211.082031 1111.535156 1224.90625 1094.523438 1224.90625 Z M 1094.523438 1224.90625 " fill-opacity="1" fill-rule="evenodd"/><g clip-path="url(#d46157e8a6)"><path fill="#000000" d="M 949.597656 1325 C 942.675781 1325 937.054688 1319.382812 937.054688 1312.457031 L 937.054688 1212.359375 C 937.054688 1205.4375 942.671875 1199.820312 949.597656 1199.820312 C 956.523438 1199.816406 962.140625 1205.4375 962.140625 1212.363281 L 962.140625 1312.457031 C 962.140625 1319.378906 956.523438 1325 949.597656 1325 Z M 1084.28125 1325 C 1077.355469 1325 1071.738281 1319.382812 1071.738281 1312.457031 L 1071.738281 1212.359375 C 1071.738281 1205.4375 1077.355469 1199.820312 1084.28125 1199.820312 C 1091.207031 1199.816406 1096.824219 1205.4375 1096.824219 1212.363281 L 1096.824219 1312.457031 C 1096.824219 1319.378906 1091.207031 1325 1084.28125 1325 Z M 1084.28125 1325 " fill-opacity="1" fill-rule="evenodd"/></g><path fill="#000000" d="M 340.410156 989.492188 L 340.4375 989.492188 Z M 456.960938 954.761719 C 455.941406 954.761719 454.917969 954.96875 453.980469 955.363281 L 345.273438 1001.042969 C 343.363281 1001.851562 341.875 1003.371094 341.0625 1005.332031 C 340.28125 1007.261719 340.28125 1009.40625 341.0625 1011.316406 L 352.535156 1038.570312 C 353.34375 1040.480469 354.859375 1041.96875 356.792969 1042.753906 C 358.753906 1043.5625 360.871094 1043.566406 362.777344 1042.753906 L 471.488281 997.046875 C 473.398438 996.261719 474.882812 994.746094 475.695312 992.785156 C 476.480469 990.824219 476.476562 988.710938 475.667969 986.800781 L 464.222656 959.542969 C 463.414062 957.632812 461.898438 956.144531 459.960938 955.363281 C 458.996094 954.96875 457.976562 954.761719 456.960938 954.761719 Z M 359.800781 1068.441406 C 355.566406 1068.441406 351.359375 1067.632812 347.308594 1065.988281 C 339.15625 1062.667969 332.804688 1056.371094 329.410156 1048.296875 L 317.9375 1021.035156 C 314.539062 1012.933594 314.511719 1003.996094 317.832031 995.84375 C 321.179688 987.6875 327.449219 981.3125 335.550781 977.941406 L 444.257812 932.230469 C 452.335938 928.835938 461.269531 928.785156 469.449219 932.128906 C 477.601562 935.445312 483.953125 941.746094 487.347656 949.820312 L 498.796875 977.078125 C 502.21875 985.152344 502.246094 994.121094 498.925781 1002.273438 C 495.582031 1010.425781 489.308594 1016.777344 481.207031 1020.175781 L 372.5 1065.882812 C 368.421875 1067.609375 364.113281 1068.445312 359.800781 1068.441406 Z M 359.800781 1068.441406 " fill-opacity="1" fill-rule="evenodd"/><path fill="#000000" d="M 1043.859375 954.753906 C 1040.800781 954.753906 1037.820312 956.585938 1036.566406 959.539062 L 1025.121094 986.792969 C 1023.476562 990.714844 1025.382812 995.394531 1029.300781 997.042969 L 1138.011719 1042.746094 C 1139.921875 1043.558594 1142.035156 1043.558594 1143.996094 1042.75 C 1145.953125 1041.964844 1147.46875 1040.476562 1148.253906 1038.566406 L 1159.726562 1011.308594 C 1160.511719 1009.398438 1160.511719 1007.257812 1159.726562 1005.324219 C 1158.917969 1003.363281 1157.425781 1001.851562 1155.546875 1001.039062 L 1046.8125 955.355469 C 1045.871094 954.964844 1044.851562 954.753906 1043.859375 954.753906 Z M 1140.988281 1068.4375 C 1136.679688 1068.4375 1132.367188 1067.605469 1128.289062 1065.878906 L 1019.582031 1020.171875 C 1002.832031 1013.136719 994.964844 993.800781 1001.992188 977.074219 L 1013.441406 949.8125 C 1020.472656 933.089844 1039.808594 925.199219 1056.53125 932.226562 L 1165.265625 977.9375 C 1173.34375 981.308594 1179.613281 987.683594 1182.957031 995.839844 C 1186.277344 1003.992188 1186.25 1012.929688 1182.851562 1021.03125 L 1171.382812 1048.289062 C 1167.984375 1056.363281 1161.632812 1062.664062 1153.480469 1065.984375 C 1149.433594 1067.628906 1145.222656 1068.441406 1140.988281 1068.4375 Z M 1140.988281 1068.4375 " fill-opacity="1" fill-rule="evenodd"/><path fill="#000000" d="M 884.84375 612.164062 L 615.945312 612.164062 C 583.121094 612.164062 556.414062 585.480469 556.414062 552.65625 L 556.414062 502.714844 C 556.414062 495.789062 562.03125 490.195312 568.957031 490.195312 C 575.882812 490.195312 581.5 495.789062 581.5 502.714844 L 581.5 552.65625 C 581.5 571.628906 596.945312 587.101562 615.941406 587.101562 L 884.84375 587.101562 C 903.839844 587.101562 919.28125 571.628906 919.28125 552.65625 L 919.28125 502.714844 C 919.28125 495.789062 924.898438 490.195312 931.824219 490.195312 C 938.75 490.195312 944.367188 495.789062 944.367188 502.714844 L 944.367188 552.65625 C 944.367188 585.480469 917.660156 612.164062 884.84375 612.164062 Z M 884.84375 612.164062 " fill-opacity="1" fill-rule="evenodd"/><path fill="#000000" d="M 571.597656 430.738281 C 560.988281 430.738281 552.339844 439.363281 552.339844 450 L 552.339844 470.910156 C 552.339844 481.542969 560.988281 490.195312 571.597656 490.195312 L 929.1875 490.195312 C 939.796875 490.195312 948.445312 481.546875 948.445312 470.910156 L 948.449219 450 C 948.449219 439.363281 939.796875 430.742188 929.1875 430.742188 Z M 929.1875 515.257812 L 571.597656 515.257812 C 547.140625 515.257812 527.253906 495.371094 527.253906 470.910156 L 527.253906 450 C 527.253906 425.539062 547.140625 405.652344 571.597656 405.652344 L 929.1875 405.652344 C 953.648438 405.652344 973.53125 425.539062 973.53125 450 L 973.53125 470.910156 C 973.53125 495.371094 953.648438 515.257812 929.1875 515.257812 Z M 929.1875 515.257812 " fill-opacity="1" fill-rule="evenodd"/><g clip-path="url(#3c1229fabf)"><path fill="#000000" d="M 960.992188 475.21875 C 956.363281 475.21875 951.894531 472.632812 949.726562 468.191406 C 946.671875 461.972656 949.253906 454.445312 955.472656 451.414062 L 1047.984375 406.09375 C 1059.609375 400.394531 1066.484375 389.710938 1066.824219 376.746094 C 1067.164062 363.519531 1060.839844 352.285156 1049.890625 346.667969 L 779.921875 208.390625 C 760.613281 198.511719 740.175781 198.511719 720.863281 208.390625 L 450.898438 346.667969 C 439.945312 352.285156 433.621094 363.523438 433.960938 376.746094 C 434.300781 389.710938 441.171875 400.398438 452.800781 406.097656 L 545.308594 451.414062 C 551.53125 454.445312 554.113281 461.972656 551.058594 468.191406 C 548.027344 474.410156 540.5 476.972656 534.28125 473.941406 L 441.773438 428.621094 C 421.757812 418.824219 409.476562 399.667969 408.898438 377.402344 C 408.300781 354.296875 419.71875 334.460938 439.449219 324.347656 L 709.441406 186.070312 C 735.835938 172.53125 764.945312 172.535156 791.339844 186.070312 L 1061.335938 324.347656 C 1081.066406 334.460938 1092.511719 354.296875 1091.910156 377.402344 C 1091.332031 399.664062 1079.027344 418.824219 1059.007812 428.625 L 966.503906 473.941406 C 964.726562 474.800781 962.84375 475.222656 960.992188 475.21875 Z M 960.992188 475.21875 " fill-opacity="1" fill-rule="evenodd"/></g><path fill="#000000" d="M 750.394531 270.460938 C 727.921875 270.460938 709.628906 288.753906 709.628906 311.230469 C 709.628906 333.703125 727.917969 352 750.394531 352 C 772.867188 351.996094 791.160156 333.703125 791.160156 311.230469 C 791.160156 288.753906 772.867188 270.460938 750.394531 270.460938 Z M 750.394531 377.085938 C 714.070312 377.085938 684.539062 347.554688 684.539062 311.230469 C 684.542969 274.902344 714.070312 245.371094 750.394531 245.371094 C 786.71875 245.371094 816.246094 274.902344 816.246094 311.230469 C 816.246094 347.554688 786.714844 377.085938 750.394531 377.085938 Z M 750.394531 377.085938 " fill-opacity="1" fill-rule="evenodd"/><path fill="#000000" d="M 640.640625 321.417969 L 604.578125 321.417969 C 597.65625 321.417969 592.035156 315.804688 592.035156 308.875 C 592.035156 301.949219 597.652344 296.332031 604.578125 296.332031 L 640.640625 296.332031 C 647.5625 296.332031 653.183594 301.953125 653.183594 308.875 C 653.183594 315.800781 647.5625 321.421875 640.640625 321.417969 Z M 640.640625 321.417969 " fill-opacity="1" fill-rule="evenodd"/><path fill="#000000" d="M 896.210938 321.417969 L 860.148438 321.417969 C 853.226562 321.417969 847.605469 315.804688 847.605469 308.875 C 847.609375 301.949219 853.226562 296.332031 860.148438 296.332031 L 896.210938 296.332031 C 903.140625 296.332031 908.753906 301.953125 908.753906 308.875 C 908.757812 315.800781 903.136719 321.421875 896.210938 321.417969 Z M 896.210938 321.417969 " fill-opacity="1" fill-rule="evenodd"/><path fill="#000000" d="M 640.640625 373.949219 L 604.578125 373.949219 C 597.65625 373.949219 592.035156 368.332031 592.035156 361.40625 C 592.035156 354.480469 597.652344 348.863281 604.578125 348.863281 L 640.640625 348.863281 C 647.5625 348.863281 653.183594 354.480469 653.183594 361.40625 C 653.183594 368.332031 647.5625 373.953125 640.640625 373.949219 Z M 640.640625 373.949219 " fill-opacity="1" fill-rule="evenodd"/><path fill="#000000" d="M 896.210938 373.949219 L 860.148438 373.949219 C 853.226562 373.949219 847.605469 368.332031 847.605469 361.40625 C 847.609375 354.480469 853.226562 348.863281 860.148438 348.863281 L 896.210938 348.863281 C 903.140625 348.863281 908.753906 354.480469 908.753906 361.40625 C 908.757812 368.332031 903.136719 373.953125 896.210938 373.949219 Z M 896.210938 373.949219 " fill-opacity="1" fill-rule="evenodd"/></svg>