<svg xmlns="http://www.w3.org/2000/svg" xmlns:xlink="http://www.w3.org/1999/xlink" width="2000" zoomAndPan="magnify" viewBox="0 0 1500 1499.999933" height="2000" preserveAspectRatio="xMidYMid meet" version="1.0"><defs><clipPath id="bcd64523d2"><path d="M 281.078125 175.597656 L 1218.578125 175.597656 L 1218.578125 1324.597656 L 281.078125 1324.597656 Z M 281.078125 175.597656 " clip-rule="nonzero"/></clipPath></defs><rect x="-150" width="1800" fill="#ffffff" y="-149.999993" height="1799.99992" fill-opacity="1"/><rect x="-150" width="1800" fill="#ffffff" y="-149.999993" height="1799.99992" fill-opacity="1"/><g clip-path="url(#bcd64523d2)"><path fill="#000000" d="M 604.101562 1324.398438 C 426.269531 1324.398438 281.519531 1179.652344 281.519531 1001.816406 C 281.519531 929.210938 332.984375 801.007812 434.308594 620.644531 C 508.75 488.074219 584.113281 374.339844 584.800781 373.191406 C 589.167969 366.757812 596.289062 362.851562 603.871094 362.851562 C 611.453125 362.851562 618.804688 366.757812 622.941406 373.191406 C 623.632812 374.339844 699.222656 488.074219 773.664062 620.644531 C 874.988281 801.007812 926.457031 929.210938 926.457031 1001.816406 C 926.457031 1179.652344 781.9375 1324.398438 604.101562 1324.398438 Z M 604.101562 428.105469 C 577.21875 470.152344 525.523438 552.175781 474.289062 643.390625 C 352.972656 859.363281 327.699219 957.472656 327.699219 1001.816406 C 327.472656 1154.375 451.542969 1278.449219 604.101562 1278.449219 C 756.664062 1278.449219 880.734375 1154.375 880.734375 1001.816406 C 880.734375 957.472656 855.230469 859.136719 734.144531 643.390625 C 682.679688 552.175781 630.984375 469.921875 604.101562 428.105469 Z M 640.402344 1164.488281 C 702.4375 1130.023438 752.066406 1075.339844 780.097656 1010.546875 C 785.152344 998.828125 779.867188 985.273438 768.152344 980.21875 C 756.433594 975.164062 742.878906 980.449219 737.824219 992.167969 C 713.699219 1047.769531 671.191406 1094.871094 617.886719 1124.277344 C 606.859375 1130.480469 602.722656 1144.496094 608.925781 1155.527344 C 613.0625 1163.109375 620.875 1167.242188 629.144531 1167.242188 C 633.050781 1167.242188 636.726562 1166.324219 640.402344 1164.488281 Z M 1028.238281 732.539062 C 923.46875 732.539062 837.996094 647.296875 837.996094 542.296875 C 837.996094 445.796875 991.476562 212.128906 1008.9375 185.707031 C 1013.304688 179.273438 1020.425781 175.367188 1028.007812 175.367188 C 1035.589844 175.367188 1042.945312 179.273438 1047.078125 185.707031 C 1064.542969 212.128906 1218.019531 445.796875 1218.019531 542.296875 C 1218.480469 647.296875 1133.238281 732.539062 1028.238281 732.539062 Z M 1028.238281 240.851562 C 975.394531 324.023438 883.949219 480.71875 883.949219 542.527344 C 883.949219 622.023438 948.742188 686.816406 1028.238281 686.816406 C 1107.734375 686.816406 1172.527344 622.023438 1172.527344 542.527344 C 1172.527344 480.71875 1081.085938 324.023438 1028.238281 240.851562 Z M 1039.726562 619.265625 C 1068.90625 603.183594 1093.492188 579.289062 1110.722656 550.796875 C 1117.15625 540 1113.710938 525.753906 1102.910156 519.320312 C 1092.113281 512.886719 1077.867188 516.332031 1071.433594 527.132812 C 1058.335938 548.960938 1039.726562 566.878906 1017.671875 579.058594 C 1006.640625 585.261719 1002.507812 599.277344 1008.710938 610.304688 C 1012.84375 617.886719 1020.65625 622.023438 1028.929688 622.023438 C 1032.375 622.023438 1036.050781 621.105469 1039.726562 619.265625 Z M 1039.726562 619.265625 " fill-opacity="1" fill-rule="nonzero"/></g></svg>