<svg xmlns="http://www.w3.org/2000/svg" xmlns:xlink="http://www.w3.org/1999/xlink" width="2000" zoomAndPan="magnify" viewBox="0 0 1500 1499.999933" height="2000" preserveAspectRatio="xMidYMid meet" version="1.0"><defs><clipPath id="1cde04339b"><path d="M 206.472656 175.597656 L 1293 175.597656 L 1293 1324 L 206.472656 1324 Z M 206.472656 175.597656 " clip-rule="nonzero"/></clipPath></defs><rect x="-150" width="1800" fill="#ffffff" y="-149.999993" height="1799.99992" fill-opacity="1"/><rect x="-150" width="1800" fill="#ffffff" y="-149.999993" height="1799.99992" fill-opacity="1"/><path fill="#000000" d="M 946.644531 511.8125 C 935.882812 522.578125 929.882812 536.859375 929.882812 551.972656 C 929.882812 567.085938 935.882812 581.578125 946.644531 592.136719 C 957.816406 603.316406 972.304688 608.699219 986.789062 608.699219 C 1001.273438 608.699219 1015.964844 603.109375 1026.933594 592.136719 C 1037.695312 581.371094 1043.695312 567.085938 1043.695312 551.972656 C 1043.695312 536.859375 1037.695312 522.371094 1026.933594 511.8125 C 1004.792969 489.660156 968.578125 489.660156 946.4375 511.8125 Z M 1005 570.398438 C 994.859375 580.542969 978.511719 580.542969 968.371094 570.398438 C 963.40625 565.429688 960.714844 559.011719 960.714844 552.179688 C 960.714844 545.347656 963.40625 538.722656 968.371094 533.960938 C 973.339844 528.992188 979.960938 526.300781 986.582031 526.300781 C 993.203125 526.300781 999.824219 528.785156 1004.792969 533.960938 C 1009.757812 538.929688 1012.449219 545.347656 1012.449219 552.179688 C 1012.449219 559.011719 1009.757812 565.636719 1004.792969 570.398438 Z M 1005 570.398438 " fill-opacity="1" fill-rule="nonzero"/><path fill="#000000" d="M 986.789062 412.4375 C 949.539062 412.4375 914.363281 426.929688 888.082031 453.429688 C 882.078125 459.433594 882.078125 469.371094 888.082031 475.375 C 894.082031 481.378906 904.015625 481.378906 910.015625 475.375 C 930.503906 454.878906 957.816406 443.492188 986.789062 443.492188 C 1015.757812 443.492188 1043.074219 454.878906 1063.5625 475.375 C 1066.664062 478.480469 1070.597656 479.929688 1074.53125 479.929688 C 1078.460938 479.929688 1082.394531 478.480469 1085.496094 475.375 C 1091.496094 469.371094 1091.496094 459.433594 1085.496094 453.429688 C 1059.214844 427.136719 1024.035156 412.4375 986.789062 412.4375 Z M 986.789062 412.4375 " fill-opacity="1" fill-rule="nonzero"/><path fill="#000000" d="M 986.789062 329.421875 C 927.398438 329.421875 871.527344 352.605469 829.519531 394.632812 C 823.515625 400.636719 823.515625 410.574219 829.519531 416.578125 C 835.519531 422.582031 845.453125 422.582031 851.453125 416.578125 C 887.667969 380.347656 935.675781 360.472656 986.789062 360.472656 C 1037.902344 360.472656 1085.910156 380.347656 1122.125 416.578125 C 1125.230469 419.683594 1129.160156 421.132812 1133.09375 421.132812 C 1137.023438 421.132812 1140.957031 419.683594 1144.058594 416.578125 C 1150.0625 410.574219 1150.0625 400.636719 1144.058594 394.632812 C 1102.050781 352.605469 1046.179688 329.417969 986.789062 329.417969 Z M 986.789062 329.421875 " fill-opacity="1" fill-rule="nonzero"/><path fill="#000000" d="M 986.789062 246.816406 C 905.257812 246.816406 828.691406 278.492188 770.957031 336.25 C 764.953125 342.253906 764.953125 352.191406 770.957031 358.195312 C 776.957031 364.199219 786.890625 364.199219 792.890625 358.195312 C 844.625 306.441406 913.535156 277.871094 986.789062 277.871094 C 1060.042969 277.871094 1128.953125 306.441406 1180.6875 358.195312 C 1183.792969 361.300781 1187.722656 362.75 1191.65625 362.75 C 1195.585938 362.75 1199.519531 361.300781 1202.621094 358.195312 C 1208.625 352.191406 1208.625 342.253906 1202.621094 336.25 C 1144.886719 278.492188 1068.320312 246.816406 986.789062 246.816406 Z M 986.789062 246.816406 " fill-opacity="1" fill-rule="nonzero"/><g clip-path="url(#1cde04339b)"><path fill="#000000" d="M 1193.722656 174.5625 L 779.851562 174.5625 C 725.636719 174.5625 681.558594 218.660156 681.558594 272.902344 L 681.558594 381.589844 L 303.902344 381.589844 C 249.683594 381.589844 205.609375 425.6875 205.609375 479.929688 L 205.609375 1225.226562 C 205.609375 1279.46875 249.683594 1323.5625 303.902344 1323.5625 L 759.160156 1323.5625 C 813.378906 1323.5625 857.453125 1279.46875 857.453125 1225.226562 L 857.453125 681.78125 L 1193.722656 681.78125 C 1247.941406 681.78125 1292.019531 637.683594 1292.019531 583.441406 L 1292.019531 272.902344 C 1292.019531 218.660156 1247.941406 174.5625 1193.722656 174.5625 Z M 598.785156 1292.507812 L 303.902344 1292.507812 C 266.859375 1292.507812 236.648438 1262.285156 236.648438 1225.226562 L 236.648438 479.929688 C 236.648438 442.871094 266.859375 412.644531 303.902344 412.644531 L 598.785156 412.644531 Z M 681.558594 583.441406 L 681.558594 1292.507812 L 629.824219 1292.507812 L 629.824219 412.644531 L 681.558594 412.644531 Z M 826.414062 1225.226562 C 826.414062 1262.285156 796.203125 1292.507812 759.160156 1292.507812 L 712.597656 1292.507812 L 712.597656 654.867188 C 730.1875 671.429688 753.78125 681.78125 779.851562 681.78125 L 826.414062 681.78125 Z M 1260.976562 583.441406 C 1260.976562 620.5 1230.765625 650.726562 1193.722656 650.726562 L 779.851562 650.726562 C 742.8125 650.726562 712.597656 620.5 712.597656 583.441406 L 712.597656 272.902344 C 712.597656 235.84375 742.8125 205.617188 779.851562 205.617188 L 1193.722656 205.617188 C 1230.765625 205.617188 1260.976562 235.84375 1260.976562 272.902344 Z M 1260.976562 583.441406 " fill-opacity="1" fill-rule="nonzero"/></g><path fill="#000000" d="M 386.675781 1126.886719 L 360.808594 1126.886719 L 360.808594 1033.726562 L 407.371094 1033.726562 C 415.855469 1033.726562 422.890625 1026.6875 422.890625 1018.199219 C 422.890625 1009.710938 415.855469 1002.671875 407.371094 1002.671875 L 360.808594 1002.671875 L 360.808594 950.914062 L 407.371094 950.914062 C 415.855469 950.914062 422.890625 943.875 422.890625 935.386719 C 422.890625 926.898438 415.855469 919.859375 407.371094 919.859375 L 345.289062 919.859375 C 336.804688 919.859375 329.769531 926.898438 329.769531 935.386719 L 329.769531 1129.371094 C 305.972656 1136.203125 288.382812 1157.941406 288.382812 1183.820312 C 288.382812 1215.289062 313.835938 1240.753906 345.289062 1240.753906 L 386.675781 1240.753906 C 418.128906 1240.753906 443.582031 1215.289062 443.582031 1183.820312 C 443.582031 1152.351562 418.128906 1126.886719 386.675781 1126.886719 Z M 386.675781 1209.699219 L 345.289062 1209.699219 C 331.011719 1209.699219 319.421875 1198.105469 319.421875 1183.820312 C 319.421875 1169.535156 331.011719 1157.941406 345.289062 1157.941406 L 386.675781 1157.941406 C 400.953125 1157.941406 412.542969 1169.535156 412.542969 1183.820312 C 412.542969 1198.105469 400.953125 1209.699219 386.675781 1209.699219 Z M 386.675781 1209.699219 " fill-opacity="1" fill-rule="nonzero"/><path fill="#000000" d="M 288.382812 500.632812 C 288.382812 509.121094 295.417969 516.160156 303.902344 516.160156 L 386.675781 516.160156 C 395.160156 516.160156 402.195312 509.121094 402.195312 500.632812 C 402.195312 492.144531 395.160156 485.105469 386.675781 485.105469 L 303.902344 485.105469 C 295.417969 485.105469 288.382812 492.144531 288.382812 500.632812 Z M 288.382812 500.632812 " fill-opacity="1" fill-rule="nonzero"/><path fill="#000000" d="M 288.382812 583.441406 C 288.382812 591.929688 295.417969 598.96875 303.902344 598.96875 L 510.835938 598.96875 C 519.320312 598.96875 526.359375 591.929688 526.359375 583.441406 C 526.359375 574.953125 519.320312 567.914062 510.835938 567.914062 L 303.902344 567.914062 C 295.417969 567.914062 288.382812 574.953125 288.382812 583.441406 Z M 288.382812 583.441406 " fill-opacity="1" fill-rule="nonzero"/><path fill="#000000" d="M 510.835938 650.726562 L 303.902344 650.726562 C 295.417969 650.726562 288.382812 657.765625 288.382812 666.253906 C 288.382812 674.742188 295.417969 681.78125 303.902344 681.78125 L 510.835938 681.78125 C 519.320312 681.78125 526.359375 674.742188 526.359375 666.253906 C 526.359375 657.765625 519.320312 650.726562 510.835938 650.726562 Z M 510.835938 650.726562 " fill-opacity="1" fill-rule="nonzero"/><path fill="#000000" d="M 510.835938 733.535156 L 303.902344 733.535156 C 295.417969 733.535156 288.382812 740.574219 288.382812 749.0625 C 288.382812 757.550781 295.417969 764.589844 303.902344 764.589844 L 510.835938 764.589844 C 519.320312 764.589844 526.359375 757.550781 526.359375 749.0625 C 526.359375 740.574219 519.320312 733.535156 510.835938 733.535156 Z M 510.835938 733.535156 " fill-opacity="1" fill-rule="nonzero"/></svg>