<svg xmlns="http://www.w3.org/2000/svg" xmlns:xlink="http://www.w3.org/1999/xlink" width="2000" zoomAndPan="magnify" viewBox="0 0 1500 1499.999933" height="2000" preserveAspectRatio="xMidYMid meet" version="1.0"><defs><clipPath id="99cacea8a3"><path d="M 214.632812 214.632812 L 1285.632812 214.632812 L 1285.632812 1285.632812 L 214.632812 1285.632812 Z M 214.632812 214.632812 " clip-rule="nonzero"/></clipPath><clipPath id="6b96b7604a"><path d="M 300.265625 300.265625 L 1199.515625 300.265625 L 1199.515625 1199.515625 L 300.265625 1199.515625 Z M 300.265625 300.265625 " clip-rule="nonzero"/></clipPath></defs><rect x="-150" width="1800" fill="#ffffff" y="-149.999993" height="1799.99992" fill-opacity="1"/><rect x="-150" width="1800" fill="#ffffff" y="-149.999993" height="1799.99992" fill-opacity="1"/><path fill="#000000" d="M 1001.371094 867.496094 L 498.894531 867.496094 C 492.871094 867.496094 487.960938 862.585938 487.960938 856.5625 C 487.960938 850.539062 492.871094 845.628906 498.894531 845.628906 L 1001.59375 845.628906 C 1007.617188 845.628906 1012.527344 850.539062 1012.527344 856.5625 C 1012.527344 862.585938 1007.394531 867.496094 1001.371094 867.496094 Z M 1001.371094 750.578125 L 498.894531 750.578125 C 492.871094 750.578125 487.960938 745.671875 487.960938 739.644531 C 487.960938 733.621094 492.871094 728.710938 498.894531 728.710938 L 1001.59375 728.710938 C 1007.617188 728.710938 1012.527344 733.621094 1012.527344 739.644531 C 1012.527344 745.671875 1007.394531 750.578125 1001.371094 750.578125 Z M 1001.371094 750.578125 " fill-opacity="1" fill-rule="nonzero"/><path fill="#000000" d="M 498.894531 867.496094 L 424.59375 867.496094 C 418.570312 867.496094 413.660156 862.585938 413.660156 856.5625 L 413.660156 654.859375 C 413.660156 648.832031 418.570312 643.925781 424.59375 643.925781 L 498.894531 643.925781 C 504.917969 643.925781 509.828125 648.832031 509.828125 654.859375 L 509.828125 856.785156 C 509.828125 862.585938 504.695312 867.496094 498.894531 867.496094 Z M 435.527344 845.628906 L 487.738281 845.628906 L 487.738281 665.566406 L 435.527344 665.566406 Z M 435.527344 845.628906 " fill-opacity="1" fill-rule="nonzero"/><path fill="#000000" d="M 1075.671875 867.496094 L 1001.371094 867.496094 C 995.347656 867.496094 990.4375 862.585938 990.4375 856.5625 L 990.4375 654.859375 C 990.4375 648.832031 995.347656 643.925781 1001.371094 643.925781 L 1075.671875 643.925781 C 1081.695312 643.925781 1086.605469 648.832031 1086.605469 654.859375 L 1086.605469 856.785156 C 1086.605469 862.585938 1081.695312 867.496094 1075.671875 867.496094 Z M 1012.527344 845.628906 L 1064.738281 845.628906 L 1064.738281 665.566406 L 1012.527344 665.566406 Z M 1012.527344 845.628906 " fill-opacity="1" fill-rule="nonzero"/><path fill="#000000" d="M 730.050781 750.578125 L 642.585938 750.578125 C 636.5625 750.578125 631.652344 745.671875 631.652344 739.644531 C 631.652344 733.621094 636.5625 728.710938 642.585938 728.710938 L 719.117188 728.710938 L 719.117188 613.355469 C 719.117188 589.929688 700.152344 570.964844 676.726562 570.964844 L 586.804688 570.964844 C 563.378906 570.964844 544.410156 589.929688 544.410156 613.355469 L 544.410156 739.644531 C 544.410156 745.671875 539.503906 750.578125 533.476562 750.578125 C 527.453125 750.578125 522.546875 745.671875 522.546875 739.644531 L 522.546875 613.355469 C 522.546875 577.878906 551.328125 548.875 587.027344 548.875 L 676.949219 548.875 C 712.425781 548.875 741.429688 577.65625 741.429688 613.355469 L 741.429688 739.644531 C 740.984375 745.671875 736.074219 750.578125 730.050781 750.578125 Z M 730.050781 750.578125 " fill-opacity="1" fill-rule="nonzero"/><path fill="#000000" d="M 967.011719 750.578125 C 960.984375 750.578125 956.078125 745.671875 956.078125 739.644531 L 956.078125 613.355469 C 956.078125 589.929688 937.113281 570.964844 913.683594 570.964844 L 823.765625 570.964844 C 800.335938 570.964844 781.371094 589.929688 781.371094 613.355469 L 781.371094 739.644531 C 781.371094 745.671875 776.460938 750.578125 770.4375 750.578125 C 764.191406 750.578125 759.503906 745.671875 759.503906 739.644531 L 759.503906 613.355469 C 759.503906 577.878906 788.285156 548.875 823.988281 548.875 L 913.90625 548.875 C 949.382812 548.875 978.390625 577.65625 978.390625 613.355469 L 978.390625 739.644531 C 977.71875 745.671875 972.8125 750.578125 967.011719 750.578125 Z M 967.011719 750.578125 " fill-opacity="1" fill-rule="nonzero"/><path fill="#000000" d="M 527.453125 951.390625 L 470.109375 951.390625 C 464.085938 951.390625 459.179688 946.484375 459.179688 940.457031 L 459.179688 856.5625 C 459.179688 850.539062 464.085938 845.628906 470.109375 845.628906 C 476.136719 845.628906 481.042969 850.539062 481.042969 856.5625 L 481.042969 929.300781 L 516.519531 929.300781 L 516.519531 856.5625 C 516.519531 850.539062 521.429688 845.628906 527.453125 845.628906 C 533.476562 845.628906 538.386719 850.539062 538.386719 856.5625 L 538.386719 940.457031 C 538.609375 946.484375 533.703125 951.390625 527.453125 951.390625 Z M 527.453125 951.390625 " fill-opacity="1" fill-rule="nonzero"/><path fill="#000000" d="M 1030.15625 951.390625 L 972.8125 951.390625 C 966.785156 951.390625 961.878906 946.484375 961.878906 940.457031 L 961.878906 856.5625 C 961.878906 850.539062 966.785156 845.628906 972.8125 845.628906 C 978.835938 845.628906 983.746094 850.539062 983.746094 856.5625 L 983.746094 929.300781 L 1019.222656 929.300781 L 1019.222656 856.5625 C 1019.222656 850.539062 1024.128906 845.628906 1030.15625 845.628906 C 1036.402344 845.628906 1041.085938 850.539062 1041.085938 856.5625 L 1041.085938 940.457031 C 1041.085938 946.484375 1036.402344 951.390625 1030.15625 951.390625 Z M 1030.15625 951.390625 " fill-opacity="1" fill-rule="nonzero"/><g clip-path="url(#99cacea8a3)"><path fill="#000000" d="M 750.132812 1285.632812 C 678.0625 1285.632812 608.003906 1271.351562 541.734375 1243.460938 C 477.921875 1216.464844 420.578125 1177.863281 371.488281 1128.777344 C 322.179688 1079.242188 283.578125 1022.121094 256.804688 958.53125 C 228.914062 892.710938 214.632812 822.648438 214.632812 750.132812 C 214.632812 678.0625 228.914062 608.003906 256.804688 541.734375 C 284.023438 477.472656 322.625 420.128906 371.488281 371.488281 C 421.023438 322.179688 478.144531 283.578125 541.734375 256.804688 C 607.554688 228.914062 677.617188 214.632812 750.132812 214.632812 C 822.203125 214.632812 892.261719 228.914062 958.53125 256.804688 C 1022.34375 283.800781 1079.6875 322.402344 1128.777344 371.488281 C 1178.085938 421.023438 1216.6875 478.144531 1243.460938 541.734375 C 1271.351562 608.003906 1285.632812 678.0625 1285.632812 750.132812 C 1285.632812 822.203125 1271.351562 892.261719 1243.460938 958.53125 C 1216.464844 1022.34375 1177.863281 1079.6875 1128.777344 1128.777344 C 1079.242188 1178.085938 1022.121094 1216.6875 958.53125 1243.460938 C 892.710938 1271.351562 822.648438 1285.632812 750.132812 1285.632812 Z M 749.910156 234.492188 C 465.648438 234.492188 234.269531 465.871094 234.269531 750.132812 C 234.269531 1034.394531 465.648438 1265.773438 749.910156 1265.773438 C 1034.171875 1265.773438 1265.550781 1034.394531 1265.550781 750.132812 C 1265.550781 465.871094 1034.171875 234.492188 749.910156 234.492188 Z M 749.910156 234.492188 " fill-opacity="1" fill-rule="nonzero"/></g><g clip-path="url(#6b96b7604a)"><path fill="#ffffff" d="M 1199.726562 749.996094 C 1199.726562 757.355469 1199.546875 764.710938 1199.183594 772.0625 C 1198.824219 779.414062 1198.28125 786.75 1197.558594 794.078125 C 1196.839844 801.402344 1195.9375 808.703125 1194.859375 815.984375 C 1193.777344 823.265625 1192.519531 830.515625 1191.085938 837.734375 C 1189.648438 844.953125 1188.035156 852.132812 1186.25 859.269531 C 1184.460938 866.410156 1182.496094 873.503906 1180.359375 880.546875 C 1178.222656 887.589844 1175.917969 894.574219 1173.4375 901.503906 C 1170.957031 908.433594 1168.308594 915.300781 1165.492188 922.101562 C 1162.675781 928.898438 1159.695312 935.625 1156.546875 942.28125 C 1153.398438 948.933594 1150.09375 955.503906 1146.621094 961.996094 C 1143.152344 968.488281 1139.527344 974.890625 1135.742188 981.203125 C 1131.957031 987.515625 1128.023438 993.730469 1123.933594 999.851562 C 1119.84375 1005.972656 1115.605469 1011.988281 1111.222656 1017.898438 C 1106.839844 1023.8125 1102.3125 1029.613281 1097.640625 1035.300781 C 1092.972656 1040.992188 1088.167969 1046.5625 1083.222656 1052.015625 C 1078.28125 1057.46875 1073.207031 1062.796875 1068.003906 1068.003906 C 1062.796875 1073.207031 1057.46875 1078.28125 1052.015625 1083.222656 C 1046.5625 1088.167969 1040.992188 1092.972656 1035.300781 1097.640625 C 1029.613281 1102.3125 1023.8125 1106.835938 1017.898438 1111.222656 C 1011.988281 1115.605469 1005.972656 1119.84375 999.851562 1123.933594 C 993.734375 1128.023438 987.515625 1131.957031 981.203125 1135.742188 C 974.890625 1139.527344 968.488281 1143.152344 961.996094 1146.621094 C 955.507812 1150.089844 948.933594 1153.398438 942.28125 1156.546875 C 935.625 1159.695312 928.898438 1162.675781 922.101562 1165.492188 C 915.300781 1168.308594 908.433594 1170.957031 901.503906 1173.4375 C 894.574219 1175.914062 887.589844 1178.222656 880.546875 1180.359375 C 873.503906 1182.496094 866.410156 1184.460938 859.269531 1186.246094 C 852.132812 1188.035156 844.953125 1189.648438 837.734375 1191.085938 C 830.515625 1192.519531 823.265625 1193.777344 815.984375 1194.859375 C 808.703125 1195.9375 801.402344 1196.839844 794.078125 1197.558594 C 786.753906 1198.28125 779.414062 1198.824219 772.0625 1199.183594 C 764.710938 1199.546875 757.355469 1199.726562 749.996094 1199.726562 C 742.636719 1199.726562 735.28125 1199.546875 727.929688 1199.183594 C 720.578125 1198.824219 713.238281 1198.28125 705.914062 1197.558594 C 698.589844 1196.839844 691.285156 1195.9375 684.007812 1194.859375 C 676.726562 1193.777344 669.476562 1192.519531 662.257812 1191.085938 C 655.039062 1189.648438 647.859375 1188.035156 640.71875 1186.246094 C 633.582031 1184.460938 626.488281 1182.496094 619.445312 1180.359375 C 612.402344 1178.222656 605.414062 1175.914062 598.484375 1173.4375 C 591.554688 1170.957031 584.691406 1168.308594 577.890625 1165.492188 C 571.089844 1162.675781 564.363281 1159.695312 557.710938 1156.546875 C 551.058594 1153.398438 544.484375 1150.089844 537.996094 1146.621094 C 531.503906 1143.152344 525.101562 1139.527344 518.789062 1135.742188 C 512.476562 1131.957031 506.257812 1128.023438 500.140625 1123.933594 C 494.019531 1119.84375 488.003906 1115.605469 482.089844 1111.222656 C 476.179688 1106.835938 470.378906 1102.3125 464.691406 1097.640625 C 459 1092.972656 453.429688 1088.167969 447.976562 1083.222656 C 442.523438 1078.28125 437.191406 1073.207031 431.988281 1068.003906 C 426.785156 1062.796875 421.710938 1057.46875 416.765625 1052.015625 C 411.824219 1046.5625 407.019531 1040.992188 402.347656 1035.300781 C 397.679688 1029.613281 393.152344 1023.8125 388.769531 1017.898438 C 384.382812 1011.988281 380.148438 1005.972656 376.058594 999.851562 C 371.96875 993.734375 368.03125 987.515625 364.25 981.203125 C 360.464844 974.890625 356.839844 968.488281 353.367188 961.996094 C 349.898438 955.503906 346.589844 948.933594 343.445312 942.28125 C 340.296875 935.625 337.316406 928.898438 334.5 922.101562 C 331.683594 915.300781 329.035156 908.433594 326.554688 901.503906 C 324.074219 894.574219 321.765625 887.589844 319.628906 880.546875 C 317.492188 873.503906 315.53125 866.410156 313.742188 859.269531 C 311.953125 852.132812 310.34375 844.953125 308.90625 837.734375 C 307.472656 830.515625 306.210938 823.265625 305.132812 815.984375 C 304.054688 808.703125 303.152344 801.402344 302.429688 794.078125 C 301.710938 786.753906 301.167969 779.414062 300.808594 772.0625 C 300.445312 764.710938 300.265625 757.355469 300.265625 749.996094 C 300.265625 742.636719 300.445312 735.28125 300.808594 727.929688 C 301.167969 720.578125 301.710938 713.238281 302.429688 705.914062 C 303.152344 698.589844 304.054688 691.285156 305.132812 684.007812 C 306.210938 676.726562 307.472656 669.476562 308.90625 662.257812 C 310.34375 655.039062 311.953125 647.859375 313.742188 640.71875 C 315.53125 633.582031 317.492188 626.488281 319.628906 619.445312 C 321.765625 612.402344 324.074219 605.414062 326.554688 598.484375 C 329.035156 591.554688 331.683594 584.691406 334.5 577.890625 C 337.316406 571.089844 340.296875 564.363281 343.445312 557.710938 C 346.589844 551.058594 349.898438 544.484375 353.367188 537.992188 C 356.839844 531.503906 360.464844 525.101562 364.25 518.789062 C 368.03125 512.476562 371.96875 506.257812 376.058594 500.136719 C 380.148438 494.019531 384.382812 488.003906 388.769531 482.089844 C 393.152344 476.179688 397.679688 470.378906 402.347656 464.691406 C 407.019531 459 411.824219 453.429688 416.765625 447.976562 C 421.710938 442.519531 426.785156 437.191406 431.988281 431.988281 C 437.191406 426.785156 442.523438 421.710938 447.976562 416.765625 C 453.429688 411.824219 459 407.019531 464.691406 402.347656 C 470.378906 397.679688 476.179688 393.152344 482.089844 388.769531 C 488.003906 384.382812 494.019531 380.148438 500.140625 376.058594 C 506.257812 371.96875 512.476562 368.03125 518.789062 364.25 C 525.101562 360.464844 531.503906 356.839844 537.996094 353.367188 C 544.484375 349.898438 551.058594 346.589844 557.710938 343.445312 C 564.363281 340.296875 571.089844 337.316406 577.890625 334.5 C 584.691406 331.683594 591.554688 329.035156 598.484375 326.554688 C 605.414062 324.074219 612.402344 321.765625 619.445312 319.628906 C 626.488281 317.492188 633.582031 315.53125 640.71875 313.742188 C 647.859375 311.953125 655.039062 310.34375 662.257812 308.90625 C 669.476562 307.46875 676.726562 306.210938 684.007812 305.132812 C 691.285156 304.050781 698.589844 303.152344 705.914062 302.429688 C 713.238281 301.710938 720.578125 301.167969 727.929688 300.808594 C 735.28125 300.445312 742.636719 300.265625 749.996094 300.265625 C 757.355469 300.265625 764.710938 300.445312 772.0625 300.808594 C 779.414062 301.167969 786.753906 301.710938 794.078125 302.429688 C 801.402344 303.152344 808.703125 304.050781 815.984375 305.132812 C 823.265625 306.210938 830.515625 307.46875 837.734375 308.90625 C 844.953125 310.34375 852.132812 311.953125 859.269531 313.742188 C 866.410156 315.53125 873.503906 317.492188 880.546875 319.628906 C 887.589844 321.765625 894.574219 324.074219 901.503906 326.554688 C 908.433594 329.035156 915.300781 331.683594 922.101562 334.5 C 928.898438 337.316406 935.625 340.296875 942.28125 343.445312 C 948.933594 346.589844 955.507812 349.898438 961.996094 353.367188 C 968.488281 356.839844 974.890625 360.464844 981.203125 364.25 C 987.515625 368.03125 993.734375 371.96875 999.851562 376.058594 C 1005.972656 380.148438 1011.988281 384.382812 1017.898438 388.769531 C 1023.8125 393.152344 1029.613281 397.679688 1035.300781 402.347656 C 1040.992188 407.019531 1046.5625 411.824219 1052.015625 416.765625 C 1057.46875 421.710938 1062.796875 426.785156 1068.003906 431.988281 C 1073.207031 437.191406 1078.28125 442.519531 1083.222656 447.976562 C 1088.167969 453.429688 1092.972656 459 1097.640625 464.691406 C 1102.3125 470.378906 1106.839844 476.179688 1111.222656 482.089844 C 1115.605469 488.003906 1119.84375 494.019531 1123.933594 500.136719 C 1128.023438 506.257812 1131.957031 512.476562 1135.742188 518.789062 C 1139.527344 525.101562 1143.152344 531.503906 1146.621094 537.992188 C 1150.09375 544.484375 1153.398438 551.058594 1156.546875 557.710938 C 1159.695312 564.363281 1162.675781 571.089844 1165.492188 577.890625 C 1168.308594 584.691406 1170.957031 591.554688 1173.4375 598.484375 C 1175.917969 605.414062 1178.222656 612.402344 1180.359375 619.445312 C 1182.496094 626.488281 1184.460938 633.582031 1186.25 640.71875 C 1188.035156 647.859375 1189.648438 655.039062 1191.085938 662.257812 C 1192.519531 669.476562 1193.777344 676.726562 1194.859375 684.007812 C 1195.9375 691.285156 1196.839844 698.589844 1197.558594 705.914062 C 1198.28125 713.238281 1198.824219 720.578125 1199.183594 727.929688 C 1199.546875 735.28125 1199.726562 742.636719 1199.726562 749.996094 Z M 1199.726562 749.996094 " fill-opacity="1" fill-rule="nonzero"/></g><path fill="#000000" d="M 687.917969 1038.121094 L 518.550781 1038.121094 C 514.839844 1038.121094 511.804688 1035.082031 511.804688 1031.371094 L 511.804688 671.046875 C 511.804688 658.902344 520.914062 649.792969 533.734375 649.792969 L 533.734375 631.910156 C 533.734375 619.765625 543.855469 609.644531 556 609.644531 L 559.710938 609.644531 L 559.710938 570.507812 C 559.710938 561.734375 573.207031 561.734375 573.207031 570.507812 L 573.207031 609.644531 L 582.316406 609.644531 L 582.316406 588.726562 C 582.316406 579.953125 595.8125 579.953125 595.8125 588.726562 L 595.8125 609.644531 L 650.46875 609.644531 C 662.613281 609.644531 672.734375 619.765625 672.734375 631.910156 L 672.734375 649.792969 C 685.554688 649.792969 694.664062 658.902344 694.664062 671.046875 L 694.664062 715.246094 L 767.203125 715.246094 L 767.203125 468.957031 C 767.203125 464.234375 771.925781 460.859375 776.3125 462.546875 L 984.140625 542.503906 C 986.835938 543.515625 988.523438 546.214844 988.523438 548.914062 L 988.523438 1030.699219 C 988.523438 1034.410156 985.488281 1037.445312 981.777344 1037.445312 C 912.277344 1037.445312 843.113281 1037.445312 773.949219 1037.445312 C 770.238281 1037.445312 767.203125 1034.410156 767.203125 1030.699219 L 767.203125 849.1875 L 694.664062 849.1875 L 694.664062 1031.371094 C 694.664062 1035.082031 691.628906 1038.121094 687.917969 1038.121094 Z M 877.863281 664.300781 C 870.441406 664.300781 871.117188 656.539062 871.117188 652.828125 C 848.171875 652.828125 849.523438 654.855469 849.523438 634.273438 C 849.523438 625.5 863.019531 625.5 863.019531 634.273438 L 863.019531 639.335938 L 892.707031 639.335938 L 892.707031 619.089844 L 856.269531 619.089844 C 851.886719 619.089844 848.847656 615.71875 849.859375 610.320312 L 849.859375 578.605469 C 849.859375 569.832031 861.667969 571.859375 871.117188 571.859375 C 871.117188 567.808594 870.105469 560.050781 877.863281 560.050781 C 885.285156 560.050781 884.609375 567.808594 884.609375 571.859375 C 907.554688 571.859375 906.203125 569.496094 906.203125 591.761719 C 906.203125 600.535156 892.707031 600.535156 892.707031 591.761719 L 892.707031 585.351562 L 863.355469 585.351562 L 863.355469 605.597656 L 899.457031 605.597656 C 903.167969 605.597656 906.203125 608.632812 906.203125 612.34375 C 906.203125 657.550781 910.589844 652.828125 884.609375 652.828125 C 884.609375 656.539062 885.285156 664.300781 877.863281 664.300781 Z M 975.03125 850.535156 L 857.957031 850.535156 C 844.125 850.535156 832.652344 839.0625 832.652344 825.570312 L 832.652344 798.578125 C 832.652344 785.082031 844.125 773.613281 857.957031 773.613281 L 975.03125 773.613281 L 975.03125 553.640625 L 780.699219 478.738281 L 780.699219 669.023438 L 898.105469 669.023438 C 911.601562 669.023438 923.074219 680.15625 923.074219 693.988281 L 923.074219 720.644531 C 923.074219 734.476562 911.9375 745.609375 898.105469 745.609375 L 780.699219 745.609375 L 780.699219 1023.949219 L 814.097656 1023.949219 L 814.097656 917.675781 C 814.097656 908.902344 820.847656 902.15625 829.28125 902.15625 C 861.667969 902.15625 894.058594 902.15625 926.445312 902.15625 C 934.882812 902.15625 941.964844 909.238281 941.964844 917.675781 L 941.964844 1023.949219 L 975.03125 1023.949219 Z M 975.03125 787.109375 L 857.957031 787.109375 C 851.546875 787.109375 846.148438 792.503906 846.148438 798.578125 L 846.148438 825.570312 C 846.148438 831.640625 851.546875 837.039062 857.957031 837.039062 L 975.03125 837.039062 Z M 780.699219 732.113281 L 898.105469 732.113281 C 904.515625 732.113281 909.578125 727.054688 909.578125 720.644531 L 909.578125 693.988281 C 909.578125 687.578125 904.515625 682.519531 898.105469 682.519531 L 780.699219 682.519531 Z M 596.488281 1024.625 L 596.488281 915.648438 L 562.410156 915.648438 C 562.410156 915.648438 562.074219 915.988281 562.074219 916.324219 L 562.074219 1024.625 Z M 609.980469 915.648438 L 609.980469 1024.625 L 644.394531 1024.625 L 644.394531 916.324219 C 644.394531 915.988281 644.058594 915.648438 644.058594 915.648438 Z M 548.578125 1024.625 L 548.578125 916.324219 C 548.578125 908.566406 554.988281 902.15625 562.410156 902.15625 L 644.058594 902.15625 C 651.480469 902.15625 657.890625 908.566406 657.890625 916.324219 L 657.890625 1024.625 L 681.167969 1024.625 L 681.167969 671.046875 C 681.167969 661.9375 671.386719 663.289062 665.988281 663.289062 L 533.058594 663.289062 C 528.671875 663.289062 525.300781 666.660156 525.300781 671.046875 L 525.300781 1024.625 Z M 871.117188 1023.949219 L 871.117188 915.648438 L 829.28125 915.648438 C 828.269531 915.648438 827.59375 916.324219 827.59375 917.675781 L 827.59375 1023.949219 Z M 884.609375 915.648438 L 884.609375 1023.949219 L 928.472656 1023.949219 L 928.472656 917.675781 C 928.472656 916.664062 927.457031 915.648438 926.445312 915.648438 Z M 767.203125 835.691406 L 767.203125 801.953125 L 694.664062 801.953125 L 694.664062 835.691406 Z M 767.203125 788.457031 L 767.203125 728.742188 L 694.664062 728.742188 L 694.664062 788.457031 Z M 656.203125 881.910156 L 550.265625 881.910156 C 546.554688 881.910156 543.519531 878.875 543.519531 875.164062 L 543.519531 839.402344 C 543.519531 835.691406 546.554688 832.652344 550.265625 832.652344 L 656.203125 832.652344 C 659.914062 832.652344 662.949219 835.691406 662.949219 839.402344 L 662.949219 875.164062 C 662.949219 878.875 659.914062 881.910156 656.203125 881.910156 Z M 557.011719 868.417969 L 649.457031 868.417969 L 649.457031 846.148438 L 557.011719 846.148438 Z M 656.203125 811.738281 L 550.265625 811.738281 C 546.554688 811.738281 543.519531 808.699219 543.519531 804.988281 L 543.519531 769.5625 C 543.519531 765.851562 546.554688 762.816406 550.265625 762.816406 L 656.203125 762.816406 C 659.914062 762.816406 662.949219 765.851562 662.949219 769.5625 L 662.949219 804.988281 C 662.949219 808.699219 659.914062 811.738281 656.203125 811.738281 Z M 557.011719 798.242188 L 649.457031 798.242188 L 649.457031 776.3125 L 557.011719 776.3125 Z M 656.203125 741.898438 L 550.265625 741.898438 C 546.554688 741.898438 543.519531 738.863281 543.519531 735.152344 L 543.519531 699.386719 C 543.519531 695.675781 546.554688 692.640625 550.265625 692.640625 L 656.203125 692.640625 C 659.914062 692.640625 662.949219 695.675781 662.949219 699.386719 L 662.949219 735.152344 C 662.949219 738.863281 659.914062 741.898438 656.203125 741.898438 Z M 557.011719 728.402344 L 649.457031 728.402344 L 649.457031 706.136719 L 557.011719 706.136719 Z M 547.230469 649.792969 L 659.238281 649.792969 C 659.238281 638.320312 661.9375 623.140625 650.46875 623.140625 L 556 623.140625 C 544.53125 623.140625 547.230469 638.320312 547.230469 649.792969 Z M 547.230469 649.792969 " fill-opacity="1" fill-rule="evenodd"/><path fill="#dd6400" d="M 557.011719 706.136719 L 649.457031 706.136719 L 649.457031 728.402344 L 557.011719 728.402344 Z M 557.011719 706.136719 " fill-opacity="1" fill-rule="evenodd"/><path fill="#fff8eb" d="M 550.265625 692.640625 L 656.203125 692.640625 C 659.914062 692.640625 662.949219 695.675781 662.949219 699.386719 L 662.949219 735.152344 C 662.949219 738.863281 659.914062 741.898438 656.203125 741.898438 L 550.265625 741.898438 C 546.554688 741.898438 543.519531 738.863281 543.519531 735.152344 L 543.519531 699.386719 C 543.519531 695.675781 546.554688 692.640625 550.265625 692.640625 Z M 550.265625 762.816406 L 656.203125 762.816406 C 659.914062 762.816406 662.949219 765.851562 662.949219 769.5625 L 662.949219 804.988281 C 662.949219 808.699219 659.914062 811.738281 656.203125 811.738281 L 550.265625 811.738281 C 546.554688 811.738281 543.519531 808.699219 543.519531 804.988281 L 543.519531 769.5625 C 543.519531 765.851562 546.554688 762.816406 550.265625 762.816406 Z M 550.265625 832.652344 L 656.203125 832.652344 C 659.914062 832.652344 662.949219 835.691406 662.949219 839.402344 L 662.949219 875.164062 C 662.949219 878.875 659.914062 881.910156 656.203125 881.910156 L 550.265625 881.910156 C 546.554688 881.910156 543.519531 878.875 543.519531 875.164062 L 543.519531 839.402344 C 543.519531 835.691406 546.554688 832.652344 550.265625 832.652344 Z M 562.410156 902.15625 L 644.058594 902.15625 C 651.480469 902.15625 657.890625 908.566406 657.890625 916.324219 L 657.890625 1024.625 L 681.167969 1024.625 L 681.167969 671.046875 C 681.167969 661.9375 671.386719 663.289062 665.988281 663.289062 L 533.058594 663.289062 C 528.671875 663.289062 525.300781 666.660156 525.300781 671.046875 L 525.300781 1024.625 L 548.578125 1024.625 L 548.578125 916.324219 C 548.578125 908.566406 554.988281 902.15625 562.410156 902.15625 Z M 562.410156 902.15625 " fill-opacity="1" fill-rule="evenodd"/><path fill="#fff8eb" d="M 547.230469 649.792969 L 659.238281 649.792969 C 659.238281 638.320312 661.9375 623.140625 650.46875 623.140625 L 556 623.140625 C 544.53125 623.140625 547.230469 638.320312 547.230469 649.792969 Z M 547.230469 649.792969 " fill-opacity="1" fill-rule="evenodd"/><path fill="#dd6400" d="M 557.011719 776.3125 L 649.457031 776.3125 L 649.457031 798.242188 L 557.011719 798.242188 Z M 557.011719 776.3125 " fill-opacity="1" fill-rule="evenodd"/><path fill="#dd6400" d="M 557.011719 846.148438 L 649.457031 846.148438 L 649.457031 868.417969 L 557.011719 868.417969 Z M 557.011719 846.148438 " fill-opacity="1" fill-rule="evenodd"/><path fill="#dd6400" d="M 644.058594 915.648438 L 609.980469 915.648438 L 609.980469 1024.625 L 644.394531 1024.625 L 644.394531 916.324219 C 644.394531 915.988281 644.058594 915.648438 644.058594 915.648438 Z M 644.058594 915.648438 " fill-opacity="1" fill-rule="evenodd"/><path fill="#dd6400" d="M 596.488281 1024.625 L 596.488281 915.648438 L 562.410156 915.648438 C 562.410156 915.648438 562.074219 915.988281 562.074219 916.324219 L 562.074219 1024.625 Z M 596.488281 1024.625 " fill-opacity="1" fill-rule="evenodd"/><path fill="#dd6400" d="M 780.699219 732.113281 L 898.105469 732.113281 C 904.515625 732.113281 909.578125 727.054688 909.578125 720.644531 L 909.578125 693.988281 C 909.578125 687.578125 904.515625 682.519531 898.105469 682.519531 L 780.699219 682.519531 Z M 780.699219 732.113281 " fill-opacity="1" fill-rule="evenodd"/><path fill="#fff8eb" d="M 780.699219 745.609375 L 780.699219 1023.949219 L 814.097656 1023.949219 L 814.097656 917.675781 C 814.097656 908.902344 820.847656 902.15625 829.28125 902.15625 L 926.445312 902.15625 C 934.882812 902.15625 941.964844 909.238281 941.964844 917.675781 L 941.964844 1023.949219 L 975.03125 1023.949219 L 975.03125 850.535156 L 857.957031 850.535156 C 844.125 850.535156 832.652344 839.0625 832.652344 825.570312 L 832.652344 798.578125 C 832.652344 785.082031 844.125 773.613281 857.957031 773.613281 L 975.03125 773.613281 L 975.03125 553.640625 L 780.699219 478.738281 L 780.699219 669.023438 L 898.105469 669.023438 C 911.601562 669.023438 923.074219 680.15625 923.074219 693.988281 L 923.074219 720.644531 C 923.074219 734.476562 911.9375 745.609375 898.105469 745.609375 Z M 877.863281 664.300781 C 870.441406 664.300781 871.117188 656.539062 871.117188 652.828125 C 848.171875 652.828125 849.523438 654.855469 849.523438 634.273438 C 849.523438 625.5 863.019531 625.5 863.019531 634.273438 L 863.019531 639.335938 L 892.707031 639.335938 L 892.707031 619.089844 L 856.269531 619.089844 C 851.886719 619.089844 848.847656 615.71875 849.859375 610.320312 L 849.859375 578.605469 C 849.859375 569.832031 861.667969 571.859375 871.117188 571.859375 C 871.117188 567.808594 870.105469 560.050781 877.863281 560.050781 C 885.285156 560.050781 884.609375 567.808594 884.609375 571.859375 C 907.554688 571.859375 906.203125 569.496094 906.203125 591.761719 C 906.203125 600.535156 892.707031 600.535156 892.707031 591.761719 L 892.707031 585.351562 L 863.355469 585.351562 L 863.355469 605.597656 L 899.457031 605.597656 C 903.167969 605.597656 906.203125 608.632812 906.203125 612.34375 C 906.203125 657.550781 910.589844 652.828125 884.609375 652.828125 C 884.609375 656.539062 885.285156 664.300781 877.863281 664.300781 Z M 877.863281 664.300781 " fill-opacity="1" fill-rule="evenodd"/><path fill="#dd6400" d="M 846.148438 825.570312 C 846.148438 831.640625 851.546875 837.039062 857.957031 837.039062 L 975.03125 837.039062 L 975.03125 787.109375 L 857.957031 787.109375 C 851.546875 787.109375 846.148438 792.503906 846.148438 798.578125 Z M 846.148438 825.570312 " fill-opacity="1" fill-rule="evenodd"/><path fill="#dd6400" d="M 884.609375 915.648438 L 884.609375 1023.949219 L 928.472656 1023.949219 L 928.472656 917.675781 C 928.472656 916.664062 927.457031 915.648438 926.445312 915.648438 Z M 884.609375 915.648438 " fill-opacity="1" fill-rule="evenodd"/><path fill="#dd6400" d="M 871.117188 1023.949219 L 871.117188 915.648438 L 829.28125 915.648438 C 828.269531 915.648438 827.59375 916.324219 827.59375 917.675781 L 827.59375 1023.949219 Z M 871.117188 1023.949219 " fill-opacity="1" fill-rule="evenodd"/></svg>