<svg xmlns="http://www.w3.org/2000/svg" xmlns:xlink="http://www.w3.org/1999/xlink" width="2000" zoomAndPan="magnify" viewBox="0 0 1500 1499.999933" height="2000" preserveAspectRatio="xMidYMid meet" version="1.0"><defs><clipPath id="85d1432784"><path d="M 208.933594 203.542969 L 1279.933594 203.542969 L 1279.933594 1274.542969 L 208.933594 1274.542969 Z M 208.933594 203.542969 " clip-rule="nonzero"/></clipPath></defs><rect x="-150" width="1800" fill="#ffffff" y="-149.999993" height="1799.99992" fill-opacity="1"/><rect x="-150" width="1800" fill="#ffffff" y="-149.999993" height="1799.99992" fill-opacity="1"/><path fill="#000000" d="M 995.671875 856.40625 L 493.195312 856.40625 C 487.171875 856.40625 482.261719 851.5 482.261719 845.472656 C 482.261719 839.449219 487.171875 834.542969 493.195312 834.542969 L 995.894531 834.542969 C 1001.917969 834.542969 1006.828125 839.449219 1006.828125 845.472656 C 1006.828125 851.5 1001.695312 856.40625 995.671875 856.40625 Z M 995.671875 739.488281 L 493.195312 739.488281 C 487.171875 739.488281 482.261719 734.582031 482.261719 728.558594 C 482.261719 722.53125 487.171875 717.625 493.195312 717.625 L 995.894531 717.625 C 1001.917969 717.625 1006.828125 722.53125 1006.828125 728.558594 C 1006.828125 734.582031 1001.695312 739.488281 995.671875 739.488281 Z M 995.671875 739.488281 " fill-opacity="1" fill-rule="nonzero"/><path fill="#000000" d="M 493.195312 856.40625 L 418.894531 856.40625 C 412.871094 856.40625 407.960938 851.5 407.960938 845.472656 L 407.960938 643.769531 C 407.960938 637.746094 412.871094 632.835938 418.894531 632.835938 L 493.195312 632.835938 C 499.21875 632.835938 504.128906 637.746094 504.128906 643.769531 L 504.128906 845.699219 C 504.128906 851.5 498.996094 856.40625 493.195312 856.40625 Z M 429.828125 834.542969 L 482.039062 834.542969 L 482.039062 654.480469 L 429.828125 654.480469 Z M 429.828125 834.542969 " fill-opacity="1" fill-rule="nonzero"/><path fill="#000000" d="M 1069.972656 856.40625 L 995.671875 856.40625 C 989.648438 856.40625 984.738281 851.5 984.738281 845.472656 L 984.738281 643.769531 C 984.738281 637.746094 989.648438 632.835938 995.671875 632.835938 L 1069.972656 632.835938 C 1075.996094 632.835938 1080.90625 637.746094 1080.90625 643.769531 L 1080.90625 845.699219 C 1080.90625 851.5 1075.996094 856.40625 1069.972656 856.40625 Z M 1006.828125 834.542969 L 1059.039062 834.542969 L 1059.039062 654.480469 L 1006.828125 654.480469 Z M 1006.828125 834.542969 " fill-opacity="1" fill-rule="nonzero"/><path fill="#000000" d="M 724.351562 739.488281 L 636.886719 739.488281 C 630.863281 739.488281 625.953125 734.582031 625.953125 728.558594 C 625.953125 722.53125 630.863281 717.625 636.886719 717.625 L 713.417969 717.625 L 713.417969 602.269531 C 713.417969 578.839844 694.453125 559.875 671.023438 559.875 L 581.105469 559.875 C 557.675781 559.875 538.710938 578.839844 538.710938 602.269531 L 538.710938 728.558594 C 538.710938 734.582031 533.804688 739.488281 527.777344 739.488281 C 521.753906 739.488281 516.847656 734.582031 516.847656 728.558594 L 516.847656 602.269531 C 516.847656 566.792969 545.628906 537.785156 581.328125 537.785156 L 671.25 537.785156 C 706.726562 537.785156 735.730469 566.566406 735.730469 602.269531 L 735.730469 728.558594 C 735.285156 734.582031 730.375 739.488281 724.351562 739.488281 Z M 724.351562 739.488281 " fill-opacity="1" fill-rule="nonzero"/><path fill="#000000" d="M 961.3125 739.488281 C 955.285156 739.488281 950.378906 734.582031 950.378906 728.558594 L 950.378906 602.269531 C 950.378906 578.839844 931.410156 559.875 907.984375 559.875 L 818.066406 559.875 C 794.636719 559.875 775.671875 578.839844 775.671875 602.269531 L 775.671875 728.558594 C 775.671875 734.582031 770.761719 739.488281 764.738281 739.488281 C 758.488281 739.488281 753.804688 734.582031 753.804688 728.558594 L 753.804688 602.269531 C 753.804688 566.792969 782.585938 537.785156 818.289062 537.785156 L 908.207031 537.785156 C 943.683594 537.785156 972.691406 566.566406 972.691406 602.269531 L 972.691406 728.558594 C 972.019531 734.582031 967.113281 739.488281 961.3125 739.488281 Z M 961.3125 739.488281 " fill-opacity="1" fill-rule="nonzero"/><path fill="#000000" d="M 521.753906 940.300781 L 464.410156 940.300781 C 458.386719 940.300781 453.476562 935.394531 453.476562 929.371094 L 453.476562 845.472656 C 453.476562 839.449219 458.386719 834.542969 464.410156 834.542969 C 470.4375 834.542969 475.34375 839.449219 475.34375 845.472656 L 475.34375 918.214844 L 510.820312 918.214844 L 510.820312 845.472656 C 510.820312 839.449219 515.730469 834.542969 521.753906 834.542969 C 527.777344 834.542969 532.6875 839.449219 532.6875 845.472656 L 532.6875 929.371094 C 532.910156 935.394531 528.003906 940.300781 521.753906 940.300781 Z M 521.753906 940.300781 " fill-opacity="1" fill-rule="nonzero"/><path fill="#000000" d="M 1024.457031 940.300781 L 967.113281 940.300781 C 961.085938 940.300781 956.179688 935.394531 956.179688 929.371094 L 956.179688 845.472656 C 956.179688 839.449219 961.085938 834.542969 967.113281 834.542969 C 973.136719 834.542969 978.046875 839.449219 978.046875 845.472656 L 978.046875 918.214844 L 1013.523438 918.214844 L 1013.523438 845.472656 C 1013.523438 839.449219 1018.429688 834.542969 1024.453125 834.542969 C 1030.703125 834.542969 1035.386719 839.449219 1035.386719 845.472656 L 1035.386719 929.371094 C 1035.386719 935.394531 1030.703125 940.300781 1024.457031 940.300781 Z M 1024.457031 940.300781 " fill-opacity="1" fill-rule="nonzero"/><g clip-path="url(#85d1432784)"><path fill="#000000" d="M 744.433594 1274.542969 C 672.363281 1274.542969 602.300781 1260.265625 536.035156 1232.375 C 472.222656 1205.375 414.878906 1166.773438 365.789062 1117.6875 C 316.480469 1068.152344 277.878906 1011.035156 251.105469 947.441406 C 223.214844 881.621094 208.933594 811.558594 208.933594 739.042969 C 208.933594 666.972656 223.214844 596.914062 251.105469 530.644531 C 278.324219 466.386719 316.925781 409.042969 365.789062 360.402344 C 415.324219 311.089844 472.445312 272.488281 536.035156 245.714844 C 601.855469 217.824219 671.917969 203.542969 744.433594 203.542969 C 816.503906 203.542969 886.5625 217.824219 952.832031 245.714844 C 1016.644531 272.710938 1073.988281 311.3125 1123.078125 360.402344 C 1172.386719 409.933594 1210.988281 467.054688 1237.761719 530.644531 C 1265.652344 596.914062 1279.933594 666.972656 1279.933594 739.042969 C 1279.933594 811.113281 1265.652344 881.175781 1237.761719 947.441406 C 1210.765625 1011.257812 1172.164062 1068.597656 1123.078125 1117.6875 C 1073.542969 1166.996094 1016.421875 1205.597656 952.832031 1232.375 C 887.011719 1260.265625 816.949219 1274.542969 744.433594 1274.542969 Z M 744.210938 223.402344 C 459.949219 223.402344 228.566406 454.78125 228.566406 739.042969 C 228.566406 1023.304688 459.949219 1254.6875 744.210938 1254.6875 C 1028.472656 1254.6875 1259.851562 1023.304688 1259.851562 739.042969 C 1259.851562 454.78125 1028.472656 223.402344 744.210938 223.402344 Z M 744.210938 223.402344 " fill-opacity="1" fill-rule="nonzero"/></g></svg>