<svg xmlns="http://www.w3.org/2000/svg" xmlns:xlink="http://www.w3.org/1999/xlink" width="2000" zoomAndPan="magnify" viewBox="0 0 1500 1499.999933" height="2000" preserveAspectRatio="xMidYMid meet" version="1.0"><defs><clipPath id="05db1e3899"><path d="M 208.933594 208.933594 L 1291.183594 208.933594 L 1291.183594 1291.183594 L 208.933594 1291.183594 Z M 208.933594 208.933594 " clip-rule="nonzero"/></clipPath></defs><rect x="-150" width="1800" fill="#ffffff" y="-149.999993" height="1799.99992" fill-opacity="1"/><rect x="-150" width="1800" fill="#ffffff" y="-149.999993" height="1799.99992" fill-opacity="1"/><path fill="#f2f6f8" d="M 1280.511719 749.996094 C 1280.511719 457 1042.996094 219.484375 750 219.484375 C 457 219.484375 219.484375 457 219.484375 749.996094 C 219.484375 1042.996094 457 1280.511719 750 1280.511719 C 1042.996094 1280.511719 1280.511719 1042.996094 1280.511719 749.996094 " fill-opacity="1" fill-rule="nonzero"/><g clip-path="url(#05db1e3899)"><path fill="#2a3b95" d="M 750 230.035156 C 463.292969 230.035156 230.035156 463.292969 230.035156 749.996094 C 230.035156 1036.703125 463.292969 1269.960938 750 1269.960938 C 1036.703125 1269.960938 1269.960938 1036.703125 1269.960938 749.996094 C 1269.960938 463.292969 1036.703125 230.035156 750 230.035156 Z M 750 1291.0625 C 605.472656 1291.0625 469.601562 1234.78125 367.410156 1132.585938 C 265.214844 1030.394531 208.933594 894.523438 208.933594 749.996094 C 208.933594 605.472656 265.214844 469.601562 367.410156 367.410156 C 469.601562 265.214844 605.472656 208.933594 750 208.933594 C 894.523438 208.933594 1030.394531 265.214844 1132.585938 367.410156 C 1234.78125 469.601562 1291.0625 605.472656 1291.0625 749.996094 C 1291.0625 894.523438 1234.78125 1030.394531 1132.585938 1132.585938 C 1030.394531 1234.78125 894.523438 1291.0625 750 1291.0625 " fill-opacity="1" fill-rule="nonzero"/></g><path fill="#fafcfd" d="M 1235.902344 749.996094 C 1235.902344 481.640625 1018.355469 264.09375 750 264.09375 C 481.640625 264.09375 264.09375 481.640625 264.09375 749.996094 C 264.09375 1018.355469 481.640625 1235.902344 750 1235.902344 C 1018.355469 1235.902344 1235.902344 1018.355469 1235.902344 749.996094 " fill-opacity="1" fill-rule="nonzero"/><path fill="#ffffff" d="M 1200.9375 749.996094 C 1200.9375 500.953125 999.042969 299.058594 750 299.058594 C 500.953125 299.058594 299.0625 500.953125 299.0625 749.996094 C 299.0625 999.042969 500.953125 1200.933594 750 1200.933594 C 999.042969 1200.933594 1200.9375 999.042969 1200.9375 749.996094 " fill-opacity="1" fill-rule="nonzero"/><path fill="#2a3b95" d="M 480.820312 694.367188 L 610.25 694.367188 L 610.25 944.542969 L 480.820312 944.542969 Z M 750.300781 944.542969 L 715.011719 944.542969 L 715.011719 879.546875 L 750.300781 879.546875 Z M 631.347656 504.445312 L 833.972656 504.445312 L 833.972656 944.542969 L 771.398438 944.542969 L 771.398438 868.996094 C 771.398438 863.175781 766.679688 858.445312 760.847656 858.445312 L 704.464844 858.445312 C 698.640625 858.445312 693.914062 863.175781 693.914062 868.996094 L 693.914062 944.542969 L 631.347656 944.542969 Z M 1019.175781 631.375 L 1019.175781 944.542969 L 855.074219 944.542969 L 855.074219 631.375 Z M 1087.597656 944.542969 L 1040.273438 944.542969 L 1040.273438 620.828125 C 1040.273438 615.003906 1035.554688 610.277344 1029.722656 610.277344 L 855.074219 610.277344 L 855.074219 493.898438 C 855.074219 488.074219 850.34375 483.347656 844.523438 483.347656 L 620.796875 483.347656 C 614.96875 483.347656 610.25 488.074219 610.25 493.898438 L 610.25 673.265625 L 470.273438 673.265625 C 464.449219 673.265625 459.722656 677.996094 459.722656 683.816406 L 459.722656 944.542969 L 412.398438 944.542969 C 406.578125 944.542969 401.847656 949.269531 401.847656 955.09375 C 401.847656 960.921875 406.578125 965.640625 412.398438 965.640625 L 1087.597656 965.640625 C 1093.417969 965.640625 1098.148438 960.921875 1098.148438 955.09375 C 1098.148438 949.269531 1093.417969 944.542969 1087.597656 944.542969 " fill-opacity="1" fill-rule="nonzero"/><path fill="#2a3b95" d="M 1024.675781 995.550781 L 736.519531 995.550781 C 730.695312 995.550781 725.96875 1000.269531 725.96875 1006.097656 C 725.96875 1011.921875 730.695312 1016.648438 736.519531 1016.648438 L 1024.675781 1016.648438 C 1030.503906 1016.648438 1035.226562 1011.921875 1035.226562 1006.097656 C 1035.226562 1000.269531 1030.503906 995.550781 1024.675781 995.550781 " fill-opacity="1" fill-rule="nonzero"/><path fill="#2a3b95" d="M 568.988281 995.550781 L 475.3125 995.550781 C 469.492188 995.550781 464.761719 1000.269531 464.761719 1006.097656 C 464.761719 1011.921875 469.492188 1016.648438 475.3125 1016.648438 L 568.988281 1016.648438 C 574.8125 1016.648438 579.539062 1011.921875 579.539062 1006.097656 C 579.539062 1000.269531 574.8125 995.550781 568.988281 995.550781 " fill-opacity="1" fill-rule="nonzero"/><path fill="#f7941d" d="M 575.160156 723.539062 L 570.929688 723.539062 C 565.109375 723.539062 560.378906 728.265625 560.378906 734.089844 C 560.378906 739.917969 565.109375 744.636719 570.929688 744.636719 L 575.160156 744.636719 C 580.992188 744.636719 585.710938 739.917969 585.710938 734.089844 C 585.710938 728.265625 580.992188 723.539062 575.160156 723.539062 " fill-opacity="1" fill-rule="nonzero"/><path fill="#f7941d" d="M 521.5625 723.539062 L 517.332031 723.539062 C 511.5 723.539062 506.78125 728.265625 506.78125 734.089844 C 506.78125 739.917969 511.5 744.636719 517.332031 744.636719 L 521.5625 744.636719 C 527.394531 744.636719 532.113281 739.917969 532.113281 734.089844 C 532.113281 728.265625 527.394531 723.539062 521.5625 723.539062 " fill-opacity="1" fill-rule="nonzero"/><path fill="#f7941d" d="M 521.5625 765.378906 L 517.332031 765.378906 C 511.5 765.378906 506.78125 770.097656 506.78125 775.929688 C 506.78125 781.75 511.5 786.480469 517.332031 786.480469 L 521.5625 786.480469 C 527.394531 786.480469 532.113281 781.75 532.113281 775.929688 C 532.113281 770.097656 527.394531 765.378906 521.5625 765.378906 " fill-opacity="1" fill-rule="nonzero"/><path fill="#f7941d" d="M 575.160156 765.378906 L 570.929688 765.378906 C 565.109375 765.378906 560.378906 770.097656 560.378906 775.929688 C 560.378906 781.75 565.109375 786.480469 570.929688 786.480469 L 575.160156 786.480469 C 580.992188 786.480469 585.710938 781.75 585.710938 775.929688 C 585.710938 770.097656 580.992188 765.378906 575.160156 765.378906 " fill-opacity="1" fill-rule="nonzero"/><path fill="#f7941d" d="M 575.160156 807.214844 L 570.929688 807.214844 C 565.109375 807.214844 560.378906 811.941406 560.378906 817.761719 C 560.378906 823.59375 565.109375 828.3125 570.929688 828.3125 L 575.160156 828.3125 C 580.992188 828.3125 585.710938 823.59375 585.710938 817.761719 C 585.710938 811.941406 580.992188 807.214844 575.160156 807.214844 " fill-opacity="1" fill-rule="nonzero"/><path fill="#f7941d" d="M 521.5625 807.214844 L 517.332031 807.214844 C 511.5 807.214844 506.78125 811.941406 506.78125 817.761719 C 506.78125 823.59375 511.5 828.3125 517.332031 828.3125 L 521.5625 828.3125 C 527.394531 828.3125 532.113281 823.59375 532.113281 817.761719 C 532.113281 811.941406 527.394531 807.214844 521.5625 807.214844 " fill-opacity="1" fill-rule="nonzero"/><path fill="#f7941d" d="M 575.160156 849.046875 L 570.929688 849.046875 C 565.109375 849.046875 560.378906 853.773438 560.378906 859.59375 C 560.378906 865.425781 565.109375 870.144531 570.929688 870.144531 L 575.160156 870.144531 C 580.992188 870.144531 585.710938 865.425781 585.710938 859.59375 C 585.710938 853.773438 580.992188 849.046875 575.160156 849.046875 " fill-opacity="1" fill-rule="nonzero"/><path fill="#f7941d" d="M 521.5625 849.046875 L 517.332031 849.046875 C 511.5 849.046875 506.78125 853.773438 506.78125 859.59375 C 506.78125 865.425781 511.5 870.144531 517.332031 870.144531 L 521.5625 870.144531 C 527.394531 870.144531 532.113281 865.425781 532.113281 859.59375 C 532.113281 853.773438 527.394531 849.046875 521.5625 849.046875 " fill-opacity="1" fill-rule="nonzero"/><path fill="#f7941d" d="M 521.5625 890.886719 L 517.332031 890.886719 C 511.5 890.886719 506.78125 895.617188 506.78125 901.4375 C 506.78125 907.269531 511.5 911.988281 517.332031 911.988281 L 521.5625 911.988281 C 527.394531 911.988281 532.113281 907.269531 532.113281 901.4375 C 532.113281 895.617188 527.394531 890.886719 521.5625 890.886719 " fill-opacity="1" fill-rule="nonzero"/><path fill="#f7941d" d="M 575.160156 890.886719 L 570.929688 890.886719 C 565.109375 890.886719 560.378906 895.617188 560.378906 901.4375 C 560.378906 907.269531 565.109375 911.988281 570.929688 911.988281 L 575.160156 911.988281 C 580.992188 911.988281 585.710938 907.269531 585.710938 901.4375 C 585.710938 895.617188 580.992188 890.886719 575.160156 890.886719 " fill-opacity="1" fill-rule="nonzero"/><path fill="#f7941d" d="M 699.019531 603.464844 L 681.113281 603.464844 L 681.113281 570.1875 L 699.019531 570.1875 Z M 709.570312 549.085938 L 670.5625 549.085938 C 664.730469 549.085938 660.011719 553.804688 660.011719 559.636719 L 660.011719 614.015625 C 660.011719 619.847656 664.730469 624.566406 670.5625 624.566406 L 709.570312 624.566406 C 715.398438 624.566406 720.117188 619.847656 720.117188 614.015625 L 720.117188 559.636719 C 720.117188 553.804688 715.398438 549.085938 709.570312 549.085938 " fill-opacity="1" fill-rule="nonzero"/><path fill="#f7941d" d="M 784.21875 603.464844 L 766.304688 603.464844 L 766.304688 570.1875 L 784.21875 570.1875 Z M 794.769531 549.085938 L 755.753906 549.085938 C 749.933594 549.085938 745.203125 553.804688 745.203125 559.636719 L 745.203125 614.015625 C 745.203125 619.847656 749.933594 624.566406 755.753906 624.566406 L 794.769531 624.566406 C 800.589844 624.566406 805.320312 619.847656 805.320312 614.015625 L 805.320312 559.636719 C 805.320312 553.804688 800.589844 549.085938 794.769531 549.085938 " fill-opacity="1" fill-rule="nonzero"/><path fill="#f7941d" d="M 699.019531 701.777344 L 681.113281 701.777344 L 681.113281 668.488281 L 699.019531 668.488281 Z M 709.570312 647.390625 L 670.5625 647.390625 C 664.730469 647.390625 660.011719 652.117188 660.011719 657.941406 L 660.011719 712.328125 C 660.011719 718.148438 664.730469 722.878906 670.5625 722.878906 L 709.570312 722.878906 C 715.398438 722.878906 720.117188 718.148438 720.117188 712.328125 L 720.117188 657.941406 C 720.117188 652.117188 715.398438 647.390625 709.570312 647.390625 " fill-opacity="1" fill-rule="nonzero"/><path fill="#f7941d" d="M 784.21875 701.777344 L 766.304688 701.777344 L 766.304688 668.488281 L 784.21875 668.488281 Z M 794.769531 647.390625 L 755.753906 647.390625 C 749.933594 647.390625 745.203125 652.117188 745.203125 657.941406 L 745.203125 712.328125 C 745.203125 718.148438 749.933594 722.878906 755.753906 722.878906 L 794.769531 722.878906 C 800.589844 722.878906 805.320312 718.148438 805.320312 712.328125 L 805.320312 657.941406 C 805.320312 652.117188 800.589844 647.390625 794.769531 647.390625 " fill-opacity="1" fill-rule="nonzero"/><path fill="#f7941d" d="M 699.019531 800.082031 L 681.113281 800.082031 L 681.113281 766.800781 L 699.019531 766.800781 Z M 709.570312 745.703125 L 670.5625 745.703125 C 664.730469 745.703125 660.011719 750.421875 660.011719 756.253906 L 660.011719 810.632812 C 660.011719 816.464844 664.730469 821.183594 670.5625 821.183594 L 709.570312 821.183594 C 715.398438 821.183594 720.117188 816.464844 720.117188 810.632812 L 720.117188 756.253906 C 720.117188 750.421875 715.398438 745.703125 709.570312 745.703125 " fill-opacity="1" fill-rule="nonzero"/><path fill="#f7941d" d="M 784.21875 800.082031 L 766.304688 800.082031 L 766.304688 766.800781 L 784.21875 766.800781 Z M 794.769531 745.703125 L 755.753906 745.703125 C 749.933594 745.703125 745.203125 750.421875 745.203125 756.253906 L 745.203125 810.632812 C 745.203125 816.464844 749.933594 821.183594 755.753906 821.183594 L 794.769531 821.183594 C 800.589844 821.183594 805.320312 816.464844 805.320312 810.632812 L 805.320312 756.253906 C 805.320312 750.421875 800.589844 745.703125 794.769531 745.703125 " fill-opacity="1" fill-rule="nonzero"/><path fill="#f7941d" d="M 907.464844 702.722656 L 896.265625 702.722656 L 896.265625 678.804688 L 907.464844 678.804688 Z M 918.015625 657.703125 L 885.714844 657.703125 C 879.886719 657.703125 875.167969 662.433594 875.167969 668.253906 L 875.167969 713.269531 C 875.167969 719.101562 879.886719 723.820312 885.714844 723.820312 L 918.015625 723.820312 C 923.835938 723.820312 928.566406 719.101562 928.566406 713.269531 L 928.566406 668.253906 C 928.566406 662.433594 923.835938 657.703125 918.015625 657.703125 " fill-opacity="1" fill-rule="nonzero"/><path fill="#f7941d" d="M 977.992188 702.722656 L 966.792969 702.722656 L 966.792969 678.804688 L 977.992188 678.804688 Z M 988.542969 657.703125 L 956.242188 657.703125 C 950.410156 657.703125 945.691406 662.433594 945.691406 668.253906 L 945.691406 713.269531 C 945.691406 719.101562 950.410156 723.820312 956.242188 723.820312 L 988.542969 723.820312 C 994.363281 723.820312 999.089844 719.101562 999.089844 713.269531 L 999.089844 668.253906 C 999.089844 662.433594 994.363281 657.703125 988.542969 657.703125 " fill-opacity="1" fill-rule="nonzero"/><path fill="#f7941d" d="M 907.464844 784.105469 L 896.265625 784.105469 L 896.265625 760.191406 L 907.464844 760.191406 Z M 918.015625 739.089844 L 885.714844 739.089844 C 879.886719 739.089844 875.167969 743.808594 875.167969 749.640625 L 875.167969 794.65625 C 875.167969 800.476562 879.886719 805.207031 885.714844 805.207031 L 918.015625 805.207031 C 923.835938 805.207031 928.566406 800.476562 928.566406 794.65625 L 928.566406 749.640625 C 928.566406 743.808594 923.835938 739.089844 918.015625 739.089844 " fill-opacity="1" fill-rule="nonzero"/><path fill="#f7941d" d="M 977.992188 784.105469 L 966.792969 784.105469 L 966.792969 760.191406 L 977.992188 760.191406 Z M 988.542969 739.089844 L 956.242188 739.089844 C 950.410156 739.089844 945.691406 743.808594 945.691406 749.640625 L 945.691406 794.65625 C 945.691406 800.476562 950.410156 805.207031 956.242188 805.207031 L 988.542969 805.207031 C 994.363281 805.207031 999.089844 800.476562 999.089844 794.65625 L 999.089844 749.640625 C 999.089844 743.808594 994.363281 739.089844 988.542969 739.089844 " fill-opacity="1" fill-rule="nonzero"/><path fill="#f7941d" d="M 907.464844 865.484375 L 896.265625 865.484375 L 896.265625 841.566406 L 907.464844 841.566406 Z M 918.015625 820.464844 L 885.714844 820.464844 C 879.886719 820.464844 875.167969 825.1875 875.167969 831.015625 L 875.167969 876.03125 C 875.167969 881.863281 879.886719 886.582031 885.714844 886.582031 L 918.015625 886.582031 C 923.835938 886.582031 928.566406 881.863281 928.566406 876.03125 L 928.566406 831.015625 C 928.566406 825.1875 923.835938 820.464844 918.015625 820.464844 " fill-opacity="1" fill-rule="nonzero"/><path fill="#f7941d" d="M 977.992188 865.484375 L 966.792969 865.484375 L 966.792969 841.566406 L 977.992188 841.566406 Z M 988.542969 820.464844 L 956.242188 820.464844 C 950.410156 820.464844 945.691406 825.1875 945.691406 831.015625 L 945.691406 876.03125 C 945.691406 881.863281 950.410156 886.582031 956.242188 886.582031 L 988.542969 886.582031 C 994.363281 886.582031 999.089844 881.863281 999.089844 876.03125 L 999.089844 831.015625 C 999.089844 825.1875 994.363281 820.464844 988.542969 820.464844 " fill-opacity="1" fill-rule="nonzero"/><path fill="#f7941d" d="M 679.707031 995.550781 L 674.660156 995.550781 C 668.828125 995.550781 664.109375 1000.269531 664.109375 1006.097656 C 664.109375 1011.921875 668.828125 1016.648438 674.660156 1016.648438 L 679.707031 1016.648438 C 685.53125 1016.648438 690.257812 1011.921875 690.257812 1006.097656 C 690.257812 1000.269531 685.53125 995.550781 679.707031 995.550781 " fill-opacity="1" fill-rule="nonzero"/><path fill="#f7941d" d="M 630.300781 995.550781 L 625.253906 995.550781 C 619.433594 995.550781 614.703125 1000.269531 614.703125 1006.097656 C 614.703125 1011.921875 619.433594 1016.648438 625.253906 1016.648438 L 630.300781 1016.648438 C 636.132812 1016.648438 640.851562 1011.921875 640.851562 1006.097656 C 640.851562 1000.269531 636.132812 995.550781 630.300781 995.550781 " fill-opacity="1" fill-rule="nonzero"/></svg>