<svg width="18" height="18" viewBox="0 0 23 22" fill="none" xmlns="http://www.w3.org/2000/svg" class="h-[calc(18rem/16)] w-[calc(18rem/16)] lg:h-5 lg:w-5"><g clip-path="url(#clip0_7353_34641)"><path d="M11.8026 -0.000244141C13.0685 -0.000244141 14.0943 1.02551 14.0943 2.29142C14.0943 3.55734 13.0685 4.58309 11.8026 4.58309C10.5367 4.58309 9.51095 3.55734 9.51095 2.29142C9.51095 1.02551 10.5367 -0.000244141 11.8026 -0.000244141ZM14.5526 17.4164V13.593C15.6196 13.2144 16.386 12.1951 16.386 10.9998V9.16642C16.386 7.14426 14.7415 5.49976 12.7193 5.49976H10.8859C8.86378 5.49976 7.21928 7.14426 7.21928 9.16642V10.9998C7.21928 12.1951 7.98562 13.2144 9.05262 13.593V17.4164C9.05262 17.9224 9.46237 18.3331 9.96928 18.3331C10.4762 18.3331 10.8859 17.9224 10.8859 17.4164V12.8331C10.8859 12.3271 10.4762 11.9164 9.96928 11.9164C9.46237 11.9164 9.05262 11.5048 9.05262 10.9998V9.16642C9.05262 8.15534 9.87487 7.33309 10.8859 7.33309H12.7193C13.7304 7.33309 14.5526 8.15534 14.5526 9.16642V10.9998C14.5526 11.5048 14.1419 11.9164 13.636 11.9164C13.1299 11.9164 12.7193 12.3271 12.7193 12.8331V17.4164C12.7193 17.9224 13.129 18.3331 13.636 18.3331C14.1429 18.3331 14.5526 17.9224 14.5526 17.4164ZM22.8026 17.8748C22.8026 16.2724 20.9152 14.9983 17.4887 14.2878C16.9946 14.1843 16.5079 14.5033 16.4043 14.9992C16.3016 15.4951 16.6197 15.98 17.1156 16.0827C19.9985 16.6813 20.9684 17.564 20.9684 17.8748C20.9684 18.5604 17.8499 20.1664 11.8017 20.1664C5.75353 20.1664 2.63503 18.5604 2.63503 17.8748C2.63503 17.564 3.60578 16.6813 6.48778 16.0827C6.9837 15.98 7.3027 15.4942 7.19912 14.9992C7.09553 14.5033 6.60695 14.1843 6.1147 14.2878C2.6882 14.9983 0.800781 16.2724 0.800781 17.8748C0.800781 20.7091 6.50337 21.9998 11.8008 21.9998C17.0982 21.9998 22.8008 20.7091 22.8008 17.8748H22.8026Z" fill="#000"></path></g><defs><clipPath id="clip0_7353_34641"><rect width="22" height="22" fill="white" transform="translate(0.800781)"></rect></clipPath></defs></svg>