<svg width="24" height="24" viewBox="0 0 24 24" fill="none" xmlns="http://www.w3.org/2000/svg"><path d="M9.5 4.5C9.5 3.119 10.619 2 12 2C13.381 2 14.5 3.119 14.5 4.5C14.5 5.881 13.381 7 12 7C10.619 7 9.5 5.881 9.5 4.5ZM17 12V15C17 16.474 16.19 17.75 15 18.444V23C15 23.552 14.552 24 14 24C13.448 24 13 23.552 13 23V19H11V23C11 23.552 10.552 24 10 24C9.448 24 9 23.552 9 23V18.444C7.81 17.75 7 16.474 7 15V12C7 9.794 8.794 8 11 8H13C15.206 8 17 9.794 17 12ZM15 12C15 10.897 14.103 10 13 10H11C9.897 10 9 10.897 9 12V15C9 16.103 9.897 17 11 17H13C14.103 17 15 16.103 15 15V12ZM19.5 5C20.881 5 22 3.881 22 2.5C22 1.119 20.881 0 19.5 0C18.119 0 17 1.119 17 2.5C17 3.881 18.119 5 19.5 5ZM4.5 5C5.881 5 7 3.881 7 2.5C7 1.119 5.881 0 4.5 0C3.119 0 2 1.119 2 2.5C2 3.881 3.119 5 4.5 5ZM6.334 6.229C5.906 6.077 5.458 6 5 6H4C1.794 6 0 7.794 0 10V13C0 14.474 0.81 15.75 2 16.444V21C2 21.552 2.448 22 3 22C3.552 22 4 21.552 4 21V17C4.552 17 5 16.552 5 16C5 15.448 4.552 15 4 15C2.897 15 2 14.103 2 13V10C2 8.897 2.897 8 4 8H5C5.229 8 5.454 8.038 5.666 8.113C6.189 8.298 6.759 8.025 6.943 7.505C7.128 6.984 6.856 6.413 6.335 6.228L6.334 6.229ZM20 6H19C18.542 6 18.093 6.077 17.666 6.229C17.145 6.414 16.874 6.985 17.058 7.506C17.243 8.026 17.81 8.297 18.335 8.114C18.547 8.039 18.771 8.001 19.001 8.001H20.001C21.104 8.001 22.001 8.898 22.001 10.001V13.001C22.001 14.104 21.104 15.001 20.001 15.001C19.449 15.001 19.001 15.449 19.001 16.001C19.001 16.553 19.449 17.001 20.001 17.001V21.001C20.001 21.553 20.449 22.001 21.001 22.001C21.553 22.001 22.001 21.553 22.001 21.001V16.445C23.191 15.751 24.001 14.475 24.001 13.001V10.001C24.001 7.795 22.207 6.001 20.001 6.001L20 6Z" fill="#313131"></path></svg>