<svg width="24" height="24" viewBox="0 0 24 24" fill="none" xmlns="http://www.w3.org/2000/svg"><path d="M11.8603 4.00076C7.67631 4.06976 4.15131 7.52676 4.00231 11.7058C3.91431 14.1338 4.91631 16.4388 6.75231 18.0318C7.54331 18.7188 7.99631 19.7748 7.99631 20.9998C7.99631 22.6538 9.34231 23.9998 10.9963 23.9998H12.9963C14.6503 23.9998 15.9963 22.6538 15.9963 20.9998V20.6248C15.9963 19.6588 16.4513 18.7268 17.2783 17.9988C19.0063 16.4808 19.9963 14.2948 19.9963 11.9998C19.9963 9.83876 19.1473 7.81276 17.6063 6.29676C16.0653 4.78076 14.0233 3.95176 11.8603 4.00076ZM13.9963 20.9998C13.9963 21.5518 13.5483 21.9998 12.9963 21.9998H10.9963C10.4443 21.9998 9.99631 21.5518 9.99631 20.9308C9.99631 20.6148 9.96531 20.3048 9.91931 19.9998H14.0373C14.0123 20.2058 13.9963 20.4148 13.9963 20.6248V20.9998ZM15.9583 16.4968C15.4473 16.9458 15.0353 17.4538 14.7183 17.9998H12.9963V13.8158C14.1573 13.4018 14.9963 12.3018 14.9963 10.9998C14.9963 10.4468 14.5493 9.99976 13.9963 9.99976C13.4433 9.99976 12.9963 10.4468 12.9963 10.9998C12.9963 11.5528 12.5483 11.9998 11.9963 11.9998C11.4443 11.9998 10.9963 11.5518 10.9963 10.9998C10.9963 10.4478 10.5493 9.99976 9.99631 9.99976C9.44331 9.99976 8.99631 10.4468 8.99631 10.9998C8.99631 12.3018 9.83531 13.4018 10.9963 13.8158V17.9998H9.25031C8.94031 17.4418 8.54331 16.9398 8.06231 16.5218C6.68631 15.3268 5.93431 13.5978 6.00031 11.7778C6.11231 8.64376 8.75631 6.05176 11.8943 6.00076C11.9283 6.00076 11.9613 6.00076 11.9963 6.00076C13.5823 6.00076 15.0733 6.60976 16.2043 7.72376C17.3603 8.86076 17.9973 10.3798 17.9973 12.0008C17.9973 13.7208 17.2543 15.3588 15.9593 16.4978L15.9583 16.4968ZM16.7813 2.47376L18.0163 0.463764C18.3043 -0.0082362 18.9203 -0.155236 19.3913 0.135764C19.8623 0.424764 20.0093 1.03976 19.7193 1.51076L18.4843 3.52076C18.2963 3.82876 17.9673 3.99776 17.6313 3.99776C17.4523 3.99776 17.2723 3.94976 17.1093 3.84976C16.6383 3.56076 16.4913 2.94476 16.7813 2.47376ZM23.4093 6.62176L21.4763 7.49376C21.3433 7.55476 21.2033 7.58276 21.0663 7.58276C20.6843 7.58276 20.3213 7.36376 20.1543 6.99376C19.9263 6.49076 20.1503 5.89776 20.6543 5.67176L22.5873 4.79976C23.0933 4.57076 23.6833 4.79676 23.9093 5.29976C24.1373 5.80276 23.9133 6.39576 23.4093 6.62176ZM4.19031 1.50976C3.90131 1.03876 4.04931 0.422764 4.52031 0.134764C4.99331 -0.153236 5.60731 -0.00523618 5.89531 0.464764L7.12731 2.47576C7.41631 2.94676 7.26831 3.56276 6.79731 3.85076C6.63431 3.95076 6.45331 3.99776 6.27631 3.99776C5.93931 3.99776 5.61131 3.82776 5.42231 3.51976L4.19031 1.50876V1.50976ZM3.70731 7.06076C3.53631 7.41976 3.17831 7.62876 2.80531 7.62876C2.66031 7.62876 2.51331 7.59776 2.37431 7.52976L0.576311 6.66876C0.0783108 6.43076 -0.132689 5.83376 0.106311 5.33576C0.343311 4.83676 0.943311 4.62376 1.43931 4.86576L3.23731 5.72676C3.73531 5.96476 3.94631 6.56276 3.70731 7.06076Z" fill="#313131"></path></svg>