<svg xmlns="http://www.w3.org/2000/svg" xmlns:xlink="http://www.w3.org/1999/xlink" width="2000" zoomAndPan="magnify" viewBox="0 0 1500 1499.999933" height="2000" preserveAspectRatio="xMidYMid meet" version="1.0"><defs><clipPath id="722561f3a7"><path d="M 438.691406 235 L 1061.191406 235 L 1061.191406 1207 L 438.691406 1207 Z M 438.691406 235 " clip-rule="nonzero"/></clipPath></defs><rect x="-150" width="1800" fill="#ffffff" y="-149.999993" height="1799.99992" fill-opacity="1"/><rect x="-150" width="1800" fill="#ffffff" y="-149.999993" height="1799.99992" fill-opacity="1"/><path fill="#ffffff" d="M 883.070312 1195.742188 C 883.070312 1227.402344 823.519531 1253.078125 750.101562 1253.078125 C 676.6875 1253.078125 617.132812 1227.402344 617.132812 1195.742188 C 617.132812 1164.027344 676.6875 1138.351562 750.101562 1138.351562 C 823.519531 1138.351562 883.070312 1164.027344 883.070312 1195.742188 " fill-opacity="1" fill-rule="nonzero"/><path stroke-linecap="round" transform="matrix(0.539428, 0, 0, -0.539371, -396.883087, 1896.546033)" fill="none" stroke-linejoin="round" d="M 2372.797333 1299.299069 C 2372.797333 1240.600744 2262.401177 1192.997526 2126.297816 1192.997526 C 1990.201695 1192.997526 1879.798298 1240.600744 1879.798298 1299.299069 C 1879.798298 1358.098785 1990.201695 1405.702003 2126.297816 1405.702003 C 2262.401177 1405.702003 2372.797333 1358.098785 2372.797333 1299.299069 Z M 2372.797333 1299.299069 " stroke="#040200" stroke-width="40" stroke-opacity="1" stroke-miterlimit="10"/><path fill="#ffffff" d="M 755.226562 246.609375 C 753.445312 246.609375 751.722656 246.71875 749.941406 246.71875 C 748.160156 246.71875 746.433594 246.609375 744.65625 246.609375 C 581.585938 246.609375 449.371094 384.421875 449.371094 554.484375 C 449.371094 583.449219 460.589844 650.546875 477.476562 678.378906 L 749.941406 1195.742188 L 1022.40625 678.378906 C 1039.289062 650.546875 1050.511719 583.449219 1050.511719 554.484375 C 1050.511719 384.421875 918.351562 246.609375 755.226562 246.609375 " fill-opacity="1" fill-rule="nonzero"/><g clip-path="url(#722561f3a7)"><path stroke-linecap="round" transform="matrix(0.539428, 0, 0, -0.539371, -396.883087, 1896.546033)" fill="none" stroke-linejoin="round" d="M 2135.79862 3059.00314 C 2132.496511 3059.00314 2129.303024 3058.800358 2126.000915 3058.800358 C 2122.698807 3058.800358 2119.498079 3059.00314 2116.203211 3059.00314 C 1813.900953 3059.00314 1568.799039 2803.497047 1568.799039 2488.199051 C 1568.799039 2434.497869 1589.596531 2310.097978 1620.90139 2258.497045 L 2126.000915 1299.299069 L 2631.100441 2258.497045 C 2662.398059 2310.097978 2683.202792 2434.497869 2683.202792 2488.199051 C 2683.202792 2803.497047 2438.202258 3059.00314 2135.79862 3059.00314 Z M 2135.79862 3059.00314 " stroke="#040200" stroke-width="40" stroke-opacity="1" stroke-miterlimit="10"/></g><path fill="#ffffff" d="M 913.0625 520.179688 C 913.0625 610.199219 840.027344 683.230469 749.941406 683.230469 C 659.855469 683.230469 586.816406 610.199219 586.816406 520.179688 C 586.816406 430.105469 659.855469 357.074219 749.941406 357.074219 C 840.027344 357.074219 913.0625 430.105469 913.0625 520.179688 " fill-opacity="1" fill-rule="nonzero"/><path stroke-linecap="round" transform="matrix(0.539428, 0, 0, -0.539371, -396.883087, 1896.546033)" fill="none" stroke-linejoin="round" d="M 2428.397312 2551.800369 C 2428.397312 2384.903036 2293.003614 2249.502187 2126.000915 2249.502187 C 1958.998216 2249.502187 1823.597277 2384.903036 1823.597277 2551.800369 C 1823.597277 2718.799094 1958.998216 2854.199942 2126.000915 2854.199942 C 2293.003614 2854.199942 2428.397312 2718.799094 2428.397312 2551.800369 Z M 2428.397312 2551.800369 " stroke="#040200" stroke-width="40" stroke-opacity="1" stroke-miterlimit="10"/></svg>