<svg xmlns="http://www.w3.org/2000/svg" xmlns:xlink="http://www.w3.org/1999/xlink" width="2000" zoomAndPan="magnify" viewBox="0 0 1500 1499.999933" height="2000" preserveAspectRatio="xMidYMid meet" version="1.0"><defs><clipPath id="cc539d386e"><path d="M 369 364.09375 L 709 364.09375 L 709 704 L 369 704 Z M 369 364.09375 " clip-rule="nonzero"/></clipPath><clipPath id="560aee82ce"><path d="M 214.019531 755 L 756 755 L 756 1076 L 214.019531 1076 Z M 214.019531 755 " clip-rule="nonzero"/></clipPath><clipPath id="22460b1715"><path d="M 640 817 L 1285 817 L 1285 1135.84375 L 640 1135.84375 Z M 640 817 " clip-rule="nonzero"/></clipPath></defs><rect x="-150" width="1800" fill="#ffffff" y="-149.999993" height="1799.99992" fill-opacity="1"/><rect x="-150" width="1800" fill="#ffffff" y="-149.999993" height="1799.99992" fill-opacity="1"/><g clip-path="url(#cc539d386e)"><path fill="#000000" d="M 520.683594 365.179688 C 446.421875 372.90625 384.410156 430.96875 371.589844 504.675781 C 368.011719 525.597656 368.953125 557.078125 373.855469 576.117188 C 380.640625 602.886719 396.660156 630.972656 416.640625 651.332031 C 484.308594 720.328125 590.046875 721.644531 657.902344 654.347656 C 716.335938 596.476562 725.003906 506.9375 678.449219 438.320312 C 662.050781 413.625 640.183594 394.207031 614.929688 381.578125 C 601.167969 374.605469 576.855469 367.253906 562.90625 365.933594 C 538.402344 363.671875 535.386719 363.671875 520.683594 365.179688 Z M 520.683594 365.179688 " fill-opacity="1" fill-rule="nonzero"/></g><path fill="#000000" d="M 941.574219 429.082031 C 891.0625 437.1875 849.59375 463.203125 821.886719 504.484375 C 801.152344 535.210938 790.597656 577.625 794.746094 614.007812 C 799.644531 658.121094 814.914062 688.847656 847.144531 719.574219 C 912.171875 781.78125 1012.824219 782.347656 1078.417969 721.082031 C 1139.296875 664.152344 1150.796875 574.234375 1106.125 505.992188 C 1082 469.234375 1046.375 443.21875 1005.097656 432.851562 C 987.753906 428.328125 957.21875 426.632812 941.574219 429.082031 Z M 941.574219 429.082031 " fill-opacity="1" fill-rule="nonzero"/><g clip-path="url(#560aee82ce)"><path fill="#000000" d="M 488.640625 758.21875 C 391.570312 771.222656 308.636719 821.933594 259.066406 898.464844 C 234.5625 936.546875 220.800781 975.378906 216.089844 1019.675781 C 213.453125 1043.996094 215.148438 1051.535156 224.949219 1062.46875 C 237.578125 1076.417969 228.339844 1075.851562 422.671875 1074.910156 L 595.890625 1074.15625 L 599.09375 1055.683594 C 605.125 1019.488281 614.175781 993.097656 632.082031 958.976562 C 656.773438 911.285156 698.804688 864.910156 743.476562 835.503906 C 750.074219 831.167969 755.351562 827.210938 755.351562 826.457031 C 755.351562 823.0625 721.613281 801.007812 699.746094 790.074219 C 663.371094 771.976562 629.441406 761.988281 586.65625 757.085938 C 563.472656 754.445312 511.636719 755.011719 488.640625 758.21875 Z M 488.640625 758.21875 " fill-opacity="1" fill-rule="nonzero"/></g><g clip-path="url(#22460b1715)"><path fill="#000000" d="M 924.234375 819.480469 C 790.222656 831.359375 680.898438 918.636719 649.796875 1038.90625 C 644.898438 1057.753906 639.621094 1097.34375 641.316406 1102.808594 C 641.691406 1103.941406 642.449219 1107.144531 643.011719 1110.160156 C 643.765625 1112.988281 647.347656 1118.644531 650.929688 1122.789062 C 664.125 1137.304688 642.257812 1136.550781 968.90625 1135.042969 C 1249.1875 1133.914062 1259.554688 1133.722656 1266.339844 1130.332031 C 1274.632812 1125.996094 1280.097656 1119.398438 1283.300781 1109.972656 C 1286.507812 1100.546875 1284.246094 1070.007812 1278.589844 1045.503906 C 1266.339844 992.15625 1241.835938 947.855469 1203.007812 908.835938 C 1134.585938 840.40625 1038.269531 809.492188 924.234375 819.480469 Z M 924.234375 819.480469 " fill-opacity="1" fill-rule="nonzero"/></g></svg>