<svg xmlns="http://www.w3.org/2000/svg" xmlns:xlink="http://www.w3.org/1999/xlink" width="2000" zoomAndPan="magnify" viewBox="0 0 1500 1499.999933" height="2000" preserveAspectRatio="xMidYMid meet" version="1.0"><defs><clipPath id="014bde15dc"><path d="M 391 279.082031 L 791 279.082031 L 791 386 L 391 386 Z M 391 279.082031 " clip-rule="nonzero"/></clipPath><clipPath id="b766840560"><path d="M 251.015625 1140 L 1249.265625 1140 L 1249.265625 1221 L 251.015625 1221 Z M 251.015625 1140 " clip-rule="nonzero"/></clipPath></defs><rect x="-150" width="1800" fill="#ffffff" y="-149.999993" height="1799.99992" fill-opacity="1"/><rect x="-150" width="1800" fill="#ffffff" y="-149.999993" height="1799.99992" fill-opacity="1"/><path fill="#000000" d="M 850.9375 1164.355469 L 330.953125 1164.355469 C 324.519531 1164.355469 319.253906 1159.09375 319.253906 1152.660156 L 319.253906 374.023438 C 319.253906 367.589844 324.519531 362.328125 330.953125 362.328125 L 850.9375 362.328125 C 857.371094 362.328125 862.636719 367.589844 862.636719 374.023438 L 862.636719 1152.660156 C 862.636719 1159.09375 857.371094 1164.355469 850.9375 1164.355469 Z M 342.648438 1140.960938 L 839.238281 1140.960938 L 839.238281 385.71875 L 342.648438 385.71875 Z M 342.648438 1140.960938 " fill-opacity="1" fill-rule="evenodd"/><path fill="#000000" d="M 667.082031 1164.355469 L 515.003906 1164.355469 C 508.570312 1164.355469 503.308594 1159.09375 503.308594 1152.660156 L 503.308594 979.933594 C 503.308594 955.566406 523.195312 935.679688 547.566406 935.679688 L 634.328125 935.675781 C 658.699219 935.675781 678.585938 955.5625 678.585938 979.929688 L 678.585938 1152.65625 C 678.585938 1155.777344 677.414062 1158.703125 675.078125 1160.84375 C 673.128906 1162.992188 670.203125 1164.355469 667.082031 1164.355469 Z M 526.703125 1140.960938 L 655.386719 1140.960938 L 655.386719 979.933594 C 655.386719 968.429688 646.027344 959.074219 634.523438 959.074219 L 547.761719 959.070312 C 536.257812 959.070312 526.898438 968.429688 526.898438 979.929688 L 526.898438 1140.960938 Z M 526.703125 1140.960938 " fill-opacity="1" fill-rule="evenodd"/><g clip-path="url(#014bde15dc)"><path fill="#000000" d="M 778.996094 385.71875 L 403.09375 385.71875 C 396.660156 385.71875 391.394531 380.457031 391.394531 374.023438 L 391.394531 291.359375 C 391.394531 284.925781 396.660156 279.664062 403.09375 279.664062 L 779.1875 279.667969 C 785.621094 279.667969 790.886719 284.929688 790.886719 291.363281 L 790.886719 374.023438 C 790.691406 380.457031 785.429688 385.71875 778.992188 385.71875 Z M 414.792969 362.328125 L 767.488281 362.328125 L 767.488281 303.058594 L 414.792969 303.058594 Z M 414.792969 362.328125 " fill-opacity="1" fill-rule="evenodd"/></g><path fill="#000000" d="M 529.042969 569.757812 L 410.304688 569.757812 C 403.871094 569.757812 398.609375 564.492188 398.609375 558.058594 L 398.609375 456.683594 C 398.609375 450.25 403.871094 444.984375 410.304688 444.984375 L 529.042969 444.984375 C 535.476562 444.984375 540.742188 450.25 540.742188 456.683594 L 540.742188 558.058594 C 540.742188 564.492188 535.476562 569.757812 529.042969 569.757812 Z M 422.003906 546.363281 L 517.34375 546.363281 L 517.34375 468.378906 L 422.003906 468.378906 Z M 422.003906 546.363281 " fill-opacity="1" fill-rule="evenodd"/><path fill="#000000" d="M 771.582031 569.757812 L 652.847656 569.757812 C 646.414062 569.757812 641.148438 564.492188 641.148438 558.058594 L 641.148438 456.683594 C 641.148438 450.25 646.414062 444.984375 652.847656 444.984375 L 771.582031 444.984375 C 778.015625 444.984375 783.28125 450.25 783.28125 456.683594 L 783.28125 558.058594 C 783.28125 564.492188 778.214844 569.757812 771.582031 569.757812 Z M 664.546875 546.363281 L 759.886719 546.363281 L 759.886719 468.378906 L 664.546875 468.378906 Z M 664.546875 546.363281 " fill-opacity="1" fill-rule="evenodd"/><path fill="#000000" d="M 528.847656 725.71875 L 410.113281 725.71875 C 403.675781 725.71875 398.414062 720.453125 398.414062 714.019531 L 398.414062 612.644531 C 398.414062 606.210938 403.675781 600.949219 410.113281 600.949219 L 528.847656 600.949219 C 535.28125 600.949219 540.546875 606.210938 540.546875 612.644531 L 540.546875 714.019531 C 540.546875 720.453125 535.28125 725.71875 528.847656 725.71875 Z M 421.808594 702.324219 L 517.152344 702.324219 L 517.152344 624.34375 L 421.808594 624.34375 Z M 421.808594 702.324219 " fill-opacity="1" fill-rule="evenodd"/><path fill="#000000" d="M 771.390625 725.71875 L 652.65625 725.71875 C 646.222656 725.71875 640.957031 720.453125 640.957031 714.019531 L 640.957031 612.644531 C 640.957031 606.210938 646.222656 600.949219 652.65625 600.949219 L 771.390625 600.949219 C 777.824219 600.949219 783.089844 606.210938 783.089844 612.644531 L 783.089844 714.019531 C 783.089844 720.453125 777.824219 725.71875 771.390625 725.71875 Z M 664.351562 702.324219 L 759.691406 702.324219 L 759.691406 624.34375 L 664.351562 624.34375 Z M 664.351562 702.324219 " fill-opacity="1" fill-rule="evenodd"/><path fill="#000000" d="M 528.652344 881.675781 L 409.71875 881.675781 C 403.285156 881.675781 398.023438 876.414062 398.023438 869.980469 L 398.023438 768.601562 C 398.023438 762.167969 403.285156 756.90625 409.71875 756.90625 L 528.457031 756.90625 C 534.890625 756.90625 540.15625 762.167969 540.15625 768.601562 L 540.15625 869.980469 C 540.351562 876.414062 535.089844 881.675781 528.652344 881.675781 Z M 421.417969 858.28125 L 516.761719 858.28125 L 516.761719 780.300781 L 421.417969 780.300781 Z M 421.417969 858.28125 " fill-opacity="1" fill-rule="evenodd"/><path fill="#000000" d="M 771.195312 881.675781 L 652.460938 881.675781 C 646.027344 881.675781 640.761719 876.414062 640.761719 869.980469 L 640.761719 768.601562 C 640.761719 762.167969 646.027344 756.90625 652.460938 756.90625 L 771.195312 756.90625 C 777.628906 756.90625 782.894531 762.167969 782.894531 768.601562 L 782.894531 869.980469 C 782.894531 876.414062 777.628906 881.675781 771.195312 881.675781 Z M 664.160156 858.28125 L 759.496094 858.28125 L 759.496094 780.300781 L 664.160156 780.300781 Z M 664.160156 858.28125 " fill-opacity="1" fill-rule="evenodd"/><path fill="#000000" d="M 1056.4375 765.289062 L 963.824219 765.289062 C 957.390625 765.289062 952.128906 760.027344 952.128906 753.59375 L 952.128906 668.011719 C 952.128906 661.578125 957.390625 656.3125 963.824219 656.3125 L 1056.4375 656.3125 C 1062.871094 656.3125 1068.136719 661.578125 1068.136719 668.011719 L 1068.136719 753.59375 C 1068.136719 760.027344 1062.871094 765.289062 1056.4375 765.289062 Z M 975.523438 741.898438 L 1044.738281 741.898438 L 1044.738281 679.707031 L 975.523438 679.707031 Z M 975.523438 741.898438 " fill-opacity="1" fill-rule="evenodd"/><path fill="#000000" d="M 1056.4375 909.941406 L 963.824219 909.941406 C 957.390625 909.941406 952.128906 904.679688 952.128906 898.246094 L 952.128906 812.660156 C 952.128906 806.226562 957.390625 800.960938 963.824219 800.960938 L 1056.4375 800.964844 C 1062.871094 800.964844 1068.136719 806.230469 1068.136719 812.664062 L 1068.136719 898.246094 C 1068.136719 904.875 1062.871094 909.941406 1056.4375 909.941406 Z M 975.523438 886.546875 L 1044.738281 886.546875 L 1044.738281 824.355469 L 975.523438 824.359375 Z M 975.523438 886.546875 " fill-opacity="1" fill-rule="evenodd"/><path fill="#000000" d="M 1056.4375 1054.792969 L 963.824219 1054.792969 C 957.390625 1054.792969 952.128906 1049.53125 952.128906 1043.097656 L 952.128906 957.511719 C 952.128906 951.078125 957.390625 945.8125 963.824219 945.8125 L 1056.4375 945.8125 C 1062.871094 945.8125 1068.136719 951.078125 1068.136719 957.511719 L 1068.136719 1043.097656 C 1068.136719 1049.53125 1062.871094 1054.792969 1056.4375 1054.792969 Z M 975.523438 1031.398438 L 1044.738281 1031.398438 L 1044.738281 969.207031 L 975.523438 969.207031 Z M 975.523438 1031.398438 " fill-opacity="1" fill-rule="evenodd"/><path fill="#000000" d="M 1169.324219 1164.355469 L 850.9375 1164.355469 C 844.503906 1164.355469 839.238281 1159.09375 839.238281 1152.660156 L 839.238281 612.644531 C 839.238281 606.210938 844.503906 600.945312 850.9375 600.945312 L 1169.324219 600.945312 C 1175.757812 600.945312 1181.023438 606.210938 1181.023438 612.644531 L 1181.023438 1152.660156 C 1181.023438 1159.09375 1175.757812 1164.355469 1169.324219 1164.355469 Z M 862.636719 1140.960938 L 1157.628906 1140.960938 L 1157.628906 624.339844 L 862.636719 624.339844 Z M 862.636719 1140.960938 " fill-opacity="1" fill-rule="evenodd"/><g clip-path="url(#b766840560)"><path fill="#000000" d="M 1237.566406 1220.503906 L 262.714844 1220.503906 C 256.28125 1220.503906 251.015625 1215.238281 251.015625 1208.804688 L 251.015625 1152.464844 C 251.015625 1146.03125 256.28125 1140.765625 262.714844 1140.765625 L 1237.566406 1140.765625 C 1244 1140.765625 1249.261719 1146.03125 1249.261719 1152.464844 L 1249.261719 1208.804688 C 1249.261719 1215.238281 1244 1220.503906 1237.566406 1220.503906 Z M 274.414062 1197.109375 L 1225.867188 1197.109375 L 1225.867188 1164.160156 L 274.414062 1164.160156 Z M 274.414062 1197.109375 " fill-opacity="1" fill-rule="evenodd"/></g></svg>