<svg xmlns="http://www.w3.org/2000/svg" xmlns:xlink="http://www.w3.org/1999/xlink" width="2000" zoomAndPan="magnify" viewBox="0 0 1500 1499.999933" height="2000" preserveAspectRatio="xMidYMid meet" version="1.0"><defs><clipPath id="3feb35bb4f"><path d="M 345.308594 200.417969 L 1152 200.417969 L 1152 1299.917969 L 345.308594 1299.917969 Z M 345.308594 200.417969 " clip-rule="nonzero"/></clipPath></defs><rect x="-150" width="1800" fill="#ffffff" y="-149.999993" height="1799.99992" fill-opacity="1"/><rect x="-150" width="1800" fill="#ffffff" y="-149.999993" height="1799.99992" fill-opacity="1"/><g clip-path="url(#3feb35bb4f)"><path fill="#11171d" d="M 1150.292969 856.714844 C 1154.441406 817.007812 1151.484375 773.503906 1125.207031 741.699219 C 1103.179688 715.035156 1070.753906 702.671875 1036.808594 702.605469 C 1029.335938 702.589844 1021.863281 702.601562 1014.390625 702.605469 L 1013.972656 699.335938 C 1009.035156 660.796875 1004.09375 622.253906 999.15625 583.714844 C 1021.128906 572.5 1040.191406 555.714844 1054.230469 534.339844 C 1073.554688 504.914062 1077.121094 472.230469 1077.121094 438.113281 L 1077.121094 349.761719 C 1077.121094 310.476562 1064.886719 273.511719 1037.484375 244.664062 C 1010.203125 215.945312 972.167969 200.835938 932.855469 200.5 C 918.035156 200.375 903.210938 200.5 888.390625 200.5 L 699.832031 200.5 C 654.691406 200.5 609.542969 200.316406 564.40625 200.5 C 482.453125 200.832031 419.601562 266.34375 419.398438 347.589844 C 419.324219 376.484375 419.398438 405.382812 419.398438 434.277344 C 419.398438 467.546875 421.546875 499.234375 438.910156 528.894531 C 452.839844 552.691406 473.363281 571.539062 497.351562 583.800781 C 493.785156 611.625 490.222656 639.449219 486.65625 667.273438 C 485.152344 679.019531 483.644531 690.765625 482.140625 702.511719 C 473.617188 702.527344 465.09375 702.550781 456.570312 702.605469 C 414.746094 702.875 374.683594 725.808594 356.628906 764.316406 C 347.539062 783.707031 345.667969 803.546875 345.667969 824.59375 C 345.667969 838.195312 345.410156 851.738281 347.460938 865.023438 C 346.328125 867.390625 345.667969 870.011719 345.667969 872.761719 L 345.667969 979.859375 C 345.667969 989.824219 354.109375 998.296875 364.09375 998.296875 L 444.242188 998.296875 C 437.222656 1053.089844 430.203125 1107.886719 423.179688 1162.683594 L 415.1875 1225.070312 C 412.457031 1246.386719 413.230469 1265.539062 430.328125 1282.644531 C 440.574219 1292.894531 454.789062 1299.117188 469.265625 1299.785156 C 470.125 1299.824219 470.984375 1299.851562 471.847656 1299.851562 C 472.679688 1299.816406 473.496094 1299.757812 474.308594 1299.695312 C 507.171875 1297.253906 527.441406 1273.058594 530.570312 1241.050781 C 530.832031 1238.367188 531.253906 1235.691406 531.597656 1233.015625 C 533.839844 1215.515625 536.082031 1198.019531 538.324219 1180.519531 L 561.671875 998.296875 L 934.847656 998.296875 C 941.867188 1053.089844 948.890625 1107.886719 955.910156 1162.683594 L 963.902344 1225.070312 C 966.546875 1245.707031 967.363281 1266.84375 983.15625 1282.644531 C 993.398438 1292.894531 1007.617188 1299.117188 1022.089844 1299.785156 C 1022.949219 1299.824219 1023.8125 1299.851562 1024.671875 1299.851562 C 1025.535156 1299.816406 1026.386719 1299.75 1027.238281 1299.679688 C 1061.71875 1296.9375 1086.765625 1267.476562 1082.351562 1233.015625 C 1080.109375 1215.515625 1077.867188 1198.019531 1075.625 1180.519531 L 1052.277344 998.296875 L 1132.421875 998.296875 C 1138.074219 998.296875 1142.359375 996.191406 1145.320312 993.003906 C 1148.644531 990.035156 1150.851562 985.664062 1150.851562 979.859375 L 1150.851562 872.761719 C 1150.851562 870.03125 1150.199219 867.425781 1149.074219 865.0625 C 1149.574219 862.316406 1150 859.539062 1150.292969 856.714844 Z M 1024.671875 1262.976562 C 1003.859375 1262.976562 1002.984375 1242.4375 1001.019531 1227.128906 C 998.542969 1207.777344 996.0625 1188.425781 993.582031 1169.078125 C 986.289062 1112.148438 978.996094 1055.222656 971.703125 998.296875 L 1015.421875 998.296875 C 1021.769531 1047.828125 1028.113281 1097.363281 1034.460938 1146.894531 C 1037.410156 1169.917969 1040.359375 1192.9375 1043.308594 1215.957031 C 1044.355469 1224.113281 1046.5 1232.867188 1046.53125 1241.109375 C 1046.578125 1253.425781 1036.578125 1262.496094 1024.671875 1262.976562 Z M 1047.550781 961.421875 L 382.523438 961.421875 L 382.523438 891.195312 L 1113.996094 891.195312 L 1113.996094 961.421875 Z M 471.847656 1262.976562 C 449.0625 1262.976562 449.792969 1242.628906 451.777344 1227.128906 C 454.257812 1207.777344 456.738281 1188.425781 459.214844 1169.078125 C 466.511719 1112.148438 473.804688 1055.222656 481.097656 998.296875 L 524.816406 998.296875 C 518.472656 1047.828125 512.125 1097.363281 505.777344 1146.894531 C 501.753906 1178.292969 498.019531 1209.746094 493.707031 1241.109375 C 492.023438 1253.339844 485.050781 1262.445312 471.847656 1262.976562 Z M 423.070312 746.8125 C 438.140625 739.335938 453.589844 739.476562 469.742188 739.476562 L 926.410156 739.476562 C 930.453125 739.476562 934.496094 739.46875 938.539062 739.464844 C 953.109375 739.453125 967.679688 739.421875 982.25 739.402344 C 988.394531 739.394531 994.535156 739.398438 1000.675781 739.398438 C 1006.820312 739.398438 1012.964844 739.40625 1019.105469 739.417969 C 1025.84375 739.429688 1032.578125 739.441406 1039.3125 739.476562 C 1072.328125 739.652344 1102.09375 759.632812 1111.25 792.160156 C 1115.582031 807.550781 1113.996094 824.417969 1113.996094 840.261719 C 1113.996094 845.027344 1113.761719 849.722656 1113.21875 854.324219 L 383.429688 854.324219 C 382.851562 850.316406 382.535156 846.210938 382.523438 842.03125 C 382.480469 827.464844 380.820312 811.234375 384.054688 796.914062 C 388.972656 775.160156 403.007812 756.769531 423.070312 746.8125 Z M 456.25 400.109375 C 456.25 376.652344 453.832031 351.515625 457.222656 328.1875 C 463.035156 288.222656 492.332031 253.820312 530.980469 242.074219 C 547.207031 237.140625 563.292969 237.371094 579.941406 237.371094 L 645.957031 237.371094 C 742.015625 237.371094 838.148438 236.21875 934.199219 237.371094 C 976.164062 237.875 1014.878906 262.5 1031.703125 301.351562 C 1042.09375 325.355469 1040.269531 351.035156 1040.269531 376.503906 C 1040.269531 402.691406 1040.398438 428.886719 1040.269531 455.074219 C 1040.09375 490.550781 1023.667969 524.230469 994.105469 544.273438 C 993.339844 544.789062 992.605469 545.339844 991.824219 545.839844 C 987.003906 548.921875 982.015625 551.558594 976.898438 553.796875 C 971.171875 556.296875 965.273438 558.273438 959.230469 559.730469 C 951.125 561.6875 942.761719 562.730469 934.199219 562.84375 L 579.941406 562.84375 C 565.453125 562.84375 551.378906 563.011719 537.28125 559.804688 C 535.179688 559.328125 533.082031 558.78125 530.980469 558.144531 C 527.085938 556.960938 523.296875 555.539062 519.609375 553.914062 C 513.5625 551.246094 507.8125 548.007812 502.414062 544.277344 C 478.1875 527.527344 461.144531 500.832031 457.101562 471.160156 C 453.953125 448.046875 456.25 423.332031 456.25 400.109375 Z M 971.503906 655.539062 C 973.515625 671.226562 975.527344 686.917969 977.535156 702.605469 L 933.816406 702.605469 C 933.21875 697.933594 932.621094 693.265625 932.019531 688.59375 C 928.226562 658.96875 924.429688 629.34375 920.632812 599.714844 L 934.199219 599.714844 C 944.308594 599.578125 954.253906 598.410156 963.914062 596.300781 Z M 599.976562 699.335938 C 604.230469 666.128906 608.484375 632.921875 612.742188 599.714844 L 883.777344 599.714844 C 886.664062 622.234375 889.550781 644.753906 892.433594 667.273438 C 893.945312 679.050781 895.453125 690.828125 896.960938 702.605469 L 599.558594 702.605469 Z M 520.777344 688.59375 C 524.714844 657.871094 528.652344 627.144531 532.589844 596.421875 C 540.085938 598.054688 547.738281 599.113281 555.492188 599.53125 C 562.257812 599.898438 569.066406 599.90625 575.867188 599.847656 C 573.492188 618.410156 571.113281 636.976562 568.734375 655.539062 C 566.722656 671.222656 564.714844 686.90625 562.707031 702.589844 C 548.136719 702.570312 533.566406 702.539062 518.996094 702.515625 C 519.589844 697.875 520.183594 693.234375 520.777344 688.59375 Z M 520.777344 688.59375 " fill-opacity="1" fill-rule="nonzero"/></g></svg>