<svg xmlns="http://www.w3.org/2000/svg" xmlns:xlink="http://www.w3.org/1999/xlink" width="2000" zoomAndPan="magnify" viewBox="0 0 1500 1499.999933" height="2000" preserveAspectRatio="xMidYMid meet" version="1.0"><defs><clipPath id="0b30879934"><path d="M 417 313.335938 L 1082 313.335938 L 1082 1109 L 417 1109 Z M 417 313.335938 " clip-rule="nonzero"/></clipPath><clipPath id="c27bef722f"><path d="M 382 1081 L 1118 1081 L 1118 1186.335938 L 382 1186.335938 Z M 382 1081 " clip-rule="nonzero"/></clipPath></defs><rect x="-150" width="1800" fill="#ffffff" y="-149.999993" height="1799.99992" fill-opacity="1"/><rect x="-150" width="1800" fill="#ffffff" y="-149.999993" height="1799.99992" fill-opacity="1"/><g clip-path="url(#0b30879934)"><path fill="#000000" d="M 1068.175781 1108.964844 L 431.492188 1108.964844 C 423.960938 1108.964844 417.851562 1102.855469 417.851562 1095.324219 L 417.851562 390.976562 C 417.851562 348.152344 452.699219 313.300781 495.515625 313.300781 L 1004.152344 313.300781 C 1046.96875 313.300781 1081.816406 348.152344 1081.816406 390.976562 L 1081.816406 1095.324219 C 1081.816406 1102.855469 1075.707031 1108.964844 1068.175781 1108.964844 Z M 445.132812 1081.683594 L 1054.535156 1081.683594 L 1054.535156 390.976562 C 1054.535156 363.195312 1031.929688 340.585938 1004.152344 340.585938 L 495.515625 340.585938 C 467.738281 340.585938 445.132812 363.195312 445.132812 390.976562 Z M 445.132812 1081.683594 " fill-opacity="1" fill-rule="nonzero"/></g><g clip-path="url(#c27bef722f)"><path fill="#000000" d="M 1103.746094 1186.335938 L 395.921875 1186.335938 C 391.265625 1186.335938 386.953125 1183.976562 384.429688 1180.050781 C 381.925781 1176.140625 381.589844 1171.222656 383.523438 1166.996094 L 419.097656 1089.625 C 421.316406 1084.773438 426.164062 1081.683594 431.492188 1081.683594 L 1068.175781 1081.683594 C 1073.503906 1081.683594 1078.332031 1084.792969 1080.570312 1089.625 L 1116.144531 1166.996094 C 1118.078125 1171.222656 1117.742188 1176.140625 1115.238281 1180.050781 C 1112.714844 1183.976562 1108.382812 1186.335938 1103.746094 1186.335938 Z M 417.214844 1159.054688 L 1082.472656 1159.054688 L 1059.4375 1108.964844 L 440.230469 1108.964844 Z M 417.214844 1159.054688 " fill-opacity="1" fill-rule="nonzero"/></g><path fill="#000000" d="M 801.871094 400.761719 L 697.78125 400.761719 C 690.25 400.761719 684.140625 394.652344 684.140625 387.121094 C 684.140625 379.589844 690.25 373.480469 697.78125 373.480469 L 801.871094 373.480469 C 809.398438 373.480469 815.507812 379.589844 815.507812 387.121094 C 815.507812 394.652344 809.417969 400.761719 801.871094 400.761719 Z M 801.871094 400.761719 " fill-opacity="1" fill-rule="nonzero"/><path fill="#000000" d="M 749.832031 507.882812 C 742.304688 507.882812 736.195312 501.773438 736.195312 494.242188 L 736.195312 387.121094 C 736.195312 379.589844 742.304688 373.480469 749.832031 373.480469 C 757.363281 373.480469 763.472656 379.589844 763.472656 387.121094 L 763.472656 494.242188 C 763.472656 501.773438 757.363281 507.882812 749.832031 507.882812 Z M 749.832031 507.882812 " fill-opacity="1" fill-rule="nonzero"/><path fill="#000000" d="M 922.617188 507.957031 C 915.832031 507.957031 909.972656 502.910156 909.101562 496 L 901.09375 431.96875 L 886.496094 459.695312 C 884.132812 464.171875 879.496094 466.980469 874.417969 466.980469 C 869.355469 466.980469 864.703125 464.171875 862.339844 459.695312 L 847.742188 431.96875 L 839.734375 496 C 838.792969 503.480469 831.988281 508.773438 824.511719 507.847656 C 817.035156 506.90625 811.742188 500.105469 812.667969 492.625 L 826.058594 385.503906 C 826.804688 379.589844 831.296875 374.847656 837.15625 373.78125 C 843.019531 372.714844 848.898438 375.574219 851.667969 380.851562 L 874.398438 424.066406 L 897.1875 380.832031 C 899.957031 375.558594 905.835938 372.699219 911.695312 373.765625 C 917.554688 374.828125 922.050781 379.570312 922.796875 385.488281 L 936.1875 492.609375 C 937.128906 500.085938 931.816406 506.90625 924.339844 507.832031 C 923.753906 507.921875 923.1875 507.957031 922.617188 507.957031 Z M 922.617188 507.957031 " fill-opacity="1" fill-rule="nonzero"/><path fill="#000000" d="M 677.195312 507.957031 C 672.066406 507.957031 667.144531 505.042969 664.835938 500.085938 L 614.753906 392.824219 C 611.574219 386 614.523438 377.882812 621.34375 374.6875 C 628.164062 371.507812 636.277344 374.457031 639.476562 381.277344 L 689.558594 488.542969 C 692.738281 495.363281 689.789062 503.480469 682.96875 506.675781 C 681.085938 507.546875 679.132812 507.957031 677.195312 507.957031 Z M 677.195312 507.957031 " fill-opacity="1" fill-rule="nonzero"/><path fill="#000000" d="M 577.015625 507.957031 C 575.078125 507.957031 573.125 507.546875 571.261719 506.675781 C 564.441406 503.496094 561.492188 495.378906 564.671875 488.542969 L 614.753906 381.277344 C 617.933594 374.457031 626.050781 371.492188 632.886719 374.6875 C 639.707031 377.867188 642.65625 385.984375 639.476562 392.824219 L 589.394531 500.085938 C 587.066406 505.042969 582.148438 507.957031 577.015625 507.957031 Z M 577.015625 507.957031 " fill-opacity="1" fill-rule="nonzero"/><path fill="#000000" d="M 660.574219 472.394531 L 593.621094 472.394531 C 586.089844 472.394531 579.980469 466.285156 579.980469 458.753906 C 579.980469 451.222656 586.089844 445.113281 593.621094 445.113281 L 660.574219 445.113281 C 668.105469 445.113281 674.214844 451.222656 674.214844 458.753906 C 674.214844 466.285156 668.121094 472.394531 660.574219 472.394531 Z M 660.574219 472.394531 " fill-opacity="1" fill-rule="nonzero"/><path fill="#000000" d="M 823.714844 1048.859375 C 816.183594 1048.859375 810.074219 1042.75 810.074219 1035.21875 L 810.074219 624.261719 C 810.074219 616.730469 816.183594 610.621094 823.714844 610.621094 C 831.242188 610.621094 837.351562 616.730469 837.351562 624.261719 L 837.351562 1035.21875 C 837.351562 1042.75 831.246094 1048.859375 823.714844 1048.859375 Z M 823.714844 1048.859375 " fill-opacity="1" fill-rule="nonzero"/><path fill="#000000" d="M 981.597656 686.480469 L 900.632812 686.480469 C 893.101562 686.480469 886.992188 680.371094 886.992188 672.839844 L 886.992188 637.902344 L 612.675781 637.902344 L 612.675781 672.839844 C 612.675781 680.371094 606.566406 686.480469 599.035156 686.480469 L 518.070312 686.480469 C 510.539062 686.480469 504.429688 680.371094 504.429688 672.839844 L 504.429688 569.589844 C 504.429688 562.058594 510.539062 555.949219 518.070312 555.949219 L 981.597656 555.949219 C 989.128906 555.949219 995.238281 562.058594 995.238281 569.589844 L 995.238281 672.839844 C 995.238281 680.386719 989.128906 686.480469 981.597656 686.480469 Z M 914.269531 659.199219 L 967.957031 659.199219 L 967.957031 583.230469 L 531.710938 583.230469 L 531.710938 659.199219 L 585.398438 659.199219 L 585.398438 624.261719 C 585.398438 616.730469 591.507812 610.621094 599.035156 610.621094 L 900.632812 610.621094 C 908.160156 610.621094 914.269531 616.730469 914.269531 624.261719 Z M 914.269531 659.199219 " fill-opacity="1" fill-rule="nonzero"/><path fill="#000000" d="M 900.632812 1048.859375 L 599.035156 1048.859375 C 591.507812 1048.859375 585.398438 1042.75 585.398438 1035.21875 L 585.398438 624.261719 C 585.398438 616.730469 591.507812 610.621094 599.035156 610.621094 L 900.632812 610.621094 C 908.160156 610.621094 914.269531 616.730469 914.269531 624.261719 L 914.269531 1035.21875 C 914.269531 1042.75 908.160156 1048.859375 900.632812 1048.859375 Z M 612.675781 1021.578125 L 886.992188 1021.578125 L 886.992188 637.902344 L 612.675781 637.902344 Z M 612.675781 1021.578125 " fill-opacity="1" fill-rule="nonzero"/><path fill="#000000" d="M 713.25 969.515625 L 648.25 969.515625 C 640.71875 969.515625 634.609375 963.40625 634.609375 955.875 L 634.609375 890.867188 C 634.609375 883.335938 640.71875 877.226562 648.25 877.226562 L 713.25 877.226562 C 720.777344 877.226562 726.886719 883.335938 726.886719 890.867188 L 726.886719 955.875 C 726.886719 963.40625 720.777344 969.515625 713.25 969.515625 Z M 661.886719 942.234375 L 699.609375 942.234375 L 699.609375 904.507812 L 661.886719 904.507812 Z M 661.886719 942.234375 " fill-opacity="1" fill-rule="nonzero"/></svg>