<svg xmlns="http://www.w3.org/2000/svg" xmlns:xlink="http://www.w3.org/1999/xlink" width="2000" zoomAndPan="magnify" viewBox="0 0 1500 1499.999933" height="2000" preserveAspectRatio="xMidYMid meet" version="1.0"><defs><clipPath id="a2df41f22b"><path d="M 261 352.503906 L 1239.523438 352.503906 L 1239.523438 1147.503906 L 261 1147.503906 Z M 261 352.503906 " clip-rule="nonzero"/></clipPath></defs><rect x="-150" width="1800" fill="#ffffff" y="-149.999993" height="1799.99992" fill-opacity="1"/><rect x="-150" width="1800" fill="#ffffff" y="-149.999993" height="1799.99992" fill-opacity="1"/><g clip-path="url(#a2df41f22b)"><path fill="#070707" d="M 736.761719 353.21875 C 775.925781 349.40625 816.859375 360.847656 846.738281 386.867188 C 874.113281 409.890625 890.921875 444.171875 893.996094 479.621094 C 896.359375 495.261719 893.375 510.785156 891.859375 526.324219 C 891.617188 528.785156 893.167969 531.042969 895.503906 531.847656 C 919.46875 540.0625 940.800781 554.328125 961.347656 568.84375 C 994.898438 593.628906 1026.863281 621.203125 1052.894531 653.96875 C 1075 680.179688 1085.832031 713.265625 1094.894531 745.8125 C 1095.71875 748.765625 1098.867188 750.429688 1101.722656 749.308594 C 1116.261719 743.601562 1129.800781 735.601562 1141.640625 725.414062 C 1144.351562 723.078125 1143.789062 718.8125 1140.777344 716.878906 C 1124.933594 706.714844 1111.507812 691.867188 1107.8125 673 C 1105.871094 658.527344 1105.65625 641.648438 1116.21875 630.242188 C 1131.226562 613.191406 1161.285156 617.460938 1173.609375 635.609375 C 1186.917969 654.0625 1186.40625 677.933594 1182.777344 699.613281 C 1182.207031 703.015625 1184.90625 706.144531 1188.320312 705.65625 C 1195.550781 704.625 1202.617188 702.351562 1208.328125 697.613281 C 1216.570312 691.804688 1219.804688 681.796875 1226.5 674.632812 C 1227.101562 673.988281 1227.875 673.511719 1228.75 673.410156 C 1234.679688 672.71875 1240.203125 678.703125 1239.019531 684.6875 C 1238.171875 698.5625 1227.082031 708.734375 1217.15625 717.171875 C 1204.070312 728.046875 1186.660156 729.597656 1170.417969 731.273438 C 1169.195312 731.398438 1168.054688 731.953125 1167.183594 732.820312 C 1149.882812 750.144531 1129.097656 765.117188 1104.851562 770.226562 C 1102.09375 770.808594 1100.121094 773.320312 1100.367188 776.128906 C 1104.824219 827.328125 1099.925781 880.167969 1078.003906 927.21875 C 1060.570312 965.757812 1032.886719 1001.746094 994.167969 1020.496094 C 992.375 1021.367188 991.171875 1023.128906 991.09375 1025.121094 C 990.511719 1040.117188 990.367188 1055.179688 987.765625 1070 C 984.660156 1089.492188 984.800781 1110.390625 975.226562 1128.152344 C 962.300781 1147.148438 936.519531 1144.605469 916.457031 1146.726562 C 893.359375 1146.335938 867.71875 1151.773438 847.128906 1138.460938 C 831.128906 1126.894531 830.335938 1105.8125 828.042969 1087.59375 C 827.691406 1084.796875 825.148438 1082.835938 822.339844 1083.117188 C 757.472656 1089.570312 691.058594 1091.421875 626.902344 1078.359375 C 623.800781 1077.726562 620.820312 1079.890625 620.515625 1083.039062 C 618.40625 1105.078125 615.5625 1131.6875 592.910156 1141.394531 C 567.089844 1148.59375 539.824219 1144.785156 513.441406 1143.515625 C 494.898438 1142.597656 473.636719 1135.390625 466.539062 1116.464844 C 456.4375 1088.378906 457.308594 1057.996094 456.914062 1028.535156 C 456.886719 1026.480469 455.65625 1024.632812 453.789062 1023.761719 C 418.726562 1007.347656 389.066406 979.261719 370.402344 945.324219 C 369.433594 943.5625 367.578125 942.464844 365.570312 942.503906 C 340.453125 942.96875 313.496094 941.929688 292.246094 927.148438 C 273.527344 912.035156 267.910156 887 263.917969 864.472656 C 261.128906 832.132812 258.867188 799.226562 265.15625 767.132812 C 269.003906 748.703125 281.226562 731.1875 299.273438 724.480469 C 314.367188 718.875 330.511719 716.816406 346.546875 716.117188 C 348.917969 716.015625 350.941406 714.378906 351.574219 712.089844 C 360.457031 680.054688 379.675781 651.378906 404.878906 629.847656 C 406.660156 628.324219 407.289062 625.832031 406.398438 623.660156 C 395.003906 595.84375 385.984375 567.117188 378.03125 538.195312 C 374.066406 521.042969 368.484375 502.894531 373.121094 485.339844 C 373.257812 484.824219 373.480469 484.328125 373.792969 483.890625 C 381.902344 472.5 398.070312 476.484375 409.78125 478.632812 C 451.046875 486.460938 485.726562 512.417969 514.460938 541.902344 C 516.140625 543.621094 518.753906 544.023438 520.882812 542.910156 C 548.300781 528.570312 578.8125 520.8125 609.511719 517.457031 C 612.636719 517.117188 614.824219 514.179688 614.363281 511.070312 C 608.582031 472.1875 621.917969 431.238281 646.980469 401.273438 C 669.089844 374.191406 702.324219 357.527344 736.761719 353.21875 Z M 1151.425781 646.421875 C 1138.777344 637.96875 1125.988281 654.4375 1128.25 666.585938 C 1128.296875 666.84375 1128.335938 667.105469 1128.355469 667.371094 C 1129.382812 681.15625 1139.269531 691.566406 1151.136719 697.433594 C 1153.90625 698.808594 1157.132812 697.15625 1157.914062 694.164062 C 1162.160156 677.957031 1165.492188 658.015625 1151.425781 646.421875 Z M 1151.425781 646.421875 " fill-opacity="1" fill-rule="nonzero"/></g><path fill="#f9f7f7" d="M 741.171875 375.921875 C 801.777344 367.199219 862.59375 414.828125 871.636719 474.78125 C 879.171875 524.398438 846.566406 574.953125 800.816406 593.316406 C 800.121094 593.597656 799.378906 593.714844 798.632812 593.679688 C 767.722656 592.191406 736.582031 593.375 705.875 589.125 C 705.296875 589.042969 704.738281 588.871094 704.222656 588.601562 C 677.191406 574.632812 654.472656 550.90625 644.503906 521.847656 C 632.601562 490.140625 637.546875 453.03125 656.761719 425.246094 C 675.515625 397.035156 707.582031 378.992188 741.171875 375.921875 Z M 741.171875 375.921875 " fill-opacity="1" fill-rule="nonzero"/><path fill="#070707" d="M 745.082031 425.488281 C 745.601562 425.355469 745.996094 424.925781 746.054688 424.390625 C 746.976562 416.175781 745.230469 402.820312 756.210938 402.203125 C 756.65625 402.175781 757.117188 402.230469 757.542969 402.359375 C 766.90625 405.195312 764.9375 416.574219 764.742188 424.515625 C 764.730469 425.144531 765.167969 425.679688 765.78125 425.808594 C 774.679688 427.671875 783.894531 429.5 791.574219 434.699219 C 799.125 438.882812 798.035156 452.007812 789.40625 454.007812 C 788.90625 454.125 788.378906 454.117188 787.871094 454.03125 C 780.074219 452.714844 772.960938 448.910156 765.496094 446.511719 C 764.65625 446.242188 763.8125 446.875 763.8125 447.757812 C 763.8125 459.199219 763.808594 470.640625 763.714844 482.113281 C 763.710938 482.648438 764.027344 483.132812 764.519531 483.34375 C 780.71875 490.199219 801.3125 498.625 803.015625 518.800781 C 803.292969 539.328125 783.890625 551.214844 766.191406 555.679688 C 765.707031 555.800781 765.328125 556.179688 765.226562 556.671875 C 764.097656 562.117188 764.15625 568.113281 761.179688 572.867188 C 760.425781 574.078125 759.054688 574.710938 757.628906 574.765625 C 755.53125 574.84375 753.445312 574.867188 751.363281 574.832031 C 748.894531 574.792969 746.832031 572.96875 746.464844 570.527344 C 745.875 566.609375 745.417969 562.683594 745.015625 558.753906 C 744.957031 558.175781 744.527344 557.703125 743.960938 557.589844 C 728.941406 554.554688 712.113281 550.832031 702.464844 537.902344 C 696.746094 532.078125 703.347656 520.460938 711.1875 524.414062 C 721.390625 530.261719 731.792969 536.308594 743.804688 537.316406 C 744.5625 537.378906 745.199219 536.769531 745.195312 536.011719 C 745.160156 524.117188 745.070312 512.222656 745.191406 500.328125 C 745.195312 499.761719 744.84375 499.253906 744.304688 499.066406 C 731.441406 494.550781 717.382812 490.042969 708.925781 478.65625 C 700.839844 467.675781 703.523438 451.644531 712.496094 442.042969 C 720.253906 431.804688 733.199219 428.464844 745.082031 425.488281 Z M 745.082031 425.488281 " fill-opacity="1" fill-rule="nonzero"/><path fill="#070707" d="M 978.296875 477.871094 C 975.691406 479.917969 972 478.082031 971.757812 474.777344 C 970.753906 461.023438 977.472656 446.496094 988.207031 437.699219 C 991.757812 434.792969 995.753906 438.488281 993.992188 442.726562 C 990.046875 452.207031 985.90625 461.617188 982.457031 471.292969 C 982.371094 471.546875 982.300781 471.804688 982.242188 472.0625 C 981.65625 474.5625 980.167969 476.410156 978.296875 477.871094 Z M 978.296875 477.871094 " fill-opacity="1" fill-rule="nonzero"/><path fill="#f9f7f7" d="M 724.722656 462.421875 C 724.59375 452.125 735.359375 449.273438 743.320312 445.992188 C 744.203125 445.628906 745.191406 446.257812 745.207031 447.210938 C 745.363281 456.664062 745.320312 466.121094 745.285156 475.574219 C 745.28125 476.53125 744.292969 477.179688 743.394531 476.851562 C 735.734375 474.058594 723.8125 472.203125 724.722656 462.421875 Z M 724.722656 462.421875 " fill-opacity="1" fill-rule="nonzero"/><path fill="#070707" d="M 999.808594 496.109375 C 1009.996094 488.519531 1020.972656 481.222656 1033.207031 477.605469 C 1037.222656 476.417969 1040.105469 480.515625 1037.476562 483.777344 C 1030.570312 492.34375 1020.804688 498.511719 1011.886719 504.828125 C 1008.652344 507.621094 1004.722656 508.382812 1000.703125 508.539062 C 997.148438 508.671875 994.324219 504.941406 995.609375 501.625 C 996.453125 499.429688 997.660156 497.445312 999.808594 496.109375 Z M 999.808594 496.109375 " fill-opacity="1" fill-rule="nonzero"/><path fill="#f9f7f7" d="M 399.839844 509.035156 C 399.402344 505.730469 402.179688 502.914062 405.472656 503.445312 C 439.226562 508.890625 467 532.378906 490.203125 556.273438 C 498.503906 563.863281 507.402344 575.410156 520.1875 571.703125 C 533.042969 567.289062 544.664062 559.875 557.554688 555.425781 C 576.617188 547.722656 597.082031 545.296875 617.277344 542.394531 C 619.570312 542.066406 621.804688 543.253906 622.867188 545.3125 C 629.832031 558.828125 638.675781 571.222656 648.902344 582.445312 C 651.902344 585.742188 649.976562 590.964844 645.515625 591.089844 C 635.949219 591.363281 626.21875 591.546875 617.894531 596.203125 C 616.949219 596.730469 616.234375 597.585938 615.835938 598.589844 C 613.964844 603.351562 612.398438 609.1875 616.5 613.191406 C 625.082031 623.5 640.019531 617.179688 651.429688 617.675781 C 723.054688 610.71875 794.859375 619.296875 866.023438 626.890625 C 878.128906 627.867188 883.652344 610.304688 874.117188 603.34375 C 873.882812 603.171875 873.625 603.03125 873.363281 602.910156 C 868.390625 600.707031 863.054688 599.78125 857.710938 598.9375 C 853.714844 598.3125 852.09375 593.65625 854.691406 590.5625 C 863.449219 580.109375 871.648438 569.167969 878.351562 557.285156 C 879.671875 554.9375 882.511719 553.859375 885 554.890625 C 917.910156 568.511719 946.65625 590.320312 973.886719 612.941406 C 1007.96875 642.566406 1043.390625 674.128906 1060.132812 717.347656 C 1083.160156 778.746094 1079.59375 848.304688 1056.285156 909.105469 C 1044.449219 940.175781 1025.097656 968.84375 998.394531 989.003906 C 989.746094 996.300781 979.195312 1001.269531 971.402344 1009.472656 C 970.707031 1010.207031 970.269531 1011.144531 970.113281 1012.144531 C 965.382812 1042.5 961.390625 1073.019531 957.707031 1103.507812 C 955.625 1119.183594 937.226562 1118.691406 925.21875 1119.820312 C 905.585938 1120.71875 884.667969 1124.828125 865.710938 1118.320312 C 864.894531 1118.039062 864.160156 1117.542969 863.613281 1116.878906 C 851.570312 1102.167969 856.648438 1080.035156 848.292969 1063.398438 C 843.347656 1056.019531 834.0625 1054.253906 825.867188 1056.054688 C 758.515625 1064.914062 689.539062 1065.199219 622.859375 1051.113281 C 614.136719 1048.324219 602.761719 1050.265625 599.230469 1059.761719 C 594.074219 1075.015625 594.847656 1091.574219 590.152344 1106.96875 C 587.433594 1115.265625 578.746094 1119.609375 570.375 1119.113281 C 546.109375 1119.222656 521.285156 1120.101562 497.652344 1113.675781 C 486.457031 1110.179688 486.847656 1096.691406 485.609375 1087.230469 C 484.761719 1065.730469 479.183594 1044.71875 478.265625 1023.21875 C 477.558594 1017.214844 477.980469 1008.707031 471.058594 1006.34375 C 459.476562 1000.796875 448.597656 993.875 439.027344 985.296875 C 420.941406 969.199219 402.1875 952.570312 391.417969 930.394531 C 387.851562 922.695312 382.058594 913.765625 372.238281 914.71875 C 351.367188 915.882812 328.832031 916.730469 310.078125 905.996094 C 295.667969 897.203125 292.492188 879.054688 289.699219 863.804688 C 286.910156 840.570312 287.121094 817.019531 288.042969 793.683594 C 290.089844 778.078125 291.644531 758.234375 307.605469 750.289062 C 323.960938 742.910156 342.394531 744.816406 359.738281 742.0625 C 370.332031 741.179688 374.289062 729.777344 376.902344 721.089844 C 384.070312 694.183594 400.175781 670.140625 421.121094 651.992188 C 428.429688 645.140625 437.859375 636.457031 435.351562 625.335938 C 420.992188 587.5 405.199219 549.410156 399.839844 509.035156 Z M 399.839844 509.035156 " fill-opacity="1" fill-rule="nonzero"/><path fill="#f9f7f7" d="M 764.011719 506.714844 C 763.988281 505.730469 765.011719 505.066406 765.894531 505.507812 C 771.96875 508.546875 777.738281 512.1875 782.808594 516.703125 C 784.265625 518 784.824219 520.058594 784.011719 521.828125 C 780.695312 529.089844 773.898438 533.328125 766.691406 536.46875 C 765.859375 536.832031 764.929688 536.25 764.878906 535.34375 C 764.34375 525.800781 764.210938 516.257812 764.011719 506.714844 Z M 764.011719 506.714844 " fill-opacity="1" fill-rule="nonzero"/><path fill="#070707" d="M 486.496094 692.636719 C 491.792969 689.886719 497.515625 693.378906 500.339844 697.972656 C 510.617188 713.046875 507.582031 733.277344 500.695312 749.097656 C 498.574219 756.371094 489 757.535156 482.960938 754.886719 C 473.566406 750.578125 472.863281 739.105469 470.566406 730.347656 C 466.398438 716.222656 472.4375 698.640625 486.496094 692.636719 Z M 486.496094 692.636719 " fill-opacity="1" fill-rule="nonzero"/><path fill="#070707" d="M 320.84375 789.386719 C 322.148438 786.953125 325.253906 786.128906 327.355469 787.914062 C 336.8125 795.960938 337.710938 810.441406 337.269531 822.253906 C 336.628906 834.523438 336.34375 847.988281 330.074219 858.921875 C 329.5 859.929688 328.566406 860.753906 327.410156 860.878906 C 322.359375 861.425781 320.957031 854.984375 319.011719 851.027344 C 310.871094 831.4375 310.753906 808.214844 320.84375 789.386719 Z M 320.84375 789.386719 " fill-opacity="1" fill-rule="nonzero"/></svg>