<svg xmlns="http://www.w3.org/2000/svg" xmlns:xlink="http://www.w3.org/1999/xlink" width="2000" zoomAndPan="magnify" viewBox="0 0 1500 1499.999933" height="2000" preserveAspectRatio="xMidYMid meet" version="1.0"><defs><clipPath id="507c4900d6"><path d="M 617 1107 L 717 1107 L 717 1185.777344 L 617 1185.777344 Z M 617 1107 " clip-rule="nonzero"/></clipPath><clipPath id="6cdb11eeb9"><path d="M 291.34375 763 L 374 763 L 374 892 L 291.34375 892 Z M 291.34375 763 " clip-rule="nonzero"/></clipPath><clipPath id="007875faa2"><path d="M 384 1107 L 484 1107 L 484 1185.777344 L 384 1185.777344 Z M 384 1107 " clip-rule="nonzero"/></clipPath><clipPath id="1a49abcd3d"><path d="M 671 659 L 1208.59375 659 L 1208.59375 739 L 671 739 Z M 671 659 " clip-rule="nonzero"/></clipPath><clipPath id="5197bb6e7b"><path d="M 583 314.277344 L 1153 314.277344 L 1153 603 L 583 603 Z M 583 314.277344 " clip-rule="nonzero"/></clipPath></defs><rect x="-150" width="1800" fill="#ffffff" y="-149.999993" height="1799.99992" fill-opacity="1"/><rect x="-150" width="1800" fill="#ffffff" y="-149.999993" height="1799.99992" fill-opacity="1"/><path fill="#000000" d="M 694.160156 978.261719 L 406.34375 978.261719 C 374.480469 978.261719 348.527344 952.304688 348.527344 920.4375 L 348.527344 800.359375 C 348.527344 768.492188 374.480469 742.535156 406.34375 742.535156 L 694.160156 742.535156 C 726.019531 742.535156 751.972656 768.492188 751.972656 800.359375 L 751.972656 920.4375 C 751.972656 952.304688 726.019531 978.261719 694.160156 978.261719 Z M 406.34375 767.648438 C 388.410156 767.648438 373.847656 782.210938 373.847656 800.148438 L 373.847656 920.226562 C 373.847656 938.164062 388.410156 952.726562 406.34375 952.726562 L 694.160156 952.726562 C 712.09375 952.726562 726.652344 938.164062 726.652344 920.226562 L 726.652344 800.148438 C 726.652344 782.210938 712.09375 767.648438 694.160156 767.648438 Z M 406.34375 767.648438 " fill-opacity="1" fill-rule="nonzero"/><path fill="#000000" d="M 550.25 978.261719 C 543.289062 978.261719 537.589844 972.5625 537.589844 965.601562 L 537.589844 759.628906 C 537.589844 752.664062 543.289062 746.96875 550.25 746.96875 C 557.214844 746.96875 562.910156 752.664062 562.910156 759.628906 L 562.910156 965.601562 C 562.910156 972.5625 557.214844 978.261719 550.25 978.261719 Z M 550.25 978.261719 " fill-opacity="1" fill-rule="nonzero"/><path fill="#000000" d="M 630.011719 724.386719 L 470.703125 724.386719 C 463.738281 724.386719 458.039062 718.6875 458.039062 711.726562 C 458.039062 704.761719 463.738281 699.0625 470.703125 699.0625 L 630.011719 699.0625 C 636.976562 699.0625 642.671875 704.761719 642.671875 711.726562 C 642.671875 718.6875 636.976562 724.386719 630.011719 724.386719 Z M 630.011719 724.386719 " fill-opacity="1" fill-rule="nonzero"/><path fill="#000000" d="M 777.085938 891.738281 L 739.3125 891.738281 C 732.351562 891.738281 726.652344 886.039062 726.652344 879.074219 L 726.652344 776.722656 C 726.652344 769.757812 732.351562 764.0625 739.3125 764.0625 L 777.085938 764.0625 C 794.808594 764.0625 809.15625 778.410156 809.15625 796.140625 L 809.15625 859.660156 C 809.15625 877.386719 794.808594 891.738281 777.085938 891.738281 Z M 751.972656 866.414062 L 777.085938 866.414062 C 780.671875 866.414062 783.835938 863.460938 783.835938 859.660156 L 783.835938 795.925781 C 783.835938 792.339844 780.882812 789.175781 777.085938 789.175781 L 751.972656 789.175781 Z M 751.972656 866.414062 " fill-opacity="1" fill-rule="nonzero"/><path fill="#000000" d="M 675.589844 1081.246094 C 653.011719 1081.246094 634.863281 1062.886719 634.863281 1040.519531 C 634.863281 1018.148438 653.222656 999.789062 675.589844 999.789062 C 697.957031 999.789062 716.3125 1017.9375 716.3125 1040.519531 C 716.3125 1063.097656 697.957031 1081.246094 675.589844 1081.246094 Z M 675.589844 1024.902344 C 666.9375 1024.902344 660.1875 1031.863281 660.1875 1040.304688 C 660.1875 1048.746094 667.148438 1055.710938 675.589844 1055.710938 C 684.03125 1055.710938 690.992188 1048.746094 690.992188 1040.304688 C 690.992188 1031.863281 684.03125 1024.902344 675.589844 1024.902344 Z M 675.589844 1024.902344 " fill-opacity="1" fill-rule="nonzero"/><path fill="#000000" d="M 596.882812 1058.246094 L 550.039062 1058.246094 C 543.078125 1058.246094 537.378906 1052.546875 537.378906 1045.582031 C 537.378906 1038.617188 543.078125 1032.921875 550.039062 1032.921875 L 596.882812 1032.921875 C 603.847656 1032.921875 609.542969 1038.617188 609.542969 1045.582031 C 609.542969 1052.546875 604.058594 1058.246094 596.882812 1058.246094 Z M 596.882812 1058.246094 " fill-opacity="1" fill-rule="nonzero"/><g clip-path="url(#507c4900d6)"><path fill="#000000" d="M 681.285156 1185.5 L 652.167969 1185.5 C 632.753906 1185.5 617.140625 1169.882812 617.140625 1150.46875 L 617.140625 1120.5 C 617.140625 1113.535156 622.835938 1107.835938 629.800781 1107.835938 L 703.652344 1107.835938 C 710.617188 1107.835938 716.3125 1113.535156 716.3125 1120.5 L 716.3125 1150.46875 C 716.3125 1169.671875 700.699219 1185.5 681.285156 1185.5 Z M 642.671875 1133.160156 L 642.671875 1150.46875 C 642.671875 1155.742188 647.105469 1160.175781 652.378906 1160.175781 L 681.496094 1160.175781 C 686.773438 1160.175781 691.203125 1155.742188 691.203125 1150.46875 L 691.203125 1133.160156 Z M 642.671875 1133.160156 " fill-opacity="1" fill-rule="nonzero"/></g><path fill="#000000" d="M 706.1875 1132.949219 L 394.316406 1132.949219 C 368.996094 1132.949219 348.316406 1112.269531 348.316406 1086.945312 L 348.316406 745.914062 C 348.316406 696.320312 388.621094 655.800781 438.417969 655.800781 L 661.875 655.800781 C 670.527344 655.800781 678.964844 657.066406 687.195312 659.386719 C 716.945312 668.039062 740.582031 692.097656 748.597656 722.066406 C 750.707031 729.664062 751.761719 737.894531 751.761719 745.914062 L 751.761719 1087.15625 C 751.972656 1112.480469 731.507812 1132.949219 706.1875 1132.949219 Z M 438.417969 681.125 C 402.757812 681.125 373.636719 710.246094 373.636719 745.914062 L 373.636719 1087.15625 C 373.636719 1098.550781 382.921875 1107.835938 394.316406 1107.835938 L 706.1875 1107.835938 C 717.582031 1107.835938 726.863281 1098.550781 726.863281 1087.15625 L 726.863281 745.914062 C 726.863281 740.003906 726.019531 734.304688 724.542969 728.820312 C 718.636719 707.292969 701.753906 690.199219 680.441406 683.867188 C 674.535156 682.179688 668.414062 681.335938 662.085938 681.335938 L 438.417969 681.335938 Z M 438.417969 681.125 " fill-opacity="1" fill-rule="nonzero"/><path fill="#000000" d="M 694.160156 978.261719 L 406.34375 978.261719 C 374.480469 978.261719 348.527344 952.304688 348.527344 920.4375 L 348.527344 800.359375 C 348.527344 768.492188 374.480469 742.535156 406.34375 742.535156 L 694.160156 742.535156 C 726.019531 742.535156 751.972656 768.492188 751.972656 800.359375 L 751.972656 920.4375 C 751.972656 952.304688 726.019531 978.261719 694.160156 978.261719 Z M 406.34375 767.648438 C 388.410156 767.648438 373.847656 782.210938 373.847656 800.148438 L 373.847656 920.226562 C 373.847656 938.164062 388.410156 952.726562 406.34375 952.726562 L 694.160156 952.726562 C 712.09375 952.726562 726.652344 938.164062 726.652344 920.226562 L 726.652344 800.148438 C 726.652344 782.210938 712.09375 767.648438 694.160156 767.648438 Z M 406.34375 767.648438 " fill-opacity="1" fill-rule="nonzero"/><path fill="#000000" d="M 550.25 978.261719 C 543.289062 978.261719 537.589844 972.5625 537.589844 965.601562 L 537.589844 759.628906 C 537.589844 752.664062 543.289062 746.96875 550.25 746.96875 C 557.214844 746.96875 562.910156 752.664062 562.910156 759.628906 L 562.910156 965.601562 C 562.910156 972.5625 557.214844 978.261719 550.25 978.261719 Z M 550.25 978.261719 " fill-opacity="1" fill-rule="nonzero"/><path fill="#000000" d="M 630.011719 724.386719 L 470.703125 724.386719 C 463.738281 724.386719 458.039062 718.6875 458.039062 711.726562 C 458.039062 704.761719 463.738281 699.0625 470.703125 699.0625 L 630.011719 699.0625 C 636.976562 699.0625 642.671875 704.761719 642.671875 711.726562 C 642.671875 718.6875 636.976562 724.386719 630.011719 724.386719 Z M 630.011719 724.386719 " fill-opacity="1" fill-rule="nonzero"/><g clip-path="url(#6cdb11eeb9)"><path fill="#000000" d="M 360.976562 891.738281 L 323.417969 891.738281 C 305.695312 891.738281 291.34375 877.386719 291.34375 859.660156 L 291.34375 795.925781 C 291.34375 778.199219 305.695312 763.851562 323.417969 763.851562 L 361.1875 763.851562 C 368.152344 763.851562 373.847656 769.546875 373.847656 776.511719 L 373.847656 878.863281 C 373.636719 886.039062 368.152344 891.738281 360.976562 891.738281 Z M 323.417969 789.386719 C 319.832031 789.386719 316.664062 792.339844 316.664062 796.140625 L 316.664062 859.660156 C 316.664062 863.246094 319.621094 866.414062 323.417969 866.414062 L 348.527344 866.414062 L 348.527344 789.386719 Z M 323.417969 789.386719 " fill-opacity="1" fill-rule="nonzero"/></g><path fill="#000000" d="M 424.914062 1081.246094 C 402.335938 1081.246094 384.1875 1062.886719 384.1875 1040.519531 C 384.1875 1018.148438 402.546875 999.789062 424.914062 999.789062 C 447.492188 999.789062 465.636719 1018.148438 465.636719 1040.519531 C 465.636719 1062.886719 447.492188 1081.246094 424.914062 1081.246094 Z M 424.914062 1024.902344 C 416.261719 1024.902344 409.507812 1031.863281 409.507812 1040.304688 C 409.507812 1048.746094 416.472656 1055.710938 424.914062 1055.710938 C 433.5625 1055.710938 440.316406 1048.746094 440.316406 1040.304688 C 440.316406 1031.863281 433.5625 1024.902344 424.914062 1024.902344 Z M 424.914062 1024.902344 " fill-opacity="1" fill-rule="nonzero"/><path fill="#000000" d="M 550.25 1058.246094 L 503.40625 1058.246094 C 496.445312 1058.246094 490.746094 1052.546875 490.746094 1045.582031 C 490.746094 1038.617188 496.445312 1032.921875 503.40625 1032.921875 L 550.25 1032.921875 C 557.214844 1032.921875 562.910156 1038.617188 562.910156 1045.582031 C 562.910156 1052.546875 557.214844 1058.246094 550.25 1058.246094 Z M 550.25 1058.246094 " fill-opacity="1" fill-rule="nonzero"/><g clip-path="url(#007875faa2)"><path fill="#000000" d="M 448.125 1185.5 L 419.214844 1185.5 C 399.804688 1185.5 384.1875 1169.882812 384.1875 1150.46875 L 384.1875 1120.5 C 384.1875 1113.535156 389.886719 1107.835938 396.847656 1107.835938 L 470.703125 1107.835938 C 477.664062 1107.835938 483.363281 1113.535156 483.363281 1120.5 L 483.363281 1150.46875 C 483.152344 1169.671875 467.535156 1185.5 448.125 1185.5 Z M 409.507812 1133.160156 L 409.507812 1150.46875 C 409.507812 1155.742188 413.941406 1160.175781 419.214844 1160.175781 L 448.335938 1160.175781 C 453.609375 1160.175781 458.039062 1155.742188 458.039062 1150.46875 L 458.039062 1133.160156 Z M 409.507812 1133.160156 " fill-opacity="1" fill-rule="nonzero"/></g><path fill="#000000" d="M 1188.550781 1154.6875 L 703.652344 1154.6875 C 696.691406 1154.6875 690.992188 1148.988281 690.992188 1142.027344 C 690.992188 1135.0625 696.691406 1129.363281 703.652344 1129.363281 L 1136.429688 1129.363281 L 1136.429688 725.441406 C 1136.429688 718.476562 1142.128906 712.78125 1149.089844 712.78125 C 1156.054688 712.78125 1161.75 718.476562 1161.75 725.441406 L 1161.75 1129.363281 L 1188.339844 1129.363281 C 1195.300781 1129.363281 1201 1135.0625 1201 1142.027344 C 1201 1148.988281 1195.511719 1154.6875 1188.550781 1154.6875 Z M 1188.550781 1154.6875 " fill-opacity="1" fill-rule="nonzero"/><g clip-path="url(#1a49abcd3d)"><path fill="#000000" d="M 1196.144531 738.105469 L 736.570312 738.105469 C 730.875 738.105469 725.808594 734.304688 724.332031 728.820312 C 718.425781 707.292969 701.542969 690.199219 680.230469 683.867188 C 674.113281 682.179688 670.316406 676.058594 671.160156 669.941406 C 672.003906 663.609375 677.488281 659.175781 683.609375 659.175781 L 1195.933594 659.175781 C 1202.898438 659.175781 1208.59375 664.875 1208.59375 671.839844 L 1208.59375 725.652344 C 1208.804688 732.40625 1203.109375 738.105469 1196.144531 738.105469 Z M 745.644531 712.78125 L 1183.484375 712.78125 L 1183.484375 684.289062 L 727.707031 684.289062 C 735.304688 692.519531 741.425781 702.226562 745.644531 712.78125 Z M 745.644531 712.78125 " fill-opacity="1" fill-rule="nonzero"/></g><path fill="#000000" d="M 946.101562 887.515625 L 881.320312 887.515625 C 874.359375 887.515625 868.660156 881.820312 868.660156 874.855469 L 868.660156 794.660156 C 868.660156 787.699219 874.359375 782 881.320312 782 L 946.101562 782 C 953.066406 782 958.761719 787.699219 958.761719 794.660156 L 958.761719 874.855469 C 958.761719 881.820312 953.066406 887.515625 946.101562 887.515625 Z M 893.773438 862.191406 L 933.230469 862.191406 L 933.230469 807.324219 L 893.773438 807.324219 Z M 893.773438 862.191406 " fill-opacity="1" fill-rule="nonzero"/><path fill="#000000" d="M 1076.714844 1045.371094 L 1010.035156 1045.371094 C 1003.074219 1045.371094 997.375 1039.671875 997.375 1032.710938 L 997.375 798.882812 C 997.375 791.917969 1003.074219 786.21875 1010.035156 786.21875 L 1076.714844 786.21875 C 1083.679688 786.21875 1089.375 791.917969 1089.375 798.882812 L 1089.375 1032.710938 C 1089.375 1039.671875 1083.679688 1045.371094 1076.714844 1045.371094 Z M 1022.695312 1020.046875 L 1064.054688 1020.046875 L 1064.054688 811.542969 L 1022.695312 811.542969 Z M 1022.695312 1020.046875 " fill-opacity="1" fill-rule="nonzero"/><path fill="#000000" d="M 1076.714844 963.488281 L 1010.035156 963.488281 C 1003.074219 963.488281 997.375 957.792969 997.375 950.828125 L 997.375 880.765625 C 997.375 873.800781 1003.074219 868.101562 1010.035156 868.101562 L 1076.714844 868.101562 C 1083.679688 868.101562 1089.375 873.800781 1089.375 880.765625 L 1089.375 950.828125 C 1089.375 957.792969 1083.679688 963.488281 1076.714844 963.488281 Z M 1022.695312 938.164062 L 1064.054688 938.164062 L 1064.054688 893.425781 L 1022.695312 893.425781 Z M 1022.695312 938.164062 " fill-opacity="1" fill-rule="nonzero"/><path fill="#000000" d="M 931.542969 1154.6875 L 807.679688 1154.6875 C 800.71875 1154.6875 795.019531 1148.988281 795.019531 1142.027344 L 795.019531 939.644531 C 795.019531 932.679688 800.71875 926.980469 807.679688 926.980469 L 931.542969 926.980469 C 938.503906 926.980469 944.203125 932.679688 944.203125 939.644531 L 944.203125 1142.027344 C 944.203125 1148.988281 938.503906 1154.6875 931.542969 1154.6875 Z M 820.339844 1129.363281 L 918.882812 1129.363281 L 918.882812 952.304688 L 820.339844 952.304688 Z M 820.339844 1129.363281 " fill-opacity="1" fill-rule="nonzero"/><path fill="#000000" d="M 1051.394531 684.289062 C 1044.429688 684.289062 1038.734375 678.59375 1038.734375 671.628906 L 1038.734375 602.621094 L 697.535156 602.621094 L 697.535156 671.628906 C 697.535156 678.59375 691.835938 684.289062 684.875 684.289062 C 677.910156 684.289062 672.214844 678.59375 672.214844 671.628906 L 672.214844 589.957031 C 672.214844 582.992188 677.910156 577.296875 684.875 577.296875 L 1051.183594 577.296875 C 1058.144531 577.296875 1063.84375 582.992188 1063.84375 589.957031 L 1063.84375 671.628906 C 1064.054688 678.59375 1058.359375 684.289062 1051.394531 684.289062 Z M 1051.394531 684.289062 " fill-opacity="1" fill-rule="nonzero"/><g clip-path="url(#5197bb6e7b)"><path fill="#000000" d="M 1107.101562 602.621094 L 629.167969 602.621094 C 604.058594 602.621094 583.589844 582.148438 583.589844 557.035156 L 583.589844 360.140625 C 583.589844 335.027344 604.058594 314.554688 629.167969 314.554688 L 1107.101562 314.554688 C 1132.210938 314.554688 1152.679688 335.027344 1152.679688 360.140625 L 1152.679688 557.035156 C 1152.679688 582.148438 1132.210938 602.621094 1107.101562 602.621094 Z M 629.167969 339.667969 C 617.984375 339.667969 608.910156 348.742188 608.910156 359.929688 L 608.910156 556.824219 C 608.910156 568.007812 617.984375 577.085938 629.167969 577.085938 L 1107.101562 577.085938 C 1118.285156 577.085938 1127.355469 568.007812 1127.355469 556.824219 L 1127.355469 360.140625 C 1127.355469 348.957031 1118.285156 339.878906 1107.101562 339.878906 L 629.167969 339.878906 Z M 629.167969 339.667969 " fill-opacity="1" fill-rule="nonzero"/></g><path fill="#000000" d="M 746.910156 435.480469 C 745.644531 435.480469 744.378906 435.269531 743.113281 434.847656 C 736.359375 432.734375 732.773438 425.5625 734.882812 419.019531 C 744.378906 389.050781 778.984375 377.234375 808.101562 380.820312 C 823.929688 382.933594 838.488281 388.207031 852.625 393.484375 C 861.488281 396.859375 869.925781 400.027344 878.578125 402.136719 C 899.257812 407.621094 921.203125 407.832031 942.09375 402.980469 C 948.210938 401.503906 954.332031 399.605469 960.660156 397.703125 C 968.679688 395.171875 977.121094 392.640625 985.980469 390.949219 C 1006.449219 386.941406 1024.597656 389.261719 1038.523438 397.492188 C 1044.429688 401.082031 1046.539062 408.890625 1042.953125 414.796875 C 1039.367188 420.707031 1031.558594 422.816406 1025.652344 419.230469 C 1014.890625 412.898438 1000.753906 413.742188 990.835938 415.851562 C 983.449219 417.332031 976.0625 419.652344 968.257812 421.972656 C 961.714844 424.082031 954.964844 425.984375 948 427.671875 C 923.101562 433.582031 896.9375 433.15625 872.25 426.617188 C 862.332031 424.082031 853.046875 420.496094 843.761719 417.121094 C 830.46875 412.265625 817.808594 407.410156 804.9375 405.933594 C 786.367188 403.613281 764.210938 410.578125 759.148438 426.617188 C 757.25 432.101562 752.398438 435.480469 746.910156 435.480469 Z M 746.910156 435.480469 " fill-opacity="1" fill-rule="nonzero"/><path fill="#000000" d="M 647.949219 543.742188 C 646.046875 543.742188 644.359375 543.320312 642.460938 542.472656 C 636.132812 539.519531 633.386719 531.921875 636.34375 525.589844 C 652.378906 491.613281 692.257812 470.300781 738.046875 471.355469 C 771.597656 472.199219 803.039062 483.59375 833.632812 494.570312 C 837.644531 496.046875 841.441406 497.523438 845.449219 498.789062 C 877.734375 510.1875 911.917969 520.105469 943.78125 514.195312 C 953.910156 512.296875 964.035156 508.917969 974.585938 505.332031 C 988.09375 500.6875 1002.019531 496.046875 1017 494.359375 C 1037.46875 492.035156 1058.992188 496.046875 1077.347656 505.542969 C 1083.46875 508.707031 1086 516.304688 1082.835938 522.636719 C 1079.667969 528.757812 1072.074219 531.289062 1065.742188 528.125 C 1051.816406 520.949219 1035.359375 517.785156 1019.742188 519.683594 C 1007.503906 520.949219 995.476562 525.167969 982.605469 529.390625 C 971.632812 533.1875 960.238281 536.988281 948 539.308594 C 910.230469 546.273438 872.25 535.511719 836.589844 522.847656 C 832.578125 521.371094 828.570312 519.894531 824.5625 518.628906 C 796.074219 508.285156 766.535156 497.523438 736.992188 496.890625 C 707.664062 496.046875 672.214844 508.074219 658.921875 536.566406 C 657.230469 540.996094 652.589844 543.742188 647.949219 543.742188 Z M 647.949219 543.742188 " fill-opacity="1" fill-rule="nonzero"/></svg>