<svg xmlns="http://www.w3.org/2000/svg" xmlns:xlink="http://www.w3.org/1999/xlink" width="2000" zoomAndPan="magnify" viewBox="0 0 1500 1499.999933" height="2000" preserveAspectRatio="xMidYMid meet" version="1.0"><defs><clipPath id="7b277ffa32"><path d="M 231.773438 250.558594 L 1268.273438 250.558594 L 1268.273438 1249.558594 L 231.773438 1249.558594 Z M 231.773438 250.558594 " clip-rule="nonzero"/></clipPath></defs><rect x="-150" width="1800" fill="#ffffff" y="-149.999993" height="1799.99992" fill-opacity="1"/><rect x="-150" width="1800" fill="#ffffff" y="-149.999993" height="1799.99992" fill-opacity="1"/><g clip-path="url(#7b277ffa32)"><path fill="#000000" d="M 793.5 750.496094 L 855.582031 750.496094 L 855.582031 812.589844 C 855.582031 813.519531 855.671875 814.445312 855.855469 815.355469 C 856.035156 816.269531 856.304688 817.15625 856.660156 818.019531 C 857.015625 818.878906 857.453125 819.695312 857.972656 820.46875 C 858.488281 821.246094 859.078125 821.960938 859.734375 822.621094 C 860.394531 823.277344 861.109375 823.867188 861.882812 824.382812 C 862.660156 824.902344 863.476562 825.339844 864.335938 825.695312 C 865.199219 826.050781 866.085938 826.320312 866.996094 826.503906 C 867.910156 826.683594 868.832031 826.773438 869.765625 826.773438 L 965.136719 826.773438 C 966.066406 826.773438 966.988281 826.683594 967.902344 826.503906 C 968.816406 826.320312 969.703125 826.050781 970.5625 825.695312 C 971.425781 825.339844 972.242188 824.902344 973.015625 824.382812 C 973.789062 823.867188 974.507812 823.277344 975.164062 822.621094 C 975.824219 821.960938 976.414062 821.246094 976.929688 820.46875 C 977.445312 819.695312 977.882812 818.878906 978.242188 818.019531 C 978.597656 817.15625 978.867188 816.269531 979.046875 815.355469 C 979.230469 814.445312 979.320312 813.519531 979.320312 812.589844 L 979.320312 750.496094 L 1041.410156 750.496094 C 1042.339844 750.496094 1043.261719 750.40625 1044.175781 750.222656 C 1045.089844 750.042969 1045.976562 749.773438 1046.835938 749.417969 C 1047.699219 749.058594 1048.515625 748.625 1049.289062 748.105469 C 1050.0625 747.589844 1050.78125 747 1051.4375 746.34375 C 1052.097656 745.683594 1052.683594 744.964844 1053.203125 744.191406 C 1053.71875 743.417969 1054.15625 742.601562 1054.511719 741.738281 C 1054.871094 740.878906 1055.136719 739.992188 1055.320312 739.078125 C 1055.503906 738.164062 1055.59375 737.242188 1055.59375 736.3125 L 1055.59375 640.945312 C 1055.59375 640.011719 1055.503906 639.089844 1055.320312 638.175781 C 1055.136719 637.261719 1054.871094 636.375 1054.511719 635.515625 C 1054.15625 634.65625 1053.71875 633.839844 1053.203125 633.0625 C 1052.683594 632.289062 1052.097656 631.574219 1051.4375 630.914062 C 1050.78125 630.253906 1050.0625 629.667969 1049.289062 629.148438 C 1048.515625 628.632812 1047.699219 628.195312 1046.835938 627.839844 C 1045.976562 627.484375 1045.089844 627.214844 1044.175781 627.03125 C 1043.261719 626.851562 1042.339844 626.757812 1041.410156 626.757812 L 979.308594 626.757812 L 979.308594 564.675781 C 979.308594 563.742188 979.21875 562.820312 979.035156 561.90625 C 978.855469 560.992188 978.585938 560.105469 978.230469 559.246094 C 977.875 558.386719 977.4375 557.566406 976.917969 556.792969 C 976.402344 556.019531 975.8125 555.300781 975.15625 554.644531 C 974.496094 553.984375 973.78125 553.398438 973.003906 552.878906 C 972.230469 552.363281 971.414062 551.925781 970.554688 551.570312 C 969.691406 551.210938 968.804688 550.945312 967.890625 550.761719 C 966.980469 550.582031 966.058594 550.488281 965.125 550.488281 L 869.765625 550.488281 C 868.832031 550.488281 867.910156 550.582031 866.996094 550.761719 C 866.085938 550.945312 865.199219 551.210938 864.335938 551.570312 C 863.476562 551.925781 862.660156 552.363281 861.882812 552.878906 C 861.109375 553.398438 860.394531 553.984375 859.734375 554.644531 C 859.078125 555.300781 858.488281 556.019531 857.972656 556.792969 C 857.453125 557.566406 857.015625 558.386719 856.660156 559.246094 C 856.304688 560.105469 856.035156 560.992188 855.855469 561.90625 C 855.671875 562.820312 855.582031 563.742188 855.582031 564.675781 L 855.582031 626.757812 L 793.5 626.757812 C 792.570312 626.757812 791.648438 626.851562 790.734375 627.03125 C 789.820312 627.214844 788.933594 627.484375 788.074219 627.839844 C 787.210938 628.195312 786.394531 628.632812 785.621094 629.148438 C 784.847656 629.667969 784.128906 630.253906 783.472656 630.914062 C 782.8125 631.574219 782.222656 632.289062 781.707031 633.0625 C 781.191406 633.839844 780.753906 634.65625 780.394531 635.515625 C 780.039062 636.375 779.769531 637.261719 779.589844 638.175781 C 779.40625 639.089844 779.316406 640.011719 779.316406 640.945312 L 779.316406 736.324219 C 779.316406 737.253906 779.410156 738.175781 779.589844 739.089844 C 779.773438 740 780.042969 740.886719 780.398438 741.746094 C 780.757812 742.609375 781.191406 743.425781 781.710938 744.199219 C 782.226562 744.972656 782.816406 745.6875 783.476562 746.347656 C 784.132812 747.003906 784.847656 747.589844 785.625 748.109375 C 786.398438 748.625 787.214844 749.0625 788.074219 749.417969 C 788.933594 749.773438 789.820312 750.042969 790.734375 750.222656 C 791.648438 750.40625 792.570312 750.496094 793.5 750.496094 Z M 807.683594 655.117188 L 869.765625 655.117188 C 870.695312 655.117188 871.617188 655.027344 872.53125 654.84375 C 873.445312 654.664062 874.332031 654.394531 875.191406 654.039062 C 876.054688 653.683594 876.871094 653.246094 877.644531 652.726562 C 878.417969 652.210938 879.136719 651.621094 879.792969 650.964844 C 880.453125 650.304688 881.039062 649.589844 881.558594 648.8125 C 882.074219 648.039062 882.511719 647.222656 882.867188 646.363281 C 883.226562 645.5 883.496094 644.613281 883.675781 643.699219 C 883.859375 642.785156 883.949219 641.863281 883.949219 640.933594 L 883.949219 578.847656 L 950.972656 578.847656 L 950.972656 640.945312 C 950.972656 641.875 951.0625 642.796875 951.246094 643.710938 C 951.425781 644.625 951.695312 645.511719 952.050781 646.371094 C 952.40625 647.234375 952.84375 648.050781 953.363281 648.824219 C 953.878906 649.597656 954.46875 650.316406 955.125 650.972656 C 955.785156 651.632812 956.5 652.222656 957.277344 652.738281 C 958.050781 653.253906 958.867188 653.691406 959.726562 654.050781 C 960.589844 654.40625 961.476562 654.675781 962.386719 654.855469 C 963.300781 655.039062 964.222656 655.128906 965.15625 655.128906 L 1027.246094 655.128906 L 1027.246094 722.15625 L 965.136719 722.15625 C 964.203125 722.15625 963.28125 722.246094 962.371094 722.429688 C 961.457031 722.609375 960.570312 722.878906 959.707031 723.238281 C 958.847656 723.59375 958.03125 724.03125 957.257812 724.546875 C 956.480469 725.066406 955.765625 725.652344 955.105469 726.3125 C 954.449219 726.96875 953.859375 727.6875 953.34375 728.460938 C 952.824219 729.234375 952.390625 730.054688 952.03125 730.914062 C 951.675781 731.773438 951.40625 732.660156 951.226562 733.574219 C 951.042969 734.488281 950.953125 735.410156 950.953125 736.339844 L 950.953125 798.433594 L 883.949219 798.433594 L 883.949219 736.324219 C 883.949219 735.390625 883.859375 734.46875 883.675781 733.554688 C 883.496094 732.640625 883.226562 731.753906 882.867188 730.894531 C 882.511719 730.035156 882.074219 729.214844 881.558594 728.441406 C 881.039062 727.667969 880.453125 726.953125 879.792969 726.292969 C 879.136719 725.632812 878.417969 725.046875 877.644531 724.527344 C 876.871094 724.011719 876.054688 723.574219 875.191406 723.21875 C 874.332031 722.863281 873.445312 722.59375 872.53125 722.410156 C 871.617188 722.230469 870.695312 722.136719 869.765625 722.136719 L 807.671875 722.136719 Z M 1249.371094 845.410156 L 1249.371094 535.0625 C 1249.371094 486.359375 1214.050781 446.207031 1169.03125 441.621094 L 1169.03125 372.421875 C 1169.03125 305.242188 1110.46875 250.589844 1038.484375 250.589844 L 796.371094 250.589844 C 724.417969 250.589844 665.878906 305.242188 665.878906 372.421875 L 665.878906 441.621094 C 620.859375 446.207031 585.539062 486.359375 585.539062 535.0625 L 585.539062 799.976562 L 391.972656 903.234375 L 384.109375 889.617188 C 383.574219 888.699219 382.996094 887.808594 382.375 886.949219 C 381.75 886.085938 381.089844 885.257812 380.386719 884.460938 C 379.683594 883.664062 378.941406 882.902344 378.164062 882.179688 C 377.386719 881.453125 376.574219 880.769531 375.730469 880.125 C 374.886719 879.480469 374.011719 878.878906 373.109375 878.316406 C 372.207031 877.757812 371.277344 877.242188 370.324219 876.773438 C 369.371094 876.304688 368.394531 875.882812 367.398438 875.511719 C 366.40625 875.136719 365.394531 874.8125 364.367188 874.539062 C 363.339844 874.261719 362.304688 874.039062 361.253906 873.863281 C 360.207031 873.691406 359.152344 873.570312 358.089844 873.5 C 357.03125 873.429688 355.96875 873.410156 354.90625 873.441406 C 353.84375 873.476562 352.789062 873.5625 351.734375 873.699219 C 350.679688 873.835938 349.636719 874.023438 348.597656 874.261719 C 347.5625 874.5 346.542969 874.789062 345.535156 875.128906 C 344.527344 875.464844 343.539062 875.851562 342.570312 876.289062 C 341.601562 876.722656 340.652344 877.207031 339.730469 877.734375 L 247.964844 930.769531 C 247.046875 931.304688 246.15625 931.882812 245.292969 932.503906 C 244.433594 933.125 243.601562 933.789062 242.804688 934.492188 C 242.011719 935.195312 241.25 935.9375 240.523438 936.714844 C 239.800781 937.492188 239.117188 938.300781 238.472656 939.148438 C 237.824219 939.992188 237.222656 940.863281 236.664062 941.769531 C 236.105469 942.671875 235.589844 943.601562 235.121094 944.554688 C 234.652344 945.507812 234.230469 946.480469 233.855469 947.476562 C 233.484375 948.472656 233.160156 949.480469 232.882812 950.507812 C 232.609375 951.535156 232.386719 952.574219 232.210938 953.621094 C 232.039062 954.667969 231.917969 955.722656 231.84375 956.785156 C 231.773438 957.84375 231.757812 958.90625 231.789062 959.96875 C 231.824219 961.03125 231.90625 962.089844 232.042969 963.140625 C 232.179688 964.195312 232.367188 965.242188 232.609375 966.277344 C 232.847656 967.3125 233.136719 968.332031 233.472656 969.339844 C 233.8125 970.347656 234.199219 971.335938 234.632812 972.304688 C 235.070312 973.277344 235.550781 974.222656 236.078125 975.144531 L 385.171875 1233.289062 C 385.882812 1234.519531 386.671875 1235.699219 387.539062 1236.824219 C 388.40625 1237.953125 389.34375 1239.015625 390.351562 1240.019531 C 391.359375 1241.023438 392.425781 1241.957031 393.554688 1242.824219 C 394.683594 1243.6875 395.863281 1244.472656 397.097656 1245.183594 C 398.328125 1245.890625 399.601562 1246.519531 400.914062 1247.058594 C 402.230469 1247.601562 403.574219 1248.058594 404.945312 1248.421875 C 406.320312 1248.789062 407.710938 1249.066406 409.121094 1249.25 C 410.53125 1249.433594 411.949219 1249.523438 413.371094 1249.523438 C 416.210938 1249.523438 419.003906 1249.152344 421.746094 1248.410156 C 424.492188 1247.671875 427.089844 1246.585938 429.546875 1245.15625 L 521.253906 1192.160156 C 522.171875 1191.632812 523.066406 1191.054688 523.929688 1190.4375 C 524.792969 1189.820312 525.625 1189.160156 526.425781 1188.460938 C 527.222656 1187.761719 527.988281 1187.023438 528.714844 1186.25 C 529.441406 1185.472656 530.128906 1184.667969 530.777344 1183.824219 C 531.425781 1182.980469 532.03125 1182.109375 532.59375 1181.207031 C 533.15625 1180.308594 533.671875 1179.378906 534.144531 1178.429688 C 534.613281 1177.476562 535.039062 1176.503906 535.414062 1175.507812 C 535.789062 1174.515625 536.117188 1173.507812 536.394531 1172.480469 C 536.671875 1171.453125 536.898438 1170.417969 537.074219 1169.371094 C 537.25 1168.324219 537.375 1167.269531 537.445312 1166.207031 C 537.515625 1165.148438 537.539062 1164.085938 537.507812 1163.023438 C 537.472656 1161.964844 537.390625 1160.90625 537.253906 1159.851562 C 537.121094 1158.796875 536.933594 1157.753906 536.695312 1156.71875 C 536.457031 1155.683594 536.167969 1154.660156 535.832031 1153.652344 C 535.492188 1152.644531 535.105469 1151.65625 534.671875 1150.6875 C 534.234375 1149.71875 533.753906 1148.773438 533.226562 1147.851562 L 533.199219 1147.804688 L 530.859375 1143.75 L 561.472656 1129.117188 C 563.589844 1128.054688 565.78125 1127.195312 568.050781 1126.53125 C 570.324219 1125.871094 572.636719 1125.417969 574.988281 1125.171875 C 577.339844 1124.929688 579.695312 1124.898438 582.054688 1125.082031 C 584.414062 1125.265625 586.734375 1125.65625 589.023438 1126.261719 L 833.738281 1185.535156 C 839.367188 1186.933594 845.085938 1187.644531 850.886719 1187.664062 C 857.292969 1187.636719 863.566406 1186.714844 869.707031 1184.898438 C 875.847656 1183.078125 881.609375 1180.4375 886.996094 1176.972656 L 1231.53125 962.511719 C 1232.71875 961.769531 1233.890625 960.996094 1235.039062 960.191406 C 1236.183594 959.386719 1237.3125 958.554688 1238.414062 957.6875 C 1239.515625 956.824219 1240.59375 955.929688 1241.648438 955.007812 C 1242.707031 954.082031 1243.734375 953.132812 1244.738281 952.152344 C 1245.742188 951.175781 1246.71875 950.167969 1247.667969 949.136719 C 1248.617188 948.105469 1249.539062 947.050781 1250.429688 945.96875 C 1251.320312 944.886719 1252.183594 943.785156 1253.015625 942.65625 C 1253.851562 941.527344 1254.652344 940.378906 1255.421875 939.210938 C 1256.195312 938.039062 1256.933594 936.847656 1257.640625 935.636719 C 1258.347656 934.425781 1259.019531 933.199219 1259.660156 931.949219 C 1260.300781 930.703125 1260.90625 929.441406 1261.480469 928.160156 C 1262.050781 926.878906 1262.589844 925.585938 1263.089844 924.277344 C 1263.59375 922.96875 1264.058594 921.648438 1264.492188 920.3125 C 1264.921875 918.980469 1265.316406 917.636719 1265.675781 916.28125 C 1266.035156 914.925781 1266.355469 913.5625 1266.640625 912.1875 C 1266.925781 910.816406 1267.175781 909.4375 1267.386719 908.050781 C 1267.597656 906.664062 1267.769531 905.277344 1267.90625 903.878906 C 1268.042969 902.484375 1268.140625 901.085938 1268.199219 899.6875 C 1268.261719 898.285156 1268.285156 896.886719 1268.269531 895.484375 C 1268.253906 894.082031 1268.199219 892.679688 1268.109375 891.28125 C 1268.019531 889.882812 1267.890625 888.488281 1267.726562 887.097656 C 1267.558594 885.703125 1267.355469 884.316406 1267.117188 882.9375 C 1266.875 881.554688 1266.597656 880.183594 1266.28125 878.816406 C 1265.96875 877.449219 1265.617188 876.09375 1265.230469 874.746094 C 1264.839844 873.398438 1264.417969 872.0625 1263.957031 870.738281 C 1263.5 869.414062 1263.003906 868.105469 1262.472656 866.804688 C 1261.941406 865.507812 1261.375 864.226562 1260.777344 862.960938 C 1260.175781 861.691406 1259.542969 860.441406 1258.878906 859.210938 C 1258.210938 857.976562 1257.511719 856.761719 1256.777344 855.566406 C 1256.046875 854.371094 1255.28125 853.199219 1254.484375 852.042969 C 1253.6875 850.890625 1252.863281 849.757812 1252.007812 848.648438 C 1251.148438 847.539062 1250.261719 846.453125 1249.347656 845.390625 Z M 694.226562 372.421875 C 694.226562 320.867188 740.050781 278.941406 796.371094 278.941406 L 1038.472656 278.941406 C 1094.828125 278.941406 1140.671875 320.878906 1140.671875 372.421875 L 1140.671875 441.164062 L 1098.496094 441.164062 L 1098.496094 372.421875 C 1098.496094 341.222656 1071.570312 315.839844 1038.472656 315.839844 L 796.371094 315.839844 C 763.300781 315.839844 736.402344 341.222656 736.402344 372.421875 L 736.402344 441.164062 L 694.226562 441.164062 Z M 1070.148438 372.421875 L 1070.148438 441.164062 L 764.75 441.164062 L 764.75 372.421875 C 764.75 357.121094 779.230469 344.1875 796.371094 344.1875 L 1038.472656 344.1875 C 1055.640625 344.1875 1070.148438 357.121094 1070.148438 372.421875 Z M 674.484375 469.53125 L 1160.414062 469.53125 C 1193.828125 469.53125 1221.011719 498.929688 1221.011719 535.070312 L 1221.011719 824.710938 C 1218.136719 823.476562 1215.203125 822.417969 1212.203125 821.535156 C 1209.203125 820.65625 1206.164062 819.957031 1203.078125 819.441406 C 1199.996094 818.925781 1196.894531 818.597656 1193.769531 818.457031 C 1190.648438 818.316406 1187.527344 818.363281 1184.410156 818.597656 C 1181.292969 818.832031 1178.199219 819.253906 1175.132812 819.859375 C 1172.066406 820.46875 1169.050781 821.257812 1166.078125 822.226562 C 1163.105469 823.195312 1160.203125 824.34375 1157.371094 825.664062 C 1154.535156 826.984375 1151.792969 828.46875 1149.136719 830.117188 L 954.964844 950.988281 C 955.125 948.9375 955.195312 946.878906 955.179688 944.820312 C 955.164062 942.761719 955.0625 940.707031 954.871094 938.65625 C 954.679688 936.605469 954.398438 934.570312 954.035156 932.542969 C 953.667969 930.515625 953.214844 928.507812 952.679688 926.523438 C 952.140625 924.535156 951.519531 922.574219 950.816406 920.636719 C 950.109375 918.703125 949.324219 916.804688 948.453125 914.9375 C 947.585938 913.070312 946.640625 911.242188 945.617188 909.457031 C 944.59375 907.667969 943.492188 905.929688 942.320312 904.238281 C 941.148438 902.546875 939.90625 900.90625 938.589844 899.320312 C 937.277344 897.734375 935.898438 896.207031 934.457031 894.738281 C 933.011719 893.273438 931.507812 891.867188 929.945312 890.527344 C 928.378906 889.191406 926.761719 887.917969 925.089844 886.71875 C 923.417969 885.519531 921.695312 884.390625 919.925781 883.335938 C 918.160156 882.285156 916.347656 881.308594 914.496094 880.410156 C 912.644531 879.507812 910.753906 878.691406 908.832031 877.953125 C 906.910156 877.21875 904.960938 876.5625 902.980469 875.992188 L 645.664062 792.179688 C 640.550781 790.472656 635.3125 789.382812 629.941406 788.914062 C 624.570312 788.441406 619.222656 788.597656 613.886719 789.382812 L 613.886719 535.070312 C 613.886719 498.921875 641.070312 469.523438 674.484375 469.523438 Z M 507.121094 1167.613281 L 415.355469 1220.640625 C 414.878906 1220.90625 414.367188 1221.070312 413.824219 1221.136719 C 413.28125 1221.203125 412.746094 1221.164062 412.21875 1221.019531 C 411.691406 1220.875 411.210938 1220.640625 410.777344 1220.308594 C 410.34375 1219.976562 409.988281 1219.574219 409.707031 1219.105469 L 260.65625 961.015625 C 260.386719 960.535156 260.21875 960.019531 260.148438 959.472656 C 260.078125 958.925781 260.113281 958.386719 260.253906 957.855469 C 260.394531 957.324219 260.628906 956.835938 260.957031 956.394531 C 261.289062 955.953125 261.6875 955.589844 262.15625 955.304688 L 353.867188 902.308594 C 354.503906 901.941406 355.191406 901.761719 355.925781 901.761719 C 356.671875 901.757812 357.367188 901.9375 358.019531 902.300781 C 358.667969 902.667969 359.183594 903.167969 359.566406 903.808594 L 373.972656 928.753906 C 373.992188 928.792969 374.007812 928.832031 374.027344 928.867188 C 374.125 929.058594 374.246094 929.230469 374.351562 929.414062 L 508.625 1161.960938 C 508.894531 1162.433594 509.0625 1162.941406 509.132812 1163.484375 C 509.199219 1164.027344 509.164062 1164.5625 509.023438 1165.089844 C 508.882812 1165.617188 508.648438 1166.097656 508.320312 1166.53125 C 507.988281 1166.96875 507.589844 1167.324219 507.121094 1167.601562 Z M 1216.578125 938.472656 L 872.011719 1152.929688 C 869.707031 1154.4375 867.269531 1155.6875 864.703125 1156.679688 C 862.132812 1157.675781 859.488281 1158.390625 856.769531 1158.828125 C 854.050781 1159.265625 851.316406 1159.414062 848.566406 1159.277344 C 845.816406 1159.136719 843.109375 1158.714844 840.449219 1158.007812 L 595.734375 1098.730469 C 591.871094 1097.75 587.949219 1097.117188 583.972656 1096.828125 C 579.996094 1096.539062 576.027344 1096.601562 572.0625 1097.011719 C 568.09375 1097.425781 564.195312 1098.179688 560.363281 1099.277344 C 556.53125 1100.378906 552.824219 1101.804688 549.242188 1103.554688 L 516.640625 1119.132812 L 406.15625 927.800781 L 604.585938 821.960938 C 607.023438 820.597656 609.574219 819.503906 612.246094 818.679688 C 614.914062 817.859375 617.640625 817.324219 620.425781 817.082031 C 623.207031 816.835938 625.984375 816.886719 628.757812 817.234375 C 631.527344 817.578125 634.234375 818.210938 636.871094 819.132812 L 894.464844 903.035156 C 894.652344 903.09375 894.835938 903.152344 895.011719 903.203125 C 896.386719 903.59375 897.734375 904.050781 899.0625 904.574219 C 900.394531 905.097656 901.691406 905.683594 902.964844 906.332031 C 904.234375 906.984375 905.472656 907.695312 906.671875 908.464844 C 907.875 909.238281 909.035156 910.066406 910.15625 910.949219 C 911.277344 911.835938 912.351562 912.773438 913.378906 913.761719 C 914.40625 914.753906 915.386719 915.789062 916.3125 916.875 C 917.238281 917.960938 918.113281 919.089844 918.929688 920.261719 C 919.746094 921.433594 920.503906 922.640625 921.199219 923.886719 C 921.898438 925.132812 922.535156 926.410156 923.109375 927.714844 C 923.679688 929.023438 924.191406 930.355469 924.632812 931.714844 C 925.074219 933.070312 925.453125 934.445312 925.757812 935.839844 C 926.066406 937.234375 926.308594 938.640625 926.476562 940.058594 C 926.648438 941.476562 926.75 942.898438 926.78125 944.324219 C 926.8125 945.753906 926.773438 947.179688 926.667969 948.601562 C 926.558594 950.027344 926.378906 951.441406 926.132812 952.847656 C 925.886719 954.253906 925.574219 955.644531 925.191406 957.019531 C 923.488281 963.128906 920.566406 968.585938 916.425781 973.386719 C 916.3125 973.519531 916.195312 973.660156 916.078125 973.78125 C 914.726562 975.320312 913.273438 976.753906 911.714844 978.082031 C 911.554688 978.222656 911.410156 978.371094 911.253906 978.511719 C 909.902344 979.652344 908.484375 980.707031 907 981.671875 C 905.519531 982.640625 903.984375 983.511719 902.394531 984.292969 C 900.808594 985.070312 899.175781 985.753906 897.503906 986.332031 C 895.835938 986.914062 894.132812 987.390625 892.402344 987.765625 C 890.675781 988.140625 888.929688 988.40625 887.167969 988.566406 C 885.402344 988.726562 883.636719 988.78125 881.871094 988.726562 C 880.101562 988.671875 878.34375 988.511719 876.59375 988.242188 C 874.84375 987.972656 873.117188 987.597656 871.414062 987.117188 L 678.894531 933.003906 C 678.4375 932.851562 677.980469 932.726562 677.511719 932.621094 C 677.042969 932.515625 676.574219 932.433594 676.097656 932.375 C 675.621094 932.320312 675.144531 932.285156 674.667969 932.277344 C 674.1875 932.269531 673.710938 932.285156 673.234375 932.324219 C 672.757812 932.363281 672.28125 932.425781 671.8125 932.515625 C 671.339844 932.601562 670.875 932.710938 670.417969 932.847656 C 669.957031 932.980469 669.507812 933.140625 669.0625 933.320312 C 668.621094 933.5 668.1875 933.703125 667.761719 933.925781 C 667.339844 934.152344 666.929688 934.394531 666.53125 934.660156 C 666.132812 934.925781 665.75 935.210938 665.378906 935.515625 C 665.011719 935.820312 664.65625 936.144531 664.320312 936.484375 C 663.984375 936.824219 663.664062 937.179688 663.367188 937.554688 C 663.066406 937.925781 662.785156 938.3125 662.523438 938.714844 C 662.261719 939.113281 662.019531 939.527344 661.800781 939.953125 C 661.582031 940.378906 661.382812 940.8125 661.207031 941.257812 C 661.03125 941.703125 660.878906 942.15625 660.75 942.617188 C 660.621094 943.078125 660.515625 943.546875 660.433594 944.019531 C 660.351562 944.488281 660.292969 944.964844 660.257812 945.441406 C 660.222656 945.917969 660.210938 946.398438 660.226562 946.875 C 660.242188 947.355469 660.277344 947.832031 660.339844 948.304688 C 660.402344 948.78125 660.488281 949.25 660.597656 949.714844 C 660.710938 950.183594 660.84375 950.640625 661 951.09375 C 661.15625 951.546875 661.332031 951.988281 661.535156 952.421875 C 661.738281 952.859375 661.960938 953.28125 662.203125 953.691406 C 662.445312 954.105469 662.710938 954.503906 662.996094 954.886719 C 663.28125 955.273438 663.582031 955.644531 663.90625 955.996094 C 664.226562 956.351562 664.566406 956.6875 664.921875 957.007812 C 665.277344 957.328125 665.648438 957.628906 666.035156 957.914062 C 666.421875 958.195312 666.824219 958.457031 667.234375 958.699219 C 667.648438 958.941406 668.074219 959.160156 668.507812 959.359375 C 668.941406 959.558594 669.386719 959.738281 669.839844 959.890625 C 670.292969 960.042969 670.753906 960.175781 671.21875 960.28125 L 863.726562 1014.394531 C 866.535156 1015.191406 869.382812 1015.8125 872.269531 1016.257812 C 875.152344 1016.707031 878.054688 1016.976562 880.972656 1017.070312 C 883.886719 1017.164062 886.800781 1017.078125 889.707031 1016.816406 C 892.613281 1016.550781 895.496094 1016.113281 898.347656 1015.5 C 901.203125 1014.886719 904.007812 1014.101562 906.765625 1013.144531 C 909.523438 1012.1875 912.210938 1011.0625 914.832031 1009.777344 C 917.453125 1008.492188 919.988281 1007.054688 922.433594 1005.457031 C 924.875 1003.863281 927.214844 1002.125 929.449219 1000.246094 L 1164.113281 854.167969 C 1165.492188 853.34375 1166.910156 852.585938 1168.363281 851.902344 C 1169.816406 851.214844 1171.300781 850.597656 1172.8125 850.058594 C 1174.324219 849.515625 1175.859375 849.046875 1177.417969 848.652344 C 1178.976562 848.257812 1180.550781 847.941406 1182.140625 847.699219 C 1183.726562 847.460938 1185.324219 847.296875 1186.929688 847.210938 C 1188.535156 847.125 1190.140625 847.117188 1191.746094 847.1875 C 1193.351562 847.257812 1194.949219 847.40625 1196.539062 847.632812 C 1198.132812 847.855469 1199.707031 848.160156 1201.269531 848.539062 C 1202.832031 848.917969 1204.371094 849.371094 1205.890625 849.898438 C 1207.40625 850.425781 1208.894531 851.027344 1210.355469 851.699219 C 1211.816406 852.371094 1213.238281 853.113281 1214.625 853.925781 C 1216.011719 854.738281 1217.359375 855.613281 1218.660156 856.554688 C 1219.960938 857.496094 1221.214844 858.5 1222.421875 859.5625 C 1223.625 860.625 1224.777344 861.746094 1225.875 862.921875 C 1226.96875 864.09375 1228.007812 865.320312 1228.984375 866.597656 C 1229.960938 867.871094 1230.875 869.191406 1231.722656 870.558594 C 1232.574219 871.921875 1233.355469 873.324219 1234.066406 874.765625 C 1234.78125 876.207031 1235.421875 877.675781 1235.992188 879.179688 C 1236.5625 880.683594 1237.054688 882.210938 1237.476562 883.761719 C 1237.898438 885.3125 1238.246094 886.878906 1238.515625 888.464844 C 1238.785156 890.046875 1238.976562 891.640625 1239.089844 893.246094 C 1239.207031 894.847656 1239.242188 896.453125 1239.203125 898.058594 C 1239.160156 899.667969 1239.042969 901.265625 1238.84375 902.863281 C 1238.648438 904.457031 1238.375 906.039062 1238.023438 907.609375 C 1237.675781 909.175781 1237.25 910.722656 1236.746094 912.25 C 1236.246094 913.777344 1235.675781 915.277344 1235.027344 916.75 C 1234.382812 918.222656 1233.664062 919.65625 1232.878906 921.058594 C 1232.09375 922.460938 1231.242188 923.824219 1230.324219 925.140625 C 1229.40625 926.460938 1228.425781 927.734375 1227.386719 928.957031 C 1226.34375 930.179688 1225.246094 931.351562 1224.089844 932.46875 C 1222.9375 933.585938 1221.730469 934.644531 1220.472656 935.644531 C 1219.214844 936.648438 1217.910156 937.582031 1216.5625 938.457031 Z M 1216.578125 938.472656 " fill-opacity="1" fill-rule="nonzero"/></g></svg>