<svg xmlns="http://www.w3.org/2000/svg" xmlns:xlink="http://www.w3.org/1999/xlink" width="2000" zoomAndPan="magnify" viewBox="0 0 1500 1499.999933" height="2000" preserveAspectRatio="xMidYMid meet" version="1.0"><defs><clipPath id="a3a4de6908"><path d="M 269 247 L 1231.742188 247 L 1231.742188 1252.703125 L 269 1252.703125 Z M 269 247 " clip-rule="nonzero"/></clipPath></defs><rect x="-150" width="1800" fill="#ffffff" y="-149.999993" height="1799.99992" fill-opacity="1"/><rect x="-150" width="1800" fill="#ffffff" y="-149.999993" height="1799.99992" fill-opacity="1"/><g clip-path="url(#a3a4de6908)"><path fill="#000000" d="M 681.417969 525.949219 C 678.691406 522.132812 677.597656 517.222656 677.597656 512.316406 C 677.597656 502.5 683.054688 494.316406 691.234375 489.953125 C 693.417969 489.953125 696.6875 490.5 700.507812 490.5 C 701.597656 490.5 702.144531 490.5 703.234375 490.5 C 703.777344 490.5 704.324219 490.5 705.414062 490.5 C 705.414062 490.5 705.414062 490.5 705.960938 490.5 C 708.6875 490.5 711.960938 490.5 715.234375 489.953125 C 723.414062 494.316406 728.867188 502.5 728.867188 512.316406 C 728.867188 517.769531 727.230469 522.675781 724.503906 526.496094 C 707.050781 527.585938 690.144531 526.496094 681.417969 525.949219 Z M 696.144531 419.601562 C 699.960938 422.871094 704.324219 423.964844 708.6875 419.601562 C 710.871094 418.507812 713.050781 415.238281 714.6875 410.328125 L 714.6875 411.417969 C 717.414062 363.425781 714.6875 317.613281 711.414062 293.617188 C 708.6875 277.253906 705.960938 269.621094 703.234375 268.527344 L 703.234375 263.621094 L 704.324219 263.621094 C 704.324219 263.621094 704.871094 263.074219 704.871094 262.53125 L 704.871094 260.894531 C 704.871094 260.347656 704.871094 260.347656 704.324219 260.347656 L 703.777344 260.347656 L 703.777344 257.621094 L 704.324219 257.621094 L 702.6875 247.257812 L 702.144531 247.257812 L 701.050781 257.621094 L 702.144531 257.621094 L 702.144531 260.347656 L 701.050781 260.347656 C 701.050781 260.347656 700.507812 260.894531 700.507812 260.894531 L 700.507812 262.53125 C 700.507812 263.074219 700.507812 263.621094 701.050781 263.621094 L 702.144531 263.621094 L 702.144531 268.527344 C 699.414062 269.621094 696.6875 277.800781 693.960938 293.070312 C 690.144531 315.976562 687.417969 359.609375 690.144531 406.511719 C 690.144531 411.964844 692.324219 416.328125 696.144531 419.601562 Z M 690.6875 486.136719 C 695.050781 486.683594 705.414062 487.226562 715.234375 486.136719 C 722.867188 480.136719 728.324219 468.683594 728.324219 456.140625 C 728.324219 443.050781 722.867188 431.597656 715.234375 425.597656 C 710.871094 426.144531 707.050781 426.144531 703.234375 426.144531 C 698.324219 426.144531 693.417969 425.597656 690.6875 425.597656 C 683.054688 431.597656 677.597656 443.050781 677.597656 456.140625 C 677.597656 469.230469 682.507812 480.136719 690.6875 486.136719 Z M 1225.742188 1012.976562 L 1231.742188 1014.613281 L 1231.742188 1012.976562 Z M 1102.476562 546.128906 L 1100.296875 443.050781 L 1075.753906 413.054688 L 1071.933594 413.054688 L 1046.84375 443.597656 L 1049.574219 546.128906 Z M 1102.476562 605.03125 L 1048.480469 605.03125 L 1049.027344 605.574219 L 1049.027344 640.480469 L 1102.476562 640.480469 Z M 1102.476562 647.570312 L 1049.027344 647.570312 L 1049.027344 672.65625 L 1102.476562 672.65625 Z M 1102.476562 679.203125 L 1049.027344 679.203125 L 1049.027344 722.832031 L 1102.476562 722.832031 Z M 1054.480469 597.941406 L 1054.480469 552.671875 L 1045.210938 552.671875 C 1037.574219 559.21875 1024.484375 575.578125 1042.480469 597.941406 Z M 1061.027344 553.21875 L 1061.027344 598.484375 L 1065.933594 598.484375 L 1065.933594 553.21875 Z M 1073.027344 553.21875 L 1073.027344 598.484375 L 1077.933594 598.484375 L 1077.933594 553.21875 Z M 1084.480469 553.21875 L 1084.480469 598.484375 L 1089.386719 598.484375 L 1089.386719 553.21875 Z M 1095.933594 597.941406 L 1107.386719 597.941406 C 1114.476562 588.667969 1124.839844 569.582031 1105.207031 552.671875 L 1095.386719 552.671875 L 1095.386719 597.941406 Z M 1111.75 1048.425781 L 1112.296875 1252.402344 L 291.445312 1252.402344 L 291.445312 809.550781 L 361.804688 809.550781 L 361.257812 813.914062 L 361.257812 904.992188 L 411.4375 904.992188 C 409.253906 873.359375 405.980469 777.371094 441.433594 728.289062 C 441.433594 728.289062 492.703125 634.480469 660.691406 545.582031 L 660.691406 544.492188 C 660.691406 535.222656 668.328125 527.585938 677.597656 527.585938 L 727.777344 527.585938 C 737.050781 527.585938 744.683594 535.222656 744.683594 544.492188 L 744.683594 545.582031 C 770.320312 558.671875 803.042969 576.125 826.496094 592.488281 C 826.496094 592.488281 1010.847656 702.652344 997.210938 904.992188 L 1041.9375 904.992188 L 1041.9375 809.003906 L 1112.296875 809.003906 L 1111.75 813.367188 Z M 935.582031 906.082031 L 982.488281 906.082031 L 982.488281 879.359375 C 982.488281 872.8125 979.757812 866.816406 975.394531 862.453125 C 971.578125 858.632812 966.125 855.90625 960.125 855.363281 C 946.488281 854.816406 935.582031 866.269531 935.582031 879.902344 Z M 709.234375 906.082031 L 756.140625 906.082031 L 756.140625 879.359375 C 756.140625 872.8125 753.410156 866.816406 749.046875 862.453125 C 744.683594 858.089844 738.140625 855.363281 730.503906 855.90625 C 717.960938 856.996094 708.6875 867.90625 708.6875 880.449219 L 708.6875 906.082031 Z M 652.511719 906.082031 L 699.414062 906.082031 L 699.414062 879.359375 C 699.414062 872.8125 696.6875 866.816406 692.324219 862.453125 C 687.960938 858.089844 681.417969 855.363281 673.78125 855.90625 C 661.238281 856.996094 651.964844 867.90625 651.964844 880.449219 L 651.964844 906.082031 Z M 425.617188 906.082031 L 472.523438 906.082031 L 472.523438 879.359375 C 472.523438 872.8125 469.796875 866.816406 465.433594 862.453125 C 461.070312 858.089844 455.070312 855.363281 448.523438 855.363281 C 435.433594 855.363281 425.070312 865.722656 425.070312 878.8125 L 425.070312 906.082031 Z M 499.246094 1164.59375 C 499.246094 1125.871094 481.792969 1089.332031 450.707031 1065.335938 C 445.796875 1061.515625 441.980469 1058.789062 439.253906 1057.152344 C 437.070312 1058.246094 435.433594 1059.335938 433.796875 1060.425781 C 398.347656 1083.332031 377.621094 1123.144531 377.621094 1165.140625 L 377.621094 1230.585938 L 499.246094 1230.585938 Z M 529.246094 879.359375 C 529.246094 872.8125 526.519531 866.816406 522.15625 862.453125 C 517.792969 858.089844 511.792969 855.363281 505.246094 855.363281 C 492.15625 855.363281 481.792969 865.722656 481.792969 878.8125 L 481.792969 905.539062 L 528.699219 905.539062 L 528.699219 879.359375 Z M 585.96875 879.359375 C 585.96875 872.8125 583.242188 866.816406 578.878906 862.453125 C 574.515625 858.089844 569.0625 855.90625 562.515625 855.363281 C 549.425781 855.363281 539.0625 866.816406 539.0625 879.902344 L 539.0625 905.535156 L 585.96875 905.535156 Z M 595.785156 906.082031 L 642.691406 906.082031 L 642.691406 879.359375 C 642.691406 872.8125 639.964844 866.816406 635.601562 862.453125 C 631.238281 858.089844 625.785156 855.90625 619.238281 855.363281 C 606.148438 855.363281 595.785156 866.816406 595.785156 879.902344 Z M 807.953125 1105.148438 C 807.953125 1066.972656 793.226562 1030.429688 766.5 1003.160156 C 738.140625 974.253906 705.960938 954.078125 705.960938 954.078125 C 671.054688 972.621094 646.511719 997.160156 629.601562 1018.976562 C 609.96875 1044.066406 599.605469 1075.695312 599.605469 1107.875 L 599.605469 1242.585938 L 807.40625 1242.585938 L 807.40625 1105.148438 Z M 812.863281 879.359375 C 812.863281 872.8125 810.136719 866.816406 805.773438 862.453125 C 801.410156 858.089844 795.410156 855.363281 789.410156 855.363281 C 776.320312 855.363281 765.957031 865.722656 765.957031 878.8125 L 765.957031 905.539062 L 812.863281 905.539062 Z M 869.585938 879.359375 C 869.585938 872.8125 866.859375 866.816406 862.496094 862.453125 C 858.132812 858.089844 852.132812 855.363281 846.132812 855.363281 C 833.042969 855.363281 822.679688 865.722656 822.679688 878.8125 L 822.679688 905.539062 L 869.585938 905.539062 Z M 907.765625 906.082031 L 925.761719 906.082031 L 925.761719 879.359375 C 925.761719 872.8125 923.035156 866.816406 918.671875 862.453125 C 914.855469 858.632812 909.402344 855.90625 903.402344 855.363281 C 889.765625 854.816406 878.855469 866.269531 878.855469 879.902344 L 878.855469 905.535156 L 885.949219 905.535156 C 885.949219 905.535156 885.402344 906.082031 885.402344 906.082031 Z M 1030.484375 1145.507812 C 1030.484375 1125.328125 1023.394531 1105.691406 1009.757812 1090.96875 C 995.578125 1075.152344 978.125 1062.609375 970.488281 1057.152344 C 949.214844 1069.152344 934.488281 1084.96875 924.128906 1098.601562 C 913.765625 1112.78125 908.308594 1129.691406 908.308594 1147.140625 L 908.308594 1230.585938 L 1029.9375 1230.585938 L 1029.9375 1145.507812 Z M 1038.664062 803.003906 L 1043.574219 803.003906 L 1043.574219 729.921875 L 1026.121094 729.921875 C 1025.027344 732.105469 1023.394531 736.46875 1023.394531 737.011719 C 1018.484375 749.558594 1019.03125 763.738281 1023.9375 776.28125 C 1027.210938 785.007812 1031.574219 795.914062 1038.664062 803.003906 Z M 1055.570312 803.003906 L 1055.570312 729.921875 L 1050.117188 729.921875 L 1050.117188 802.460938 L 1055.570312 802.460938 Z M 1067.027344 803.003906 L 1067.027344 729.921875 L 1062.117188 729.921875 L 1062.117188 802.460938 L 1067.027344 802.460938 Z M 1078.480469 803.003906 L 1078.480469 729.921875 L 1073.570312 729.921875 L 1073.570312 802.460938 L 1078.480469 802.460938 Z M 1089.933594 803.003906 L 1089.933594 729.921875 L 1085.023438 729.921875 L 1085.023438 802.460938 L 1089.933594 802.460938 Z M 1099.75 803.003906 L 1099.75 729.921875 L 1097.023438 729.921875 L 1097.023438 802.460938 L 1099.75 802.460938 Z M 1115.023438 729.921875 L 1106.839844 729.921875 L 1106.839844 802.460938 L 1113.386719 802.460938 C 1119.386719 793.734375 1147.746094 746.832031 1115.023438 729.921875 Z M 1071.390625 386.332031 C 1070.84375 386.878906 1070.84375 387.421875 1070.84375 388.511719 C 1070.84375 389.605469 1071.390625 390.695312 1072.480469 391.238281 L 1071.933594 413.054688 L 1075.207031 413.054688 L 1074.660156 391.238281 C 1075.753906 390.695312 1076.296875 389.605469 1076.296875 388.511719 C 1076.296875 387.96875 1075.753906 386.878906 1075.753906 386.332031 C 1078.480469 385.242188 1080.660156 382.515625 1080.660156 379.785156 C 1080.660156 376.515625 1078.480469 373.789062 1075.207031 373.242188 C 1076.296875 372.695312 1076.84375 371.605469 1076.84375 370.515625 C 1076.84375 368.878906 1075.753906 367.789062 1074.660156 367.789062 L 1074.117188 321.429688 L 1073.570312 321.429688 L 1073.023438 367.789062 C 1071.933594 368.332031 1070.84375 369.425781 1070.84375 370.515625 C 1070.84375 371.605469 1071.390625 372.695312 1072.480469 373.242188 C 1069.207031 373.789062 1067.027344 376.515625 1067.027344 379.785156 C 1067.027344 382.515625 1068.664062 385.242188 1071.390625 386.332031 Z M 351.984375 546.675781 L 349.804688 443.597656 L 325.261719 413.601562 L 321.441406 413.601562 L 296.351562 444.140625 L 299.082031 546.675781 Z M 351.984375 605.574219 L 297.988281 605.574219 L 298.535156 606.121094 L 298.535156 641.027344 L 351.984375 641.027344 Z M 351.984375 647.570312 L 298.535156 647.570312 L 298.535156 672.65625 L 351.984375 672.65625 Z M 351.984375 679.75 L 298.535156 679.75 L 298.535156 723.378906 L 351.984375 723.378906 Z M 303.988281 598.484375 L 303.988281 553.21875 L 294.71875 553.21875 C 287.082031 559.765625 273.992188 576.125 291.988281 598.484375 Z M 310.535156 553.21875 L 310.535156 598.484375 L 315.441406 598.484375 L 315.441406 553.21875 Z M 321.988281 553.21875 L 321.988281 598.484375 L 326.898438 598.484375 L 326.898438 553.21875 Z M 333.988281 553.21875 L 333.988281 598.484375 L 338.894531 598.484375 L 338.894531 553.21875 Z M 345.441406 598.484375 L 356.894531 598.484375 C 363.984375 589.214844 374.347656 570.125 354.710938 553.21875 L 345.441406 553.21875 Z M 293.082031 730.46875 L 275.628906 730.46875 C 274.535156 732.652344 272.898438 737.011719 272.898438 737.558594 C 267.992188 750.101562 268.535156 764.28125 273.445312 776.828125 C 276.71875 785.550781 281.082031 796.460938 288.171875 803.003906 L 293.082031 803.003906 Z M 305.078125 803.003906 L 305.078125 730.46875 L 299.625 730.46875 L 299.625 803.003906 Z M 316.535156 803.003906 L 316.535156 730.46875 L 311.625 730.46875 L 311.625 803.003906 Z M 327.988281 803.003906 L 327.988281 730.46875 L 323.078125 730.46875 L 323.078125 803.003906 Z M 339.441406 803.003906 L 339.441406 730.46875 L 334.53125 730.46875 L 334.53125 803.003906 Z M 349.257812 803.003906 L 349.257812 730.46875 L 346.53125 730.46875 L 346.53125 803.003906 Z M 356.347656 730.46875 L 356.347656 803.003906 L 362.894531 803.003906 C 368.894531 793.734375 397.253906 747.375 364.53125 730.46875 Z M 320.898438 386.332031 C 320.351562 386.878906 320.351562 387.421875 320.351562 388.511719 C 320.351562 389.605469 320.898438 390.695312 321.988281 391.238281 L 321.441406 413.054688 L 324.714844 413.054688 L 324.167969 391.238281 C 325.261719 390.695312 325.804688 389.605469 325.804688 388.511719 C 325.804688 387.96875 325.261719 386.878906 325.261719 386.332031 C 327.988281 385.242188 330.167969 382.515625 330.167969 379.785156 C 330.167969 376.515625 327.988281 373.789062 324.714844 373.242188 C 325.804688 372.695312 326.351562 371.605469 326.351562 370.515625 C 326.351562 368.878906 325.261719 367.789062 324.167969 367.789062 L 323.625 321.429688 L 323.078125 321.429688 L 322.53125 367.789062 C 321.441406 368.332031 320.351562 369.425781 320.351562 370.515625 C 320.351562 371.605469 320.898438 372.695312 321.988281 373.242188 C 318.714844 373.789062 316.535156 376.515625 316.535156 379.785156 C 315.988281 383.058594 318.167969 385.785156 320.898438 386.332031 Z M 320.898438 386.332031 " fill-opacity="1" fill-rule="nonzero"/></g></svg>