<svg xmlns="http://www.w3.org/2000/svg" xmlns:xlink="http://www.w3.org/1999/xlink" width="2000" zoomAndPan="magnify" viewBox="0 0 1500 1499.999933" height="2000" preserveAspectRatio="xMidYMid meet" version="1.0"><defs><clipPath id="9fc5752884"><path d="M 424 720 L 1077 720 L 1077 1070.699219 L 424 1070.699219 Z M 424 720 " clip-rule="nonzero"/></clipPath><clipPath id="6e559521bb"><path d="M 213.886719 429.449219 L 1286.386719 429.449219 L 1286.386719 942 L 213.886719 942 Z M 213.886719 429.449219 " clip-rule="nonzero"/></clipPath></defs><rect x="-150" width="1800" fill="#ffffff" y="-149.999993" height="1799.99992" fill-opacity="1"/><rect x="-150" width="1800" fill="#ffffff" y="-149.999993" height="1799.99992" fill-opacity="1"/><path fill="#000000" d="M 431.742188 729.539062 C 453.488281 737.730469 473.945312 745.429688 494.398438 753.136719 C 576.875 784.210938 659.308594 815.394531 741.921875 846.089844 C 747.105469 848.015625 754.308594 847.746094 759.550781 845.785156 C 859.144531 808.597656 958.652344 771.167969 1058.066406 733.5 C 1061.191406 732.324219 1064.386719 731.332031 1068.941406 729.773438 C 1069.179688 734.648438 1069.503906 738.253906 1069.507812 741.863281 C 1069.539062 808.492188 1069.457031 875.117188 1069.644531 941.746094 C 1069.664062 948.453125 1068.1875 953.125 1062.226562 957.179688 C 985.988281 1009.015625 903.53125 1045.730469 811.785156 1059.003906 C 726.210938 1071.386719 643.492188 1058.65625 563.402344 1027.257812 C 518.777344 1009.765625 476.933594 987.042969 438.90625 957.730469 C 435.140625 954.832031 431.269531 949.175781 431.242188 944.769531 C 430.769531 875.398438 430.914062 806.019531 430.945312 736.644531 C 430.945312 734.976562 431.304688 733.308594 431.742188 729.539062 Z M 431.742188 729.539062 " fill-opacity="1" fill-rule="nonzero"/><g clip-path="url(#9fc5752884)"><path fill="#231f20" d="M 746.890625 1070.503906 C 726.042969 1070.503906 705.285156 1069.113281 684.625 1066.332031 C 643.9375 1060.867188 602.3125 1049.863281 560.902344 1033.632812 C 514.003906 1015.246094 471.550781 991.535156 434.726562 963.15625 C 429.785156 959.347656 424.445312 951.984375 424.394531 944.820312 C 423.996094 885.90625 424.039062 826.015625 424.082031 768.097656 C 424.089844 757.613281 424.097656 747.128906 424.101562 736.644531 C 424.136719 735.101562 424.277344 733.570312 424.523438 732.046875 C 424.644531 731.15625 424.789062 730.097656 424.941406 728.761719 L 425.949219 720.054688 L 453.816406 730.546875 C 468.4375 736.050781 482.621094 741.394531 496.8125 746.742188 C 512.257812 752.558594 527.703125 758.378906 543.144531 764.203125 C 609.039062 789.050781 677.179688 814.738281 744.304688 839.683594 C 747.75 840.960938 753.273438 840.832031 757.160156 839.382812 C 836.800781 809.644531 917.683594 779.136719 995.898438 749.636719 C 1015.816406 742.125 1035.734375 734.613281 1055.652344 727.105469 C 1057.835938 726.28125 1060.011719 725.554688 1062.53125 724.714844 C 1063.808594 724.292969 1065.191406 723.832031 1066.734375 723.304688 L 1075.335938 720.367188 L 1075.777344 729.449219 C 1075.855469 731.066406 1075.945312 732.539062 1076.027344 733.921875 C 1076.199219 736.796875 1076.347656 739.269531 1076.351562 741.863281 C 1076.359375 761.570312 1076.363281 781.277344 1076.359375 800.984375 C 1076.359375 847.117188 1076.355469 894.820312 1076.484375 941.734375 C 1076.503906 948.65625 1075.28125 956.582031 1066.070312 962.84375 C 982.730469 1019.507812 899.867188 1053.183594 812.761719 1065.785156 C 790.917969 1068.9375 768.960938 1070.511719 746.890625 1070.503906 Z M 437.785156 739.128906 C 437.78125 748.789062 437.773438 758.445312 437.765625 768.105469 C 437.722656 826 437.679688 885.863281 438.082031 944.726562 C 438.089844 946.203125 440.242188 950.125 443.082031 952.3125 C 478.878906 979.90625 520.199219 1002.976562 565.898438 1020.890625 C 626.828125 1044.777344 687.675781 1056.777344 747.507812 1056.78125 C 768.710938 1056.785156 789.808594 1055.273438 810.800781 1052.238281 C 895.804688 1039.9375 976.785156 1006.996094 1058.375 951.523438 C 1061.863281 949.152344 1062.8125 947.054688 1062.796875 941.769531 C 1062.667969 894.835938 1062.667969 847.121094 1062.671875 800.976562 C 1062.671875 781.273438 1062.667969 761.570312 1062.664062 741.867188 C 1062.664062 740.976562 1062.640625 740.074219 1062.601562 739.136719 C 1061.875 739.390625 1061.175781 739.644531 1060.480469 739.90625 C 1040.5625 747.414062 1020.644531 754.925781 1000.726562 762.4375 C 922.5 791.941406 841.609375 822.453125 761.945312 852.199219 C 754.902344 854.828125 746.109375 854.949219 739.539062 852.507812 C 672.378906 827.554688 604.226562 801.855469 538.316406 777.007812 C 522.875 771.183594 507.429688 765.363281 491.984375 759.542969 C 477.800781 754.199219 463.609375 748.855469 448.992188 743.351562 Z M 437.785156 739.128906 " fill-opacity="1" fill-rule="nonzero"/></g><path fill="#000000" d="M 371.335938 762.28125 C 371.527344 730.722656 371.574219 699.167969 371.480469 667.609375 C 495.238281 715.726562 618.980469 763.890625 742.703125 812.097656 C 749.242188 814.652344 755.058594 815.15625 761.292969 813.640625 L 1266.816406 611.082031 C 1266.253906 610.878906 1265.726562 610.691406 1265.199219 610.507812 C 1183.816406 582.414062 1102.433594 554.324219 1021.042969 526.242188 C 934.777344 496.523438 848.472656 466.917969 762.132812 437.421875 C 757.421875 435.820312 751.296875 436.035156 746.476562 437.507812 C 729.097656 442.816406 711.976562 448.976562 694.789062 454.902344 C 578.375 495.039062 461.964844 535.1875 345.554688 575.351562 C 309.257812 587.871094 272.957031 600.386719 233.722656 613.914062 C 266.53125 626.722656 296.488281 638.453125 326.472656 650.113281 L 353.261719 660.527344 C 353.273438 694.996094 353.277344 728.722656 353.101562 762.40625 C 338.644531 763.703125 328.089844 767.765625 328.089844 772.578125 C 328.089844 776.109375 333.777344 779.238281 342.515625 781.164062 C 330.644531 794.996094 332.308594 810.15625 347.59375 823.796875 C 349.480469 825.480469 351.128906 829.019531 350.855469 831.449219 C 349.699219 841.652344 347.707031 851.753906 346.136719 861.914062 C 342.742188 883.894531 339.402344 905.882812 336.011719 928.082031 C 335.953125 928.460938 335.933594 928.84375 335.960938 929.230469 C 335.984375 929.617188 336.050781 929.992188 336.15625 930.363281 C 336.261719 930.734375 336.40625 931.089844 336.589844 931.429688 C 336.773438 931.769531 336.988281 932.085938 337.242188 932.378906 C 337.492188 932.671875 337.769531 932.933594 338.078125 933.167969 C 338.386719 933.398438 338.714844 933.59375 339.066406 933.757812 C 339.417969 933.917969 339.78125 934.039062 340.15625 934.121094 C 340.535156 934.207031 340.914062 934.246094 341.300781 934.246094 L 383.042969 934.246094 C 383.410156 934.246094 383.773438 934.210938 384.128906 934.132812 C 384.488281 934.058594 384.835938 933.949219 385.171875 933.804688 C 385.507812 933.660156 385.824219 933.480469 386.125 933.269531 C 386.421875 933.058594 386.695312 932.820312 386.945312 932.554688 C 387.199219 932.289062 387.417969 932 387.609375 931.6875 C 387.800781 931.375 387.957031 931.046875 388.082031 930.703125 C 388.207031 930.359375 388.292969 930.003906 388.34375 929.644531 C 388.394531 929.28125 388.410156 928.917969 388.386719 928.550781 C 388.289062 926.949219 388.167969 925.441406 387.929688 923.953125 C 383.507812 895.925781 379.039062 867.910156 374.523438 839.902344 C 373.292969 832.199219 372.777344 826.050781 380.5625 819.792969 C 392.351562 810.324219 392.371094 792.523438 382.59375 781.351562 C 391.820312 779.441406 397.882812 776.226562 397.882812 772.578125 C 397.882812 767.597656 386.574219 763.417969 371.335938 762.28125 Z M 371.335938 762.28125 " fill-opacity="1" fill-rule="nonzero"/><g clip-path="url(#6e559521bb)"><path fill="#231f20" d="M 383.046875 941.089844 L 341.300781 941.089844 C 340.863281 941.089844 340.429688 941.066406 339.992188 941.019531 C 339.558594 940.972656 339.125 940.902344 338.695312 940.808594 C 338.269531 940.714844 337.847656 940.597656 337.433594 940.457031 C 337.015625 940.320312 336.609375 940.15625 336.210938 939.972656 C 335.8125 939.792969 335.425781 939.585938 335.050781 939.363281 C 334.675781 939.136719 334.3125 938.894531 333.960938 938.628906 C 333.613281 938.367188 333.277344 938.085938 332.957031 937.785156 C 332.640625 937.484375 332.335938 937.167969 332.050781 936.835938 C 331.765625 936.503906 331.5 936.15625 331.25 935.796875 C 331.003906 935.433594 330.773438 935.0625 330.566406 934.675781 C 330.359375 934.289062 330.171875 933.894531 330.007812 933.488281 C 329.84375 933.082031 329.699219 932.667969 329.578125 932.25 C 329.457031 931.828125 329.359375 931.402344 329.285156 930.96875 C 329.210938 930.539062 329.160156 930.101562 329.132812 929.664062 C 329.105469 929.230469 329.101562 928.792969 329.121094 928.355469 C 329.140625 927.914062 329.179688 927.480469 329.246094 927.046875 L 331.566406 911.855469 C 334.117188 895.128906 336.753906 877.832031 339.375 860.871094 C 339.910156 857.410156 340.5 853.921875 341.066406 850.550781 C 342.160156 844.085938 343.285156 837.40625 344.035156 830.878906 C 343.851562 830.140625 343.515625 829.480469 343.027344 828.898438 C 328 815.484375 324.082031 799.574219 331.699219 784.933594 C 323.285156 781.257812 321.246094 776.410156 321.246094 772.578125 C 321.246094 762.242188 334.972656 758.039062 346.289062 756.332031 C 346.433594 725.25 346.429688 693.65625 346.421875 665.210938 L 323.992188 656.492188 C 303.597656 648.558594 283.367188 640.652344 261.945312 632.285156 C 251.9375 628.375 241.730469 624.386719 231.234375 620.289062 L 213.886719 613.515625 L 263.488281 596.410156 C 290.839844 586.976562 317.082031 577.929688 343.324219 568.878906 L 442.15625 534.789062 C 525.625 506 609.09375 477.21875 692.5625 448.433594 C 696.257812 447.164062 699.949219 445.882812 703.636719 444.59375 C 716.949219 439.960938 730.714844 435.171875 744.480469 430.964844 C 750.953125 428.988281 758.5625 428.980469 764.335938 430.945312 C 851.613281 460.636719 938.878906 490.699219 1023.273438 519.773438 C 1083.074219 540.375 1143.855469 561.367188 1202.636719 581.667969 L 1267.433594 604.042969 C 1267.992188 604.234375 1268.546875 604.429688 1269.132812 604.640625 L 1286.085938 610.730469 L 763.386719 820.171875 L 762.910156 820.289062 C 755.320312 822.128906 748.109375 821.554688 740.214844 818.472656 C 632.300781 776.339844 522.515625 733.664062 416.34375 692.390625 L 378.351562 677.625 C 378.40625 702.960938 378.363281 729.300781 378.214844 756.128906 C 389.230469 757.648438 404.722656 761.714844 404.722656 772.578125 C 404.722656 776.582031 402.507812 781.652344 393.257812 785.359375 C 394.546875 788.148438 395.457031 791.050781 395.988281 794.078125 C 396.519531 797.101562 396.65625 800.144531 396.394531 803.203125 C 396.230469 805.328125 395.851562 807.410156 395.257812 809.457031 C 394.667969 811.503906 393.875 813.472656 392.882812 815.355469 C 391.890625 817.242188 390.71875 819.007812 389.363281 820.652344 C 388.011719 822.300781 386.503906 823.789062 384.847656 825.128906 C 380.144531 828.90625 380.125 831.570312 381.28125 838.824219 C 382.730469 847.910156 384.183594 856.996094 385.640625 866.082031 C 388.621094 884.691406 391.703125 903.941406 394.691406 922.882812 C 394.988281 924.777344 395.125 926.601562 395.21875 928.136719 C 395.269531 928.96875 395.234375 929.792969 395.117188 930.617188 C 395 931.441406 394.800781 932.246094 394.515625 933.03125 C 394.234375 933.8125 393.875 934.558594 393.441406 935.269531 C 393.003906 935.980469 392.5 936.636719 391.929688 937.242188 C 391.359375 937.851562 390.734375 938.394531 390.054688 938.871094 C 389.371094 939.351562 388.648438 939.753906 387.886719 940.085938 C 387.121094 940.417969 386.332031 940.667969 385.515625 940.835938 C 384.703125 941.003906 383.878906 941.089844 383.046875 941.089844 Z M 343.035156 927.40625 L 381.449219 927.40625 C 381.382812 926.617188 381.296875 925.800781 381.175781 925.015625 C 378.1875 906.089844 375.109375 886.851562 372.128906 868.246094 C 370.675781 859.15625 369.222656 850.066406 367.769531 840.980469 C 366.59375 833.617188 364.984375 823.53125 376.28125 814.460938 C 377.214844 813.699219 378.066406 812.847656 378.828125 811.914062 C 379.589844 810.976562 380.25 809.972656 380.808594 808.902344 C 381.363281 807.832031 381.808594 806.714844 382.136719 805.554688 C 382.46875 804.394531 382.675781 803.210938 382.765625 802.007812 C 382.886719 800.550781 382.863281 799.097656 382.691406 797.648438 C 382.519531 796.199219 382.203125 794.78125 381.746094 793.390625 C 381.292969 792.003906 380.699219 790.675781 379.976562 789.410156 C 379.253906 788.140625 378.410156 786.957031 377.445312 785.859375 L 369.71875 777.03125 L 381.210938 774.65625 C 383.675781 774.179688 386.078125 773.484375 388.417969 772.574219 C 385.140625 771.25 379.375 769.746094 370.832031 769.109375 L 364.460938 768.632812 L 364.5 762.242188 C 364.695312 729.742188 364.746094 697.914062 364.644531 667.636719 L 364.613281 657.601562 L 421.308594 679.640625 C 527.484375 720.917969 637.273438 763.597656 745.199219 805.730469 C 750.328125 807.734375 754.558594 808.148438 759.234375 807.097656 L 1247.257812 611.550781 L 1198.171875 594.605469 C 1139.394531 574.304688 1078.609375 553.316406 1018.816406 532.714844 C 934.433594 503.644531 847.179688 473.585938 759.929688 443.902344 C 756.832031 442.851562 752.226562 442.910156 748.476562 444.054688 C 734.964844 448.183594 721.324219 452.929688 708.132812 457.519531 C 704.429688 458.808594 700.726562 460.09375 697.023438 461.375 C 613.554688 490.152344 530.085938 518.9375 446.617188 547.734375 L 347.789062 581.820312 C 321.546875 590.871094 295.304688 599.917969 267.949219 609.351562 L 253.554688 614.3125 C 258.054688 616.070312 262.511719 617.8125 266.925781 619.535156 C 288.34375 627.902344 308.570312 635.804688 328.953125 643.734375 L 360.105469 655.84375 L 360.105469 660.523438 C 360.113281 692.003906 360.125 727.679688 359.945312 762.441406 L 359.910156 768.667969 L 353.710938 769.222656 C 345.957031 769.917969 340.660156 771.328125 337.570312 772.574219 C 339.65625 773.390625 341.796875 774.027344 343.988281 774.488281 L 355.152344 776.949219 L 347.707031 785.625 C 338.191406 796.714844 339.640625 807.535156 352.148438 818.695312 C 355.324219 821.53125 358.234375 827.085938 357.652344 832.21875 C 356.867188 839.183594 355.695312 846.121094 354.5625 852.828125 C 354 856.15625 353.417969 859.59375 352.898438 862.960938 C 350.28125 879.910156 347.644531 897.199219 345.09375 913.921875 Z M 343.035156 927.40625 " fill-opacity="1" fill-rule="nonzero"/></g></svg>