<svg xmlns="http://www.w3.org/2000/svg" xmlns:xlink="http://www.w3.org/1999/xlink" width="2000" zoomAndPan="magnify" viewBox="0 0 1500 1499.999933" height="2000" preserveAspectRatio="xMidYMid meet" version="1.0"><rect x="-150" width="1800" fill="#ffffff" y="-149.999993" height="1799.99992" fill-opacity="1"/><rect x="-150" width="1800" fill="#ffffff" y="-149.999993" height="1799.99992" fill-opacity="1"/><path fill="#000000" d="M 749.859375 1129.867188 C 771.914062 1139.023438 770.757812 1150.136719 770.757812 1150.136719 C 802.371094 1151.113281 787.566406 1223.21875 787.566406 1223.21875 L 1067.210938 1223.21875 C 1067.210938 1223.21875 1068.1875 1137.777344 1067.210938 1124.933594 C 1066.230469 1112.085938 1054.359375 1108.128906 1054.359375 1108.128906 L 749.859375 1108.128906 C 749.859375 1108.128906 445.355469 1108.128906 445.355469 1108.128906 C 445.355469 1108.128906 433.484375 1112.085938 432.507812 1124.933594 C 431.527344 1137.777344 432.507812 1223.21875 432.507812 1223.21875 L 712.152344 1223.21875 C 712.152344 1223.21875 697.34375 1151.113281 728.960938 1150.136719 C 728.960938 1150.136719 728.203125 1137.554688 749.859375 1129.867188 Z M 749.859375 1129.867188 " fill-opacity="1" fill-rule="nonzero"/><path fill="#000000" d="M 1017.808594 1024.199219 L 482.574219 1024.199219 C 468.300781 1024.199219 456.738281 1035.757812 456.738281 1050.027344 L 456.738281 1095.949219 L 1043.6875 1095.949219 L 1043.6875 1050.027344 C 1043.6875 1035.757812 1032.125 1024.199219 1017.851562 1024.199219 Z M 764.664062 1085.101562 L 735.671875 1085.101562 L 735.671875 1035.046875 L 764.664062 1035.046875 Z M 764.664062 1085.101562 " fill-opacity="1" fill-rule="nonzero"/><path fill="#000000" d="M 999.488281 940.804688 L 498.316406 940.804688 C 485.730469 940.804688 475.503906 951.027344 475.503906 963.609375 L 475.503906 1012.597656 L 1022.253906 1012.597656 L 1022.253906 963.609375 C 1022.253906 951.027344 1012.027344 940.804688 999.445312 940.804688 Z M 761.507812 998.417969 L 736.339844 998.417969 L 736.339844 954.941406 L 761.507812 954.941406 Z M 761.507812 998.417969 " fill-opacity="1" fill-rule="nonzero"/><path fill="#000000" d="M 983.882812 856.253906 L 515.835938 856.253906 C 503.027344 856.253906 492.625 866.65625 492.625 879.457031 L 492.625 928.046875 L 1007.09375 928.046875 L 1007.09375 879.457031 C 1007.09375 866.65625 996.6875 856.253906 983.882812 856.253906 Z M 762.441406 913.863281 L 737.273438 913.863281 L 737.273438 870.390625 L 762.441406 870.390625 Z M 762.441406 913.863281 " fill-opacity="1" fill-rule="nonzero"/><path fill="#000000" d="M 964.09375 767.078125 L 536.246094 767.078125 C 523.4375 767.078125 513.035156 777.480469 513.035156 790.28125 L 513.035156 838.871094 L 987.351562 838.871094 L 987.351562 790.28125 C 987.351562 777.480469 976.945312 767.078125 964.140625 767.078125 Z M 762.753906 824.691406 L 737.585938 824.691406 L 737.585938 781.214844 L 762.753906 781.214844 Z M 762.753906 824.691406 " fill-opacity="1" fill-rule="nonzero"/><path fill="#000000" d="M 950.933594 678.835938 L 549.449219 678.835938 C 536.644531 678.835938 526.238281 689.238281 526.238281 702.042969 L 526.238281 750.628906 L 974.1875 750.628906 L 974.1875 702.042969 C 974.1875 689.238281 963.78125 678.835938 950.976562 678.835938 Z M 762.753906 736.449219 L 737.585938 736.449219 L 737.585938 692.972656 L 762.753906 692.972656 Z M 762.753906 736.449219 " fill-opacity="1" fill-rule="nonzero"/><path fill="#000000" d="M 932.480469 593.128906 L 567.859375 593.128906 C 555.054688 593.128906 544.648438 603.53125 544.648438 616.335938 L 544.648438 664.921875 L 955.691406 664.921875 L 955.691406 616.335938 C 955.691406 603.53125 945.285156 593.128906 932.480469 593.128906 Z M 762.753906 650.785156 L 737.585938 650.785156 L 737.585938 607.3125 L 762.753906 607.3125 Z M 762.753906 650.785156 " fill-opacity="1" fill-rule="nonzero"/><path fill="#000000" d="M 924.609375 509.246094 L 575.773438 509.246094 C 562.96875 509.246094 552.5625 519.648438 552.5625 532.449219 L 552.5625 581.039062 L 947.820312 581.039062 L 947.820312 532.449219 C 947.820312 519.648438 937.414062 509.246094 924.609375 509.246094 Z M 762.753906 566.859375 L 737.585938 566.859375 L 737.585938 523.382812 L 762.753906 523.382812 Z M 762.753906 566.859375 " fill-opacity="1" fill-rule="nonzero"/><path fill="#000000" d="M 902.152344 419.269531 L 598.230469 419.269531 C 580.308594 419.269531 565.726562 433.808594 565.726562 451.765625 L 565.726562 491.0625 L 934.613281 491.0625 L 934.613281 451.765625 C 934.613281 433.851562 920.074219 419.269531 902.109375 419.269531 Z M 762.753906 476.929688 L 737.585938 476.929688 L 737.585938 433.453125 L 762.753906 433.453125 Z M 762.753906 476.929688 " fill-opacity="1" fill-rule="nonzero"/><path fill="#000000" d="M 886.5 332.363281 L 613.214844 332.363281 C 600.941406 332.363281 590.9375 342.320312 590.9375 354.636719 L 590.9375 404.15625 L 908.734375 404.15625 L 908.734375 354.636719 C 908.734375 342.367188 898.773438 332.363281 886.457031 332.363281 Z M 762.441406 389.976562 L 737.273438 389.976562 L 737.273438 346.5 L 762.441406 346.5 Z M 762.441406 389.976562 " fill-opacity="1" fill-rule="nonzero"/><path fill="#000000" d="M 869.382812 217.007812 C 866.980469 210.070312 862.535156 208.027344 862.535156 208.027344 C 862.535156 208.027344 858.042969 210.027344 855.6875 217.007812 C 854.664062 220.03125 857.019531 223.1875 860.222656 223.1875 L 864.847656 223.1875 C 868.046875 223.1875 870.449219 220.03125 869.382812 217.007812 Z M 869.382812 217.007812 " fill-opacity="1" fill-rule="nonzero"/><path fill="#000000" d="M 866.179688 242.257812 L 858.800781 242.257812 C 856.175781 242.257812 854.085938 244.390625 854.085938 246.96875 C 854.085938 249.589844 856.21875 251.679688 858.800781 251.679688 L 866.179688 251.679688 C 868.804688 251.679688 870.894531 249.546875 870.894531 246.96875 C 870.894531 244.34375 868.757812 242.257812 866.179688 242.257812 Z M 866.179688 242.257812 " fill-opacity="1" fill-rule="nonzero"/><path fill="#000000" d="M 859.378906 227.054688 L 865.601562 227.054688 C 865.949219 227.054688 866.292969 227.085938 866.636719 227.152344 C 866.976562 227.222656 867.304688 227.320312 867.628906 227.453125 C 867.949219 227.585938 868.253906 227.75 868.542969 227.941406 C 868.832031 228.132812 869.097656 228.351562 869.34375 228.597656 C 869.589844 228.839844 869.808594 229.105469 870.003906 229.394531 C 870.195312 229.683594 870.359375 229.984375 870.492188 230.304688 C 870.625 230.625 870.722656 230.953125 870.792969 231.292969 C 870.859375 231.632812 870.894531 231.976562 870.894531 232.320312 C 870.894531 232.667969 870.859375 233.007812 870.792969 233.347656 C 870.722656 233.6875 870.625 234.015625 870.492188 234.335938 C 870.359375 234.65625 870.195312 234.960938 870.003906 235.246094 C 869.808594 235.535156 869.589844 235.800781 869.34375 236.046875 C 869.097656 236.289062 868.832031 236.507812 868.542969 236.699219 C 868.253906 236.894531 867.949219 237.054688 867.628906 237.1875 C 867.304688 237.320312 866.976562 237.417969 866.636719 237.488281 C 866.292969 237.554688 865.949219 237.589844 865.601562 237.589844 L 859.378906 237.589844 C 859.03125 237.589844 858.6875 237.554688 858.34375 237.488281 C 858.003906 237.417969 857.671875 237.320312 857.351562 237.1875 C 857.03125 237.054688 856.726562 236.894531 856.4375 236.699219 C 856.148438 236.507812 855.882812 236.289062 855.636719 236.046875 C 855.390625 235.800781 855.171875 235.535156 854.976562 235.246094 C 854.785156 234.960938 854.621094 234.65625 854.488281 234.335938 C 854.355469 234.015625 854.253906 233.6875 854.1875 233.347656 C 854.121094 233.007812 854.085938 232.667969 854.085938 232.320312 C 854.085938 231.976562 854.121094 231.632812 854.1875 231.292969 C 854.253906 230.953125 854.355469 230.625 854.488281 230.304688 C 854.621094 229.984375 854.785156 229.683594 854.976562 229.394531 C 855.171875 229.105469 855.390625 228.839844 855.636719 228.597656 C 855.882812 228.351562 856.148438 228.132812 856.4375 227.941406 C 856.726562 227.75 857.03125 227.585938 857.351562 227.453125 C 857.671875 227.320312 858.003906 227.222656 858.34375 227.152344 C 858.6875 227.085938 859.03125 227.054688 859.378906 227.054688 Z M 859.378906 227.054688 " fill-opacity="1" fill-rule="nonzero"/><path fill="#000000" d="M 841.234375 217.007812 C 838.835938 210.070312 834.386719 208.027344 834.386719 208.027344 C 834.386719 208.027344 829.898438 210.027344 827.539062 217.007812 C 826.515625 220.03125 828.875 223.1875 832.074219 223.1875 L 836.699219 223.1875 C 839.902344 223.1875 842.300781 220.03125 841.234375 217.007812 Z M 841.234375 217.007812 " fill-opacity="1" fill-rule="nonzero"/><path fill="#000000" d="M 838.035156 242.257812 L 830.652344 242.257812 C 828.027344 242.257812 825.9375 244.390625 825.9375 246.96875 C 825.9375 249.589844 828.074219 251.679688 830.652344 251.679688 L 838.035156 251.679688 C 840.65625 251.679688 842.746094 249.546875 842.746094 246.96875 C 842.746094 244.34375 840.613281 242.257812 838.035156 242.257812 Z M 838.035156 242.257812 " fill-opacity="1" fill-rule="nonzero"/><path fill="#000000" d="M 831.230469 227.054688 L 837.457031 227.054688 C 837.804688 227.054688 838.148438 227.085938 838.488281 227.152344 C 838.828125 227.222656 839.160156 227.320312 839.480469 227.453125 C 839.800781 227.585938 840.105469 227.75 840.394531 227.941406 C 840.683594 228.132812 840.953125 228.351562 841.199219 228.597656 C 841.441406 228.839844 841.664062 229.105469 841.855469 229.394531 C 842.046875 229.683594 842.210938 229.984375 842.34375 230.304688 C 842.476562 230.625 842.578125 230.953125 842.644531 231.292969 C 842.714844 231.632812 842.746094 231.976562 842.746094 232.320312 C 842.746094 232.667969 842.714844 233.007812 842.644531 233.347656 C 842.578125 233.6875 842.476562 234.015625 842.34375 234.335938 C 842.210938 234.65625 842.046875 234.960938 841.855469 235.246094 C 841.664062 235.535156 841.441406 235.800781 841.199219 236.046875 C 840.953125 236.289062 840.683594 236.507812 840.394531 236.699219 C 840.105469 236.894531 839.800781 237.054688 839.480469 237.1875 C 839.160156 237.320312 838.828125 237.417969 838.488281 237.488281 C 838.148438 237.554688 837.804688 237.589844 837.457031 237.589844 L 831.230469 237.589844 C 830.882812 237.589844 830.539062 237.554688 830.199219 237.488281 C 829.859375 237.417969 829.527344 237.320312 829.207031 237.1875 C 828.882812 237.054688 828.578125 236.894531 828.289062 236.699219 C 828 236.507812 827.734375 236.289062 827.488281 236.046875 C 827.242188 235.800781 827.023438 235.535156 826.832031 235.246094 C 826.636719 234.960938 826.476562 234.65625 826.34375 234.335938 C 826.207031 234.015625 826.109375 233.6875 826.039062 233.347656 C 825.972656 233.007812 825.9375 232.667969 825.9375 232.320312 C 825.9375 231.976562 825.972656 231.632812 826.039062 231.292969 C 826.109375 230.953125 826.207031 230.625 826.34375 230.304688 C 826.476562 229.984375 826.636719 229.683594 826.832031 229.394531 C 827.023438 229.105469 827.242188 228.839844 827.488281 228.597656 C 827.734375 228.351562 828 228.132812 828.289062 227.941406 C 828.578125 227.75 828.882812 227.585938 829.207031 227.453125 C 829.527344 227.320312 829.859375 227.222656 830.199219 227.152344 C 830.539062 227.085938 830.882812 227.054688 831.230469 227.054688 Z M 831.230469 227.054688 " fill-opacity="1" fill-rule="nonzero"/><path fill="#000000" d="M 813.089844 217.007812 C 810.6875 210.070312 806.242188 208.027344 806.242188 208.027344 C 806.242188 208.027344 801.75 210.027344 799.394531 217.007812 C 798.371094 220.03125 800.726562 223.1875 803.929688 223.1875 L 808.554688 223.1875 C 811.753906 223.1875 814.15625 220.03125 813.089844 217.007812 Z M 813.089844 217.007812 " fill-opacity="1" fill-rule="nonzero"/><path fill="#000000" d="M 809.886719 242.257812 L 802.503906 242.257812 C 799.882812 242.257812 797.792969 244.390625 797.792969 246.96875 C 797.792969 249.589844 799.925781 251.679688 802.503906 251.679688 L 809.886719 251.679688 C 812.511719 251.679688 814.601562 249.546875 814.601562 246.96875 C 814.601562 244.34375 812.464844 242.257812 809.886719 242.257812 Z M 809.886719 242.257812 " fill-opacity="1" fill-rule="nonzero"/><path fill="#000000" d="M 803.082031 227.054688 L 809.308594 227.054688 C 809.65625 227.054688 810 227.085938 810.339844 227.152344 C 810.683594 227.222656 811.011719 227.320312 811.332031 227.453125 C 811.65625 227.585938 811.960938 227.75 812.25 227.941406 C 812.539062 228.132812 812.804688 228.351562 813.050781 228.597656 C 813.296875 228.839844 813.515625 229.105469 813.707031 229.394531 C 813.902344 229.683594 814.066406 229.984375 814.199219 230.304688 C 814.332031 230.625 814.429688 230.953125 814.5 231.292969 C 814.566406 231.632812 814.601562 231.976562 814.601562 232.320312 C 814.601562 232.667969 814.566406 233.007812 814.5 233.347656 C 814.429688 233.6875 814.332031 234.015625 814.199219 234.335938 C 814.066406 234.65625 813.902344 234.960938 813.707031 235.246094 C 813.515625 235.535156 813.296875 235.800781 813.050781 236.046875 C 812.804688 236.289062 812.539062 236.507812 812.25 236.699219 C 811.960938 236.894531 811.65625 237.054688 811.332031 237.1875 C 811.011719 237.320312 810.683594 237.417969 810.339844 237.488281 C 810 237.554688 809.65625 237.589844 809.308594 237.589844 L 803.082031 237.589844 C 802.738281 237.589844 802.390625 237.554688 802.050781 237.488281 C 801.710938 237.417969 801.378906 237.320312 801.058594 237.1875 C 800.738281 237.054688 800.433594 236.894531 800.144531 236.699219 C 799.855469 236.507812 799.585938 236.289062 799.34375 236.046875 C 799.097656 235.800781 798.878906 235.535156 798.683594 235.246094 C 798.492188 234.960938 798.328125 234.65625 798.195312 234.335938 C 798.0625 234.015625 797.960938 233.6875 797.894531 233.347656 C 797.828125 233.007812 797.792969 232.667969 797.792969 232.320312 C 797.792969 231.976562 797.828125 231.632812 797.894531 231.292969 C 797.960938 230.953125 798.0625 230.625 798.195312 230.304688 C 798.328125 229.984375 798.492188 229.683594 798.683594 229.394531 C 798.878906 229.105469 799.097656 228.839844 799.34375 228.597656 C 799.585938 228.351562 799.855469 228.132812 800.144531 227.941406 C 800.433594 227.75 800.738281 227.585938 801.058594 227.453125 C 801.378906 227.320312 801.710938 227.222656 802.050781 227.152344 C 802.390625 227.085938 802.738281 227.054688 803.082031 227.054688 Z M 803.082031 227.054688 " fill-opacity="1" fill-rule="nonzero"/><path fill="#000000" d="M 784.898438 217.007812 C 782.496094 210.070312 778.050781 208.027344 778.050781 208.027344 C 778.050781 208.027344 773.558594 210.027344 771.203125 217.007812 C 770.179688 220.03125 772.535156 223.1875 775.738281 223.1875 L 780.363281 223.1875 C 783.5625 223.1875 785.964844 220.03125 784.898438 217.007812 Z M 784.898438 217.007812 " fill-opacity="1" fill-rule="nonzero"/><path fill="#000000" d="M 781.738281 242.257812 L 774.359375 242.257812 C 771.734375 242.257812 769.644531 244.390625 769.644531 246.96875 C 769.644531 249.589844 771.78125 251.679688 774.359375 251.679688 L 781.738281 251.679688 C 784.363281 251.679688 786.453125 249.546875 786.453125 246.96875 C 786.453125 244.34375 784.320312 242.257812 781.738281 242.257812 Z M 781.738281 242.257812 " fill-opacity="1" fill-rule="nonzero"/><path fill="#000000" d="M 774.9375 227.054688 L 781.160156 227.054688 C 781.507812 227.054688 781.855469 227.085938 782.195312 227.152344 C 782.535156 227.222656 782.867188 227.320312 783.1875 227.453125 C 783.507812 227.585938 783.8125 227.75 784.101562 227.941406 C 784.390625 228.132812 784.65625 228.351562 784.902344 228.597656 C 785.148438 228.839844 785.367188 229.105469 785.5625 229.394531 C 785.753906 229.683594 785.917969 229.984375 786.050781 230.304688 C 786.183594 230.625 786.285156 230.953125 786.351562 231.292969 C 786.417969 231.632812 786.453125 231.976562 786.453125 232.320312 C 786.453125 232.667969 786.417969 233.007812 786.351562 233.347656 C 786.285156 233.6875 786.183594 234.015625 786.050781 234.335938 C 785.917969 234.65625 785.753906 234.960938 785.5625 235.246094 C 785.367188 235.535156 785.148438 235.800781 784.902344 236.046875 C 784.65625 236.289062 784.390625 236.507812 784.101562 236.699219 C 783.8125 236.894531 783.507812 237.054688 783.1875 237.1875 C 782.867188 237.320312 782.535156 237.417969 782.195312 237.488281 C 781.855469 237.554688 781.507812 237.589844 781.160156 237.589844 L 774.9375 237.589844 C 774.589844 237.589844 774.246094 237.554688 773.90625 237.488281 C 773.5625 237.417969 773.234375 237.320312 772.910156 237.1875 C 772.589844 237.054688 772.285156 236.894531 771.996094 236.699219 C 771.707031 236.507812 771.441406 236.289062 771.195312 236.046875 C 770.949219 235.800781 770.730469 235.535156 770.539062 235.246094 C 770.34375 234.960938 770.179688 234.65625 770.046875 234.335938 C 769.914062 234.015625 769.816406 233.6875 769.746094 233.347656 C 769.679688 233.007812 769.644531 232.667969 769.644531 232.320312 C 769.644531 231.976562 769.679688 231.632812 769.746094 231.292969 C 769.816406 230.953125 769.914062 230.625 770.046875 230.304688 C 770.179688 229.984375 770.34375 229.683594 770.539062 229.394531 C 770.730469 229.105469 770.949219 228.839844 771.195312 228.597656 C 771.441406 228.351562 771.707031 228.132812 771.996094 227.941406 C 772.285156 227.75 772.589844 227.585938 772.910156 227.453125 C 773.234375 227.320312 773.5625 227.222656 773.90625 227.152344 C 774.246094 227.085938 774.589844 227.054688 774.9375 227.054688 Z M 774.9375 227.054688 " fill-opacity="1" fill-rule="nonzero"/><path fill="#000000" d="M 756.75 217.007812 C 754.347656 210.070312 749.902344 208.027344 749.902344 208.027344 C 749.902344 208.027344 745.410156 210.027344 743.054688 217.007812 C 742.03125 220.03125 744.390625 223.1875 747.589844 223.1875 L 752.214844 223.1875 C 755.417969 223.1875 757.816406 220.03125 756.75 217.007812 Z M 756.75 217.007812 " fill-opacity="1" fill-rule="nonzero"/><path fill="#000000" d="M 753.59375 242.257812 L 746.210938 242.257812 C 743.589844 242.257812 741.5 244.390625 741.5 246.96875 C 741.5 249.589844 743.632812 251.679688 746.210938 251.679688 L 753.59375 251.679688 C 756.214844 251.679688 758.308594 249.546875 758.308594 246.96875 C 758.308594 244.34375 756.171875 242.257812 753.59375 242.257812 Z M 753.59375 242.257812 " fill-opacity="1" fill-rule="nonzero"/><path fill="#000000" d="M 746.789062 227.054688 L 753.015625 227.054688 C 753.363281 227.054688 753.707031 227.085938 754.046875 227.152344 C 754.386719 227.222656 754.71875 227.320312 755.039062 227.453125 C 755.359375 227.585938 755.667969 227.75 755.953125 227.941406 C 756.242188 228.132812 756.511719 228.351562 756.757812 228.597656 C 757.003906 228.839844 757.222656 229.105469 757.414062 229.394531 C 757.609375 229.683594 757.769531 229.984375 757.902344 230.304688 C 758.035156 230.625 758.136719 230.953125 758.203125 231.292969 C 758.273438 231.632812 758.308594 231.976562 758.308594 232.320312 C 758.308594 232.667969 758.273438 233.007812 758.203125 233.347656 C 758.136719 233.6875 758.035156 234.015625 757.902344 234.335938 C 757.769531 234.65625 757.609375 234.960938 757.414062 235.246094 C 757.222656 235.535156 757.003906 235.800781 756.757812 236.046875 C 756.511719 236.289062 756.242188 236.507812 755.953125 236.699219 C 755.667969 236.894531 755.359375 237.054688 755.039062 237.1875 C 754.71875 237.320312 754.386719 237.417969 754.046875 237.488281 C 753.707031 237.554688 753.363281 237.589844 753.015625 237.589844 L 746.789062 237.589844 C 746.441406 237.589844 746.097656 237.554688 745.757812 237.488281 C 745.417969 237.417969 745.085938 237.320312 744.765625 237.1875 C 744.445312 237.054688 744.140625 236.894531 743.851562 236.699219 C 743.5625 236.507812 743.292969 236.289062 743.046875 236.046875 C 742.804688 235.800781 742.582031 235.535156 742.390625 235.246094 C 742.199219 234.960938 742.035156 234.65625 741.902344 234.335938 C 741.769531 234.015625 741.667969 233.6875 741.601562 233.347656 C 741.53125 233.007812 741.5 232.667969 741.5 232.320312 C 741.5 231.976562 741.53125 231.632812 741.601562 231.292969 C 741.667969 230.953125 741.769531 230.625 741.902344 230.304688 C 742.035156 229.984375 742.199219 229.683594 742.390625 229.394531 C 742.582031 229.105469 742.804688 228.839844 743.046875 228.597656 C 743.292969 228.351562 743.5625 228.132812 743.851562 227.941406 C 744.140625 227.75 744.445312 227.585938 744.765625 227.453125 C 745.085938 227.320312 745.417969 227.222656 745.757812 227.152344 C 746.097656 227.085938 746.441406 227.054688 746.789062 227.054688 Z M 746.789062 227.054688 " fill-opacity="1" fill-rule="nonzero"/><path fill="#000000" d="M 728.605469 217.007812 C 726.203125 210.070312 721.753906 208.027344 721.753906 208.027344 C 721.753906 208.027344 717.265625 210.027344 714.90625 217.007812 C 713.886719 220.03125 716.242188 223.1875 719.445312 223.1875 L 724.066406 223.1875 C 727.269531 223.1875 729.671875 220.03125 728.605469 217.007812 Z M 728.605469 217.007812 " fill-opacity="1" fill-rule="nonzero"/><path fill="#000000" d="M 725.445312 242.257812 L 718.066406 242.257812 C 715.441406 242.257812 713.351562 244.390625 713.351562 246.96875 C 713.351562 249.589844 715.484375 251.679688 718.066406 251.679688 L 725.445312 251.679688 C 728.070312 251.679688 730.160156 249.546875 730.160156 246.96875 C 730.160156 244.34375 728.027344 242.257812 725.445312 242.257812 Z M 725.445312 242.257812 " fill-opacity="1" fill-rule="nonzero"/><path fill="#000000" d="M 718.644531 227.054688 L 724.867188 227.054688 C 725.214844 227.054688 725.558594 227.085938 725.902344 227.152344 C 726.242188 227.222656 726.574219 227.320312 726.894531 227.453125 C 727.214844 227.585938 727.519531 227.75 727.808594 227.941406 C 728.097656 228.132812 728.363281 228.351562 728.609375 228.597656 C 728.855469 228.839844 729.074219 229.105469 729.269531 229.394531 C 729.460938 229.683594 729.625 229.984375 729.757812 230.304688 C 729.890625 230.625 729.992188 230.953125 730.058594 231.292969 C 730.125 231.632812 730.160156 231.976562 730.160156 232.320312 C 730.160156 232.667969 730.125 233.007812 730.058594 233.347656 C 729.992188 233.6875 729.890625 234.015625 729.757812 234.335938 C 729.625 234.65625 729.460938 234.960938 729.269531 235.246094 C 729.074219 235.535156 728.855469 235.800781 728.609375 236.046875 C 728.363281 236.289062 728.097656 236.507812 727.808594 236.699219 C 727.519531 236.894531 727.214844 237.054688 726.894531 237.1875 C 726.574219 237.320312 726.242188 237.417969 725.902344 237.488281 C 725.558594 237.554688 725.214844 237.589844 724.867188 237.589844 L 718.644531 237.589844 C 718.296875 237.589844 717.953125 237.554688 717.609375 237.488281 C 717.269531 237.417969 716.9375 237.320312 716.617188 237.1875 C 716.296875 237.054688 715.992188 236.894531 715.703125 236.699219 C 715.414062 236.507812 715.148438 236.289062 714.902344 236.046875 C 714.65625 235.800781 714.4375 235.535156 714.242188 235.246094 C 714.050781 234.960938 713.886719 234.65625 713.753906 234.335938 C 713.621094 234.015625 713.519531 233.6875 713.453125 233.347656 C 713.386719 233.007812 713.351562 232.667969 713.351562 232.320312 C 713.351562 231.976562 713.386719 231.632812 713.453125 231.292969 C 713.519531 230.953125 713.621094 230.625 713.753906 230.304688 C 713.886719 229.984375 714.050781 229.683594 714.242188 229.394531 C 714.4375 229.105469 714.65625 228.839844 714.902344 228.597656 C 715.148438 228.351562 715.414062 228.132812 715.703125 227.941406 C 715.992188 227.75 716.296875 227.585938 716.617188 227.453125 C 716.9375 227.320312 717.269531 227.222656 717.609375 227.152344 C 717.953125 227.085938 718.296875 227.054688 718.644531 227.054688 Z M 718.644531 227.054688 " fill-opacity="1" fill-rule="nonzero"/><path fill="#000000" d="M 700.457031 217.007812 C 698.054688 210.070312 693.609375 208.027344 693.609375 208.027344 C 693.609375 208.027344 689.117188 210.027344 686.761719 217.007812 C 685.738281 220.03125 688.09375 223.1875 691.296875 223.1875 L 695.921875 223.1875 C 699.121094 223.1875 701.523438 220.03125 700.457031 217.007812 Z M 700.457031 217.007812 " fill-opacity="1" fill-rule="nonzero"/><path fill="#000000" d="M 697.253906 242.257812 L 689.875 242.257812 C 687.25 242.257812 685.160156 244.390625 685.160156 246.96875 C 685.160156 249.589844 687.292969 251.679688 689.875 251.679688 L 697.253906 251.679688 C 699.878906 251.679688 701.96875 249.546875 701.96875 246.96875 C 701.96875 244.34375 699.835938 242.257812 697.253906 242.257812 Z M 697.253906 242.257812 " fill-opacity="1" fill-rule="nonzero"/><path fill="#000000" d="M 690.453125 227.054688 L 696.675781 227.054688 C 697.023438 227.054688 697.367188 227.085938 697.710938 227.152344 C 698.050781 227.222656 698.382812 227.320312 698.703125 227.453125 C 699.023438 227.585938 699.328125 227.75 699.617188 227.941406 C 699.90625 228.132812 700.171875 228.351562 700.417969 228.597656 C 700.664062 228.839844 700.882812 229.105469 701.078125 229.394531 C 701.269531 229.683594 701.433594 229.984375 701.566406 230.304688 C 701.699219 230.625 701.800781 230.953125 701.867188 231.292969 C 701.933594 231.632812 701.96875 231.976562 701.96875 232.320312 C 701.96875 232.667969 701.933594 233.007812 701.867188 233.347656 C 701.800781 233.6875 701.699219 234.015625 701.566406 234.335938 C 701.433594 234.65625 701.269531 234.960938 701.078125 235.246094 C 700.882812 235.535156 700.664062 235.800781 700.417969 236.046875 C 700.171875 236.289062 699.90625 236.507812 699.617188 236.699219 C 699.328125 236.894531 699.023438 237.054688 698.703125 237.1875 C 698.382812 237.320312 698.050781 237.417969 697.710938 237.488281 C 697.367188 237.554688 697.023438 237.589844 696.675781 237.589844 L 690.453125 237.589844 C 690.105469 237.589844 689.761719 237.554688 689.417969 237.488281 C 689.078125 237.417969 688.746094 237.320312 688.425781 237.1875 C 688.105469 237.054688 687.800781 236.894531 687.511719 236.699219 C 687.222656 236.507812 686.957031 236.289062 686.710938 236.046875 C 686.464844 235.800781 686.246094 235.535156 686.050781 235.246094 C 685.859375 234.960938 685.695312 234.65625 685.5625 234.335938 C 685.429688 234.015625 685.328125 233.6875 685.261719 233.347656 C 685.195312 233.007812 685.160156 232.667969 685.160156 232.320312 C 685.160156 231.976562 685.195312 231.632812 685.261719 231.292969 C 685.328125 230.953125 685.429688 230.625 685.5625 230.304688 C 685.695312 229.984375 685.859375 229.683594 686.050781 229.394531 C 686.246094 229.105469 686.464844 228.839844 686.710938 228.597656 C 686.957031 228.351562 687.222656 228.132812 687.511719 227.941406 C 687.800781 227.75 688.105469 227.585938 688.425781 227.453125 C 688.746094 227.320312 689.078125 227.222656 689.417969 227.152344 C 689.761719 227.085938 690.105469 227.054688 690.453125 227.054688 Z M 690.453125 227.054688 " fill-opacity="1" fill-rule="nonzero"/><path fill="#000000" d="M 672.308594 217.007812 C 669.910156 210.070312 665.460938 208.027344 665.460938 208.027344 C 665.460938 208.027344 660.972656 210.027344 658.613281 217.007812 C 657.589844 220.03125 659.949219 223.1875 663.148438 223.1875 L 667.773438 223.1875 C 670.976562 223.1875 673.378906 220.03125 672.308594 217.007812 Z M 672.308594 217.007812 " fill-opacity="1" fill-rule="nonzero"/><path fill="#000000" d="M 669.109375 242.257812 L 661.726562 242.257812 C 659.105469 242.257812 657.011719 244.390625 657.011719 246.96875 C 657.011719 249.589844 659.148438 251.679688 661.726562 251.679688 L 669.109375 251.679688 C 671.730469 251.679688 673.820312 249.546875 673.820312 246.96875 C 673.820312 244.34375 671.6875 242.257812 669.109375 242.257812 Z M 669.109375 242.257812 " fill-opacity="1" fill-rule="nonzero"/><path fill="#000000" d="M 662.304688 227.054688 L 668.53125 227.054688 C 668.878906 227.054688 669.222656 227.085938 669.5625 227.152344 C 669.902344 227.222656 670.234375 227.320312 670.554688 227.453125 C 670.875 227.585938 671.179688 227.75 671.46875 227.941406 C 671.757812 228.132812 672.027344 228.351562 672.273438 228.597656 C 672.515625 228.839844 672.738281 229.105469 672.929688 229.394531 C 673.121094 229.683594 673.285156 229.984375 673.417969 230.304688 C 673.550781 230.625 673.652344 230.953125 673.71875 231.292969 C 673.789062 231.632812 673.820312 231.976562 673.820312 232.320312 C 673.820312 232.667969 673.789062 233.007812 673.71875 233.347656 C 673.652344 233.6875 673.550781 234.015625 673.417969 234.335938 C 673.285156 234.65625 673.121094 234.960938 672.929688 235.246094 C 672.738281 235.535156 672.515625 235.800781 672.273438 236.046875 C 672.027344 236.289062 671.757812 236.507812 671.46875 236.699219 C 671.179688 236.894531 670.875 237.054688 670.554688 237.1875 C 670.234375 237.320312 669.902344 237.417969 669.5625 237.488281 C 669.222656 237.554688 668.878906 237.589844 668.53125 237.589844 L 662.304688 237.589844 C 661.957031 237.589844 661.613281 237.554688 661.273438 237.488281 C 660.933594 237.417969 660.601562 237.320312 660.28125 237.1875 C 659.960938 237.054688 659.652344 236.894531 659.367188 236.699219 C 659.078125 236.507812 658.808594 236.289062 658.5625 236.046875 C 658.316406 235.800781 658.097656 235.535156 657.90625 235.246094 C 657.710938 234.960938 657.550781 234.65625 657.417969 234.335938 C 657.285156 234.015625 657.183594 233.6875 657.117188 233.347656 C 657.046875 233.007812 657.011719 232.667969 657.011719 232.320312 C 657.011719 231.976562 657.046875 231.632812 657.117188 231.292969 C 657.183594 230.953125 657.285156 230.625 657.417969 230.304688 C 657.550781 229.984375 657.710938 229.683594 657.90625 229.394531 C 658.097656 229.105469 658.316406 228.839844 658.5625 228.597656 C 658.808594 228.351562 659.078125 228.132812 659.367188 227.941406 C 659.652344 227.75 659.960938 227.585938 660.28125 227.453125 C 660.601562 227.320312 660.933594 227.222656 661.273438 227.152344 C 661.613281 227.085938 661.957031 227.054688 662.304688 227.054688 Z M 662.304688 227.054688 " fill-opacity="1" fill-rule="nonzero"/><path fill="#000000" d="M 644.164062 217.007812 C 641.761719 210.070312 637.316406 208.027344 637.316406 208.027344 C 637.316406 208.027344 632.824219 210.027344 630.46875 217.007812 C 629.445312 220.03125 631.800781 223.1875 635.003906 223.1875 L 639.628906 223.1875 C 642.828125 223.1875 645.230469 220.03125 644.164062 217.007812 Z M 644.164062 217.007812 " fill-opacity="1" fill-rule="nonzero"/><path fill="#000000" d="M 640.960938 242.257812 L 633.582031 242.257812 C 630.957031 242.257812 628.867188 244.390625 628.867188 246.96875 C 628.867188 249.589844 631 251.679688 633.582031 251.679688 L 640.960938 251.679688 C 643.585938 251.679688 645.675781 249.546875 645.675781 246.96875 C 645.675781 244.34375 643.539062 242.257812 640.960938 242.257812 Z M 640.960938 242.257812 " fill-opacity="1" fill-rule="nonzero"/><path fill="#000000" d="M 634.160156 227.054688 L 640.382812 227.054688 C 640.730469 227.054688 641.074219 227.085938 641.414062 227.152344 C 641.757812 227.222656 642.085938 227.320312 642.410156 227.453125 C 642.730469 227.585938 643.035156 227.75 643.324219 227.941406 C 643.613281 228.132812 643.878906 228.351562 644.125 228.597656 C 644.371094 228.839844 644.589844 229.105469 644.78125 229.394531 C 644.976562 229.683594 645.140625 229.984375 645.273438 230.304688 C 645.40625 230.625 645.503906 230.953125 645.574219 231.292969 C 645.640625 231.632812 645.675781 231.976562 645.675781 232.320312 C 645.675781 232.667969 645.640625 233.007812 645.574219 233.347656 C 645.503906 233.6875 645.40625 234.015625 645.273438 234.335938 C 645.140625 234.65625 644.976562 234.960938 644.78125 235.246094 C 644.589844 235.535156 644.371094 235.800781 644.125 236.046875 C 643.878906 236.289062 643.613281 236.507812 643.324219 236.699219 C 643.035156 236.894531 642.730469 237.054688 642.410156 237.1875 C 642.085938 237.320312 641.757812 237.417969 641.414062 237.488281 C 641.074219 237.554688 640.730469 237.589844 640.382812 237.589844 L 634.160156 237.589844 C 633.8125 237.589844 633.464844 237.554688 633.125 237.488281 C 632.785156 237.417969 632.453125 237.320312 632.132812 237.1875 C 631.8125 237.054688 631.507812 236.894531 631.21875 236.699219 C 630.929688 236.507812 630.664062 236.289062 630.417969 236.046875 C 630.171875 235.800781 629.953125 235.535156 629.757812 235.246094 C 629.566406 234.960938 629.402344 234.65625 629.269531 234.335938 C 629.136719 234.015625 629.035156 233.6875 628.96875 233.347656 C 628.902344 233.007812 628.867188 232.667969 628.867188 232.320312 C 628.867188 231.976562 628.902344 231.632812 628.96875 231.292969 C 629.035156 230.953125 629.136719 230.625 629.269531 230.304688 C 629.402344 229.984375 629.566406 229.683594 629.757812 229.394531 C 629.953125 229.105469 630.171875 228.839844 630.417969 228.597656 C 630.664062 228.351562 630.929688 228.132812 631.21875 227.941406 C 631.507812 227.75 631.8125 227.585938 632.132812 227.453125 C 632.453125 227.320312 632.785156 227.222656 633.125 227.152344 C 633.464844 227.085938 633.8125 227.054688 634.160156 227.054688 Z M 634.160156 227.054688 " fill-opacity="1" fill-rule="nonzero"/><path fill="#000000" d="M 750.523438 316.851562 L 900.730469 316.851562 C 900.730469 316.851562 900.730469 208.027344 900.730469 208.027344 C 900.730469 208.027344 883.921875 205.359375 883.921875 227.054688 L 883.921875 259.59375 C 883.921875 259.59375 750.523438 260.082031 750.523438 260.082031 L 617.128906 259.59375 L 617.128906 227.054688 C 617.128906 205.402344 600.320312 208.027344 600.320312 208.027344 L 600.320312 316.851562 Z M 750.523438 316.851562 " fill-opacity="1" fill-rule="nonzero"/></svg>